<svg width="101" height="57" viewBox="0 0 101 57" fill="none" xmlns="http://www.w3.org/2000/svg">
<rect x="0.5" y="0.669922" width="100" height="56" rx="28" fill="#F7A392"/>
<g clip-path="url(#clip0_1_390)">
<path d="M41.968 29.3354H49.384V31.3154C49.384 31.4474 49.417 31.5254 49.483 31.5494C49.549 31.5734 49.624 31.5374 49.708 31.4414L52.156 28.9934C52.252 28.8974 52.3 28.7864 52.3 28.6604C52.3 28.5344 52.252 28.4294 52.156 28.3454L49.708 25.8794C49.624 25.7954 49.549 25.7654 49.483 25.7894C49.417 25.8134 49.384 25.8914 49.384 26.0234V28.0034H41.968C41.836 28.0034 41.725 28.0484 41.635 28.1384C41.545 28.2284 41.5 28.3334 41.5 28.4534V28.8674C41.5 28.9994 41.545 29.1104 41.635 29.2004C41.725 29.2904 41.836 29.3354 41.968 29.3354Z" fill="white"/>
</g>
<defs>
<clipPath id="clip0_1_390">
<rect width="18" height="18" fill="white" transform="matrix(1 0 0 -1 41.5 37.6699)"/>
</clipPath>
</defs>
</svg>
