<svg width="556" height="36" viewBox="0 0 556 36" fill="none" xmlns="http://www.w3.org/2000/svg">
<g clip-path="url(#clip0_1_417)">
<path d="M402.33 15.8596H400.26V14.4946C400.26 14.2646 400.325 14.0946 400.455 13.9846C400.555 13.9046 400.68 13.8646 400.83 13.8646H402.3V11.6146L400.275 11.5996C399.585 11.5996 399.015 11.7596 398.565 12.0796C398.195 12.3396 397.92 12.6996 397.74 13.1596C397.6 13.5296 397.53 13.9296 397.53 14.3596V15.8596H396.24V18.1696H397.53V24.7246H400.26V18.1696H402.09L402.33 15.8596Z" fill="#252525"/>
</g>
<g clip-path="url(#clip1_1_417)">
<path d="M454.13 14.0901C453.66 14.3001 453.14 14.4451 452.57 14.5251C452.85 14.3651 453.093 14.1551 453.298 13.8951C453.503 13.6351 453.655 13.3451 453.755 13.0251C453.245 13.3451 452.675 13.5651 452.045 13.6851C451.805 13.4151 451.513 13.2051 451.168 13.0551C450.823 12.9051 450.46 12.8301 450.08 12.8301C449.59 12.8301 449.14 12.9526 448.73 13.1976C448.32 13.4426 447.995 13.7701 447.755 14.1801C447.515 14.5901 447.395 15.0401 447.395 15.5301C447.395 15.7701 447.415 15.9751 447.455 16.1451C446.355 16.0851 445.32 15.8051 444.35 15.3051C443.4 14.8151 442.585 14.1551 441.905 13.3251C441.665 13.7551 441.545 14.2026 441.545 14.6676C441.545 15.1326 441.653 15.5626 441.868 15.9576C442.083 16.3526 442.375 16.6751 442.745 16.9251C442.305 16.9151 441.9 16.8001 441.53 16.5801V16.6251C441.53 17.2751 441.733 17.8451 442.138 18.3351C442.543 18.8251 443.06 19.1351 443.69 19.2651C443.47 19.3251 443.23 19.3551 442.97 19.3551C442.79 19.3551 442.625 19.3401 442.475 19.3101C442.645 19.8501 442.96 20.2926 443.42 20.6376C443.88 20.9826 444.4 21.1601 444.98 21.1701C444.52 21.5401 444.003 21.8251 443.428 22.0251C442.853 22.2251 442.255 22.3251 441.635 22.3251C441.505 22.3251 441.305 22.3151 441.035 22.2951H440.99C442.24 23.0951 443.62 23.4951 445.13 23.4951C446.32 23.4951 447.415 23.2651 448.415 22.8051C449.335 22.3751 450.135 21.7751 450.815 21.0051C451.445 20.2851 451.935 19.4651 452.285 18.5451C452.615 17.6551 452.78 16.7551 452.78 15.8451V15.4851C453.31 15.1051 453.76 14.6401 454.13 14.0901Z" fill="#252525"/>
</g>
<g clip-path="url(#clip2_1_417)">
<path d="M492.31 24.7402H490.99C490.04 24.7402 489.155 24.5002 488.335 24.0202C487.545 23.5502 486.92 22.9202 486.46 22.1302C485.98 21.3102 485.74 20.4252 485.74 19.4752V12.9202C485.74 12.5602 485.868 12.2502 486.123 11.9902C486.378 11.7302 486.688 11.6002 487.053 11.6002C487.418 11.6002 487.728 11.7302 487.983 11.9902C488.238 12.2502 488.365 12.5602 488.365 12.9202V19.4752C488.365 19.9552 488.483 20.3952 488.718 20.7952C488.953 21.1952 489.273 21.5127 489.678 21.7477C490.083 21.9827 490.52 22.1002 490.99 22.1002H492.31C492.78 22.1002 493.218 21.9977 493.623 21.7927C494.028 21.5877 494.348 21.3102 494.583 20.9602C494.818 20.6102 494.935 20.2277 494.935 19.8127C494.935 19.3977 494.865 19.0052 494.725 18.6352C494.605 18.2952 494.443 18.0227 494.238 17.8177C494.033 17.6127 493.825 17.5102 493.615 17.5102H490.99C490.63 17.5102 490.323 17.3827 490.068 17.1277C489.813 16.8727 489.685 16.5627 489.685 16.1977C489.685 15.8327 489.813 15.5227 490.068 15.2677C490.323 15.0127 490.63 14.8852 490.99 14.8852H493.615C494.325 14.8852 494.99 15.1102 495.61 15.5602C496.2 15.9902 496.67 16.5802 497.02 17.3302C497.38 18.0902 497.56 18.9152 497.56 19.8052C497.56 20.6952 497.32 21.5252 496.84 22.2952C496.38 23.0352 495.755 23.6252 494.965 24.0652C494.145 24.5152 493.26 24.7402 492.31 24.7402Z" fill="#252525"/>
</g>
<g clip-path="url(#clip3_1_417)">
<path d="M542.73 14.8702C542.15 13.8602 541.357 13.0652 540.352 12.4852C539.347 11.9052 538.247 11.6152 537.052 11.6152C535.857 11.6152 534.76 11.9052 533.76 12.4852C532.74 13.0752 531.94 13.8727 531.36 14.8777C530.78 15.8827 530.49 16.9827 530.49 18.1777C530.49 19.3727 530.782 20.4702 531.367 21.4702C531.952 22.4702 532.745 23.2652 533.745 23.8552C534.775 24.4452 535.88 24.7402 537.06 24.7402C538.24 24.7402 539.335 24.4452 540.345 23.8552C541.355 23.2652 542.15 22.4702 542.73 21.4702C543.31 20.4702 543.6 19.3727 543.6 18.1777C543.6 16.9827 543.31 15.8802 542.73 14.8702ZM537.045 12.6952C538.355 12.6952 539.52 13.1152 540.54 13.9552C539.93 14.7352 539.035 15.3702 537.855 15.8602C537.205 14.7002 536.49 13.7052 535.71 12.8752C536.16 12.7552 536.605 12.6952 537.045 12.6952ZM532.785 14.7652C533.265 14.1552 533.86 13.6652 534.57 13.2952C535.37 14.0952 536.1 15.0802 536.76 16.2502C535.46 16.6502 534.075 16.8502 532.605 16.8502C532.295 16.8502 532.01 16.8402 531.75 16.8202C531.95 16.0602 532.295 15.3752 532.785 14.7652ZM531.57 18.1702C531.57 18.1202 531.575 18.0752 531.585 18.0352V17.9002C531.695 17.9102 531.95 17.9152 532.35 17.9152C534.1 17.9152 535.725 17.6752 537.225 17.1952C537.305 17.3552 537.425 17.6102 537.585 17.9602L537.615 18.0202C536.745 18.2202 535.855 18.6927 534.945 19.4377C534.035 20.1827 533.37 20.9652 532.95 21.7852C532.03 20.7252 531.57 19.5202 531.57 18.1702ZM537.045 23.6452C535.815 23.6452 534.7 23.2602 533.7 22.4902C534.09 21.7202 534.7 20.9752 535.53 20.2552C536.36 19.5352 537.17 19.0952 537.96 18.9352C538.46 20.3452 538.8 21.7902 538.98 23.2702C538.35 23.5202 537.705 23.6452 537.045 23.6452ZM541.695 21.0502C541.245 21.7602 540.68 22.3302 540 22.7602C539.86 21.4802 539.56 20.1502 539.1 18.7702C539.63 18.7302 540.175 18.7102 540.735 18.7102C541.335 18.7102 541.915 18.7302 542.475 18.7702C542.405 19.5602 542.145 20.3202 541.695 21.0502ZM540.885 17.7652C540.125 17.7652 539.42 17.7952 538.77 17.8552C538.62 17.4752 538.47 17.1202 538.32 16.7902C539.69 16.1802 540.65 15.4602 541.2 14.6302C542 15.5702 542.43 16.6302 542.49 17.8102C541.97 17.7802 541.435 17.7652 540.885 17.7652Z" fill="#252525"/>
</g>
<defs>
<clipPath id="clip0_1_417">
<rect width="15.02" height="15" fill="white" transform="matrix(1 0 0 -1 396.23 25.6699)"/>
</clipPath>
<clipPath id="clip1_1_417">
<rect width="15.02" height="15" fill="white" transform="matrix(1 0 0 -1 440.98 25.6699)"/>
</clipPath>
<clipPath id="clip2_1_417">
<rect width="15.02" height="15" fill="white" transform="matrix(1 0 0 -1 485.73 25.6699)"/>
</clipPath>
<clipPath id="clip3_1_417">
<rect width="15.02" height="15" fill="white" transform="matrix(1 0 0 -1 530.48 25.6699)"/>
</clipPath>
</defs>
</svg>
