<svg width="56" height="67" viewBox="0 0 56 67" fill="none" xmlns="http://www.w3.org/2000/svg">
<g clip-path="url(#clip0_1_127)">
<path d="M26.5773 0.654541C26.5773 0.69751 26.5665 0.729736 26.545 0.751221C26.5236 0.772705 26.4699 0.804932 26.3839 0.8479C26.3409 0.8479 26.2765 0.880127 26.1906 0.94458C26.1046 1.00903 26.0187 1.08423 25.9327 1.17017C25.8038 1.34204 25.7072 1.51392 25.6427 1.68579C25.5783 1.85767 25.5031 2.11548 25.4171 2.45923C25.4171 2.5022 25.4064 2.56665 25.3849 2.65259C25.3634 2.73853 25.3312 2.80298 25.2882 2.84595C25.2882 2.88892 25.2775 2.93188 25.256 2.97485C25.2345 3.01782 25.2238 3.06079 25.2238 3.10376C25.2238 3.14673 25.213 3.20044 25.1915 3.26489C25.17 3.32935 25.1593 3.36157 25.1593 3.36157C25.1163 3.40454 25.0841 3.45825 25.0626 3.52271C25.0411 3.58716 25.0304 3.64087 25.0304 3.68384C25.0304 3.72681 25.0304 3.76978 25.0304 3.81274C25.0304 3.85571 25.0089 3.8772 24.9659 3.8772C24.923 3.92017 24.9015 3.96313 24.9015 4.0061C24.9015 4.04907 24.9015 4.09204 24.9015 4.13501C24.9015 4.17798 24.8908 4.22095 24.8693 4.26392C24.8478 4.30688 24.8156 4.32837 24.7726 4.32837C24.7726 4.37134 24.7618 4.40356 24.7404 4.42505C24.7189 4.44653 24.7081 4.47876 24.7081 4.52173C24.7081 4.5647 24.6974 4.59692 24.6759 4.61841C24.6544 4.63989 24.6222 4.67212 24.5792 4.71509C24.5792 4.71509 24.5685 4.73657 24.547 4.77954C24.5255 4.82251 24.5148 4.86548 24.5148 4.90845C24.5148 4.95142 24.504 4.98364 24.4825 5.00513C24.4611 5.02661 24.4503 5.03735 24.4503 5.03735C24.4503 5.03735 24.4288 5.06958 24.3859 5.13403C24.3429 5.19849 24.2999 5.27368 24.257 5.35962C24.214 5.40259 24.1603 5.48853 24.0958 5.61743C24.0314 5.74634 23.9562 5.85376 23.8702 5.9397C23.7843 6.02563 23.7199 6.11157 23.6769 6.19751C23.6339 6.28345 23.6124 6.32642 23.6124 6.32642C23.6124 6.32642 23.5802 6.36938 23.5158 6.45532C23.4513 6.54126 23.3761 6.6272 23.2902 6.71313C23.2472 6.84204 23.1935 6.93872 23.129 7.00317C23.0646 7.06763 23.0324 7.12134 23.0324 7.16431C23.0324 7.16431 23.0109 7.19653 22.9679 7.26099C22.9249 7.32544 22.8605 7.42212 22.7745 7.55103C22.6886 7.63696 22.6134 7.7229 22.549 7.80884C22.4845 7.89478 22.4523 7.93774 22.4523 7.93774C22.4093 8.02368 22.3556 8.12036 22.2911 8.22778C22.2267 8.33521 22.13 8.49634 22.0011 8.71118C21.9152 8.79712 21.8507 8.88306 21.8077 8.96899C21.7648 9.05493 21.7433 9.11938 21.7433 9.16235C21.7433 9.16235 21.7325 9.18384 21.7111 9.22681C21.6896 9.26978 21.6788 9.29126 21.6788 9.29126C21.6359 9.33423 21.6036 9.3772 21.5822 9.42017C21.5607 9.46313 21.5499 9.48462 21.5499 9.48462C21.5499 9.52759 21.5392 9.57056 21.5177 9.61353C21.4962 9.65649 21.4855 9.67798 21.4855 9.67798C21.4425 9.72095 21.4103 9.75317 21.3888 9.77466C21.3673 9.79614 21.3566 9.82837 21.3566 9.87134C21.3566 9.91431 21.3458 9.94653 21.3243 9.96802C21.3029 9.9895 21.2921 10.0217 21.2921 10.0647C21.2492 10.0647 21.2169 10.0862 21.1954 10.1292C21.174 10.1721 21.1632 10.2151 21.1632 10.2581C21.1632 10.301 21.1632 10.344 21.1632 10.387C21.1632 10.4299 21.1417 10.4729 21.0988 10.5159C21.0558 10.5588 21.0343 10.6018 21.0343 10.6448C21.0343 10.6877 21.0343 10.7307 21.0343 10.7737C21.0343 10.8167 21.0236 10.8596 21.0021 10.9026C20.9806 10.9456 20.9484 10.9885 20.9054 11.0315C20.9054 11.0315 20.8947 11.0745 20.8732 11.1604C20.8517 11.2463 20.8409 11.3108 20.8409 11.3538C20.8409 11.3967 20.8302 11.4504 20.8087 11.5149C20.7872 11.5793 20.755 11.6331 20.712 11.676C20.712 11.719 20.7013 11.7834 20.6798 11.8694C20.6583 11.9553 20.6476 12.0198 20.6476 12.0627C20.6476 12.1487 20.6368 12.2668 20.6154 12.4172C20.5939 12.5676 20.5617 12.7073 20.5187 12.8362C20.4757 13.137 20.4542 13.4377 20.4542 13.7385C20.4542 14.0393 20.4757 14.3401 20.5187 14.6409C20.5617 14.7698 20.5939 14.8987 20.6154 15.0276C20.6368 15.1565 20.6476 15.2639 20.6476 15.3499C20.6476 15.4358 20.6583 15.511 20.6798 15.5754C20.7013 15.6399 20.712 15.7151 20.712 15.801C20.755 15.844 20.7872 15.8977 20.8087 15.9622C20.8302 16.0266 20.8409 16.0803 20.8409 16.1233C20.8409 16.1663 20.8517 16.22 20.8732 16.2844C20.8947 16.3489 20.9054 16.4026 20.9054 16.4456C20.9484 16.4456 20.9806 16.467 21.0021 16.51C21.0236 16.553 21.0343 16.5959 21.0343 16.6389C21.0343 16.6819 21.0988 16.843 21.2277 17.1223C21.3566 17.4016 21.4855 17.6487 21.6144 17.8635C21.7003 17.9924 21.9474 18.261 22.3556 18.6692C22.7638 19.0774 22.9894 19.2815 23.0324 19.2815C23.0753 19.2815 23.1183 19.2922 23.1613 19.3137C23.2042 19.3352 23.2472 19.3674 23.2902 19.4104C23.3331 19.4534 23.3976 19.4963 23.4835 19.5393C23.5695 19.5823 23.6339 19.6038 23.6769 19.6038C23.7199 19.6467 23.7628 19.679 23.8058 19.7004C23.8488 19.7219 23.8702 19.7327 23.8702 19.7327C24.0421 19.8186 24.1818 19.8831 24.2892 19.926C24.3966 19.969 24.4718 19.9905 24.5148 19.9905C24.5148 19.9905 24.5363 20.0012 24.5792 20.0227C24.6222 20.0442 24.6652 20.0764 24.7081 20.1194C24.7511 20.1194 24.8048 20.1301 24.8693 20.1516C24.9337 20.1731 24.9874 20.1838 25.0304 20.1838C25.0734 20.1838 25.1271 20.1946 25.1915 20.2161C25.256 20.2375 25.3097 20.2698 25.3527 20.3127C25.3956 20.3127 25.4601 20.3235 25.546 20.345C25.632 20.3665 25.7179 20.3772 25.8038 20.3772C25.8468 20.3772 25.9113 20.3879 25.9972 20.4094C26.0831 20.4309 26.1476 20.4417 26.1906 20.4417C26.2335 20.4417 26.2872 20.4524 26.3517 20.4739C26.4161 20.4954 26.4913 20.5061 26.5773 20.5061L26.7062 20.5706V21.344C26.7062 21.5588 26.7062 21.7415 26.7062 21.8918C26.7062 22.0422 26.6847 22.1174 26.6417 22.1174C26.5988 22.1604 26.3302 22.1926 25.8361 22.2141C25.3419 22.2356 24.4288 22.2463 23.0968 22.2463C21.1632 22.2463 20.0245 22.2571 19.6808 22.2786C19.337 22.3 18.9074 22.4397 18.3917 22.6975C18.2199 22.7834 18.0158 22.9124 17.7794 23.0842C17.5431 23.2561 17.3605 23.4065 17.2316 23.5354C17.1027 23.6643 16.963 23.8362 16.8126 24.051C16.6622 24.2659 16.587 24.3948 16.587 24.4377C16.587 24.4377 16.5763 24.4485 16.5548 24.47C16.5333 24.4915 16.5011 24.5237 16.4581 24.5667C16.4581 24.5667 16.4474 24.5881 16.4259 24.6311C16.4044 24.6741 16.3937 24.717 16.3937 24.76C16.3937 24.76 16.3829 24.7815 16.3615 24.8245C16.34 24.8674 16.3292 24.9104 16.3292 24.9534C16.2863 24.9534 16.254 24.9749 16.2326 25.0178C16.2111 25.0608 16.2003 25.1038 16.2003 25.1467C16.2003 25.1897 16.1896 25.2434 16.1681 25.3079C16.1466 25.3723 16.1359 25.426 16.1359 25.469C16.0499 25.5549 16.007 26.0491 16.007 26.9514C16.007 27.8538 16.007 30.3889 16.007 34.5569C15.964 38.7249 15.9425 41.26 15.9425 42.1624C15.9425 43.0647 15.921 43.5374 15.8781 43.5803C15.8351 43.6233 15.3302 43.6448 14.3634 43.6448C13.3966 43.6448 11.5382 43.6448 8.78821 43.6448C6.08118 43.6448 4.22278 43.6555 3.21302 43.677C2.20325 43.6985 1.6554 43.7307 1.56946 43.7737C1.44056 43.8167 1.26868 43.9348 1.05384 44.1282C0.838996 44.3215 0.731574 44.4612 0.731574 44.5471C0.731574 44.5471 0.720832 44.5686 0.699347 44.6116C0.677863 44.6545 0.667121 44.676 0.667121 44.676C0.581183 44.762 0.570441 45.3206 0.634894 46.3518C0.699347 47.3831 0.774543 47.9631 0.86048 48.092C0.86048 48.135 0.871222 48.1887 0.892707 48.2532C0.914191 48.3176 0.924933 48.3928 0.924933 48.4788C0.924933 48.5647 0.924933 48.6399 0.924933 48.7043C0.924933 48.7688 0.946418 48.801 0.989386 48.801C0.989386 48.844 1.00013 48.8977 1.02161 48.9622C1.0431 49.0266 1.07532 49.0803 1.11829 49.1233C1.11829 49.2952 1.15052 49.4563 1.21497 49.6067C1.27943 49.7571 1.33314 49.8967 1.37611 50.0256C1.41907 50.0686 1.44056 50.1223 1.44056 50.1868C1.44056 50.2512 1.44056 50.2834 1.44056 50.2834C1.44056 50.3264 1.4513 50.3694 1.47278 50.4124C1.49427 50.4553 1.5265 50.4768 1.56946 50.4768C1.56946 50.5198 1.58021 50.552 1.60169 50.5735C1.62318 50.595 1.63392 50.6057 1.63392 50.6057C1.63392 50.6487 1.70911 50.8206 1.8595 51.1213C2.00989 51.4221 2.12806 51.637 2.214 51.7659C2.25696 51.8088 2.28919 51.8518 2.31068 51.8948C2.33216 51.9377 2.3429 51.9807 2.3429 52.0237C2.38587 52.0667 2.4181 52.1096 2.43958 52.1526C2.46107 52.1956 2.51478 52.26 2.60071 52.3459C2.64368 52.3889 2.67591 52.4426 2.69739 52.5071C2.71888 52.5715 2.75111 52.6252 2.79407 52.6682C2.79407 52.7112 2.93372 52.8938 3.21302 53.2161C3.49232 53.5383 3.7179 53.8069 3.88978 54.0217C4.23353 54.3655 4.72767 54.7844 5.3722 55.2786C6.01673 55.7727 6.53236 56.1272 6.91907 56.342C6.96204 56.342 7.00501 56.3635 7.04798 56.4065C7.09095 56.4495 7.13392 56.4924 7.17689 56.5354C7.26282 56.5354 7.32728 56.5569 7.37025 56.5999C7.41321 56.6428 7.4347 56.6643 7.4347 56.6643C7.47767 56.6643 7.50989 56.675 7.53138 56.6965C7.55286 56.718 7.58509 56.7288 7.62806 56.7288C7.62806 56.7288 7.66028 56.7502 7.72474 56.7932C7.78919 56.8362 7.8429 56.8577 7.88587 56.8577C7.92884 56.9006 7.98255 56.9436 8.047 56.9866C8.11146 57.0295 8.14368 57.051 8.14368 57.051C8.27259 57.094 8.4015 57.1477 8.5304 57.2122C8.65931 57.2766 8.74525 57.3088 8.78821 57.3088C8.78821 57.3518 8.8097 57.3733 8.85267 57.3733C8.89564 57.3733 8.93861 57.3948 8.98157 57.4377C9.06751 57.4377 9.17493 57.47 9.30384 57.5344C9.43275 57.5989 9.54017 57.6526 9.62611 57.6956C9.71204 57.7385 9.7765 57.7708 9.81946 57.7922C9.86243 57.8137 9.9054 57.8245 9.94837 57.8245C9.99134 57.8245 10.0236 57.8352 10.0451 57.8567C10.0665 57.8782 10.0988 57.8889 10.1417 57.8889C10.1417 57.9319 10.1632 57.9641 10.2062 57.9856C10.2492 58.0071 10.2921 58.0178 10.3351 58.0178C10.3781 58.0178 10.421 58.0178 10.464 58.0178C10.507 58.0178 10.5499 58.0393 10.5929 58.0823C10.6359 58.1252 10.6788 58.1467 10.7218 58.1467C10.7648 58.1467 10.8077 58.1467 10.8507 58.1467C10.8937 58.1467 10.9474 58.1575 11.0118 58.179C11.0763 58.2004 11.13 58.2327 11.173 58.2756C11.173 58.2756 11.2052 58.2864 11.2697 58.3079C11.3341 58.3293 11.3878 58.3401 11.4308 58.3401C11.4738 58.3401 11.5167 58.3508 11.5597 58.3723C11.6027 58.3938 11.6456 58.426 11.6886 58.469C11.7316 58.469 11.7853 58.4797 11.8497 58.5012C11.9142 58.5227 11.9679 58.5334 12.0109 58.5334C12.0538 58.5334 12.1076 58.5442 12.172 58.5657C12.2365 58.5872 12.2902 58.6194 12.3331 58.6624C12.3331 58.6624 12.3654 58.6731 12.4298 58.6946C12.4943 58.7161 12.548 58.7268 12.5909 58.7268C12.6339 58.7268 12.6876 58.7375 12.7521 58.759C12.8165 58.7805 12.8702 58.7913 12.9132 58.7913C12.9562 58.8342 13.0099 58.8665 13.0743 58.8879C13.1388 58.9094 13.214 58.9202 13.2999 58.9202C13.3429 58.9202 13.4288 58.9309 13.5577 58.9524C13.6867 58.9739 13.7726 59.0061 13.8156 59.0491L14.1378 59.1135L14.2023 61.4983C14.2023 62.5295 14.213 63.2063 14.2345 63.5286C14.256 63.8508 14.2882 64.0549 14.3312 64.1409C14.3742 64.2698 14.5031 64.4417 14.7179 64.6565C14.9327 64.8713 15.0831 64.9788 15.1691 64.9788C15.212 64.9788 15.255 64.9895 15.298 65.011C15.3409 65.0325 15.3624 65.0647 15.3624 65.1077C15.4054 65.1077 15.4591 65.1184 15.5236 65.1399C15.588 65.1614 15.6417 65.1721 15.6847 65.1721C15.7277 65.1721 15.7706 65.1829 15.8136 65.2043C15.8566 65.2258 15.8995 65.2366 15.9425 65.2366C15.9855 65.2795 16.0392 65.3118 16.1036 65.3333C16.1681 65.3547 16.2218 65.3655 16.2648 65.3655C16.3077 65.3655 16.3615 65.3762 16.4259 65.3977C16.4904 65.4192 16.5441 65.4299 16.587 65.4299C16.587 65.4729 16.63 65.5051 16.7159 65.5266C16.8019 65.5481 16.8663 65.5588 16.9093 65.5588C16.9952 65.5588 17.0704 65.5696 17.1349 65.5911C17.1993 65.6125 17.2531 65.6233 17.296 65.6233C17.339 65.6663 17.4034 65.6985 17.4894 65.72C17.5753 65.7415 17.6398 65.7522 17.6827 65.7522C17.7687 65.7522 17.8546 65.7629 17.9406 65.7844C18.0265 65.8059 18.0909 65.8167 18.1339 65.8167C18.2199 65.8596 18.3058 65.8918 18.3917 65.9133C18.4777 65.9348 18.5636 65.9456 18.6495 65.9456C18.7355 65.9456 18.8322 65.9456 18.9396 65.9456C19.047 65.9456 19.1437 65.967 19.2296 66.01C19.3156 66.01 19.4337 66.0315 19.5841 66.0745C19.7345 66.1174 19.8742 66.1389 20.0031 66.1389C20.132 66.1389 20.2609 66.1497 20.3898 66.1711C20.5187 66.1926 20.6046 66.2034 20.6476 66.2034C20.6906 66.2463 20.7658 66.2678 20.8732 66.2678C20.9806 66.2678 21.1202 66.2678 21.2921 66.2678C21.421 66.2678 21.5607 66.2786 21.7111 66.3C21.8615 66.3215 21.9796 66.3323 22.0656 66.3323C22.7101 66.4612 24.7511 66.5256 28.1886 66.5256C31.6261 66.5256 33.6671 66.4612 34.3117 66.3323C34.3976 66.3323 34.5158 66.3215 34.6661 66.3C34.8165 66.2786 34.9777 66.2678 35.1495 66.2678C35.2785 66.2678 35.4074 66.2678 35.5363 66.2678C35.6652 66.2678 35.7296 66.2463 35.7296 66.2034C35.7726 66.2034 35.8585 66.1926 35.9874 66.1711C36.1163 66.1497 36.2452 66.1389 36.3742 66.1389C36.5031 66.1389 36.6427 66.1174 36.7931 66.0745C36.9435 66.0315 37.0617 66.01 37.1476 66.01C37.2335 65.967 37.3302 65.9456 37.4376 65.9456C37.5451 65.9456 37.6417 65.9456 37.7277 65.9456C37.8136 65.9456 37.8995 65.9348 37.9855 65.9133C38.0714 65.8918 38.1574 65.8596 38.2433 65.8167C38.2863 65.8167 38.3507 65.8059 38.4367 65.7844C38.5226 65.7629 38.6085 65.7522 38.6945 65.7522C38.7374 65.7522 38.8019 65.7415 38.8878 65.72C38.9738 65.6985 39.0382 65.6663 39.0812 65.6233C39.1242 65.6233 39.1779 65.6125 39.2423 65.5911C39.3068 65.5696 39.382 65.5588 39.4679 65.5588C39.5538 65.5588 39.629 65.5481 39.6935 65.5266C39.7579 65.5051 39.8117 65.4729 39.8546 65.4299C39.8546 65.4299 39.8868 65.4192 39.9513 65.3977C40.0158 65.3762 40.0695 65.3655 40.1124 65.3655C40.1984 65.3655 40.2628 65.3547 40.3058 65.3333C40.3488 65.3118 40.3917 65.2795 40.4347 65.2366C40.4777 65.2366 40.5314 65.2258 40.5958 65.2043C40.6603 65.1829 40.714 65.1721 40.757 65.1721C40.7999 65.1721 40.8429 65.1614 40.8859 65.1399C40.9288 65.1184 40.9718 65.1077 41.0148 65.1077C41.0577 65.0647 41.1007 65.0325 41.1437 65.011C41.1867 64.9895 41.2081 64.9788 41.2081 64.9788C41.2941 64.9788 41.4445 64.8713 41.6593 64.6565C41.8742 64.4417 42.0031 64.2698 42.046 64.1409C42.089 64.0549 42.1212 63.8508 42.1427 63.5286C42.1642 63.2063 42.1749 62.5295 42.1749 61.4983L42.2394 59.1135L42.5617 59.0491C42.6476 59.0061 42.7443 58.9739 42.8517 58.9524C42.9591 58.9309 43.0343 58.9202 43.0773 58.9202C43.1632 58.9202 43.2384 58.9094 43.3029 58.8879C43.3673 58.8665 43.421 58.8342 43.464 58.7913C43.507 58.7913 43.5607 58.7805 43.6251 58.759C43.6896 58.7375 43.7433 58.7268 43.7863 58.7268C43.8292 58.7268 43.8829 58.7161 43.9474 58.6946C44.0118 58.6731 44.0656 58.6624 44.1085 58.6624C44.1085 58.6194 44.1408 58.5872 44.2052 58.5657C44.2697 58.5442 44.3234 58.5334 44.3663 58.5334C44.4523 58.5334 44.5167 58.5227 44.5597 58.5012C44.6027 58.4797 44.6456 58.469 44.6886 58.469C44.7316 58.426 44.7745 58.3938 44.8175 58.3723C44.8605 58.3508 44.9035 58.3401 44.9464 58.3401C44.9894 58.3401 45.0431 58.3293 45.1076 58.3079C45.172 58.2864 45.2257 58.2756 45.2687 58.2756C45.2687 58.2327 45.3009 58.2004 45.3654 58.179C45.4298 58.1575 45.4835 58.1467 45.5265 58.1467C45.5695 58.1467 45.6124 58.1467 45.6554 58.1467C45.6984 58.1467 45.7413 58.1252 45.7843 58.0823C45.8273 58.0393 45.8702 58.0178 45.9132 58.0178C45.9562 58.0178 45.9992 58.0178 46.0421 58.0178C46.0851 58.0178 46.1281 58.0071 46.171 57.9856C46.214 57.9641 46.2355 57.9319 46.2355 57.8889C46.2785 57.8889 46.3214 57.8782 46.3644 57.8567C46.4074 57.8352 46.4288 57.8245 46.4288 57.8245C46.4718 57.8245 46.5255 57.8137 46.59 57.7922C46.6544 57.7708 46.7081 57.7385 46.7511 57.6956C46.7941 57.6956 46.8585 57.6741 46.9445 57.6311C47.0304 57.5881 47.0949 57.5452 47.1378 57.5022C47.2238 57.5022 47.299 57.4807 47.3634 57.4377C47.4279 57.3948 47.4601 57.3733 47.4601 57.3733C47.5031 57.3733 47.546 57.3625 47.589 57.3411C47.632 57.3196 47.6535 57.2874 47.6535 57.2444C47.6964 57.2444 47.7394 57.2336 47.7824 57.2122C47.8253 57.1907 47.8898 57.1799 47.9757 57.1799C48.0187 57.137 48.0617 57.1047 48.1046 57.0833C48.1476 57.0618 48.1906 57.051 48.2335 57.051C48.2335 57.051 48.2658 57.0295 48.3302 56.9866C48.3947 56.9436 48.4484 56.9006 48.4913 56.8577C48.5343 56.8577 48.588 56.8362 48.6525 56.7932C48.7169 56.7502 48.7492 56.7288 48.7492 56.7288C48.7921 56.7288 48.8243 56.718 48.8458 56.6965C48.8673 56.675 48.8995 56.6643 48.9425 56.6643C48.9425 56.6643 48.9747 56.6428 49.0392 56.5999C49.1036 56.5569 49.1574 56.5354 49.2003 56.5354C49.2433 56.4924 49.297 56.4495 49.3615 56.4065C49.4259 56.3635 49.4581 56.342 49.4581 56.342C49.8449 56.1272 50.3605 55.7727 51.005 55.2786C51.6495 54.7844 52.1437 54.3655 52.4874 54.0217C52.6593 53.8069 52.8849 53.5383 53.1642 53.2161C53.4435 52.8938 53.6046 52.7112 53.6476 52.6682C53.6476 52.6252 53.6691 52.5715 53.712 52.5071C53.755 52.4426 53.798 52.3889 53.841 52.3459C53.8839 52.26 53.9269 52.1956 53.9699 52.1526C54.0128 52.1096 54.0343 52.0667 54.0343 52.0237C54.0343 51.9807 54.0558 51.9377 54.0988 51.8948C54.1417 51.8518 54.1632 51.8088 54.1632 51.7659C54.2492 51.637 54.3673 51.4221 54.5177 51.1213C54.6681 50.8206 54.7433 50.6487 54.7433 50.6057C54.7433 50.6057 54.754 50.595 54.7755 50.5735C54.797 50.552 54.8077 50.5198 54.8077 50.4768C54.8507 50.4768 54.8829 50.4553 54.9044 50.4124C54.9259 50.3694 54.9367 50.3264 54.9367 50.2834C54.9367 50.2834 54.9474 50.2512 54.9689 50.1868C54.9904 50.1223 55.0011 50.0686 55.0011 50.0256C55.087 49.8967 55.1515 49.7571 55.1945 49.6067C55.2374 49.4563 55.2804 49.2952 55.3234 49.1233C55.3234 49.0803 55.3341 49.0266 55.3556 48.9622C55.3771 48.8977 55.3878 48.844 55.3878 48.801C55.4308 48.801 55.4523 48.7688 55.4523 48.7043C55.4523 48.6399 55.4523 48.5647 55.4523 48.4788C55.4523 48.3928 55.463 48.3176 55.4845 48.2532C55.506 48.1887 55.5382 48.135 55.5812 48.092C55.5812 48.0491 55.5919 47.9524 55.6134 47.802C55.6349 47.6516 55.6456 47.4905 55.6456 47.3186C55.6886 47.1038 55.7208 46.9426 55.7423 46.8352C55.7638 46.7278 55.796 46.6741 55.839 46.6741C55.882 46.6311 55.9035 46.5452 55.9035 46.4163C55.9035 46.2874 55.9035 46.0295 55.9035 45.6428C55.9035 45.2131 55.9035 44.9553 55.9035 44.8694C55.9035 44.7834 55.8605 44.719 55.7745 44.676C55.7316 44.676 55.6993 44.6653 55.6779 44.6438C55.6564 44.6223 55.6456 44.5901 55.6456 44.5471C55.6456 44.4612 55.549 44.3215 55.3556 44.1282C55.1622 43.9348 54.9796 43.8167 54.8077 43.7737C54.7218 43.7307 54.174 43.6985 53.1642 43.677C52.1544 43.6555 50.296 43.6448 47.589 43.6448C45.2687 43.6448 43.5285 43.6448 42.3683 43.6448C41.2081 43.6448 40.6066 43.6233 40.5636 43.5803C40.4777 43.5803 40.4347 43.3655 40.4347 42.9358C40.4347 42.5061 40.4347 41.1741 40.4347 38.9397C40.4347 36.8772 40.4347 35.5774 40.4347 35.0403C40.4347 34.5032 40.4562 34.2131 40.4992 34.1702C40.5421 34.1272 40.5851 34.095 40.6281 34.0735C40.671 34.052 40.714 34.0413 40.757 34.0413C40.757 34.0413 40.7999 34.0198 40.8859 33.9768C40.9718 33.9338 41.0363 33.8909 41.0792 33.8479C41.1652 33.8049 41.2511 33.762 41.337 33.719C41.423 33.676 41.4874 33.6545 41.5304 33.6545C41.7452 33.5256 42.0138 33.2893 42.3361 32.9456C42.6583 32.6018 42.8839 32.301 43.0128 32.0432C43.0558 31.9573 43.0988 31.8713 43.1417 31.7854C43.1847 31.6995 43.2062 31.635 43.2062 31.592C43.2492 31.5491 43.2814 31.5061 43.3029 31.4631C43.3243 31.4202 43.3351 31.3772 43.3351 31.3342C43.3351 31.2913 43.3351 31.2375 43.3351 31.1731C43.3351 31.1086 43.3566 31.0549 43.3995 31.012C43.4855 30.8401 43.5285 30.3997 43.5285 29.6907C43.5285 28.9817 43.4855 28.5627 43.3995 28.4338C43.3566 28.3909 43.3351 28.3264 43.3351 28.2405C43.3351 28.1545 43.3351 28.0901 43.3351 28.0471C43.3351 27.9612 43.3243 27.886 43.3029 27.8215C43.2814 27.7571 43.2492 27.7034 43.2062 27.6604C43.2062 27.6174 43.1954 27.5745 43.174 27.5315C43.1525 27.4885 43.1417 27.4456 43.1417 27.4026C43.1417 27.3596 43.131 27.3059 43.1095 27.2415C43.088 27.177 43.0558 27.1233 43.0128 27.0803C43.0128 27.0803 43.0021 27.0481 42.9806 26.9836C42.9591 26.9192 42.9484 26.8655 42.9484 26.8225C42.9484 26.8225 42.9376 26.801 42.9161 26.7581C42.8947 26.7151 42.8624 26.6721 42.8195 26.6292C42.8195 26.6292 42.8087 26.6077 42.7872 26.5647C42.7658 26.5217 42.755 26.4788 42.755 26.4358C42.755 26.4358 42.7443 26.4143 42.7228 26.3713C42.7013 26.3284 42.6906 26.3069 42.6906 26.3069C42.6906 26.3069 42.6798 26.2854 42.6583 26.2424C42.6368 26.1995 42.6046 26.1565 42.5617 26.1135C42.4327 25.7268 42.046 25.2004 41.4015 24.5344C40.757 23.8684 40.1984 23.428 39.7257 23.2131C39.5968 23.1272 39.4894 23.0627 39.4035 23.0198C39.3175 22.9768 39.2316 22.9338 39.1456 22.8909C39.1027 22.8479 39.049 22.8157 38.9845 22.7942C38.9201 22.7727 38.8019 22.7405 38.63 22.6975C38.3722 22.5686 38.1896 22.4934 38.0822 22.4719C37.9747 22.4504 37.8566 22.4182 37.7277 22.3752C37.6417 22.3752 37.5558 22.3645 37.4699 22.343C37.3839 22.3215 37.3195 22.3108 37.2765 22.3108C37.2335 22.2678 36.9005 22.2463 36.2775 22.2463C35.6544 22.2463 34.7199 22.2463 33.4738 22.2463C32.0988 22.2463 31.1427 22.2356 30.6056 22.2141C30.0685 22.1926 29.7784 22.1604 29.7355 22.1174C29.7355 22.1174 29.7247 22.053 29.7033 21.9241C29.6818 21.7952 29.671 21.6018 29.671 21.344V20.5706L29.9933 20.5061C30.0792 20.4631 30.1759 20.4309 30.2833 20.4094C30.3908 20.3879 30.4659 20.3772 30.5089 20.3772C30.5949 20.3772 30.67 20.3665 30.7345 20.345C30.799 20.3235 30.8527 20.3127 30.8956 20.3127C30.9386 20.2698 30.9923 20.2375 31.0568 20.2161C31.1212 20.1946 31.1749 20.1838 31.2179 20.1838C31.2179 20.1838 31.2609 20.1731 31.3468 20.1516C31.4327 20.1301 31.4972 20.1194 31.5402 20.1194C31.6261 20.0764 31.712 20.0334 31.798 19.9905C31.8839 19.9475 31.9484 19.926 31.9913 19.926C32.1202 19.8401 32.2062 19.7864 32.2492 19.7649C32.2921 19.7434 32.421 19.6897 32.6359 19.6038C32.9796 19.4319 33.3126 19.1848 33.6349 18.8625C33.9572 18.5403 34.2472 18.2288 34.505 17.928C34.6339 17.6702 34.7843 17.4016 34.9562 17.1223C35.1281 16.843 35.214 16.6604 35.214 16.5745C35.214 16.5745 35.2247 16.553 35.2462 16.51C35.2677 16.467 35.2785 16.4026 35.2785 16.3167C35.3644 16.1877 35.4288 16.0481 35.4718 15.8977C35.5148 15.7473 35.5363 15.5862 35.5363 15.4143C35.5792 15.3284 35.6115 15.2424 35.6329 15.1565C35.6544 15.0706 35.6652 15.0061 35.6652 14.9631C35.7081 14.9202 35.7404 14.759 35.7618 14.4797C35.7833 14.2004 35.7941 13.6956 35.7941 12.9651C35.7941 12.1917 35.7833 11.676 35.7618 11.4182C35.7404 11.1604 35.7081 10.9885 35.6652 10.9026C35.6222 10.8167 35.6007 10.7307 35.6007 10.6448C35.6007 10.5588 35.6007 10.4944 35.6007 10.4514C35.5577 10.3655 35.5363 10.2903 35.5363 10.2258C35.5363 10.1614 35.5148 10.1077 35.4718 10.0647C35.4718 10.0217 35.4611 9.96802 35.4396 9.90356C35.4181 9.83911 35.4074 9.7854 35.4074 9.74243C35.4074 9.65649 35.3966 9.59204 35.3751 9.54907C35.3536 9.5061 35.3214 9.46313 35.2785 9.42017C35.2785 9.3772 35.2677 9.33423 35.2462 9.29126C35.2247 9.24829 35.214 9.20532 35.214 9.16235C35.214 9.11938 35.2033 9.07642 35.1818 9.03345C35.1603 8.99048 35.1281 8.94751 35.0851 8.90454C35.0851 8.86157 35.0743 8.8186 35.0529 8.77563C35.0314 8.73267 35.0206 8.6897 35.0206 8.64673C35.0206 8.60376 35.0099 8.57153 34.9884 8.55005C34.9669 8.52856 34.9347 8.49634 34.8917 8.45337C34.8917 8.45337 34.881 8.43188 34.8595 8.38892C34.838 8.34595 34.8273 8.30298 34.8273 8.26001C34.8273 8.21704 34.8165 8.17407 34.7951 8.1311C34.7736 8.08813 34.7628 8.04517 34.7628 8.0022C34.7199 8.0022 34.6876 7.98071 34.6661 7.93774C34.6447 7.89478 34.6339 7.85181 34.6339 7.80884C34.6339 7.80884 34.6232 7.78735 34.6017 7.74438C34.5802 7.70142 34.5695 7.67993 34.5695 7.67993C34.5265 7.63696 34.4943 7.59399 34.4728 7.55103C34.4513 7.50806 34.4406 7.48657 34.4406 7.48657C34.4406 7.4436 34.4406 7.41138 34.4406 7.38989C34.4406 7.36841 34.4191 7.33618 34.3761 7.29321C34.3761 7.29321 34.3654 7.28247 34.3439 7.26099C34.3224 7.2395 34.2902 7.20728 34.2472 7.16431C34.2472 7.12134 34.2257 7.06763 34.1827 7.00317C34.1398 6.93872 34.1183 6.88501 34.1183 6.84204C34.0753 6.79907 34.0324 6.74536 33.9894 6.68091C33.9464 6.61646 33.9249 6.56274 33.9249 6.51978C33.9249 6.51978 33.8605 6.4231 33.7316 6.22974C33.6027 6.03638 33.4523 5.83228 33.2804 5.61743C32.9796 5.23071 32.6144 4.81177 32.1847 4.3606C31.755 3.90942 31.3253 3.49048 30.8956 3.10376C30.6378 2.88892 30.2726 2.59888 29.7999 2.23364C29.3273 1.86841 29.048 1.66431 28.962 1.62134C28.9191 1.57837 28.8654 1.5354 28.8009 1.49243C28.7365 1.44946 28.6827 1.40649 28.6398 1.36353C28.5109 1.27759 28.3927 1.21313 28.2853 1.17017C28.1779 1.1272 28.1027 1.08423 28.0597 1.04126C28.0167 0.998291 27.9738 0.966064 27.9308 0.94458C27.8878 0.923096 27.8663 0.912354 27.8663 0.912354C27.8663 0.869385 27.8449 0.8479 27.8019 0.8479C27.7589 0.8479 27.7159 0.8479 27.673 0.8479C27.63 0.8479 27.587 0.837158 27.5441 0.815674C27.5011 0.794189 27.4796 0.761963 27.4796 0.718994C27.4796 0.676025 27.4474 0.643799 27.3829 0.622314C27.3185 0.60083 27.2003 0.590088 27.0284 0.590088C26.8566 0.590088 26.7384 0.60083 26.674 0.622314C26.6095 0.643799 26.5773 0.654541 26.5773 0.654541ZM28.1886 4.77954C28.1886 4.77954 28.2208 4.81177 28.2853 4.87622C28.3497 4.94067 28.4464 4.99438 28.5753 5.03735C28.9191 5.33813 29.4347 5.8645 30.1222 6.61646C30.8097 7.36841 31.2179 7.87329 31.3468 8.1311C31.3468 8.17407 31.3683 8.21704 31.4113 8.26001C31.4542 8.30298 31.4972 8.36743 31.5402 8.45337C31.5402 8.49634 31.5617 8.55005 31.6046 8.6145C31.6476 8.67896 31.6691 8.71118 31.6691 8.71118C31.712 8.75415 31.755 8.8186 31.798 8.90454C31.8409 8.99048 31.8839 9.05493 31.9269 9.0979C31.9699 9.18384 32.0021 9.26978 32.0236 9.35571C32.045 9.44165 32.0558 9.48462 32.0558 9.48462C32.0558 9.52759 32.0665 9.57056 32.088 9.61353C32.1095 9.65649 32.1417 9.67798 32.1847 9.67798C32.1847 9.72095 32.1954 9.75317 32.2169 9.77466C32.2384 9.79614 32.2492 9.82837 32.2492 9.87134C32.2492 9.91431 32.2599 9.95728 32.2814 10.0002C32.3029 10.0432 32.3136 10.0862 32.3136 10.1292C32.3566 10.1721 32.3888 10.2151 32.4103 10.2581C32.4318 10.301 32.4425 10.344 32.4425 10.387C32.4425 10.4299 32.4533 10.4836 32.4747 10.5481C32.4962 10.6125 32.507 10.6663 32.507 10.7092C32.5499 10.7522 32.5822 10.8167 32.6036 10.9026C32.6251 10.9885 32.6359 11.053 32.6359 11.0959C32.6359 11.1819 32.6466 11.2678 32.6681 11.3538C32.6896 11.4397 32.7003 11.5042 32.7003 11.5471C32.7433 11.6331 32.7755 11.7727 32.797 11.9661C32.8185 12.1594 32.8292 12.4924 32.8292 12.9651C32.8292 13.4377 32.8185 13.7708 32.797 13.9641C32.7755 14.1575 32.7433 14.2971 32.7003 14.3831C32.7003 14.469 32.6896 14.5442 32.6681 14.6086C32.6466 14.6731 32.6359 14.7483 32.6359 14.8342C32.6359 14.8772 32.6251 14.9309 32.6036 14.9954C32.5822 15.0598 32.5499 15.1135 32.507 15.1565C32.507 15.1565 32.4962 15.1887 32.4747 15.2532C32.4533 15.3176 32.4425 15.3499 32.4425 15.3499C32.4425 15.3928 32.4318 15.4358 32.4103 15.4788C32.3888 15.5217 32.3566 15.5647 32.3136 15.6077C32.3136 15.6077 32.3029 15.6292 32.2814 15.6721C32.2599 15.7151 32.2492 15.7366 32.2492 15.7366C32.2492 15.8655 32.0665 16.1233 31.7013 16.51C31.3361 16.8967 31.089 17.0901 30.9601 17.0901C30.9171 17.0901 30.8849 17.0901 30.8634 17.0901C30.8419 17.0901 30.8097 17.1116 30.7667 17.1545C30.7667 17.1975 30.7452 17.219 30.7023 17.219C30.6593 17.219 30.6163 17.219 30.5734 17.219C30.5304 17.219 30.4874 17.2297 30.4445 17.2512C30.4015 17.2727 30.337 17.3049 30.2511 17.3479C30.2081 17.3479 30.1544 17.3586 30.09 17.3801C30.0255 17.4016 29.9718 17.4124 29.9288 17.4124H29.671V15.6721C29.671 14.9417 29.6603 14.469 29.6388 14.2542C29.6173 14.0393 29.6066 13.9104 29.6066 13.8674C29.5636 13.8245 29.5314 13.7922 29.5099 13.7708C29.4884 13.7493 29.4777 13.7385 29.4777 13.7385C29.4777 13.6526 29.424 13.5559 29.3165 13.4485C29.2091 13.3411 29.0909 13.2444 28.962 13.1584C28.8331 13.0725 28.7257 13.0295 28.6398 13.0295C28.5538 13.0295 28.4034 13.0295 28.1886 13.0295C27.9738 13.0295 27.8234 13.0403 27.7374 13.0618C27.6515 13.0833 27.5441 13.137 27.4152 13.2229C27.3292 13.2659 27.2433 13.3303 27.1574 13.4163C27.0714 13.5022 26.9855 13.5881 26.8995 13.6741L26.7706 13.9319L26.7062 17.4124H26.4484C26.3624 17.4124 26.2765 17.4016 26.1906 17.3801C26.1046 17.3586 26.0402 17.3479 25.9972 17.3479C25.9542 17.3049 25.9005 17.2727 25.8361 17.2512C25.7716 17.2297 25.7179 17.219 25.6749 17.219C25.632 17.219 25.589 17.219 25.546 17.219C25.5031 17.219 25.4601 17.1975 25.4171 17.1545C25.4171 17.1116 25.3956 17.0901 25.3527 17.0901C25.3097 17.0901 25.2667 17.0901 25.2238 17.0901C25.2238 17.0901 25.2023 17.0793 25.1593 17.0579C25.1163 17.0364 25.0734 17.0042 25.0304 16.9612C25.0304 16.9612 25.0197 16.9504 24.9982 16.929C24.9767 16.9075 24.9445 16.8967 24.9015 16.8967C24.7726 16.8967 24.547 16.6926 24.2247 16.2844C23.9025 15.8762 23.7413 15.5862 23.7413 15.4143C23.7413 15.3713 23.7413 15.3176 23.7413 15.2532C23.7413 15.1887 23.7199 15.135 23.6769 15.092C23.6339 14.9631 23.6124 14.5012 23.6124 13.7063C23.6124 12.9114 23.6339 12.4495 23.6769 12.3206C23.7199 12.2776 23.7413 12.2239 23.7413 12.1594C23.7413 12.095 23.7413 12.0413 23.7413 11.9983C23.7413 11.9553 23.7521 11.9124 23.7736 11.8694C23.795 11.8264 23.8273 11.7834 23.8702 11.7405C23.8702 11.6975 23.881 11.6545 23.9025 11.6116C23.924 11.5686 23.9347 11.5471 23.9347 11.5471C23.9347 11.5042 23.9992 11.343 24.1281 11.0637C24.257 10.7844 24.3429 10.6233 24.3859 10.5803C24.3859 10.5803 24.3966 10.5588 24.4181 10.5159C24.4396 10.4729 24.4718 10.4514 24.5148 10.4514C24.5577 10.3225 24.6007 10.2151 24.6437 10.1292C24.6867 10.0432 24.7726 9.93579 24.9015 9.80688C24.9445 9.76392 24.9874 9.71021 25.0304 9.64575C25.0734 9.5813 25.0949 9.52759 25.0949 9.48462C25.0949 9.44165 25.1378 9.36646 25.2238 9.25903C25.3097 9.15161 25.4171 9.01196 25.546 8.84009C25.632 8.71118 25.7179 8.58228 25.8038 8.45337C25.8898 8.32446 25.9327 8.23853 25.9327 8.19556C25.9757 8.15259 26.0187 8.09888 26.0617 8.03442C26.1046 7.96997 26.1476 7.91626 26.1906 7.87329C26.2335 7.83032 26.2658 7.78735 26.2872 7.74438C26.3087 7.70142 26.3195 7.67993 26.3195 7.67993C26.3195 7.67993 26.3409 7.64771 26.3839 7.58325C26.4269 7.5188 26.4699 7.46509 26.5128 7.42212C26.6417 7.29321 26.7277 7.18579 26.7706 7.09985C26.8136 7.01392 26.8566 6.92798 26.8995 6.84204C26.8995 6.79907 26.921 6.74536 26.964 6.68091C27.007 6.61646 27.0499 6.54126 27.0929 6.45532C27.1359 6.41235 27.1788 6.35864 27.2218 6.29419C27.2648 6.22974 27.2863 6.17603 27.2863 6.13306C27.2863 6.13306 27.297 6.11157 27.3185 6.0686C27.34 6.02563 27.3507 6.00415 27.3507 6.00415C27.3937 5.96118 27.4259 5.91821 27.4474 5.87524C27.4689 5.83228 27.4796 5.81079 27.4796 5.81079C27.4796 5.76782 27.4904 5.72485 27.5118 5.68188C27.5333 5.63892 27.5441 5.59595 27.5441 5.55298C27.587 5.55298 27.6193 5.53149 27.6408 5.48853C27.6622 5.44556 27.673 5.40259 27.673 5.35962C27.673 5.35962 27.673 5.33813 27.673 5.29517C27.673 5.2522 27.6945 5.20923 27.7374 5.16626C27.7804 5.12329 27.8019 5.08032 27.8019 5.03735C27.8019 4.99438 27.8019 4.95142 27.8019 4.90845C27.8019 4.86548 27.8126 4.83325 27.8341 4.81177C27.8556 4.79028 27.8663 4.77954 27.8663 4.77954C27.9093 4.73657 27.9738 4.71509 28.0597 4.71509C28.1456 4.71509 28.1886 4.73657 28.1886 4.77954ZM36.7609 25.2756C36.8038 25.2756 36.8683 25.2864 36.9542 25.3079C37.0402 25.3293 37.1046 25.3401 37.1476 25.3401C37.1906 25.3401 37.2443 25.3508 37.3087 25.3723C37.3732 25.3938 37.4269 25.426 37.4699 25.469C37.5128 25.469 37.5773 25.4905 37.6632 25.5334C37.7492 25.5764 37.8351 25.6194 37.921 25.6624C38.2218 25.7913 38.4259 25.8987 38.5333 25.9846C38.6408 26.0706 38.8449 26.2639 39.1456 26.5647C39.3605 26.8225 39.5216 27.0159 39.629 27.1448C39.7365 27.2737 39.8331 27.4456 39.9191 27.6604C40.005 27.7893 40.0802 27.9182 40.1447 28.0471C40.2091 28.176 40.2628 28.262 40.3058 28.3049C40.3058 28.3479 40.3165 28.4016 40.338 28.4661C40.3595 28.5305 40.3702 28.5842 40.3702 28.6272C40.3702 28.6702 40.381 28.7454 40.4025 28.8528C40.424 28.9602 40.4347 29.0569 40.4347 29.1428C40.5206 29.3577 40.5529 29.594 40.5314 29.8518C40.5099 30.1096 40.4777 30.3245 40.4347 30.4963C40.3488 30.6252 40.2199 30.7756 40.048 30.9475C39.8761 31.1194 39.7472 31.2053 39.6613 31.2053C39.6183 31.2483 39.5431 31.2805 39.4357 31.302C39.3283 31.3235 39.2531 31.3342 39.2101 31.3342C39.0812 31.3772 38.9738 31.3987 38.8878 31.3987C38.8019 31.3987 38.673 31.3772 38.5011 31.3342C38.2433 31.2483 38.0499 31.1624 37.921 31.0764C37.7921 30.9905 37.6632 30.8186 37.5343 30.5608C37.4054 30.26 37.3087 30.0559 37.2443 29.9485C37.1798 29.8411 37.0831 29.7229 36.9542 29.594C36.8253 29.4221 36.6427 29.2502 36.4064 29.0784C36.1701 28.9065 35.966 28.7776 35.7941 28.6917C35.7941 28.6917 35.7618 28.6809 35.6974 28.6594C35.6329 28.6379 35.5792 28.6057 35.5363 28.5627C35.2785 28.4768 35.0314 28.4124 34.7951 28.3694C34.5587 28.3264 34.2042 28.3049 33.7316 28.3049C33.3449 28.3049 33.0656 28.3157 32.8937 28.3372C32.7218 28.3586 32.5929 28.3694 32.507 28.3694C32.464 28.4124 32.4103 28.4446 32.3458 28.4661C32.2814 28.4875 32.2277 28.4983 32.1847 28.4983C32.0558 28.4983 31.8302 28.595 31.5079 28.7883C31.1857 28.9817 30.9386 29.1858 30.7667 29.4006C30.6378 29.4866 30.5197 29.6155 30.4122 29.7874C30.3048 29.9592 30.2081 30.1096 30.1222 30.2385C30.1222 30.3245 30.1007 30.3997 30.0577 30.4641C30.0148 30.5286 29.9718 30.6038 29.9288 30.6897C29.8859 30.7327 29.8536 30.8938 29.8322 31.1731C29.8107 31.4524 29.7999 31.9573 29.7999 32.6877C29.7999 33.2034 29.7892 33.6653 29.7677 34.0735C29.7462 34.4817 29.714 34.7288 29.671 34.8147C29.6281 35.1584 29.5206 35.4055 29.3488 35.5559C29.1769 35.7063 28.9406 35.8245 28.6398 35.9104C28.4249 35.9963 28.2745 36.0393 28.1886 36.0393C28.1027 36.0393 27.9523 35.9963 27.7374 35.9104C27.6085 35.9104 27.4904 35.8782 27.3829 35.8137C27.2755 35.7493 27.2003 35.6956 27.1574 35.6526C27.0714 35.5667 26.9855 35.4377 26.8995 35.2659C26.8136 35.094 26.7492 34.9221 26.7062 34.7502C26.6632 34.7073 26.6417 34.3313 26.6417 33.6223C26.6417 32.9133 26.6202 32.0862 26.5773 31.1409C26.5773 29.6799 26.5665 28.7346 26.545 28.3049C26.5236 27.8752 26.4913 27.6389 26.4484 27.5959C26.4484 27.553 26.4269 27.51 26.3839 27.467C26.3409 27.4241 26.3195 27.3811 26.3195 27.3381C26.3195 27.3381 26.2765 27.2952 26.1906 27.2092C26.1046 27.1233 26.0187 27.0588 25.9327 27.0159L25.6749 26.8225H21.5499L21.2277 27.0159C21.1417 27.0588 21.0665 27.1233 21.0021 27.2092C20.9376 27.2952 20.8839 27.3381 20.8409 27.3381C20.8409 27.3811 20.8195 27.4241 20.7765 27.467C20.7335 27.51 20.712 27.553 20.712 27.5959C20.6691 27.6389 20.6368 27.7786 20.6154 28.0149C20.5939 28.2512 20.5831 28.4553 20.5831 28.6272C20.6261 28.7991 20.6691 28.9172 20.712 28.9817C20.755 29.0461 20.8195 29.1428 20.9054 29.2717C21.1202 29.4866 21.3243 29.6262 21.5177 29.6907C21.7111 29.7551 22.087 29.7874 22.6456 29.7874H23.6124V32.301C23.6124 33.3752 23.6124 34.0842 23.6124 34.428C23.6124 34.7717 23.6339 35.0081 23.6769 35.137C23.7199 35.1799 23.7413 35.2444 23.7413 35.3303C23.7413 35.4163 23.7413 35.4807 23.7413 35.5237C23.7413 35.6096 23.7521 35.6848 23.7736 35.7493C23.795 35.8137 23.8273 35.8674 23.8702 35.9104C23.8702 35.9534 23.881 35.9963 23.9025 36.0393C23.924 36.0823 23.9347 36.1038 23.9347 36.1038C23.9347 36.1467 23.9454 36.2004 23.9669 36.2649C23.9884 36.3293 24.0206 36.3831 24.0636 36.426C24.0636 36.469 24.0743 36.512 24.0958 36.5549C24.1173 36.5979 24.1495 36.6409 24.1925 36.6838C24.2355 36.8127 24.3644 37.0168 24.5792 37.2961C24.7941 37.5754 24.9874 37.801 25.1593 37.9729C25.3312 38.1018 25.4601 38.1985 25.546 38.2629C25.632 38.3274 25.7824 38.4026 25.9972 38.4885C26.0831 38.5315 26.1798 38.5745 26.2872 38.6174C26.3947 38.6604 26.4699 38.7034 26.5128 38.7463C26.5558 38.7463 26.6095 38.7571 26.674 38.7786C26.7384 38.8 26.7706 38.8108 26.7706 38.8108C26.8136 38.8108 26.8781 38.8215 26.964 38.843C27.0499 38.8645 27.1359 38.8752 27.2218 38.8752C27.4367 38.9612 27.7589 39.0042 28.1886 39.0042C28.6183 39.0042 28.9406 38.9612 29.1554 38.8752C29.2413 38.8752 29.3273 38.8645 29.4132 38.843C29.4992 38.8215 29.5636 38.8108 29.6066 38.8108C29.6495 38.8108 29.6925 38.8 29.7355 38.7786C29.7784 38.7571 29.8429 38.7463 29.9288 38.7463C29.9718 38.7034 30.0363 38.6604 30.1222 38.6174C30.2081 38.5745 30.2941 38.5315 30.38 38.4885C30.5949 38.4026 30.7452 38.3274 30.8312 38.2629C30.9171 38.1985 31.046 38.1018 31.2179 37.9729C31.3468 37.844 31.5079 37.6614 31.7013 37.425C31.8947 37.1887 32.0128 37.0061 32.0558 36.8772C32.0988 36.8772 32.131 36.8557 32.1525 36.8127C32.174 36.7698 32.1847 36.7483 32.1847 36.7483C32.2706 36.5764 32.3351 36.4475 32.3781 36.3616C32.421 36.2756 32.4425 36.1897 32.4425 36.1038C32.4425 36.1038 32.4533 36.0823 32.4747 36.0393C32.4962 35.9963 32.507 35.9534 32.507 35.9104C32.5499 35.8674 32.5822 35.8137 32.6036 35.7493C32.6251 35.6848 32.6359 35.6096 32.6359 35.5237C32.6359 35.4807 32.6359 35.4163 32.6359 35.3303C32.6359 35.2444 32.6574 35.2014 32.7003 35.2014C32.7433 35.1155 32.7648 34.9329 32.7648 34.6536C32.7648 34.3743 32.7863 33.9124 32.8292 33.2678V31.5276L33.087 31.3987C33.216 31.3127 33.4093 31.2698 33.6671 31.2698C33.9249 31.2698 34.1398 31.2913 34.3117 31.3342C34.4406 31.3772 34.5587 31.4524 34.6661 31.5598C34.7736 31.6672 34.8273 31.7639 34.8273 31.8499C34.8273 31.8928 34.8488 31.9465 34.8917 32.011C34.9347 32.0754 34.9777 32.1506 35.0206 32.2366C35.0636 32.2795 35.1066 32.344 35.1495 32.4299C35.1925 32.5159 35.214 32.5588 35.214 32.5588C35.214 32.5588 35.257 32.6125 35.3429 32.72C35.4288 32.8274 35.5577 32.967 35.7296 33.1389C35.9015 33.3108 36.0626 33.4504 36.213 33.5579C36.3634 33.6653 36.5031 33.762 36.632 33.8479C36.7609 33.8909 36.879 33.9446 36.9865 34.009C37.0939 34.0735 37.1691 34.1057 37.212 34.1057L37.4054 34.1702V43.6448H19.0363L18.9718 34.9436C18.9718 31.0764 18.9825 28.6487 19.004 27.6604C19.0255 26.6721 19.0577 26.178 19.1007 26.178C19.1007 26.135 19.1115 26.1028 19.1329 26.0813C19.1544 26.0598 19.1652 26.0276 19.1652 25.9846C19.1652 25.9417 19.2511 25.8342 19.423 25.6624C19.5949 25.4905 19.7667 25.3616 19.9386 25.2756C20.0675 25.2327 20.4972 25.2112 21.2277 25.2112C21.9581 25.2112 24.3214 25.1897 28.3175 25.1467C31.8839 25.1467 34.1505 25.1575 35.1173 25.179C36.0841 25.2004 36.632 25.2327 36.7609 25.2756ZM52.6808 46.9319C52.6808 47.0178 52.6808 47.1038 52.6808 47.1897C52.6808 47.2756 52.6593 47.3401 52.6163 47.3831C52.6163 47.469 52.6056 47.5549 52.5841 47.6409C52.5626 47.7268 52.5519 47.7913 52.5519 47.8342C52.5519 47.9202 52.5411 47.9954 52.5197 48.0598C52.4982 48.1243 52.466 48.178 52.423 48.2209C52.423 48.2209 52.4122 48.2532 52.3908 48.3176C52.3693 48.3821 52.3585 48.4358 52.3585 48.4788C52.3585 48.5217 52.3478 48.5754 52.3263 48.6399C52.3048 48.7043 52.2726 48.7581 52.2296 48.801C52.2296 48.844 52.2189 48.887 52.1974 48.9299C52.1759 48.9729 52.1652 49.0159 52.1652 49.0588C52.1652 49.1018 52.1544 49.1448 52.1329 49.1877C52.1115 49.2307 52.1007 49.2522 52.1007 49.2522C52.0577 49.2952 52.0255 49.3274 52.004 49.3489C51.9826 49.3704 51.9718 49.4026 51.9718 49.4456C51.9718 49.4456 51.9503 49.4885 51.9074 49.5745C51.8644 49.6604 51.8214 49.7463 51.7785 49.8323C51.3488 50.6487 50.7687 51.4114 50.0382 52.1204C49.3077 52.8293 48.5343 53.4202 47.7179 53.8928C47.546 53.9788 47.2345 54.1292 46.7833 54.344C46.3322 54.5588 46.0421 54.7092 45.9132 54.7952C45.8702 54.7952 45.8058 54.8167 45.7199 54.8596C45.6339 54.9026 45.548 54.9241 45.462 54.9241C45.4191 54.967 45.3546 55.01 45.2687 55.053C45.1827 55.0959 45.1183 55.1174 45.0753 55.1174C45.0324 55.1604 44.9786 55.1926 44.9142 55.2141C44.8497 55.2356 44.8175 55.2463 44.8175 55.2463C44.7745 55.2463 44.7316 55.2463 44.6886 55.2463C44.6456 55.2463 44.6027 55.2678 44.5597 55.3108C44.5167 55.3538 44.4738 55.3752 44.4308 55.3752C44.3878 55.3752 44.3449 55.3752 44.3019 55.3752C44.2589 55.3752 44.2052 55.386 44.1408 55.4075C44.0763 55.429 44.0441 55.4612 44.0441 55.5042C44.0011 55.5042 43.9474 55.5149 43.8829 55.5364C43.8185 55.5579 43.7648 55.5686 43.7218 55.5686C43.6788 55.5686 43.6359 55.5793 43.5929 55.6008C43.5499 55.6223 43.507 55.6545 43.464 55.6975C43.421 55.6975 43.3566 55.7083 43.2706 55.7297C43.1847 55.7512 43.1202 55.762 43.0773 55.762C43.0343 55.762 42.9806 55.7727 42.9161 55.7942C42.8517 55.8157 42.798 55.8479 42.755 55.8909C42.755 55.8909 42.7228 55.9016 42.6583 55.9231C42.5939 55.9446 42.5187 55.9553 42.4327 55.9553C42.3898 55.9553 42.3361 55.9661 42.2716 55.9875C42.2072 56.009 42.1535 56.0198 42.1105 56.0198C42.0675 56.0627 42.0031 56.095 41.9171 56.1165C41.8312 56.1379 41.7667 56.1487 41.7238 56.1487C41.6378 56.1487 41.5626 56.1594 41.4982 56.1809C41.4337 56.2024 41.38 56.2131 41.337 56.2131C41.2941 56.2561 41.2296 56.2883 41.1437 56.3098C41.0577 56.3313 40.9718 56.342 40.8859 56.342C40.8429 56.342 40.7785 56.3528 40.6925 56.3743C40.6066 56.3958 40.5206 56.4065 40.4347 56.4065C40.3917 56.4495 40.3273 56.4817 40.2413 56.5032C40.1554 56.5247 40.0695 56.5354 39.9835 56.5354C39.9406 56.5354 39.8654 56.5354 39.7579 56.5354C39.6505 56.5354 39.5753 56.5569 39.5324 56.5999C39.4464 56.6428 39.3605 56.6643 39.2745 56.6643C39.1886 56.6643 39.1027 56.6643 39.0167 56.6643C38.9308 56.6643 38.8341 56.675 38.7267 56.6965C38.6193 56.718 38.5226 56.7502 38.4367 56.7932C38.3507 56.7932 38.2326 56.804 38.0822 56.8254C37.9318 56.8469 37.7706 56.8792 37.5988 56.9221C37.4699 56.9221 37.341 56.9329 37.212 56.9543C37.0831 56.9758 37.0187 56.9866 37.0187 56.9866C36.9757 57.0295 36.8898 57.051 36.7609 57.051C36.632 57.051 36.4816 57.051 36.3097 57.051C36.1808 57.051 36.0197 57.0618 35.8263 57.0833C35.6329 57.1047 35.4933 57.137 35.4074 57.1799C35.3214 57.1799 35.171 57.1907 34.9562 57.2122C34.7413 57.2336 34.5265 57.2444 34.3117 57.2444C34.1398 57.2444 33.9249 57.2551 33.6671 57.2766C33.4093 57.2981 33.173 57.3303 32.9581 57.3733C32.7433 57.3733 32.3029 57.384 31.6368 57.4055C30.9708 57.427 29.8214 57.4377 28.1886 57.4377C26.5558 57.4377 25.4171 57.427 24.7726 57.4055C24.1281 57.384 23.6769 57.3733 23.4191 57.3733C23.2472 57.3303 23.0324 57.2981 22.7745 57.2766C22.5167 57.2551 22.2804 57.2444 22.0656 57.2444C21.8937 57.2444 21.7003 57.2336 21.4855 57.2122C21.2706 57.1907 21.0988 57.1799 20.9699 57.1799C20.8409 57.137 20.6906 57.1047 20.5187 57.0833C20.3468 57.0618 20.1749 57.051 20.0031 57.051C19.8742 57.051 19.7452 57.051 19.6163 57.051C19.4874 57.051 19.423 57.0295 19.423 56.9866C19.38 56.9866 19.2941 56.9758 19.1652 56.9543C19.0363 56.9329 18.9074 56.9221 18.7784 56.9221C18.6495 56.8792 18.4992 56.8469 18.3273 56.8254C18.1554 56.804 18.0265 56.7932 17.9406 56.7932C17.8976 56.7502 17.8117 56.718 17.6827 56.6965C17.5538 56.675 17.4464 56.6643 17.3605 56.6643C17.2745 56.6643 17.1886 56.6643 17.1027 56.6643C17.0167 56.6643 16.9308 56.6428 16.8449 56.5999C16.8019 56.5569 16.7374 56.5354 16.6515 56.5354C16.5656 56.5354 16.4796 56.5354 16.3937 56.5354C16.3077 56.5354 16.2218 56.5247 16.1359 56.5032C16.0499 56.4817 15.9855 56.4495 15.9425 56.4065C15.8566 56.4065 15.7706 56.3958 15.6847 56.3743C15.5988 56.3528 15.5343 56.342 15.4913 56.342C15.4054 56.342 15.3302 56.3313 15.2658 56.3098C15.2013 56.2883 15.1261 56.2561 15.0402 56.2131C14.9972 56.2131 14.9435 56.2024 14.879 56.1809C14.8146 56.1594 14.7394 56.1487 14.6534 56.1487C14.6105 56.1487 14.5568 56.1379 14.4923 56.1165C14.4279 56.095 14.3742 56.0627 14.3312 56.0198C14.2882 56.0198 14.2238 56.009 14.1378 55.9875C14.0519 55.9661 13.9874 55.9553 13.9445 55.9553C13.9015 55.9553 13.837 55.9446 13.7511 55.9231C13.6652 55.9016 13.6222 55.8909 13.6222 55.8909C13.5792 55.8479 13.5255 55.8157 13.4611 55.7942C13.3966 55.7727 13.3429 55.762 13.2999 55.762C13.257 55.762 13.2033 55.7512 13.1388 55.7297C13.0743 55.7083 13.0206 55.6975 12.9777 55.6975C12.9347 55.6545 12.881 55.6223 12.8165 55.6008C12.7521 55.5793 12.6984 55.5686 12.6554 55.5686C12.6124 55.5686 12.5695 55.5686 12.5265 55.5686C12.4835 55.5686 12.4406 55.5471 12.3976 55.5042C12.3976 55.5042 12.3654 55.4934 12.3009 55.4719C12.2365 55.4504 12.1827 55.4182 12.1398 55.3752C12.0109 55.3752 11.8712 55.343 11.7208 55.2786C11.5704 55.2141 11.4308 55.1604 11.3019 55.1174C11.2589 55.0745 11.1945 55.0422 11.1085 55.0208C11.0226 54.9993 10.9581 54.967 10.9152 54.9241C10.5284 54.7952 10.0343 54.5803 9.43275 54.2795C8.83118 53.9788 8.38001 53.7209 8.07923 53.5061C7.56361 53.1624 7.01575 52.7219 6.43568 52.1848C5.8556 51.6477 5.41517 51.1643 5.11439 50.7346C4.89954 50.3909 4.72767 50.1008 4.59876 49.8645C4.46986 49.6282 4.4054 49.4885 4.4054 49.4456C4.4054 49.4026 4.39466 49.3704 4.37318 49.3489C4.35169 49.3274 4.34095 49.2952 4.34095 49.2522C4.29798 49.2522 4.26575 49.2307 4.24427 49.1877C4.22278 49.1448 4.21204 49.1018 4.21204 49.0588C4.21204 49.0159 4.2013 48.9729 4.17982 48.9299C4.15833 48.887 4.14759 48.844 4.14759 48.801C4.10462 48.7581 4.07239 48.7043 4.05091 48.6399C4.02943 48.5754 4.01868 48.5217 4.01868 48.4788C4.01868 48.4358 4.01868 48.3821 4.01868 48.3176C4.01868 48.2532 3.9972 48.2209 3.95423 48.2209C3.91126 48.178 3.88978 48.1243 3.88978 48.0598C3.88978 47.9954 3.88978 47.9202 3.88978 47.8342C3.88978 47.7913 3.87903 47.7268 3.85755 47.6409C3.83607 47.5549 3.80384 47.469 3.76087 47.3831C3.7179 47.2971 3.68568 47.179 3.66419 47.0286C3.64271 46.8782 3.65345 46.7815 3.69642 46.7385C3.69642 46.7385 4.36243 46.717 5.69446 46.6741C6.98353 46.6741 8.7345 46.6741 10.9474 46.6741C13.1603 46.6741 15.7492 46.6741 18.714 46.6741C21.6788 46.6741 24.837 46.6741 28.1886 46.6741L52.6808 46.7385V46.9319ZM18.6495 59.9514C18.7355 59.9514 18.8536 59.9622 19.004 59.9836C19.1544 60.0051 19.2726 60.0159 19.3585 60.0159C19.4874 60.0159 19.6163 60.0266 19.7452 60.0481C19.8742 60.0696 19.9816 60.0803 20.0675 60.0803C20.1534 60.0803 20.3146 60.0911 20.5509 60.1125C20.7872 60.134 21.0558 60.1663 21.3566 60.2092C21.6144 60.2092 21.8722 60.22 22.13 60.2415C22.3878 60.2629 22.5597 60.2952 22.6456 60.3381C22.7745 60.3811 23.3976 60.4026 24.5148 60.4026C25.632 60.4026 26.8566 60.4026 28.1886 60.4026C29.5206 60.4026 30.7452 60.4026 31.8624 60.4026C32.9796 60.4026 33.6027 60.3811 33.7316 60.3381C33.8175 60.2952 33.9894 60.2629 34.2472 60.2415C34.505 60.22 34.7843 60.2092 35.0851 60.2092C35.3429 60.1663 35.59 60.134 35.8263 60.1125C36.0626 60.0911 36.2238 60.0803 36.3097 60.0803C36.3956 60.0803 36.5138 60.0696 36.6642 60.0481C36.8146 60.0266 36.9542 60.0159 37.0831 60.0159C37.1691 60.0159 37.2658 60.0051 37.3732 59.9836C37.4806 59.9622 37.5773 59.9514 37.6632 59.9514C37.7492 59.9084 37.9962 59.8655 38.4044 59.8225C38.8126 59.7795 39.0382 59.7795 39.0812 59.8225C39.1242 59.8225 39.1564 59.9084 39.1779 60.0803C39.1993 60.2522 39.2101 60.5959 39.2101 61.1116C39.2101 61.7991 39.1886 62.218 39.1456 62.3684C39.1027 62.5188 38.9952 62.594 38.8234 62.594C38.7804 62.594 38.716 62.6047 38.63 62.6262C38.5441 62.6477 38.4796 62.6584 38.4367 62.6584C38.3937 62.7014 38.3185 62.7336 38.2111 62.7551C38.1036 62.7766 38.0285 62.7874 37.9855 62.7874C37.8995 62.7874 37.8243 62.7981 37.7599 62.8196C37.6954 62.8411 37.6417 62.8518 37.5988 62.8518C37.5558 62.8948 37.4913 62.927 37.4054 62.9485C37.3195 62.97 37.2335 62.9807 37.1476 62.9807C37.0617 62.9807 36.9542 62.9915 36.8253 63.0129C36.6964 63.0344 36.6105 63.0452 36.5675 63.0452C36.4816 63.0881 36.3742 63.1204 36.2452 63.1418C36.1163 63.1633 35.9874 63.1741 35.8585 63.1741C35.7726 63.1741 35.6544 63.1741 35.504 63.1741C35.3536 63.1741 35.2355 63.1956 35.1495 63.2385C35.0636 63.2815 34.9454 63.303 34.7951 63.303C34.6447 63.303 34.4835 63.303 34.3117 63.303C34.1398 63.303 33.9786 63.3137 33.8283 63.3352C33.6779 63.3567 33.5812 63.3889 33.5382 63.4319C33.3663 63.4319 32.6359 63.4641 31.3468 63.5286C30.0577 63.593 29.005 63.6252 28.1886 63.6252C27.3722 63.6252 26.3195 63.593 25.0304 63.5286C23.7413 63.4641 23.0324 63.4319 22.9034 63.4319C22.8175 63.3889 22.6993 63.3567 22.549 63.3352C22.3986 63.3137 22.2374 63.303 22.0656 63.303C21.8937 63.303 21.7325 63.303 21.5822 63.303C21.4318 63.303 21.3136 63.2815 21.2277 63.2385C21.1417 63.1956 21.0236 63.1741 20.8732 63.1741C20.7228 63.1741 20.6046 63.1741 20.5187 63.1741C20.3898 63.1741 20.2609 63.1633 20.132 63.1418C20.0031 63.1204 19.8956 63.0881 19.8097 63.0452C19.7667 63.0452 19.6808 63.0344 19.5519 63.0129C19.423 62.9915 19.3156 62.9807 19.2296 62.9807C19.1437 62.9807 19.0577 62.97 18.9718 62.9485C18.8859 62.927 18.8214 62.8948 18.7784 62.8518C18.7355 62.8518 18.6818 62.8411 18.6173 62.8196C18.5529 62.7981 18.4777 62.7874 18.3917 62.7874C18.3488 62.7874 18.2843 62.7766 18.1984 62.7551C18.1124 62.7336 18.0265 62.7014 17.9406 62.6584C17.8976 62.6584 17.8331 62.6477 17.7472 62.6262C17.6613 62.6047 17.5968 62.594 17.5538 62.594C17.5109 62.594 17.4679 62.5833 17.4249 62.5618C17.382 62.5403 17.339 62.5081 17.296 62.4651C17.2531 62.4221 17.2208 62.3362 17.1993 62.2073C17.1779 62.0784 17.1671 61.7131 17.1671 61.1116C17.1671 60.6389 17.1779 60.3059 17.1993 60.1125C17.2208 59.9192 17.2531 59.8225 17.296 59.8225C17.339 59.7795 17.5216 59.7795 17.8439 59.8225C18.1661 59.8655 18.4347 59.9084 18.6495 59.9514Z" fill="#F7A392"/>
</g>
<defs>
<clipPath id="clip0_1_127">
<rect width="55.31" height="66" fill="white" transform="matrix(1 0 0 -1 0.589996 66.5901)"/>
</clipPath>
</defs>
</svg>
