<svg width="99" height="101" viewBox="0 0 99 101" fill="none" xmlns="http://www.w3.org/2000/svg">
<g opacity="0.2" clip-path="url(#clip0_1_149)">
<path d="M18.1903 1.07837C16.1721 1.79452 14.8049 2.96639 14.0887 4.59399C13.3726 6.2216 13.3075 8.46769 13.8934 11.3323C13.9585 11.9182 13.9423 12.2763 13.8446 12.4065C13.7469 12.5367 13.3075 12.6995 12.5262 12.8948C9.72677 13.676 8.11544 15.5803 7.69226 18.6077C7.26908 21.635 8.29447 23.9299 10.7684 25.4924C11.5497 25.9482 12.0054 26.3062 12.1356 26.5667C12.2658 26.8271 12.3309 27.2828 12.3309 27.9338V29.3987L10.0848 30.4729C7.80619 31.5797 5.77169 33.3212 3.98132 35.6975C2.19096 38.0738 1.10046 40.564 0.709839 43.1682C0.579631 43.9495 0.481974 46.3746 0.41687 50.4436C0.351766 54.5126 0.351766 60.6812 0.41687 68.9495L0.514526 92.5823L1.29578 94.3401C1.75151 95.3818 2.54903 96.456 3.68835 97.5627C4.82768 98.6695 5.91817 99.4182 6.95984 99.8088C7.61088 100.069 9.88953 100.232 13.7958 100.297C17.702 100.427 21.9501 100.492 26.5399 100.492C31.1298 100.492 35.3778 100.427 39.2841 100.297C43.1903 100.232 45.469 100.069 46.12 99.8088C48.0731 99.0276 49.6193 97.7743 50.7587 96.0491C51.898 94.3238 52.5328 92.2242 52.663 89.7502C52.7281 88.5133 52.8094 87.732 52.9071 87.4065C53.0048 87.081 53.1512 86.9833 53.3466 87.1135C56.2762 88.4156 58.9455 88.8551 61.3544 88.4319C63.7632 88.0087 65.9768 86.6903 67.995 84.4768L69.9481 82.426L71.7059 84.1838C74.4403 86.7229 77.4025 87.7646 80.5927 87.3088C83.7177 86.788 86.3869 85.4534 88.6005 83.3049C90.814 81.1565 92.1812 78.5198 92.702 75.3948C93.288 72.2047 92.3765 69.1773 89.9677 66.3127C89.7723 66.1174 89.7398 65.9384 89.87 65.7756C90.0002 65.6129 90.4234 65.3687 91.1395 65.0432C94.4598 63.4156 96.5432 61.0719 97.3895 58.012C98.1708 54.887 98.0243 51.9084 96.9501 49.0764C95.8759 46.2444 94.0367 43.9495 91.4325 42.1917C88.7632 40.4338 85.6708 40.0758 82.1552 41.1174C81.1786 41.3778 80.6089 41.443 80.4462 41.3127C80.2834 41.1825 80.1369 40.5315 80.0067 39.3596C79.6161 36.3648 78.314 34.0211 76.1005 32.3284C73.952 30.6357 71.5432 29.6591 68.8739 29.3987C66.2046 29.1383 63.6005 29.6265 61.0614 30.8635C58.5223 32.1005 56.732 34.1513 55.6903 37.0159C55.495 37.4716 55.316 38.0901 55.1532 38.8713C54.9904 39.6526 54.8765 40.3362 54.8114 40.9221C54.7463 41.7685 54.6649 42.3219 54.5673 42.5823C54.4696 42.8427 54.2906 42.9729 54.0302 42.9729C53.5093 42.9729 53.0536 42.8427 52.663 42.5823C52.2723 42.3219 52.077 42.0289 52.077 41.7034C52.077 40.206 51.0516 38.1877 49.0009 35.6487C46.9501 33.1096 44.9481 31.3844 42.995 30.4729L40.7489 29.3987V27.9338C40.7489 27.2828 40.814 26.8271 40.9442 26.5667C41.0744 26.3062 41.5302 25.9482 42.3114 25.4924C44.8505 23.8648 45.8433 21.4723 45.2899 18.3147C44.7365 15.1571 43.0275 13.318 40.163 12.7971C39.6421 12.6669 39.3329 12.5367 39.2352 12.4065C39.1376 12.2763 39.1213 11.9833 39.1864 11.5276C39.7072 8.92342 39.7398 6.87264 39.2841 5.37524C38.8283 3.87785 37.8518 2.67342 36.3544 1.76196L34.6942 0.7854L27.077 0.687744C24.2124 0.622643 22.1291 0.622643 20.827 0.687744C19.5249 0.752846 18.646 0.883057 18.1903 1.07837ZM34.4012 6.25415C34.857 6.77499 35.0848 7.23071 35.0848 7.62134C35.0848 8.01196 34.8895 9.18384 34.4989 11.137L34.1083 12.6018H26.4911C24.4078 12.6018 22.6174 12.6018 21.12 12.6018C19.6226 12.6018 18.8739 12.5693 18.8739 12.5042C18.8739 12.5042 18.8251 12.2437 18.7274 11.7229C18.6298 11.2021 18.5158 10.5836 18.3856 9.86743C17.9299 7.65389 18.1252 6.31925 18.9716 5.86353C19.8179 5.4078 22.4872 5.21249 26.9794 5.27759H33.62L34.4012 6.25415ZM39.577 17.387C39.9677 17.5823 40.2932 18.0217 40.5536 18.7053C40.814 19.3889 40.8466 19.9586 40.6512 20.4143C40.3257 21.1956 39.7398 21.6676 38.8934 21.8303C38.0471 21.9931 35.4755 22.0745 31.1786 22.0745H23.1708L22.4872 22.9534C21.3153 24.3857 21.2339 25.3622 22.243 25.8831C23.2522 26.4039 25.7098 26.6643 29.6161 26.6643H36.1591V29.594C36.1591 31.2216 36.3055 32.3284 36.5985 32.9143C36.8915 33.5002 37.4937 33.7932 38.4052 33.7932C39.8374 33.7932 41.5464 34.7047 43.5321 36.5276C45.5178 38.3505 46.8036 40.2385 47.3895 42.1917C47.4546 42.5172 47.4221 42.7613 47.2919 42.9241C47.1617 43.0868 46.771 43.2984 46.12 43.5588C43.9065 44.5354 42.0998 46.1956 40.7001 48.5393C39.3003 50.8831 38.6005 53.4221 38.6005 56.1565C38.6005 57.3284 38.6818 58.2724 38.8446 58.9885C39.0074 59.7047 39.3492 60.6812 39.87 61.9182C40.1304 62.439 39.691 62.5693 38.5516 62.3088C37.4123 62.0484 35.8661 61.4625 33.913 60.551C31.2437 59.314 29.2743 58.5491 28.0048 58.2561C26.7352 57.9631 24.8309 57.8818 22.2919 58.012C18.7111 58.2073 15.814 58.6793 13.6005 59.428C11.3869 60.1767 10.2476 61.137 10.1825 62.3088C10.0523 63.6109 10.3941 64.3596 11.2079 64.5549C12.0217 64.7502 13.6981 64.4247 16.2372 63.5784C18.5809 62.8622 20.9898 62.5204 23.4637 62.553C25.9377 62.5855 28.1187 63.025 30.0067 63.8713C33.3921 65.4338 35.4755 66.329 36.2567 66.5569C37.038 66.7847 38.6005 66.8987 40.9442 66.8987C42.6369 66.9638 43.8739 67.0452 44.6552 67.1428C45.4364 67.2405 46.12 67.4195 46.7059 67.6799L48.1708 68.3635L47.5848 69.6331C46.6083 71.5211 46.1037 73.3765 46.0712 75.1995C46.0386 77.0224 46.4455 78.8778 47.2919 80.7659C48.2033 82.8492 48.5126 85.4045 48.2196 88.4319C47.9266 91.4592 47.1617 93.4937 45.9247 94.5354C45.1434 95.1864 43.9227 95.5771 42.2626 95.7073C40.6024 95.8375 35.3778 95.9026 26.5887 95.9026C16.8882 95.9026 11.1916 95.7724 9.4989 95.512C7.80619 95.2515 6.50411 94.3075 5.59265 92.6799C5.39734 92.3544 5.26713 89.8153 5.20203 85.0627C5.07182 80.3752 4.97416 75.1669 4.90906 69.4377C4.84395 63.7086 4.84395 58.3049 4.90906 53.2268C4.97416 48.2138 5.07182 45.219 5.20203 44.2424C5.65776 41.7685 6.89473 39.4084 8.91296 37.1624C10.9312 34.9163 12.8518 33.7932 14.6747 33.7932C15.6512 33.7932 16.2697 33.4514 16.5302 32.7678C16.7906 32.0842 16.9208 30.5055 16.9208 28.0315C16.9208 25.5575 16.7743 23.9462 16.4813 23.1975C16.1884 22.4488 15.5861 22.0745 14.6747 22.0745C13.5028 22.0745 12.7378 21.5048 12.3798 20.3655C12.0217 19.2262 12.3309 18.2984 13.3075 17.5823C13.4377 17.5172 14.8374 17.4195 17.5067 17.2893C20.1109 17.2242 23.008 17.1917 26.1981 17.1917C29.3882 17.1917 32.3505 17.1917 35.0848 17.1917C37.8192 17.2568 39.3166 17.3219 39.577 17.387ZM70.3387 34.2815C72.2268 34.8674 73.594 35.8928 74.4403 37.3577C75.2867 38.8225 75.6447 40.7594 75.5145 43.1682C75.3843 45.6422 75.661 47.107 76.3446 47.5627C77.0282 48.0185 78.4442 47.7255 80.5927 46.6838C83.9781 44.9911 86.924 44.8935 89.4305 46.3909C91.937 47.8883 93.1903 50.4924 93.1903 54.2034C93.1903 56.2867 92.3277 58.1259 90.6024 59.7209C88.8772 61.316 86.9078 62.1135 84.6942 62.1135C83.4572 62.1135 82.8225 62.6506 82.7899 63.7249C82.7574 64.7991 83.327 65.9547 84.4989 67.1917C86.7775 69.6005 87.982 71.9117 88.1122 74.1252C88.2424 76.3388 87.2984 78.357 85.2802 80.1799C82.9364 82.2633 80.6089 83.0445 78.2977 82.5237C75.9865 82.0028 73.9846 80.245 72.2919 77.2502C71.3804 75.7528 70.469 75.0367 69.5575 75.1018C68.646 75.1669 67.7671 76.0784 66.9208 77.8362C65.2281 81.1565 63.1122 83.1422 60.5731 83.7932C58.0341 84.4443 55.5927 83.5653 53.2489 81.1565C51.5562 79.4638 50.7261 77.6083 50.7587 75.5901C50.7912 73.5719 51.719 71.456 53.5419 69.2424C54.844 67.6799 55.3322 66.5243 55.0067 65.7756C54.6812 65.0269 53.4117 64.4247 51.1981 63.969C47.8778 63.3831 45.5666 62.0647 44.2645 60.0139C42.9624 57.9631 42.8322 55.5055 43.8739 52.6409C44.7203 50.1669 46.1363 48.5556 48.1219 47.8069C50.1076 47.0582 52.4677 47.2372 55.202 48.344C57.2854 49.1252 58.62 49.288 59.2059 48.8323C59.7919 48.3765 59.9546 47.0419 59.6942 44.8284C59.1734 40.7919 59.9384 37.7646 61.9891 35.7463C64.0399 33.7281 66.8231 33.2398 70.3387 34.2815ZM65.0653 51.8596C60.7033 54.1383 59.1083 57.6376 60.2802 62.3577C61.452 67.0777 64.5445 69.4377 69.5575 69.4377C73.7242 69.4377 76.5887 67.5172 78.1512 63.676C79.7137 59.8349 79.0302 56.4495 76.1005 53.5198C74.6031 52.0224 72.8615 51.1109 70.8759 50.7854C68.8902 50.4599 66.9533 50.818 65.0653 51.8596ZM71.5106 55.8635C73.7242 56.9052 74.5705 58.6467 74.0497 61.0881C73.5288 63.5295 72.064 64.7828 69.6552 64.8479C68.7437 64.8479 67.9136 64.6363 67.1649 64.2131C66.4162 63.79 65.814 63.2203 65.3583 62.5042C64.1864 60.4859 64.398 58.6142 65.993 56.8889C67.5881 55.1637 69.4273 54.8219 71.5106 55.8635Z" fill="#F7A392"/>
</g>
<defs>
<clipPath id="clip0_1_149">
<rect width="97.77" height="100" fill="white" transform="matrix(1 0 0 -1 0.359985 100.59)"/>
</clipPath>
</defs>
</svg>
