<svg width="56" height="58" viewBox="0 0 56 58" fill="none" xmlns="http://www.w3.org/2000/svg">
<g clip-path="url(#clip0_1_115)">
<path d="M25.7435 1.19403C25.7435 1.2305 25.6523 1.25785 25.47 1.27608C25.2877 1.29431 25.0324 1.30343 24.7042 1.30343C24.5584 1.30343 24.4034 1.32166 24.2393 1.35813C24.0752 1.39459 23.9385 1.41283 23.8291 1.41283C23.7197 1.44929 23.6012 1.47664 23.4735 1.49487C23.3459 1.51311 23.2456 1.52222 23.1727 1.52222C23.0998 1.52222 23.0086 1.53134 22.8992 1.54957C22.7898 1.56781 22.6986 1.59515 22.6257 1.63162C22.5528 1.63162 22.4707 1.64074 22.3796 1.65897C22.2884 1.6772 22.2064 1.68632 22.1334 1.68632C22.0605 1.68632 21.9876 1.69543 21.9146 1.71367C21.8417 1.7319 21.7688 1.75925 21.6958 1.79572C21.6594 1.83218 21.6047 1.85953 21.5317 1.87776C21.4588 1.896 21.3859 1.90511 21.3129 1.90511C21.2765 1.90511 21.2218 1.90511 21.1488 1.90511C21.0759 1.90511 21.0212 1.92334 20.9848 1.95981C20.9483 1.95981 20.8845 1.97804 20.7933 2.01451C20.7021 2.05097 20.6383 2.06921 20.6019 2.06921C20.5289 2.06921 20.4469 2.08744 20.3557 2.12391C20.2646 2.16037 20.1825 2.1786 20.1096 2.1786C20.0731 2.21507 20.0184 2.24242 19.9455 2.26065C19.8726 2.27888 19.7996 2.30623 19.7267 2.3427C19.6902 2.3427 19.6264 2.35181 19.5352 2.37004C19.4441 2.38828 19.362 2.41563 19.2891 2.4521C19.2162 2.4521 19.1524 2.46121 19.0977 2.47944C19.043 2.49768 19.0156 2.52502 19.0156 2.56149C18.9791 2.56149 18.9427 2.57061 18.9062 2.58884C18.8698 2.60707 18.8333 2.61619 18.7968 2.61619C18.7604 2.61619 18.7148 2.62531 18.6601 2.64354C18.6054 2.66177 18.5598 2.68912 18.5233 2.72559C18.5233 2.72559 18.496 2.7347 18.4413 2.75293C18.3866 2.77117 18.341 2.78028 18.3045 2.78028C18.2681 2.78028 18.2225 2.7894 18.1678 2.80763C18.1131 2.82587 18.0675 2.85321 18.031 2.88968C17.9946 2.92615 17.9399 2.9535 17.8669 2.97173C17.794 2.98996 17.7211 3.01731 17.6482 3.05378C17.5023 3.12671 17.1923 3.28168 16.7183 3.51871C16.2442 3.75574 15.9343 3.91072 15.7884 3.98365C15.5696 4.09304 15.2779 4.27537 14.9132 4.53063C14.5486 4.78589 14.3116 4.96822 14.2022 5.07761C14.1292 5.11408 14.0654 5.15054 14.0107 5.18701C13.956 5.22348 13.9287 5.24171 13.9287 5.24171C13.8922 5.24171 13.6369 5.47873 13.1629 5.95279C12.6888 6.42684 12.4154 6.71856 12.3424 6.82796C12.306 6.90089 12.2604 6.97382 12.2057 7.04675C12.151 7.11968 12.1054 7.17438 12.0689 7.21085C12.0325 7.24731 11.9869 7.31113 11.9322 7.40229C11.8775 7.49345 11.8319 7.5755 11.7954 7.64843C11.7954 7.6849 11.7863 7.71225 11.7681 7.73048C11.7499 7.74871 11.7225 7.75783 11.686 7.75783C11.686 7.75783 11.6769 7.77606 11.6587 7.81253C11.6405 7.849 11.6131 7.88546 11.5766 7.92192C11.5766 7.99486 11.5584 8.05867 11.5219 8.11337C11.4855 8.16807 11.4672 8.19542 11.4672 8.19542C11.4672 8.23188 11.449 8.28658 11.4125 8.35951C11.3761 8.43244 11.3396 8.48714 11.3032 8.52361C11.2667 8.59654 11.2302 8.67859 11.1938 8.76975C11.1573 8.86091 11.1208 8.92473 11.0844 8.96119C11.0844 8.99766 11.0752 9.04324 11.057 9.09794C11.0388 9.15264 11.0297 9.19822 11.0297 9.23468C11.0297 9.27115 11.0205 9.31673 11.0023 9.37143C10.9841 9.42613 10.975 9.47171 10.975 9.50818C10.9385 9.54464 10.9111 9.60846 10.8929 9.69962C10.8747 9.79079 10.8473 9.87283 10.8109 9.94576C10.8109 10.0552 10.8018 10.1646 10.7835 10.274C10.7653 10.3834 10.7379 10.4745 10.7015 10.5474C10.665 10.7662 10.6468 11.0488 10.6468 11.3953C10.6468 11.7417 10.6832 12.0243 10.7562 12.2431C10.7926 12.316 10.82 12.4072 10.8382 12.5166C10.8564 12.626 10.8656 12.7171 10.8656 12.7901C10.8656 12.8265 10.8747 12.8812 10.8929 12.9542C10.9111 13.0271 10.9203 13.0818 10.9203 13.1183C10.9567 13.1547 10.9841 13.2094 11.0023 13.2824C11.0205 13.3553 11.0297 13.41 11.0297 13.4465C11.0297 13.4829 11.0388 13.5285 11.057 13.5832C11.0752 13.6379 11.1026 13.6652 11.1391 13.6652C11.1391 13.7017 11.1482 13.7382 11.1664 13.7746C11.1846 13.8111 11.1938 13.8476 11.1938 13.884C11.1938 13.9205 11.2576 14.0573 11.3852 14.2943C11.5128 14.5313 11.6131 14.6863 11.686 14.7592C11.7225 14.7957 11.7407 14.8321 11.7407 14.8686C11.7407 14.9051 11.7407 14.9415 11.7407 14.978C11.7407 14.978 11.7499 14.9962 11.7681 15.0327C11.7863 15.0692 11.8137 15.1056 11.8501 15.1421C11.9231 15.1786 11.9504 15.2059 11.9322 15.2242C11.9139 15.2424 11.8866 15.288 11.8501 15.3609C11.7772 15.3974 11.7225 15.4338 11.686 15.4703C11.6496 15.5068 11.6313 15.525 11.6313 15.525C11.5949 15.525 11.5493 15.5432 11.4946 15.5797C11.4399 15.6162 11.3943 15.6526 11.3579 15.6891C11.2849 15.762 11.2211 15.8167 11.1664 15.8532C11.1117 15.8896 11.0844 15.9079 11.0844 15.9079C11.0114 15.9079 10.7562 16.0811 10.3186 16.4275C9.881 16.7739 9.49811 17.1295 9.16992 17.4941C8.7688 17.8588 8.45884 18.1779 8.24005 18.4514C8.02125 18.7248 7.80246 19.0439 7.58367 19.4086C7.4378 19.5909 7.33752 19.7276 7.28282 19.8188C7.22813 19.91 7.14608 20.1014 7.03668 20.3931C6.96375 20.5025 6.89082 20.6211 6.81789 20.7487C6.74496 20.8763 6.70849 20.9584 6.70849 20.9948C6.67203 21.0313 6.64468 21.0769 6.62645 21.1316C6.60821 21.1863 6.5991 21.2318 6.5991 21.2683C6.5991 21.3048 6.58998 21.3504 6.57175 21.4051C6.55351 21.4598 6.5444 21.5053 6.5444 21.5418C6.39854 21.8335 6.29826 22.1891 6.24356 22.6084C6.18886 23.0278 6.16151 23.5109 6.16151 24.0579C6.16151 24.532 6.17974 24.9331 6.21621 25.2613C6.25267 25.5895 6.28914 25.8265 6.3256 25.9724C6.36207 26.0088 6.38942 26.0635 6.40765 26.1365C6.42588 26.2094 6.435 26.2641 6.435 26.3006C6.435 26.3735 6.44412 26.4373 6.46235 26.492C6.48058 26.5467 6.4897 26.5741 6.4897 26.5741C6.52617 26.6105 6.55351 26.6561 6.57175 26.7108C6.58998 26.7655 6.5991 26.8111 6.5991 26.8475C6.5991 26.884 6.60821 26.9296 6.62645 26.9843C6.64468 27.039 6.67203 27.0846 6.70849 27.121C6.70849 27.1575 6.74496 27.2395 6.81789 27.3672C6.89082 27.4948 6.94552 27.6133 6.98198 27.7227C7.12785 28.0144 7.22813 28.2059 7.28282 28.297C7.33752 28.3882 7.41957 28.5067 7.52897 28.6526C7.6019 28.7255 7.64748 28.7893 7.66571 28.844C7.68395 28.8987 7.69306 28.9261 7.69306 28.9261C7.69306 28.9625 7.7113 29.0081 7.74776 29.0628C7.78423 29.1175 7.83892 29.1631 7.91186 29.1996C7.98479 29.3454 8.03037 29.4639 8.0486 29.5551C8.06683 29.6463 8.02125 29.6919 7.91186 29.6919C7.91186 29.6919 7.85716 29.7192 7.74776 29.7739C7.63836 29.8286 7.52897 29.8924 7.41957 29.9653C7.31017 30.0383 7.21901 30.1021 7.14608 30.1568C7.07315 30.2115 7.01845 30.2388 6.98198 30.2388C6.94552 30.2388 6.64468 30.4485 6.07946 30.8679C5.51425 31.2872 5.19517 31.5516 5.12224 31.661C5.08578 31.661 5.04019 31.6883 4.9855 31.743C4.9308 31.7977 4.84875 31.8616 4.73935 31.9345C4.33823 32.2262 3.77302 32.7914 3.04371 33.6301C2.31439 34.4688 1.84034 35.0888 1.62155 35.4899C1.62155 35.5263 1.60332 35.581 1.56685 35.654C1.53039 35.7269 1.49392 35.7816 1.45745 35.8181C1.42099 35.8545 1.36629 35.9366 1.29336 36.0642C1.22043 36.1918 1.16573 36.3286 1.12926 36.4744C1.05633 36.5838 0.992519 36.7024 0.93782 36.83C0.883122 36.9576 0.83754 37.0397 0.801075 37.0761C0.764609 37.1126 0.73726 37.1582 0.719027 37.2129C0.700794 37.2676 0.691678 37.3132 0.691678 37.3496C0.691678 37.3861 0.682561 37.4226 0.664329 37.459C0.646096 37.4955 0.63698 37.5502 0.63698 37.6231C0.564048 37.7325 0.500234 37.8601 0.445535 38.006C0.390837 38.1519 0.363488 38.2977 0.363488 38.4436C0.327022 38.5165 0.299673 38.5894 0.28144 38.6624C0.263208 38.7353 0.254091 38.7718 0.254091 38.7718C0.144695 38.9906 0.0899963 39.7655 0.0899963 41.0965C0.0899963 42.4274 0.144695 43.1659 0.254091 43.3117C0.290557 43.3117 0.317906 43.3391 0.336139 43.3938C0.354372 43.4485 0.363488 43.5123 0.363488 43.5852C0.363488 43.6582 0.372604 43.722 0.390837 43.7767C0.40907 43.8314 0.418186 43.877 0.418186 43.9134C0.454652 43.9499 0.482001 43.9955 0.500234 44.0502C0.518467 44.1049 0.527583 44.1504 0.527583 44.1869C0.527583 44.2234 0.536699 44.269 0.554932 44.3237C0.573165 44.3784 0.600514 44.4239 0.63698 44.4604C0.63698 44.4969 0.646096 44.5424 0.664329 44.5971C0.682561 44.6518 0.691678 44.6974 0.691678 44.7339C0.691678 44.7339 0.700794 44.7612 0.719027 44.8159C0.73726 44.8706 0.764609 44.9345 0.801075 45.0074C0.83754 45.0439 0.883122 45.1259 0.93782 45.2535C0.992519 45.3812 1.05633 45.4997 1.12926 45.6091C1.16573 45.7185 1.22043 45.837 1.29336 45.9646C1.36629 46.0922 1.42099 46.1925 1.45745 46.2654C1.49392 46.3019 1.53039 46.3657 1.56685 46.4569C1.60332 46.5481 1.63978 46.6301 1.67625 46.703C1.89504 47.0677 2.36909 47.6603 3.0984 48.4807C3.82771 49.3012 4.3747 49.8573 4.73935 50.149C4.84875 50.222 4.9308 50.2858 4.9855 50.3405C5.04019 50.3952 5.08578 50.4225 5.12224 50.4225C5.19517 50.4955 5.51425 50.7416 6.07946 51.1609C6.64468 51.5803 6.94552 51.79 6.98198 51.79C7.01845 51.79 7.07315 51.8173 7.14608 51.872C7.21901 51.9267 7.31017 51.9905 7.41957 52.0635C7.52897 52.1364 7.64748 52.2093 7.77511 52.2823C7.90274 52.3552 8.00302 52.4099 8.07595 52.4464C8.11242 52.4828 8.17623 52.5284 8.2674 52.5831C8.35856 52.6378 8.44061 52.6834 8.51354 52.7198C8.58647 52.7563 8.70498 52.8201 8.86908 52.9113C9.03317 53.0025 9.20638 53.0845 9.38871 53.1574C9.57104 53.2668 9.72602 53.358 9.85365 53.4309C9.98128 53.5039 10.0633 53.5403 10.0998 53.5403C10.1363 53.5403 10.1727 53.5494 10.2092 53.5677C10.2457 53.5859 10.2821 53.6133 10.3186 53.6497C10.3186 53.6497 10.3459 53.6588 10.4006 53.6771C10.4553 53.6953 10.5009 53.7227 10.5374 53.7591C10.5738 53.7956 10.6194 53.8138 10.6741 53.8138C10.7288 53.8138 10.7744 53.8138 10.8109 53.8138C10.8109 53.8138 10.8291 53.8229 10.8656 53.8412C10.902 53.8594 10.9385 53.8867 10.975 53.9232C10.975 53.9597 10.9932 53.987 11.0297 54.0053C11.0661 54.0235 11.1026 54.0326 11.1391 54.0326C11.1755 54.0326 11.2211 54.0417 11.2758 54.06C11.3305 54.0782 11.3943 54.1055 11.4672 54.142C11.5402 54.1785 11.6131 54.2058 11.686 54.2241C11.759 54.2423 11.8137 54.2696 11.8501 54.3061C11.8866 54.3426 11.9322 54.3699 11.9869 54.3881C12.0416 54.4064 12.0872 54.4155 12.1236 54.4155C12.1601 54.4155 12.1966 54.4246 12.233 54.4428C12.2695 54.4611 12.306 54.4702 12.3424 54.4702C12.3424 54.5067 12.3698 54.534 12.4245 54.5522C12.4792 54.5705 12.5247 54.5796 12.5612 54.5796C12.5977 54.5796 12.6433 54.5887 12.698 54.6069C12.7527 54.6252 12.7982 54.6525 12.8347 54.689C12.8712 54.689 12.9076 54.6981 12.9441 54.7163C12.9806 54.7346 13.017 54.7437 13.0535 54.7437C13.09 54.7437 13.1355 54.7528 13.1902 54.771C13.2449 54.7893 13.2905 54.8166 13.327 54.8531C13.4364 54.8895 13.564 54.9351 13.7099 54.9898C13.8557 55.0445 14.0016 55.0901 14.1475 55.1266C14.2204 55.1266 14.2933 55.1448 14.3663 55.1813C14.4392 55.2177 14.5121 55.236 14.5851 55.236C14.6215 55.2724 14.6853 55.2998 14.7765 55.318C14.8677 55.3363 14.9315 55.3636 14.9679 55.4001C15.0409 55.4001 15.1138 55.4092 15.1867 55.4274C15.2597 55.4456 15.3326 55.473 15.4055 55.5095C15.442 55.5095 15.4967 55.5186 15.5696 55.5368C15.6426 55.555 15.6972 55.5824 15.7337 55.6189C15.7702 55.6189 15.8249 55.628 15.8978 55.6462C15.9707 55.6644 16.0254 55.6736 16.0619 55.6736C16.1348 55.6736 16.1987 55.6827 16.2533 55.7009C16.308 55.7191 16.3536 55.7465 16.3901 55.783C16.4266 55.8194 16.4813 55.8468 16.5542 55.865C16.6271 55.8832 16.6818 55.8924 16.7183 55.8924C16.7912 55.8924 16.8733 55.9015 16.9644 55.9197C17.0556 55.9379 17.1376 55.947 17.2106 55.947C17.2835 55.9835 17.3564 56.0109 17.4294 56.0291C17.5023 56.0473 17.557 56.0564 17.5935 56.0564C17.6299 56.0564 17.6937 56.0656 17.7849 56.0838C17.8761 56.102 17.9399 56.1294 17.9763 56.1658C18.0493 56.1658 18.1313 56.175 18.2225 56.1932C18.3137 56.2114 18.3775 56.2205 18.4139 56.2205C18.4869 56.2205 18.5689 56.2297 18.6601 56.2479C18.7512 56.2661 18.8333 56.2935 18.9062 56.3299C18.9791 56.3664 19.0612 56.3938 19.1524 56.412C19.2435 56.4302 19.3256 56.4393 19.3985 56.4393C19.4714 56.4393 19.5626 56.4485 19.672 56.4667C19.7814 56.4849 19.8726 56.494 19.9455 56.494C20.0184 56.5305 20.1096 56.5578 20.219 56.5761C20.3284 56.5943 20.4195 56.6034 20.4925 56.6034C20.6019 56.6034 20.7204 56.6125 20.848 56.6308C20.9756 56.649 21.0942 56.6764 21.2035 56.7128C21.3129 56.7128 21.4406 56.7219 21.5864 56.7402C21.7323 56.7584 21.8599 56.7675 21.9693 56.7675C22.0787 56.7675 22.1881 56.7766 22.2975 56.7949C22.4069 56.8131 22.4981 56.8405 22.571 56.8769C22.7898 56.9134 23.3915 56.9499 24.376 56.9863C25.3971 57.0228 26.4819 57.041 27.6306 57.041C28.7793 57.041 29.8459 57.0228 30.8305 56.9863C31.815 56.9499 32.4167 56.9134 32.6355 56.8769C32.7084 56.8405 32.7996 56.8131 32.909 56.7949C33.0184 56.7766 33.1278 56.7675 33.2372 56.7675C33.3466 56.7675 33.4833 56.7584 33.6474 56.7402C33.8115 56.7219 33.93 56.7128 34.003 56.7128C34.1124 56.6764 34.24 56.649 34.3858 56.6308C34.5317 56.6125 34.6411 56.6034 34.714 56.6034C34.787 56.6034 34.8872 56.5943 35.0149 56.5761C35.1425 56.5578 35.2245 56.5305 35.261 56.494C35.3339 56.494 35.4251 56.4849 35.5345 56.4667C35.6439 56.4485 35.7351 56.4393 35.808 56.4393C35.8809 56.4393 35.9721 56.4302 36.0815 56.412C36.1909 56.3938 36.2821 56.3664 36.355 56.3299C36.4279 56.2935 36.51 56.2661 36.6011 56.2479C36.6923 56.2297 36.7561 56.2205 36.7926 56.2205C36.8655 56.2205 36.9384 56.2114 37.0114 56.1932C37.0843 56.175 37.1572 56.1658 37.2302 56.1658C37.3031 56.1294 37.376 56.102 37.4489 56.0838C37.5219 56.0656 37.5948 56.0564 37.6677 56.0564C37.7042 56.0564 37.768 56.0473 37.8592 56.0291C37.9503 56.0109 38.0142 55.9835 38.0506 55.947C38.1236 55.947 38.2056 55.9379 38.2968 55.9197C38.3879 55.9015 38.4518 55.8924 38.4882 55.8924C38.5611 55.8924 38.625 55.8832 38.6797 55.865C38.7344 55.8468 38.7799 55.8194 38.8164 55.783C38.8529 55.7465 38.8985 55.7191 38.9532 55.7009C39.0079 55.6827 39.0717 55.6736 39.1446 55.6736C39.2175 55.6736 39.2813 55.6644 39.336 55.6462C39.3907 55.628 39.4363 55.6189 39.4728 55.6189C39.5093 55.5824 39.5639 55.555 39.6369 55.5368C39.7098 55.5186 39.7827 55.5095 39.8557 55.5095C39.8921 55.473 39.956 55.4456 40.0471 55.4274C40.1383 55.4092 40.2021 55.4001 40.2386 55.4001C40.3115 55.3636 40.3844 55.3363 40.4574 55.318C40.5303 55.2998 40.6032 55.2724 40.6761 55.236C40.7126 55.236 40.7673 55.2177 40.8402 55.1813C40.9132 55.1448 40.9861 55.1266 41.059 55.1266C41.2049 55.0901 41.3508 55.0445 41.4966 54.9898C41.6425 54.9351 41.7701 54.8895 41.8795 54.8531C41.916 54.8166 41.9616 54.7893 42.0163 54.771C42.071 54.7528 42.1165 54.7437 42.153 54.7437C42.1895 54.7437 42.2259 54.7346 42.2624 54.7163C42.2989 54.6981 42.3353 54.689 42.3718 54.689C42.4083 54.6525 42.4538 54.6252 42.5085 54.6069C42.5632 54.5887 42.6088 54.5796 42.6453 54.5796C42.7182 54.5796 42.7729 54.5705 42.8094 54.5522C42.8458 54.534 42.8823 54.5067 42.9188 54.4702C42.9188 54.4702 42.937 54.4611 42.9735 54.4428C43.0099 54.4246 43.0464 54.4155 43.0829 54.4155C43.1193 54.4155 43.1649 54.4064 43.2196 54.3881C43.2743 54.3699 43.3199 54.3426 43.3564 54.3061C43.4293 54.2696 43.5022 54.2423 43.5752 54.2241C43.6481 54.2058 43.7028 54.1785 43.7393 54.142C43.8122 54.1055 43.876 54.0782 43.9307 54.06C43.9854 54.0417 44.031 54.0326 44.0674 54.0326C44.1039 54.0326 44.1404 54.0235 44.1768 54.0053C44.2133 53.987 44.2315 53.9597 44.2315 53.9232C44.268 53.8867 44.3045 53.8594 44.3409 53.8412C44.3774 53.8229 44.3956 53.8138 44.3956 53.8138C44.4686 53.8138 44.5506 53.7956 44.6418 53.7591C44.7329 53.7227 44.8515 53.668 44.9973 53.595C45.0338 53.5586 45.0702 53.5312 45.1067 53.513C45.1432 53.4947 45.1614 53.4856 45.1614 53.4856C45.2343 53.4492 45.4805 53.3306 45.8998 53.1301C46.3192 52.9295 46.5836 52.7928 46.693 52.7198C46.7659 52.6834 46.8479 52.6378 46.9391 52.5831C47.0303 52.5284 47.1123 52.4828 47.1852 52.4464C47.2582 52.4099 47.3493 52.3552 47.4587 52.2823C47.5681 52.2093 47.6775 52.1364 47.7869 52.0635C47.8963 51.9905 47.9966 51.9267 48.0878 51.872C48.1789 51.8173 48.2245 51.79 48.2245 51.79C48.2245 51.79 48.2519 51.7717 48.3066 51.7353C48.3613 51.6988 48.4251 51.6623 48.498 51.6259C48.5709 51.5894 48.6348 51.553 48.6895 51.5165C48.7442 51.48 48.7715 51.4618 48.7715 51.4618C48.808 51.4618 49.0268 51.3068 49.4279 50.9969C49.829 50.6869 50.066 50.4955 50.139 50.4225C50.139 50.4225 50.1754 50.3952 50.2484 50.3405C50.3213 50.2858 50.3942 50.222 50.4671 50.149C50.8683 49.8573 51.4244 49.3012 52.1354 48.4807C52.8465 47.6603 53.3115 47.0495 53.5303 46.6483C53.5667 46.6119 53.6123 46.5481 53.667 46.4569C53.7217 46.3657 53.749 46.3019 53.749 46.2654C53.7855 46.1925 53.8402 46.0922 53.9131 45.9646C53.9861 45.837 54.059 45.7185 54.1319 45.6091C54.1684 45.4997 54.2231 45.3812 54.296 45.2535C54.369 45.1259 54.4054 45.0439 54.4054 45.0074C54.4419 44.9345 54.4692 44.8706 54.4875 44.8159C54.5057 44.7612 54.5148 44.7339 54.5148 44.7339C54.5148 44.6974 54.5239 44.6518 54.5422 44.5971C54.5604 44.5424 54.5878 44.4969 54.6242 44.4604C54.6242 44.4239 54.6333 44.3784 54.6516 44.3237C54.6698 44.269 54.6789 44.2234 54.6789 44.1869C54.6789 44.1504 54.688 44.1049 54.7063 44.0502C54.7245 43.9955 54.7519 43.9499 54.7883 43.9134C54.8248 43.877 54.8521 43.8314 54.8704 43.7767C54.8886 43.722 54.8977 43.6582 54.8977 43.5852C54.8977 43.5488 54.9068 43.4941 54.9251 43.4211C54.9433 43.3482 54.9524 43.2935 54.9524 43.257C54.9889 43.1841 55.0162 43.1021 55.0345 43.0109C55.0527 42.9197 55.0618 42.8195 55.0618 42.7101C55.0618 42.5277 55.08 42.3819 55.1165 42.2725C55.153 42.1631 55.2077 42.1266 55.2806 42.1631C55.2806 42.1631 55.2897 42.0628 55.3079 41.8622C55.3262 41.6617 55.3353 41.3791 55.3353 41.0144C55.3353 40.5768 55.3262 40.2851 55.3079 40.1392C55.2897 39.9934 55.2624 39.9204 55.2259 39.9204C55.153 39.9204 55.1074 39.8749 55.0892 39.7837C55.0709 39.6925 55.0618 39.5558 55.0618 39.3735C55.0618 39.3005 55.0527 39.2094 55.0345 39.1C55.0162 38.9906 55.0071 38.9176 55.0071 38.8812C54.9706 38.8447 54.9433 38.7809 54.9251 38.6897C54.9068 38.5986 54.8977 38.5165 54.8977 38.4436C54.8612 38.2977 54.8157 38.1519 54.761 38.006C54.7063 37.8601 54.6425 37.7325 54.5695 37.6231C54.5695 37.5502 54.5604 37.4955 54.5422 37.459C54.5239 37.4226 54.5148 37.3861 54.5148 37.3496C54.5148 37.3132 54.5057 37.2676 54.4875 37.2129C54.4692 37.1582 54.4419 37.1126 54.4054 37.0761C54.4054 37.0397 54.369 36.9576 54.296 36.83C54.2231 36.7024 54.1684 36.5838 54.1319 36.4744C54.059 36.3286 53.9861 36.1918 53.9131 36.0642C53.8402 35.9366 53.7855 35.8545 53.749 35.8181C53.7126 35.7816 53.6852 35.7269 53.667 35.654C53.6488 35.581 53.6214 35.5263 53.585 35.4899C53.5485 35.4169 53.4391 35.2437 53.2568 34.9702C53.0744 34.6968 52.965 34.5418 52.9286 34.5053C52.8921 34.5053 52.8374 34.4506 52.7645 34.3412C52.6915 34.2318 52.6004 34.1224 52.491 34.013C52.3087 33.7213 51.9714 33.3384 51.4791 32.8644C50.9868 32.3903 50.6495 32.0803 50.4671 31.9345C50.3942 31.8616 50.3213 31.7977 50.2484 31.743C50.1754 31.6883 50.139 31.661 50.139 31.661C50.066 31.5516 49.7378 31.2872 49.1544 30.8679C48.5709 30.4485 48.261 30.2388 48.2245 30.2388C48.2245 30.2388 48.1789 30.2206 48.0878 30.1841C47.9966 30.1477 47.8963 30.093 47.7869 30.02C47.6775 29.9107 47.5773 29.8286 47.4861 29.7739C47.3949 29.7192 47.3311 29.6919 47.2946 29.6919C47.2217 29.6554 47.1852 29.6007 47.1852 29.5278C47.1852 29.4548 47.2217 29.3454 47.2946 29.1996C47.3676 29.1631 47.4223 29.1175 47.4587 29.0628C47.4952 29.0081 47.5134 28.9625 47.5134 28.9261C47.5134 28.9261 47.5317 28.8987 47.5681 28.844C47.6046 28.7893 47.6411 28.7255 47.6775 28.6526C47.7869 28.5067 47.869 28.3882 47.9237 28.297C47.9784 28.2059 48.0787 28.0144 48.2245 27.7227C48.2974 27.6133 48.3613 27.4948 48.416 27.3672C48.4707 27.2395 48.5162 27.1575 48.5527 27.121C48.5527 27.0846 48.5618 27.039 48.5801 26.9843C48.5983 26.9296 48.6074 26.884 48.6074 26.8475C48.6074 26.8111 48.6165 26.7655 48.6348 26.7108C48.653 26.6561 48.6803 26.6105 48.7168 26.5741C48.7168 26.5741 48.735 26.5467 48.7715 26.492C48.808 26.4373 48.8262 26.3735 48.8262 26.3006C48.8262 26.2641 48.8262 26.2094 48.8262 26.1365C48.8262 26.0635 48.8444 26.0088 48.8809 25.9724C48.9538 25.8265 48.9994 25.5895 49.0176 25.2613C49.0359 24.9331 49.045 24.532 49.045 24.0579C49.045 23.5109 49.0176 23.0278 48.9629 22.6084C48.9082 22.1891 48.8262 21.8335 48.7168 21.5418C48.6803 21.5053 48.653 21.4598 48.6348 21.4051C48.6165 21.3504 48.6074 21.3048 48.6074 21.2683C48.6074 21.2318 48.5983 21.1863 48.5801 21.1316C48.5618 21.0769 48.5345 21.0313 48.498 20.9948C48.498 20.9584 48.4615 20.8763 48.3886 20.7487C48.3157 20.6211 48.261 20.5025 48.2245 20.3931C47.9693 19.8462 47.6958 19.3812 47.404 18.9983C47.1123 18.6154 46.7294 18.1687 46.2554 17.6582C45.9272 17.33 45.5261 16.9654 45.052 16.5643C44.578 16.1631 44.2862 15.9443 44.1768 15.9079C44.1768 15.9079 44.1404 15.8805 44.0674 15.8258C43.9945 15.7711 43.9398 15.7256 43.9034 15.6891C43.8304 15.6526 43.7666 15.6162 43.7119 15.5797C43.6572 15.5432 43.6116 15.525 43.5752 15.525C43.5752 15.525 43.5569 15.5068 43.5205 15.4703C43.484 15.4338 43.4475 15.3974 43.4111 15.3609C43.3381 15.288 43.3017 15.2424 43.3017 15.2242C43.3017 15.2059 43.3199 15.1786 43.3564 15.1421C43.3928 15.1056 43.4202 15.0692 43.4384 15.0327C43.4566 14.9962 43.4658 14.978 43.4658 14.978C43.4658 14.9415 43.4749 14.9051 43.4931 14.8686C43.5113 14.8321 43.5205 14.7957 43.5205 14.7592C43.5934 14.6863 43.6937 14.5313 43.8213 14.2943C43.9489 14.0573 44.0127 13.9205 44.0127 13.884C44.0127 13.8476 44.0219 13.8111 44.0401 13.7746C44.0583 13.7382 44.0857 13.7017 44.1221 13.6652C44.1221 13.6652 44.1313 13.6379 44.1495 13.5832C44.1677 13.5285 44.1768 13.4829 44.1768 13.4465C44.1768 13.41 44.186 13.3553 44.2042 13.2824C44.2224 13.2094 44.2498 13.1547 44.2862 13.1183C44.3227 13.0818 44.3501 13.0271 44.3683 12.9542C44.3865 12.8812 44.3956 12.8265 44.3956 12.7901C44.3956 12.7171 44.4048 12.626 44.423 12.5166C44.4412 12.4072 44.4503 12.316 44.4503 12.2431C44.5233 12.0243 44.5597 11.7417 44.5597 11.3953C44.5597 11.0488 44.5415 10.7662 44.505 10.5474C44.4686 10.4745 44.4412 10.3742 44.423 10.2466C44.4048 10.119 44.3956 10.0005 44.3956 9.89106C44.3592 9.81813 44.3318 9.73609 44.3136 9.64492C44.2954 9.55376 44.2862 9.48994 44.2862 9.45348C44.2498 9.45348 44.2224 9.43525 44.2042 9.39878C44.186 9.36232 44.1768 9.32585 44.1768 9.28938C44.1768 9.21645 44.1677 9.15264 44.1495 9.09794C44.1313 9.04324 44.1221 8.99766 44.1221 8.96119C44.0857 8.92473 44.0492 8.86091 44.0127 8.76975C43.9763 8.67859 43.9398 8.59654 43.9034 8.52361C43.8669 8.48714 43.8395 8.43244 43.8213 8.35951C43.8031 8.28658 43.7757 8.23188 43.7393 8.19542C43.7393 8.19542 43.7301 8.16807 43.7119 8.11337C43.6937 8.05867 43.6663 7.99486 43.6299 7.92192C43.6299 7.88546 43.6116 7.849 43.5752 7.81253C43.5387 7.77606 43.5205 7.75783 43.5205 7.75783C43.5205 7.75783 43.5113 7.74871 43.4931 7.73048C43.4749 7.71225 43.4475 7.6849 43.4111 7.64843C43.4111 7.5755 43.3746 7.49345 43.3017 7.40229C43.2287 7.31113 43.1376 7.21085 43.0282 7.10145C42.9917 7.02852 42.9552 6.96471 42.9188 6.91001C42.8823 6.85531 42.8641 6.82796 42.8641 6.82796C42.8641 6.79149 42.6088 6.518 42.0983 6.00748C41.5878 5.49697 41.3143 5.24171 41.2778 5.24171C41.2778 5.24171 41.2505 5.22348 41.1958 5.18701C41.1411 5.15054 41.0773 5.11408 41.0043 5.07761C40.8949 4.96822 40.6579 4.78589 40.2933 4.53063C39.9286 4.27537 39.6369 4.09304 39.4181 3.98365C39.2722 3.91072 38.9623 3.75574 38.4882 3.51871C38.0142 3.28168 37.7042 3.12671 37.5583 3.05378C37.4854 3.01731 37.4125 2.98996 37.3396 2.97173C37.2666 2.9535 37.2119 2.92615 37.1755 2.88968C37.139 2.85321 37.0934 2.82587 37.0387 2.80763C36.984 2.7894 36.9384 2.78028 36.902 2.78028C36.8655 2.78028 36.829 2.77117 36.7926 2.75293C36.7561 2.7347 36.7196 2.72559 36.6832 2.72559C36.6467 2.68912 36.6011 2.66177 36.5464 2.64354C36.4917 2.62531 36.4461 2.61619 36.4097 2.61619C36.3732 2.61619 36.3368 2.60707 36.3003 2.58884C36.2638 2.57061 36.2456 2.56149 36.2456 2.56149C36.2091 2.52502 36.1635 2.49768 36.1088 2.47944C36.0541 2.46121 35.9903 2.4521 35.9174 2.4521C35.8445 2.41563 35.7624 2.38828 35.6713 2.37004C35.5801 2.35181 35.5163 2.32446 35.4798 2.288C35.4069 2.288 35.3339 2.26977 35.261 2.2333C35.1881 2.19683 35.1334 2.1786 35.0969 2.1786C35.024 2.14214 34.9511 2.11479 34.8781 2.09655C34.8052 2.07832 34.7323 2.06921 34.6593 2.06921C34.5864 2.06921 34.5135 2.05097 34.4405 2.01451C34.3676 1.97804 34.3129 1.95981 34.2764 1.95981C34.24 1.92334 34.1853 1.90511 34.1124 1.90511C34.0394 1.90511 33.9665 1.90511 33.8936 1.90511C33.8206 1.90511 33.7477 1.896 33.6748 1.87776C33.6018 1.85953 33.5471 1.83218 33.5107 1.79572C33.4742 1.75925 33.4104 1.7319 33.3192 1.71367C33.2281 1.69543 33.1642 1.68632 33.1278 1.68632C33.0548 1.68632 32.9637 1.6772 32.8543 1.65897C32.7449 1.64074 32.6537 1.63162 32.5808 1.63162C32.5079 1.59515 32.4167 1.56781 32.3073 1.54957C32.1979 1.53134 32.1067 1.52222 32.0338 1.52222C31.9609 1.52222 31.8606 1.51311 31.733 1.49487C31.6053 1.47664 31.4868 1.44929 31.3774 1.41283C31.268 1.41283 31.1222 1.39459 30.9398 1.35813C30.7575 1.32166 30.5934 1.30343 30.4476 1.30343C30.1194 1.30343 29.8823 1.29431 29.7365 1.27608C29.5906 1.25785 29.5177 1.2305 29.5177 1.19403C29.5177 1.15757 29.3992 1.13022 29.1622 1.11198C28.9251 1.09375 28.4237 1.08464 27.6579 1.08464C26.8922 1.08464 26.3817 1.09375 26.1264 1.11198C25.8711 1.13022 25.7435 1.15757 25.7435 1.19403ZM28.7519 4.53063C28.9707 4.53063 29.2169 4.54886 29.4903 4.58533C29.7638 4.6218 29.9917 4.64003 30.1741 4.64003C30.3929 4.64003 30.5934 4.65826 30.7758 4.69473C30.9581 4.73119 31.0857 4.74942 31.1586 4.74942C31.2316 4.78589 31.3136 4.80412 31.4048 4.80412C31.4959 4.80412 31.578 4.80412 31.6509 4.80412C31.7239 4.80412 31.8059 4.82235 31.8971 4.85882C31.9882 4.89529 32.0703 4.91352 32.1432 4.91352C32.1797 4.94999 32.2435 4.97733 32.3347 4.99557C32.4258 5.0138 32.5079 5.02291 32.5808 5.02291C32.6537 5.02291 32.7358 5.03203 32.8269 5.05026C32.9181 5.0685 33.0002 5.09584 33.0731 5.13231C33.1095 5.13231 33.1734 5.14143 33.2645 5.15966C33.3557 5.17789 33.4195 5.18701 33.456 5.18701C33.4924 5.18701 33.5471 5.19613 33.6201 5.21436C33.693 5.23259 33.7477 5.25994 33.7842 5.29641C33.8206 5.33287 33.8753 5.36022 33.9483 5.37845C34.0212 5.39669 34.0759 5.4058 34.1124 5.4058C34.1488 5.4058 34.2035 5.41492 34.2764 5.43315C34.3494 5.45139 34.4041 5.4605 34.4405 5.4605C34.477 5.49697 34.5226 5.52431 34.5773 5.54255C34.632 5.56078 34.6776 5.5699 34.714 5.5699C34.787 5.5699 34.8417 5.57901 34.8781 5.59725C34.9146 5.61548 34.9511 5.64283 34.9875 5.67929C35.024 5.67929 35.0696 5.68841 35.1243 5.70664C35.179 5.72488 35.2245 5.73399 35.261 5.73399C35.261 5.73399 35.2975 5.74311 35.3704 5.76134C35.4433 5.77958 35.5163 5.80692 35.5892 5.84339C35.6621 5.87986 35.7351 5.91632 35.808 5.95279C35.8809 5.98925 35.9539 6.02572 36.0268 6.06218C36.0633 6.06218 36.118 6.08042 36.1909 6.11688C36.2638 6.15335 36.3368 6.18981 36.4097 6.22628C36.4461 6.22628 36.5008 6.24451 36.5738 6.28098C36.6467 6.31744 36.6832 6.33567 36.6832 6.33567C36.7196 6.33567 36.7561 6.34479 36.7926 6.36303C36.829 6.38126 36.8655 6.40861 36.902 6.44507C36.902 6.44507 36.9202 6.45419 36.9567 6.47242C36.9931 6.49065 37.0296 6.49977 37.0661 6.49977C37.1025 6.53624 37.139 6.56358 37.1755 6.58182C37.2119 6.60005 37.2302 6.60917 37.2302 6.60917C37.2666 6.60917 37.3031 6.61828 37.3396 6.63652C37.376 6.65475 37.4125 6.6821 37.4489 6.71856C37.4489 6.71856 37.4763 6.7368 37.531 6.77326C37.5857 6.80973 37.6495 6.84619 37.7224 6.88266C37.7589 6.88266 37.8136 6.90089 37.8865 6.93736C37.9595 6.97382 37.9959 7.01029 37.9959 7.04675C38.2147 7.15615 38.4791 7.32936 38.7891 7.56639C39.099 7.80341 39.3816 8.03132 39.6369 8.25011C39.8557 8.46891 40.0562 8.6877 40.2386 8.90649C40.4209 9.12529 40.5121 9.25292 40.5121 9.28938C40.5121 9.28938 40.5303 9.31673 40.5668 9.37143C40.6032 9.42613 40.6397 9.48994 40.6761 9.56287C40.7491 9.63581 40.8038 9.70874 40.8402 9.78167C40.8767 9.8546 40.8949 9.89106 40.8949 9.89106C40.8949 9.92753 40.9041 9.964 40.9223 10.0005C40.9405 10.0369 40.9496 10.0916 40.9496 10.1646C41.132 10.4927 41.2231 10.8756 41.2231 11.3132C41.2231 11.7508 41.132 12.1337 40.9496 12.4619C40.9496 12.4984 40.9405 12.5439 40.9223 12.5986C40.9041 12.6533 40.8949 12.6989 40.8949 12.7354C40.8949 12.8083 40.7673 13.0089 40.5121 13.3371C40.2568 13.6652 40.038 13.9387 39.8557 14.1575C39.5275 14.4857 39.1719 14.7957 38.7891 15.0874C38.4062 15.3791 38.0324 15.6162 37.6677 15.7985C37.5948 15.8349 37.5219 15.8714 37.4489 15.9079C37.376 15.9443 37.3396 15.9808 37.3396 16.0173C37.3031 16.0173 37.2666 16.0264 37.2302 16.0446C37.1937 16.0629 37.1572 16.072 37.1208 16.072C37.1208 16.1084 37.0934 16.1358 37.0387 16.154C36.984 16.1723 36.9567 16.1814 36.9567 16.1814C36.9202 16.2178 36.8837 16.2452 36.8473 16.2634C36.8108 16.2817 36.7743 16.2908 36.7379 16.2908C36.7379 16.2908 36.7196 16.2999 36.6832 16.3181C36.6467 16.3363 36.6102 16.3455 36.5738 16.3455C36.4279 16.4549 36.3003 16.5278 36.1909 16.5643C36.0815 16.6007 36.0086 16.619 35.9721 16.619C35.9356 16.619 35.8992 16.6281 35.8627 16.6463C35.8262 16.6645 35.7898 16.6919 35.7533 16.7284C35.7168 16.7284 35.6713 16.7375 35.6166 16.7557C35.5619 16.7739 35.5345 16.7831 35.5345 16.7831C35.498 16.7831 35.4525 16.7922 35.3978 16.8104C35.3431 16.8286 35.2975 16.856 35.261 16.8924C35.1516 16.9654 35.0149 17.0201 34.8508 17.0565C34.6867 17.093 34.5499 17.1295 34.4405 17.1659C34.3676 17.1659 34.2947 17.1842 34.2217 17.2206C34.1488 17.2571 34.0941 17.2753 34.0577 17.2753C34.0212 17.3118 33.9756 17.3392 33.9209 17.3574C33.8662 17.3756 33.8206 17.3847 33.7842 17.3847C33.7112 17.3847 33.6474 17.3939 33.5927 17.4121C33.538 17.4303 33.4924 17.4394 33.456 17.4394C33.4195 17.4759 33.3648 17.5032 33.2919 17.5215C33.2189 17.5397 33.1642 17.5488 33.1278 17.5488C33.0548 17.5488 32.9728 17.5579 32.8816 17.5762C32.7905 17.5944 32.7084 17.6218 32.6355 17.6582C32.5626 17.6582 32.4805 17.6673 32.3894 17.6856C32.2982 17.7038 32.2344 17.7129 32.1979 17.7129C32.125 17.7129 32.0429 17.722 31.9518 17.7403C31.8606 17.7585 31.7786 17.7859 31.7056 17.8223C31.6327 17.8588 31.5233 17.8861 31.3774 17.9044C31.2316 17.9226 31.1222 17.9317 31.0492 17.9317C30.9398 17.9317 30.8122 17.9408 30.6664 17.9591C30.5205 17.9773 30.4111 17.9864 30.3382 17.9864C30.0829 18.0593 29.1804 18.0958 27.6306 18.0958C26.0808 18.0958 25.1783 18.0593 24.923 17.9864C24.8136 17.9864 24.6951 17.9773 24.5675 17.9591C24.4399 17.9408 24.3214 17.9317 24.212 17.9317C24.1026 17.9317 23.984 17.9226 23.8564 17.9044C23.7288 17.8861 23.6103 17.8588 23.5009 17.8223C23.4279 17.7859 23.3459 17.7585 23.2547 17.7403C23.1636 17.722 23.0815 17.7129 23.0086 17.7129C22.9721 17.7129 22.9083 17.7038 22.8171 17.6856C22.726 17.6673 22.6439 17.6582 22.571 17.6582C22.4981 17.6218 22.416 17.5944 22.3249 17.5762C22.2337 17.5579 22.1699 17.5488 22.1334 17.5488C22.0605 17.5488 21.9967 17.5397 21.942 17.5215C21.8873 17.5032 21.8235 17.4759 21.7505 17.4394C21.7141 17.4394 21.6685 17.4303 21.6138 17.4121C21.5591 17.3939 21.5135 17.3847 21.477 17.3847C21.4041 17.3847 21.3403 17.3756 21.2856 17.3574C21.2309 17.3392 21.1853 17.3118 21.1488 17.2753C21.1124 17.2753 21.0577 17.2571 20.9848 17.2206C20.9118 17.1842 20.8571 17.1659 20.8207 17.1659C20.6748 17.1295 20.5289 17.093 20.3831 17.0565C20.2372 17.0201 20.1096 16.9654 20.0002 16.8924C19.9637 16.856 19.9181 16.8286 19.8634 16.8104C19.8087 16.7922 19.7632 16.7831 19.7267 16.7831C19.6902 16.7831 19.6446 16.7739 19.5899 16.7557C19.5352 16.7375 19.4897 16.7284 19.4532 16.7284C19.4532 16.6919 19.4259 16.6645 19.3712 16.6463C19.3165 16.6281 19.2709 16.619 19.2344 16.619C19.1979 16.619 19.1615 16.6098 19.125 16.5916C19.0885 16.5734 19.0338 16.546 18.9609 16.5096C18.9244 16.5096 18.8789 16.4913 18.8242 16.4549C18.7695 16.4184 18.7239 16.4002 18.6874 16.4002C18.6874 16.4002 18.6692 16.391 18.6327 16.3728C18.5963 16.3546 18.5598 16.3455 18.5233 16.3455C18.4869 16.309 18.4504 16.2817 18.4139 16.2634C18.3775 16.2452 18.3592 16.2361 18.3592 16.2361C18.3228 16.2361 18.2863 16.227 18.2498 16.2087C18.2134 16.1905 18.1769 16.1631 18.1404 16.1267C18.104 16.1267 18.0675 16.1084 18.031 16.072C17.9946 16.0355 17.9581 16.0173 17.9216 16.0173C17.8852 15.9808 17.8305 15.9443 17.7576 15.9079C17.6846 15.8714 17.6299 15.8349 17.5935 15.7985C17.01 15.5068 16.4539 15.133 15.9252 14.6772C15.3964 14.2213 14.9862 13.7564 14.6944 13.2824C14.5121 13.0636 14.3845 12.8721 14.3116 12.708C14.2386 12.5439 14.1839 12.3525 14.1475 12.1337C14.1475 12.0608 14.1292 11.9878 14.0928 11.9149C14.0563 11.842 14.0381 11.7873 14.0381 11.7508C13.9651 11.6414 13.956 11.4044 14.0107 11.0397C14.0654 10.6751 14.1475 10.3834 14.2569 10.1646C14.2933 10.0916 14.3207 10.0369 14.3389 10.0005C14.3571 9.964 14.3663 9.92753 14.3663 9.89106C14.3663 9.89106 14.3845 9.8546 14.421 9.78167C14.4574 9.70874 14.4939 9.63581 14.5304 9.56287C14.5668 9.48994 14.6033 9.42613 14.6397 9.37143C14.6762 9.31673 14.6944 9.28938 14.6944 9.28938C14.6944 9.21645 14.8768 8.98854 15.2414 8.60566C15.6061 8.22277 15.916 7.94016 16.1713 7.75783C16.4995 7.50257 16.7092 7.33848 16.8003 7.26554C16.8915 7.19262 17.0282 7.11968 17.2106 7.04675C17.247 7.01029 17.2926 6.97382 17.3473 6.93736C17.402 6.90089 17.4476 6.88266 17.4841 6.88266C17.5935 6.80973 17.6664 6.76414 17.7029 6.74591C17.7393 6.72768 17.8123 6.70033 17.9216 6.66386C17.9581 6.6274 17.9855 6.60005 18.0037 6.58182C18.0219 6.56358 18.0493 6.55447 18.0857 6.55447C18.1222 6.55447 18.1587 6.54535 18.1951 6.52712C18.2316 6.50888 18.2498 6.48154 18.2498 6.44507C18.2863 6.44507 18.3228 6.43596 18.3592 6.41772C18.3957 6.39949 18.4322 6.39037 18.4686 6.39037C18.5051 6.35391 18.5963 6.30833 18.7421 6.25363C18.888 6.19893 19.0521 6.11688 19.2344 6.00748C19.2709 6.00748 19.3347 5.98925 19.4259 5.95279C19.517 5.91632 19.5991 5.87986 19.672 5.84339C19.7085 5.80692 19.7632 5.77958 19.8361 5.76134C19.909 5.74311 19.9637 5.73399 20.0002 5.73399C20.0366 5.73399 20.0731 5.72488 20.1096 5.70664C20.146 5.68841 20.1825 5.67929 20.219 5.67929C20.2554 5.64283 20.301 5.61548 20.3557 5.59725C20.4104 5.57901 20.456 5.5699 20.4925 5.5699C20.5289 5.5699 20.5745 5.56078 20.6292 5.54255C20.6839 5.52431 20.7477 5.49697 20.8207 5.4605C20.8571 5.4605 20.9027 5.45139 20.9574 5.43315C21.0121 5.41492 21.0577 5.4058 21.0942 5.4058C21.1306 5.4058 21.1853 5.39669 21.2582 5.37845C21.3312 5.36022 21.3859 5.33287 21.4223 5.29641C21.4588 5.25994 21.5135 5.23259 21.5864 5.21436C21.6594 5.19613 21.7141 5.18701 21.7505 5.18701C21.8235 5.18701 21.8964 5.17789 21.9693 5.15966C22.0423 5.14143 22.1152 5.13231 22.1881 5.13231C22.2246 5.09584 22.2884 5.0685 22.3796 5.05026C22.4707 5.03203 22.5528 5.02291 22.6257 5.02291C22.6986 5.02291 22.7807 5.0138 22.8718 4.99557C22.963 4.97733 23.0268 4.94999 23.0633 4.91352C23.1362 4.87705 23.2183 4.8497 23.3094 4.83147C23.4006 4.81324 23.4826 4.80412 23.5556 4.80412C23.6285 4.80412 23.7197 4.80412 23.8291 4.80412C23.9385 4.80412 24.0296 4.78589 24.1026 4.74942C24.139 4.74942 24.2575 4.73119 24.4581 4.69473C24.6587 4.65826 24.8683 4.64003 25.0871 4.64003C25.3059 4.64003 25.5429 4.6218 25.7982 4.58533C26.0535 4.54886 26.254 4.53063 26.3999 4.53063C26.801 4.49416 27.193 4.47593 27.5759 4.47593C27.9588 4.47593 28.3508 4.49416 28.7519 4.53063ZM14.7491 17.9864C14.9315 18.1323 15.0773 18.2326 15.1867 18.2873C15.2961 18.342 15.3873 18.4058 15.4602 18.4787C15.4967 18.4787 15.5514 18.4969 15.6243 18.5334C15.6972 18.5699 15.7519 18.6063 15.7884 18.6428C15.8249 18.6793 15.8978 18.7248 16.0072 18.7795C16.1166 18.8342 16.2078 18.8798 16.2807 18.9163C16.3536 18.9528 16.4357 18.9983 16.5268 19.053C16.618 19.1077 16.6636 19.1351 16.6636 19.1351C16.7001 19.1351 16.773 19.1624 16.8824 19.2171C16.9918 19.2718 17.1012 19.3356 17.2106 19.4086C17.32 19.445 17.4385 19.4906 17.5661 19.5453C17.6937 19.6 17.7758 19.6456 17.8123 19.6821C17.8487 19.6821 17.8943 19.6912 17.949 19.7094C18.0037 19.7276 18.0493 19.7368 18.0857 19.7368C18.1222 19.7368 18.1587 19.7459 18.1951 19.7641C18.2316 19.7823 18.2681 19.8097 18.3045 19.8462C18.341 19.8826 18.3775 19.91 18.4139 19.9282C18.4504 19.9464 18.4869 19.9556 18.5233 19.9556C18.5598 19.9556 18.6054 19.9647 18.6601 19.9829C18.7148 20.0011 18.7604 20.0103 18.7968 20.0103C18.9427 20.0832 19.0885 20.147 19.2344 20.2017C19.3803 20.2564 19.5079 20.2837 19.6173 20.2837C19.6538 20.2837 19.6993 20.302 19.754 20.3384C19.8087 20.3749 19.8543 20.3931 19.8908 20.3931C19.9273 20.4296 19.9728 20.457 20.0275 20.4752C20.0822 20.4934 20.146 20.5025 20.219 20.5025C20.2554 20.5025 20.3101 20.5117 20.3831 20.5299C20.456 20.5481 20.5107 20.5572 20.5472 20.5572C20.5836 20.5937 20.6292 20.6211 20.6839 20.6393C20.7386 20.6575 20.8024 20.6666 20.8754 20.6666C20.9118 20.6666 20.9665 20.6758 21.0395 20.694C21.1124 20.7122 21.1853 20.7396 21.2582 20.776C21.3312 20.8125 21.4132 20.8307 21.5044 20.8307C21.5956 20.8307 21.6594 20.849 21.6958 20.8854C21.7688 20.8854 21.8417 20.8945 21.9146 20.9128C21.9876 20.931 22.0605 20.9401 22.1334 20.9401C22.1699 20.9766 22.2337 21.0039 22.3249 21.0222C22.416 21.0404 22.4981 21.0495 22.571 21.0495C22.6439 21.0495 22.7442 21.0586 22.8718 21.0769C22.9995 21.0951 23.0998 21.1225 23.1727 21.1589C23.2456 21.1589 23.3459 21.168 23.4735 21.1863C23.6012 21.2045 23.7014 21.2136 23.7744 21.2136C23.8473 21.2136 23.9658 21.2227 24.1299 21.241C24.294 21.2592 24.4307 21.2865 24.5401 21.323C24.7589 21.3595 25.0689 21.3868 25.47 21.4051C25.8711 21.4233 26.5822 21.4324 27.6033 21.4324C28.6243 21.4324 29.3445 21.4233 29.7638 21.4051C30.1832 21.3868 30.484 21.3595 30.6664 21.323C30.8122 21.2865 30.9581 21.2592 31.1039 21.241C31.2498 21.2227 31.3592 21.2136 31.4321 21.2136C31.5415 21.2136 31.6509 21.2045 31.7603 21.1863C31.8697 21.168 31.9609 21.1589 32.0338 21.1589C32.1432 21.1225 32.2526 21.0951 32.362 21.0769C32.4714 21.0586 32.5626 21.0495 32.6355 21.0495C32.7084 21.0495 32.7905 21.0404 32.8816 21.0222C32.9728 21.0039 33.0548 20.9766 33.1278 20.9401C33.1642 20.9401 33.2189 20.931 33.2919 20.9128C33.3648 20.8945 33.4377 20.8854 33.5107 20.8854C33.5836 20.849 33.6565 20.8307 33.7295 20.8307C33.8024 20.8307 33.8753 20.8125 33.9483 20.776C34.0212 20.7396 34.0941 20.7122 34.167 20.694C34.24 20.6758 34.3129 20.6666 34.3858 20.6666C34.4223 20.6666 34.4679 20.6575 34.5226 20.6393C34.5773 20.6211 34.6229 20.5937 34.6593 20.5572C34.6958 20.5572 34.7505 20.5481 34.8234 20.5299C34.8964 20.5117 34.9511 20.5025 34.9875 20.5025C35.0605 20.5025 35.1243 20.4934 35.179 20.4752C35.2337 20.457 35.2792 20.4296 35.3157 20.3931C35.3522 20.3931 35.3978 20.3749 35.4525 20.3384C35.5072 20.302 35.571 20.2837 35.6439 20.2837C35.7533 20.2837 35.8809 20.2564 36.0268 20.2017C36.1727 20.147 36.3003 20.0832 36.4097 20.0103C36.4461 20.0103 36.4917 20.0011 36.5464 19.9829C36.6011 19.9647 36.6467 19.9556 36.6832 19.9556C36.7196 19.9556 36.7561 19.9464 36.7926 19.9282C36.829 19.91 36.8655 19.8826 36.902 19.8462C36.9384 19.8097 36.984 19.7823 37.0387 19.7641C37.0934 19.7459 37.1208 19.7368 37.1208 19.7368C37.1572 19.7368 37.2028 19.7276 37.2575 19.7094C37.3122 19.6912 37.3578 19.6821 37.3942 19.6821C37.4672 19.6456 37.5583 19.6 37.6677 19.5453C37.7771 19.4906 37.8865 19.445 37.9959 19.4086C38.1418 19.3356 38.2603 19.2718 38.3515 19.2171C38.4426 19.1624 38.5064 19.1351 38.5429 19.1351C38.5794 19.1351 38.6341 19.1077 38.707 19.053C38.7799 18.9983 38.8529 18.9528 38.9258 18.9163C39.0352 18.8798 39.1355 18.8342 39.2266 18.7795C39.3178 18.7248 39.3816 18.6793 39.4181 18.6428C39.491 18.6063 39.5548 18.5699 39.6095 18.5334C39.6642 18.4969 39.7098 18.4787 39.7463 18.4787C39.8557 18.4058 39.956 18.342 40.0471 18.2873C40.1383 18.2326 40.275 18.1323 40.4574 17.9864L40.7855 17.7129L41.059 17.877C41.132 17.9135 41.2049 17.95 41.2778 17.9864C41.3508 18.0229 41.4055 18.0593 41.4419 18.0958C41.4419 18.0958 41.4784 18.114 41.5513 18.1505C41.6243 18.187 41.679 18.2417 41.7154 18.3146C41.7883 18.3511 41.8522 18.3875 41.9069 18.424C41.9616 18.4605 41.9889 18.4787 41.9889 18.4787C42.0254 18.4787 42.0983 18.5152 42.2077 18.5881C42.3171 18.661 42.4265 18.7522 42.5359 18.8616C42.937 19.1533 43.4111 19.5818 43.958 20.147C44.505 20.7122 44.8332 21.1225 44.9426 21.3777C44.9426 21.3777 44.9608 21.4051 44.9973 21.4598C45.0338 21.5145 45.0702 21.5783 45.1067 21.6512C45.1432 21.6877 45.1796 21.7332 45.2161 21.7879C45.2526 21.8426 45.2708 21.8882 45.2708 21.9247C45.2708 21.9247 45.289 21.952 45.3255 22.0067C45.362 22.0614 45.3802 22.107 45.3802 22.1435C45.4167 22.2164 45.444 22.2802 45.4622 22.3349C45.4805 22.3896 45.4896 22.4352 45.4896 22.4717C45.4896 22.5081 45.4987 22.5446 45.5169 22.5811C45.5352 22.6175 45.5443 22.654 45.5443 22.6905C45.5808 22.7269 45.6355 22.9093 45.7084 23.2375C45.7813 23.5656 45.8178 23.8209 45.8178 24.0032C45.8178 24.1491 45.7813 24.4044 45.7084 24.769C45.6355 25.1337 45.5808 25.3889 45.5443 25.5348C45.5078 25.6442 45.4167 25.8447 45.2708 26.1365C45.1249 26.4282 45.0338 26.6287 44.9973 26.7381C44.7421 27.1028 44.3865 27.5313 43.9307 28.0236C43.4749 28.5158 43.0464 28.9078 42.6453 29.1996C42.39 29.3819 42.0801 29.5916 41.7154 29.8286C41.3508 30.0656 41.132 30.2024 41.059 30.2388C41.0226 30.2753 40.9679 30.3118 40.8949 30.3482C40.822 30.3847 40.7673 30.4212 40.7308 30.4576C40.6579 30.4941 40.5941 30.5306 40.5394 30.567C40.4847 30.6035 40.4027 30.64 40.2933 30.6764C40.2933 30.6764 40.275 30.6855 40.2386 30.7038C40.2021 30.722 40.1656 30.7311 40.1292 30.7311C40.1292 30.7676 40.1018 30.7949 40.0471 30.8132C39.9924 30.8314 39.9651 30.8405 39.9651 30.8405C39.9286 30.8405 39.8921 30.8496 39.8557 30.8679C39.8192 30.8861 39.7827 30.8952 39.7463 30.8952C39.6369 30.9682 39.5275 31.032 39.4181 31.0867C39.3087 31.1414 39.2358 31.1687 39.1993 31.1687C39.1628 31.1687 39.1355 31.1778 39.1172 31.1961C39.099 31.2143 39.0717 31.2416 39.0352 31.2781C38.9987 31.3146 38.9623 31.3419 38.9258 31.3602C38.8893 31.3784 38.8529 31.3875 38.8164 31.3875C38.7799 31.3875 38.7344 31.3966 38.6797 31.4149C38.625 31.4331 38.5794 31.4422 38.5429 31.4422C38.5429 31.4787 38.5156 31.506 38.4609 31.5243C38.4062 31.5425 38.3606 31.5516 38.3241 31.5516C38.3241 31.5516 38.2968 31.5607 38.2421 31.5789C38.1874 31.5972 38.1236 31.6063 38.0506 31.6063C37.9777 31.6792 37.8865 31.7339 37.7771 31.7704C37.6677 31.8069 37.4672 31.8798 37.1755 31.9892C37.139 31.9892 37.0752 32.0074 36.984 32.0439C36.8928 32.0803 36.8108 32.0986 36.7379 32.0986C36.7014 32.0986 36.6467 32.1168 36.5738 32.1533C36.5008 32.1897 36.4461 32.208 36.4097 32.208C36.3732 32.2444 36.3276 32.2627 36.2729 32.2627C36.2182 32.2627 36.1727 32.2627 36.1362 32.2627C36.0997 32.2627 36.045 32.2718 35.9721 32.29C35.8992 32.3083 35.8445 32.3356 35.808 32.3721C35.7715 32.4085 35.7168 32.4359 35.6439 32.4541C35.571 32.4724 35.498 32.4815 35.4251 32.4815C35.3886 32.4815 35.3339 32.4906 35.261 32.5088C35.1881 32.5271 35.1334 32.5362 35.0969 32.5362C35.0605 32.5726 35.0058 32.6 34.9328 32.6182C34.8599 32.6364 34.787 32.6456 34.714 32.6456C34.6411 32.6456 34.5591 32.6547 34.4679 32.6729C34.3767 32.6911 34.3129 32.7185 34.2764 32.755C34.2035 32.755 34.1215 32.7641 34.0303 32.7823C33.9391 32.8005 33.8571 32.8097 33.7842 32.8097C33.7477 32.8097 33.6839 32.8188 33.5927 32.837C33.5016 32.8552 33.4195 32.8826 33.3466 32.9191C33.2736 32.9555 33.1916 32.9829 33.1004 33.0011C33.0093 33.0193 32.9272 33.0285 32.8543 33.0285C32.7814 33.0285 32.6902 33.0376 32.5808 33.0558C32.4714 33.074 32.3985 33.0832 32.362 33.0832C32.2891 33.1196 32.1614 33.147 31.9791 33.1652C31.7968 33.1834 31.6145 33.1925 31.4321 33.1925C31.2498 33.229 31.0584 33.2564 30.8578 33.2746C30.6572 33.2928 30.5023 33.3019 30.3929 33.3019C30.2835 33.3384 29.9553 33.3566 29.4083 33.3566C28.8613 33.3566 28.2596 33.3566 27.6033 33.3566C26.9469 33.3566 26.3452 33.3566 25.7982 33.3566C25.2512 33.3566 24.923 33.3384 24.8136 33.3019C24.7042 33.3019 24.5493 33.2928 24.3487 33.2746C24.1481 33.2564 23.9567 33.229 23.7744 33.1925C23.592 33.1925 23.4097 33.1834 23.2274 33.1652C23.0451 33.147 22.9357 33.1196 22.8992 33.0832C22.8263 33.0832 22.7442 33.074 22.6531 33.0558C22.5619 33.0376 22.4798 33.0285 22.4069 33.0285C22.2975 33.0285 22.1972 33.0193 22.1061 33.0011C22.0149 32.9829 21.9329 32.9555 21.8599 32.9191C21.8235 32.8826 21.7596 32.8552 21.6685 32.837C21.5773 32.8188 21.4953 32.8097 21.4223 32.8097C21.3494 32.8097 21.2674 32.8005 21.1762 32.7823C21.085 32.7641 21.003 32.755 20.9301 32.755C20.8571 32.7185 20.7842 32.6911 20.7113 32.6729C20.6383 32.6547 20.5654 32.6456 20.4925 32.6456C20.4195 32.6456 20.3466 32.6364 20.2737 32.6182C20.2007 32.6 20.146 32.5726 20.1096 32.5362C20.0731 32.5362 20.0184 32.5271 19.9455 32.5088C19.8726 32.4906 19.8179 32.4815 19.7814 32.4815C19.7085 32.4815 19.6355 32.4724 19.5626 32.4541C19.4897 32.4359 19.435 32.4085 19.3985 32.3721C19.362 32.3356 19.3073 32.3083 19.2344 32.29C19.1615 32.2718 19.1068 32.2627 19.0703 32.2627C19.0338 32.2627 18.9883 32.2627 18.9336 32.2627C18.8789 32.2627 18.8333 32.2444 18.7968 32.208C18.7604 32.208 18.7057 32.1897 18.6327 32.1533C18.5598 32.1168 18.5051 32.0986 18.4686 32.0986C18.3957 32.0986 18.3228 32.0803 18.2498 32.0439C18.1769 32.0074 18.104 31.9892 18.031 31.9892C17.7393 31.8798 17.5388 31.8069 17.4294 31.7704C17.32 31.7339 17.2288 31.6792 17.1559 31.6063C17.1194 31.6063 17.0738 31.5972 17.0191 31.5789C16.9644 31.5607 16.9188 31.5516 16.8824 31.5516C16.8459 31.5516 16.8094 31.5425 16.773 31.5243C16.7365 31.506 16.7001 31.4787 16.6636 31.4422C16.6271 31.4422 16.5815 31.4331 16.5268 31.4149C16.4721 31.3966 16.4266 31.3875 16.3901 31.3875C16.3536 31.3875 16.3172 31.3784 16.2807 31.3602C16.2442 31.3419 16.2078 31.3146 16.1713 31.2781C16.1713 31.2416 16.1531 31.2143 16.1166 31.1961C16.0801 31.1778 16.0437 31.1687 16.0072 31.1687C16.0072 31.1687 15.9799 31.1596 15.9252 31.1414C15.8705 31.1231 15.8249 31.114 15.7884 31.114C15.7519 31.0775 15.7064 31.0502 15.6517 31.032C15.597 31.0137 15.5514 30.9864 15.5149 30.9499C15.4785 30.9499 15.442 30.9408 15.4055 30.9226C15.3691 30.9043 15.3326 30.877 15.2961 30.8405C15.1867 30.7676 15.1047 30.722 15.05 30.7038C14.9953 30.6855 14.9497 30.6764 14.9132 30.6764C14.8038 30.64 14.7309 30.6035 14.6944 30.567C14.658 30.5306 14.5851 30.4941 14.4757 30.4576C14.4392 30.4212 14.3936 30.3847 14.3389 30.3482C14.2842 30.3118 14.2204 30.2753 14.1475 30.2388C14.0745 30.2024 13.8557 30.0656 13.4911 29.8286C13.1264 29.5916 12.8347 29.3819 12.6159 29.1996C12.1783 28.9078 11.7316 28.5158 11.2758 28.0236C10.82 27.5313 10.4827 27.1028 10.2639 26.7381C10.191 26.6287 10.0907 26.4282 9.96304 26.1365C9.83541 25.8447 9.73513 25.6442 9.6622 25.5348C9.62574 25.3889 9.57104 25.1337 9.49811 24.769C9.42518 24.4044 9.40694 24.1491 9.44341 24.0032C9.44341 23.8209 9.47076 23.5656 9.52546 23.2375C9.58015 22.9093 9.62574 22.7269 9.6622 22.6905C9.69867 22.654 9.7169 22.6175 9.7169 22.5811C9.7169 22.5446 9.7169 22.5081 9.7169 22.4717C9.7169 22.4352 9.72602 22.3896 9.74425 22.3349C9.76248 22.2802 9.78983 22.2164 9.8263 22.1435C9.86276 22.107 9.89011 22.0614 9.90834 22.0067C9.92658 21.952 9.93569 21.9247 9.93569 21.9247C9.97216 21.8882 9.99951 21.8426 10.0177 21.7879C10.036 21.7332 10.0633 21.6877 10.0998 21.6512C10.1363 21.5783 10.1727 21.5145 10.2092 21.4598C10.2457 21.4051 10.2639 21.3777 10.2639 21.3777C10.3733 21.1225 10.7015 20.7122 11.2485 20.147C11.7954 19.5818 12.2695 19.1533 12.6706 18.8616C12.8165 18.7522 12.9441 18.661 13.0535 18.5881C13.1629 18.5152 13.2176 18.4787 13.2176 18.4787C13.2176 18.4787 13.2449 18.4605 13.2996 18.424C13.3543 18.3875 13.4182 18.3511 13.4911 18.3146C13.5275 18.2417 13.5822 18.187 13.6552 18.1505C13.7281 18.114 13.7646 18.0958 13.7646 18.0958C13.801 18.0593 13.8557 18.0229 13.9287 17.9864C14.0016 17.95 14.0745 17.9135 14.1475 17.877C14.2204 17.8406 14.2751 17.8041 14.3116 17.7676C14.348 17.7312 14.3845 17.7129 14.421 17.7129C14.421 17.7129 14.4574 17.7403 14.5304 17.795C14.6033 17.8497 14.6762 17.9135 14.7491 17.9864ZM11.0844 32.2627C11.2667 32.3721 11.4764 32.5088 11.7134 32.6729C11.9504 32.837 12.1419 32.9555 12.2877 33.0285C12.3242 33.0285 12.3698 33.0467 12.4245 33.0832C12.4792 33.1196 12.543 33.1561 12.6159 33.1925C12.6524 33.229 12.7162 33.2746 12.8074 33.3293C12.8985 33.384 12.9988 33.4296 13.1082 33.466C13.1811 33.5025 13.2541 33.5481 13.327 33.6028C13.3999 33.6575 13.4546 33.6848 13.4911 33.6848C13.5275 33.7213 13.564 33.7486 13.6005 33.7669C13.6369 33.7851 13.6552 33.7942 13.6552 33.7942C13.6916 33.7942 13.7281 33.8033 13.7646 33.8216C13.801 33.8398 13.8375 33.8489 13.874 33.8489C13.874 33.8854 13.9104 33.9127 13.9834 33.931C14.0563 33.9492 14.111 33.9766 14.1475 34.013C14.2204 34.0495 14.3116 34.0951 14.421 34.1498C14.5304 34.2045 14.6397 34.25 14.7491 34.2865C14.895 34.3594 15.0135 34.4141 15.1047 34.4506C15.1958 34.4871 15.2597 34.5053 15.2961 34.5053C15.2961 34.5053 15.3144 34.5144 15.3508 34.5327C15.3873 34.5509 15.4238 34.56 15.4602 34.56C15.4602 34.5965 15.4876 34.6238 15.5423 34.6421C15.597 34.6603 15.6426 34.6876 15.679 34.7241C15.7884 34.7241 15.916 34.7515 16.0619 34.8061C16.2078 34.8608 16.3354 34.9064 16.4448 34.9429C16.4813 34.9794 16.5268 35.0067 16.5815 35.0249C16.6362 35.0432 16.6818 35.0523 16.7183 35.0523C16.7548 35.0523 16.7912 35.0614 16.8277 35.0796C16.8641 35.0979 16.9006 35.1252 16.9371 35.1617C16.9735 35.1617 17.0282 35.1708 17.1012 35.189C17.1741 35.2073 17.2288 35.2164 17.2653 35.2164C17.3017 35.2164 17.3564 35.2255 17.4294 35.2437C17.5023 35.262 17.557 35.2893 17.5935 35.3258C17.6299 35.3622 17.6755 35.3896 17.7302 35.4078C17.7849 35.4261 17.8305 35.4352 17.8669 35.4352C17.9399 35.4352 18.0037 35.4443 18.0584 35.4625C18.1131 35.4808 18.1587 35.4899 18.1951 35.4899C18.2681 35.5263 18.3319 35.5537 18.3866 35.5719C18.4413 35.5902 18.5051 35.5993 18.578 35.5993C18.6145 35.5993 18.6692 35.6084 18.7421 35.6266C18.8151 35.6449 18.8698 35.6722 18.9062 35.7087C18.9427 35.7087 18.9974 35.7178 19.0703 35.736C19.1432 35.7543 19.1979 35.7634 19.2344 35.7634C19.3073 35.7634 19.3803 35.7725 19.4532 35.7907C19.5261 35.809 19.5808 35.8363 19.6173 35.8728C19.6538 35.9092 19.7085 35.9366 19.7814 35.9548C19.8543 35.973 19.9273 35.9822 20.0002 35.9822C20.0731 35.9822 20.146 35.9822 20.219 35.9822C20.2919 35.9822 20.3466 36.0004 20.3831 36.0369C20.456 36.0369 20.5472 36.0551 20.6566 36.0916C20.766 36.128 20.8571 36.1463 20.9301 36.1463C21.0395 36.1827 21.158 36.2101 21.2856 36.2283C21.4132 36.2465 21.5135 36.2557 21.5864 36.2557C21.6229 36.2921 21.7049 36.3104 21.8326 36.3104C21.9602 36.3104 22.0605 36.3104 22.1334 36.3104C22.2064 36.3104 22.2884 36.3195 22.3796 36.3377C22.4707 36.3559 22.5345 36.3833 22.571 36.4198C22.6075 36.4198 22.7169 36.438 22.8992 36.4744C23.0815 36.5109 23.2821 36.5291 23.5009 36.5291C23.7197 36.5291 23.9293 36.5474 24.1299 36.5838C24.3305 36.6203 24.4672 36.6385 24.5401 36.6385C24.686 36.675 25.707 36.6932 27.6033 36.6932C29.4995 36.6932 30.5205 36.675 30.6664 36.6385C30.7393 36.6385 30.876 36.6203 31.0766 36.5838C31.2772 36.5474 31.4868 36.5291 31.7056 36.5291C31.9244 36.5291 32.125 36.5109 32.3073 36.4744C32.4896 36.438 32.599 36.4198 32.6355 36.4198C32.672 36.3833 32.7358 36.3559 32.8269 36.3377C32.9181 36.3195 33.0002 36.3104 33.0731 36.3104C33.1825 36.3104 33.2919 36.3104 33.4013 36.3104C33.5107 36.3104 33.6018 36.2921 33.6748 36.2557C33.7477 36.2557 33.8389 36.2465 33.9483 36.2283C34.0577 36.2101 34.167 36.1827 34.2764 36.1463C34.3858 36.1463 34.4952 36.128 34.6046 36.0916C34.714 36.0551 34.787 36.0369 34.8234 36.0369C34.8599 36.0004 34.9146 35.9822 34.9875 35.9822C35.0605 35.9822 35.1334 35.9822 35.2063 35.9822C35.2792 35.9822 35.3522 35.973 35.4251 35.9548C35.498 35.9366 35.5527 35.9092 35.5892 35.8728C35.6257 35.8363 35.6804 35.809 35.7533 35.7907C35.8262 35.7725 35.8992 35.7634 35.9721 35.7634C36.0086 35.7634 36.0633 35.7543 36.1362 35.736C36.2091 35.7178 36.2821 35.7087 36.355 35.7087C36.3914 35.6722 36.437 35.6449 36.4917 35.6266C36.5464 35.6084 36.6102 35.5993 36.6832 35.5993C36.7196 35.5993 36.7743 35.5902 36.8473 35.5719C36.9202 35.5537 36.9749 35.5263 37.0114 35.4899C37.0478 35.4899 37.1025 35.4808 37.1755 35.4625C37.2484 35.4443 37.3031 35.4352 37.3396 35.4352C37.4125 35.4352 37.4763 35.4261 37.531 35.4078C37.5857 35.3896 37.6313 35.3622 37.6677 35.3258C37.7042 35.2893 37.7498 35.262 37.8045 35.2437C37.8592 35.2255 37.9048 35.2164 37.9412 35.2164C38.0142 35.2164 38.078 35.2073 38.1327 35.189C38.1874 35.1708 38.233 35.1617 38.2694 35.1617C38.3059 35.1252 38.3424 35.0979 38.3788 35.0796C38.4153 35.0614 38.4518 35.0523 38.4882 35.0523C38.5247 35.0523 38.5703 35.0432 38.625 35.0249C38.6797 35.0067 38.7252 34.9794 38.7617 34.9429C38.8711 34.9064 38.9987 34.8608 39.1446 34.8061C39.2905 34.7515 39.4181 34.7241 39.5275 34.7241C39.5639 34.6876 39.6095 34.6603 39.6642 34.6421C39.7189 34.6238 39.7645 34.5965 39.801 34.56C39.801 34.56 39.8192 34.5509 39.8557 34.5327C39.8921 34.5144 39.9286 34.5053 39.9651 34.5053C39.9651 34.5053 40.0198 34.4871 40.1292 34.4506C40.2386 34.4141 40.348 34.3594 40.4574 34.2865C40.6761 34.2136 40.8494 34.1407 40.977 34.0677C41.1046 33.9948 41.2231 33.9401 41.3325 33.9036C41.3325 33.9036 41.3508 33.8945 41.3872 33.8763C41.4237 33.858 41.4602 33.8307 41.4966 33.7942C41.606 33.7578 41.6972 33.7213 41.7701 33.6848C41.843 33.6484 41.9707 33.5754 42.153 33.466C42.2259 33.4296 42.308 33.384 42.3991 33.3293C42.4903 33.2746 42.5724 33.229 42.6453 33.1925C42.6818 33.1561 42.7273 33.1196 42.782 33.0832C42.8367 33.0467 42.8823 33.0285 42.9188 33.0285C42.9552 32.992 43.0008 32.9646 43.0555 32.9464C43.1102 32.9282 43.1558 32.9008 43.1923 32.8644C43.3381 32.755 43.5296 32.6273 43.7666 32.4815C44.0036 32.3356 44.1586 32.2262 44.2315 32.1533C44.3045 32.1168 44.3683 32.0895 44.423 32.0712C44.4777 32.053 44.5415 32.0439 44.6144 32.0439C44.6874 32.0803 44.7512 32.1077 44.8059 32.1259C44.8606 32.1442 44.9062 32.1715 44.9426 32.208C44.9426 32.208 44.9608 32.2171 44.9973 32.2353C45.0338 32.2536 45.0702 32.2627 45.1067 32.2627C45.1067 32.2627 45.1432 32.2809 45.2161 32.3174C45.289 32.3538 45.3437 32.3903 45.3802 32.4268C45.4531 32.4632 45.5261 32.5088 45.599 32.5635C45.6719 32.6182 45.7266 32.6456 45.7631 32.6456C45.836 32.682 45.9272 32.7367 46.0366 32.8097C46.146 32.8826 46.3283 33.0102 46.5836 33.1925C46.693 33.2655 46.8024 33.3384 46.9118 33.4113C47.0212 33.4843 47.0941 33.539 47.1306 33.5754C47.167 33.5754 47.2126 33.5937 47.2673 33.6301C47.322 33.6666 47.3858 33.7213 47.4587 33.7942C47.4952 33.8307 47.5681 33.8854 47.6775 33.9583C47.7869 34.0313 47.8963 34.1224 48.0057 34.2318C48.2974 34.4506 48.6621 34.7879 49.0997 35.2437C49.5373 35.6996 49.9019 36.1098 50.1937 36.4744C50.3031 36.6203 50.4033 36.7571 50.4945 36.8847C50.5857 37.0123 50.6312 37.0944 50.6312 37.1308C50.6312 37.1308 50.6404 37.1491 50.6586 37.1855C50.6768 37.222 50.7042 37.2402 50.7406 37.2402C50.7771 37.3132 50.8956 37.5319 51.0962 37.8966C51.2967 38.2613 51.397 38.4618 51.397 38.4983C51.397 38.5348 51.4061 38.5803 51.4244 38.635C51.4426 38.6897 51.4517 38.7353 51.4517 38.7718C51.5611 38.9906 51.6614 39.337 51.7526 39.811C51.8437 40.2851 51.8893 40.6862 51.8893 41.0144C51.8893 41.3791 51.8437 41.7893 51.7526 42.2451C51.6614 42.7009 51.5611 43.0565 51.4517 43.3117C51.4517 43.3482 51.4426 43.3938 51.4244 43.4485C51.4061 43.5032 51.397 43.5305 51.397 43.5305C51.397 43.567 51.3697 43.6399 51.315 43.7493C51.2603 43.8587 51.1965 43.9864 51.1235 44.1322C51.1235 44.1687 51.1053 44.2051 51.0688 44.2416C51.0324 44.2781 51.0141 44.3145 51.0141 44.351C51.0141 44.3875 50.9868 44.4422 50.9321 44.5151C50.8774 44.588 50.8318 44.661 50.7953 44.7339C50.7589 44.7704 50.7224 44.8159 50.6859 44.8706C50.6495 44.9253 50.6312 44.9527 50.6312 44.9527C50.6312 44.9892 50.5948 45.0621 50.5218 45.1715C50.4489 45.2809 50.3395 45.4267 50.1937 45.6091C49.9384 45.9373 49.5737 46.3475 49.0997 46.8398C48.6256 47.3321 48.2063 47.7058 47.8416 47.9611C47.4405 48.2893 47.0394 48.5901 46.6383 48.8636C46.2371 49.1371 45.9454 49.3286 45.7631 49.4379C45.7266 49.4379 45.6719 49.4562 45.599 49.4926C45.5261 49.5291 45.4714 49.5656 45.4349 49.602C45.362 49.6385 45.207 49.7206 44.97 49.8482C44.7329 49.9758 44.4868 50.1126 44.2315 50.2584C43.7575 50.4772 43.4202 50.6322 43.2196 50.7234C43.0191 50.8145 42.8094 50.9148 42.5906 51.0242C42.5541 51.0242 42.4903 51.0424 42.3991 51.0789C42.308 51.1154 42.2442 51.1518 42.2077 51.1883C42.1712 51.1883 42.1257 51.1974 42.071 51.2156C42.0163 51.2339 41.9707 51.243 41.9342 51.243C41.8977 51.243 41.8613 51.2521 41.8248 51.2703C41.7883 51.2886 41.7519 51.3159 41.7154 51.3524C41.679 51.3889 41.6334 51.4162 41.5787 51.4344C41.524 51.4527 41.4784 51.4618 41.4419 51.4618C41.4055 51.4618 41.369 51.4709 41.3325 51.4891C41.2961 51.5074 41.2596 51.5165 41.2231 51.5165C41.1867 51.553 41.1411 51.5803 41.0864 51.5985C41.0317 51.6168 40.9861 51.6259 40.9496 51.6259C40.9132 51.6259 40.8767 51.635 40.8402 51.6532C40.8038 51.6715 40.7673 51.6988 40.7308 51.7353C40.6944 51.7353 40.6488 51.7444 40.5941 51.7626C40.5394 51.7809 40.4938 51.79 40.4574 51.79C40.4209 51.79 40.3753 51.7991 40.3206 51.8173C40.2659 51.8356 40.2203 51.8629 40.1839 51.8994C40.1474 51.9358 40.1018 51.9632 40.0471 51.9814C39.9924 51.9997 39.9286 52.0088 39.8557 52.0088C39.8192 52.0088 39.7645 52.0179 39.6916 52.0361C39.6186 52.0544 39.5822 52.0635 39.5822 52.0635C39.5457 52.0999 39.5001 52.1273 39.4454 52.1455C39.3907 52.1637 39.3452 52.1729 39.3087 52.1729C39.2358 52.1729 39.1719 52.182 39.1172 52.2002C39.0625 52.2184 39.017 52.2458 38.9805 52.2823C38.944 52.3187 38.8893 52.3461 38.8164 52.3643C38.7435 52.3825 38.6888 52.3917 38.6523 52.3917C38.5794 52.3917 38.5156 52.4008 38.4609 52.419C38.4062 52.4372 38.3606 52.4464 38.3241 52.4464C38.2512 52.4828 38.1783 52.5102 38.1053 52.5284C38.0324 52.5466 37.9777 52.5558 37.9412 52.5558C37.8683 52.5558 37.7954 52.5649 37.7224 52.5831C37.6495 52.6013 37.5948 52.6287 37.5583 52.6652C37.5219 52.6652 37.4672 52.6743 37.3942 52.6925C37.3213 52.7107 37.2484 52.7198 37.1755 52.7198C37.1025 52.7198 37.0296 52.729 36.9567 52.7472C36.8837 52.7654 36.8108 52.7928 36.7379 52.8292C36.7014 52.8657 36.6467 52.8931 36.5738 52.9113C36.5008 52.9295 36.4279 52.9386 36.355 52.9386C36.2821 52.9386 36.2 52.9478 36.1088 52.966C36.0177 52.9842 35.9356 52.9933 35.8627 52.9933C35.7898 53.0298 35.7077 53.0572 35.6166 53.0754C35.5254 53.0936 35.4433 53.1027 35.3704 53.1027C35.2975 53.1027 35.2154 53.1119 35.1243 53.1301C35.0331 53.1483 34.9511 53.1757 34.8781 53.2121C34.8052 53.2121 34.714 53.2212 34.6046 53.2395C34.4952 53.2577 34.3858 53.2668 34.2764 53.2668C34.167 53.2668 34.0577 53.2759 33.9483 53.2942C33.8389 53.3124 33.7477 53.3398 33.6748 53.3762C33.6018 53.4127 33.5016 53.44 33.3739 53.4583C33.2463 53.4765 33.1278 53.4856 33.0184 53.4856C32.909 53.4856 32.7814 53.4947 32.6355 53.513C32.4896 53.5312 32.3802 53.5403 32.3073 53.5403C32.2344 53.5403 32.0794 53.5586 31.8424 53.595C31.6053 53.6315 31.3592 53.6497 31.1039 53.6497C30.8487 53.6497 30.5023 53.668 30.0647 53.7044C29.6271 53.7409 29.226 53.7591 28.8613 53.7591C28.3508 53.7956 27.9314 53.8138 27.6033 53.8138C27.2751 53.8138 26.8557 53.7956 26.3452 53.7591C25.9805 53.7591 25.5885 53.7409 25.1692 53.7044C24.7498 53.668 24.4125 53.6497 24.1573 53.6497C23.902 53.6497 23.6559 53.6315 23.4188 53.595C23.1818 53.5586 23.0086 53.5403 22.8992 53.5403C22.8263 53.5403 22.7169 53.5312 22.571 53.513C22.4251 53.4947 22.2975 53.4856 22.1881 53.4856C22.0787 53.4856 21.9602 53.4765 21.8326 53.4583C21.7049 53.44 21.6047 53.4127 21.5317 53.3762C21.4953 53.3398 21.4132 53.3124 21.2856 53.2942C21.158 53.2759 21.0395 53.2668 20.9301 53.2668C20.8571 53.2668 20.7568 53.2577 20.6292 53.2395C20.5016 53.2212 20.4013 53.2121 20.3284 53.2121C20.2554 53.1757 20.1734 53.1483 20.0822 53.1301C19.9911 53.1119 19.909 53.1027 19.8361 53.1027C19.7632 53.1027 19.6811 53.0936 19.5899 53.0754C19.4988 53.0572 19.4167 53.0298 19.3438 52.9933C19.2709 52.9933 19.1888 52.9842 19.0977 52.966C19.0065 52.9478 18.9244 52.9386 18.8515 52.9386C18.7786 52.9386 18.7057 52.9295 18.6327 52.9113C18.5598 52.8931 18.5051 52.8657 18.4686 52.8292C18.4322 52.7928 18.3684 52.7654 18.2772 52.7472C18.186 52.729 18.1222 52.7198 18.0857 52.7198C18.0128 52.7198 17.9308 52.7107 17.8396 52.6925C17.7484 52.6743 17.6846 52.6652 17.6482 52.6652C17.6117 52.6287 17.557 52.6013 17.4841 52.5831C17.4111 52.5649 17.3564 52.5558 17.32 52.5558C17.247 52.5558 17.1741 52.5466 17.1012 52.5284C17.0282 52.5102 16.9735 52.4828 16.9371 52.4464C16.9006 52.4464 16.8459 52.4372 16.773 52.419C16.7001 52.4008 16.6454 52.3917 16.6089 52.3917C16.536 52.3917 16.4721 52.3825 16.4174 52.3643C16.3627 52.3461 16.2989 52.3187 16.226 52.2823C16.1895 52.2458 16.144 52.2184 16.0893 52.2002C16.0346 52.182 15.989 52.1729 15.9525 52.1729C15.916 52.1729 15.8705 52.1637 15.8158 52.1455C15.7611 52.1273 15.7155 52.0999 15.679 52.0635C15.6426 52.0635 15.597 52.0544 15.5423 52.0361C15.4876 52.0179 15.4238 52.0088 15.3508 52.0088C15.3144 52.0088 15.2597 51.9997 15.1867 51.9814C15.1138 51.9632 15.0773 51.9358 15.0773 51.8994C15.0409 51.8629 14.9953 51.8356 14.9406 51.8173C14.8859 51.7991 14.8403 51.79 14.8038 51.79C14.7309 51.79 14.6671 51.7809 14.6124 51.7626C14.5577 51.7444 14.5304 51.7353 14.5304 51.7353C14.4939 51.6988 14.4483 51.6715 14.3936 51.6532C14.3389 51.635 14.2933 51.6259 14.2569 51.6259C14.2204 51.6259 14.1748 51.6168 14.1201 51.5985C14.0654 51.5803 14.0198 51.553 13.9834 51.5165C13.9469 51.5165 13.9104 51.5074 13.874 51.4891C13.8375 51.4709 13.801 51.4618 13.7646 51.4618C13.7281 51.4618 13.6825 51.4527 13.6278 51.4344C13.5731 51.4162 13.5275 51.3889 13.4911 51.3524C13.4911 51.3159 13.4637 51.2886 13.409 51.2703C13.3543 51.2521 13.3088 51.243 13.2723 51.243C13.2723 51.243 13.2449 51.2339 13.1902 51.2156C13.1355 51.1974 13.0717 51.1883 12.9988 51.1883C12.9259 51.1518 12.8256 51.1062 12.698 51.0515C12.5703 50.9969 12.3971 50.9148 12.1783 50.8054C11.9595 50.696 11.5311 50.4863 10.8929 50.1764C10.2548 49.8664 9.89923 49.675 9.8263 49.602C9.75337 49.5656 9.68044 49.5291 9.6075 49.4926C9.53457 49.4562 9.47987 49.4379 9.44341 49.4379C9.29755 49.3286 9.02405 49.1371 8.62293 48.8636C8.22181 48.5901 7.80246 48.2893 7.36487 47.9611C7.03668 47.7058 6.62645 47.3321 6.13416 46.8398C5.64188 46.3475 5.2681 45.9373 5.01285 45.6091C4.90345 45.4267 4.80317 45.2809 4.712 45.1715C4.62084 45.0621 4.57526 44.9892 4.57526 44.9527C4.57526 44.9527 4.55703 44.9253 4.52056 44.8706C4.48409 44.8159 4.44763 44.7704 4.41116 44.7339C4.3747 44.661 4.33823 44.588 4.30177 44.5151C4.2653 44.4422 4.22884 44.3875 4.19237 44.351C4.19237 44.3145 4.18325 44.2781 4.16502 44.2416C4.14679 44.2051 4.11944 44.1687 4.08297 44.1322C4.01004 43.9864 3.95534 43.8587 3.91888 43.7493C3.88241 43.6399 3.86418 43.567 3.86418 43.5305C3.86418 43.4941 3.85506 43.4576 3.83683 43.4211C3.8186 43.3847 3.79125 43.3664 3.75478 43.3664C3.71832 43.33 3.67274 43.2023 3.61804 42.9835C3.56334 42.7648 3.51776 42.546 3.48129 42.3272C3.48129 42.2542 3.46306 42.1448 3.42659 41.999C3.39013 41.8531 3.3719 41.7073 3.3719 41.5614C3.29896 41.2332 3.30808 40.7683 3.39924 40.1666C3.49041 39.5649 3.60892 39.1 3.75478 38.7718C3.79125 38.7353 3.8186 38.6897 3.83683 38.635C3.85506 38.5803 3.86418 38.5348 3.86418 38.4983C3.86418 38.4618 3.95534 38.2613 4.13767 37.8966C4.32 37.5319 4.44763 37.3132 4.52056 37.2402C4.52056 37.2402 4.52968 37.222 4.54791 37.1855C4.56614 37.1491 4.57526 37.1308 4.57526 37.1308C4.57526 37.0944 4.62084 37.0214 4.712 36.912C4.80317 36.8026 4.90345 36.6568 5.01285 36.4744C5.30457 36.1098 5.67834 35.6904 6.13416 35.2164C6.58998 34.7423 7.00022 34.3777 7.36487 34.1224C7.51074 34.013 7.63836 33.9127 7.74776 33.8216C7.85716 33.7304 7.91186 33.6848 7.91186 33.6848C7.91186 33.6484 7.93009 33.621 7.96655 33.6028C8.00302 33.5846 8.03949 33.5754 8.07595 33.5754C8.11242 33.539 8.18535 33.4843 8.29474 33.4113C8.40414 33.3384 8.51354 33.2655 8.62293 33.1925C8.87819 33.0102 9.06052 32.8826 9.16992 32.8097C9.27931 32.7367 9.37048 32.682 9.44341 32.6456C9.47987 32.6456 9.53457 32.6182 9.6075 32.5635C9.68044 32.5088 9.75337 32.4632 9.8263 32.4268C9.89923 32.3903 9.96304 32.3538 10.0177 32.3174C10.0724 32.2809 10.118 32.2627 10.1545 32.2627C10.1545 32.2627 10.1727 32.2627 10.2092 32.2627C10.2457 32.2627 10.2639 32.2444 10.2639 32.208C10.3003 32.1715 10.3642 32.135 10.4553 32.0986C10.5465 32.0621 10.6285 32.0439 10.7015 32.0439C10.7379 32.0439 10.7926 32.0621 10.8656 32.0986C10.9385 32.135 11.0114 32.1897 11.0844 32.2627ZM10.6468 41.8896C10.6103 41.926 10.5738 41.9443 10.5374 41.9443C10.5009 41.9443 10.4644 41.9625 10.428 41.999C10.428 41.999 10.4097 42.0081 10.3733 42.0263C10.3368 42.0446 10.3186 42.0537 10.3186 42.0537C10.2092 42.0537 10.0724 42.1175 9.90834 42.2451C9.74425 42.3728 9.62574 42.5095 9.5528 42.6554C9.44341 42.8012 9.36136 42.9653 9.30666 43.1476C9.25196 43.33 9.22462 43.4758 9.22462 43.5852C9.22462 43.6217 9.23373 43.6855 9.25196 43.7767C9.2702 43.8678 9.29755 43.9681 9.33401 44.0775C9.40694 44.3328 9.5528 44.5698 9.7716 44.7886C9.99039 45.0074 10.3733 45.3173 10.9203 45.7185C11.0661 45.8279 11.2029 45.919 11.3305 45.992C11.4581 46.0649 11.5402 46.1196 11.5766 46.1561C11.5766 46.1561 11.6313 46.1925 11.7407 46.2654C11.8501 46.3384 11.9595 46.4113 12.0689 46.4842C12.3242 46.6301 12.4883 46.7213 12.5612 46.7577C12.6341 46.7942 12.6888 46.8307 12.7253 46.8671C12.7618 46.8671 12.8074 46.8854 12.8621 46.9218C12.9168 46.9583 12.9806 46.9948 13.0535 47.0312C13.1264 47.0677 13.2085 47.1133 13.2996 47.168C13.3908 47.2227 13.4546 47.2682 13.4911 47.3047C13.564 47.3412 13.6369 47.3685 13.7099 47.3868C13.7828 47.405 13.8375 47.4323 13.874 47.4688C13.874 47.4688 13.8922 47.4779 13.9287 47.4962C13.9651 47.5144 14.0016 47.5417 14.0381 47.5782C14.111 47.5782 14.2204 47.6147 14.3663 47.6876C14.5121 47.7605 14.6944 47.8517 14.9132 47.9611C15.0226 47.9976 15.1229 48.034 15.2141 48.0705C15.3052 48.107 15.3691 48.1252 15.4055 48.1252C15.4055 48.1252 15.4329 48.1343 15.4876 48.1525C15.5423 48.1708 15.5879 48.1981 15.6243 48.2346C15.6243 48.2346 15.6517 48.2437 15.7064 48.2619C15.7611 48.2802 15.8066 48.2893 15.8431 48.2893C15.8796 48.2893 15.9252 48.2984 15.9799 48.3166C16.0346 48.3349 16.0801 48.3622 16.1166 48.3987C16.1166 48.4351 16.144 48.4625 16.1987 48.4807C16.2533 48.499 16.2989 48.5081 16.3354 48.5081C16.3719 48.5081 16.4174 48.5172 16.4721 48.5354C16.5268 48.5537 16.5542 48.5628 16.5542 48.5628C16.5907 48.5992 16.6362 48.6266 16.6909 48.6448C16.7456 48.6631 16.8094 48.6722 16.8824 48.6722C16.9188 48.6722 16.9644 48.6813 17.0191 48.6995C17.0738 48.7178 17.1194 48.7451 17.1559 48.7816C17.1923 48.818 17.2379 48.8454 17.2926 48.8636C17.3473 48.8819 17.3929 48.891 17.4294 48.891C17.5023 48.891 17.5661 48.9001 17.6208 48.9183C17.6755 48.9365 17.7211 48.9457 17.7576 48.9457C17.794 48.9821 17.8396 49.0095 17.8943 49.0277C17.949 49.0459 17.9946 49.0551 18.031 49.0551C18.104 49.0551 18.1769 49.0642 18.2498 49.0824C18.3228 49.1006 18.3775 49.128 18.4139 49.1645C18.4504 49.1645 18.5051 49.1736 18.578 49.1918C18.651 49.21 18.7057 49.2192 18.7421 49.2192C18.8151 49.2192 18.888 49.2283 18.9609 49.2465C19.0338 49.2647 19.0885 49.2921 19.125 49.3286C19.125 49.365 19.1615 49.3924 19.2344 49.4106C19.3073 49.4288 19.3803 49.4379 19.4532 49.4379C19.5261 49.4379 19.5991 49.4471 19.672 49.4653C19.7449 49.4835 19.8179 49.4926 19.8908 49.4926C19.9637 49.5291 20.0366 49.5565 20.1096 49.5747C20.1825 49.5929 20.2554 49.602 20.3284 49.602C20.3648 49.602 20.4287 49.6112 20.5198 49.6294C20.611 49.6476 20.693 49.675 20.766 49.7114C20.8389 49.7114 20.9209 49.7206 21.0121 49.7388C21.1033 49.757 21.1853 49.7661 21.2582 49.7661C21.3676 49.7661 21.4679 49.7753 21.5591 49.7935C21.6502 49.8117 21.7323 49.8391 21.8052 49.8755C21.8782 49.912 21.9693 49.9394 22.0787 49.9576C22.1881 49.9758 22.2975 49.9849 22.4069 49.9849C22.4798 49.9849 22.5892 49.994 22.7351 50.0123C22.881 50.0305 22.9904 50.0396 23.0633 50.0396C23.1727 50.0761 23.3094 50.1034 23.4735 50.1217C23.6376 50.1399 23.7926 50.149 23.9385 50.149C24.0479 50.149 24.2211 50.1581 24.4581 50.1764C24.6951 50.1946 24.923 50.222 25.1418 50.2584C25.6523 50.2949 26.2631 50.3131 26.9742 50.3131C27.6853 50.3131 28.0773 50.2949 28.1502 50.2584C28.1867 50.222 28.2232 50.1946 28.2596 50.1764C28.2961 50.1581 28.3326 50.149 28.369 50.149C28.442 50.149 28.5696 50.0487 28.7519 49.8482C28.9342 49.6476 29.0619 49.4744 29.1348 49.3286C29.1713 49.2556 29.1986 49.1645 29.2169 49.0551C29.2351 48.9457 29.2442 48.818 29.2442 48.6722C29.2442 48.344 29.1622 48.0523 28.9981 47.797C28.834 47.5417 28.5878 47.3229 28.2596 47.1406C28.1867 47.1042 28.0682 47.0768 27.9041 47.0586C27.74 47.0403 27.4574 47.0312 27.0563 47.0312C26.7645 47.0312 26.4819 47.0221 26.2084 47.0039C25.935 46.9856 25.7435 46.9765 25.6341 46.9765C25.4882 46.9401 25.2968 46.9127 25.0598 46.8945C24.8228 46.8762 24.5948 46.8489 24.376 46.8124C24.1208 46.8124 23.8929 46.8033 23.6923 46.7851C23.4918 46.7668 23.3732 46.7395 23.3368 46.703C23.2639 46.703 23.1727 46.6939 23.0633 46.6757C22.9539 46.6575 22.8627 46.6483 22.7898 46.6483C22.7169 46.6483 22.6166 46.6392 22.489 46.621C22.3613 46.6028 22.261 46.5754 22.1881 46.5389C22.1152 46.5389 22.024 46.5298 21.9146 46.5116C21.8052 46.4934 21.7141 46.4842 21.6411 46.4842C21.5682 46.4842 21.4953 46.4751 21.4223 46.4569C21.3494 46.4387 21.2947 46.4295 21.2582 46.4295C21.2218 46.3931 21.158 46.3657 21.0668 46.3475C20.9756 46.3293 20.8936 46.3019 20.8207 46.2654C20.6383 46.2654 20.4469 46.2381 20.2463 46.1834C20.0458 46.1287 19.8726 46.0831 19.7267 46.0467C19.6902 46.0102 19.6264 45.9828 19.5352 45.9646C19.4441 45.9464 19.362 45.9373 19.2891 45.9373C19.2162 45.9008 19.1341 45.8734 19.043 45.8552C18.9518 45.837 18.888 45.8096 18.8515 45.7732C18.6327 45.7367 18.4686 45.7002 18.3592 45.6638C18.2498 45.6273 18.1587 45.5908 18.0857 45.5544C17.9399 45.5179 17.794 45.4723 17.6482 45.4176C17.5023 45.3629 17.3747 45.3173 17.2653 45.2809C17.2288 45.2444 17.1832 45.2171 17.1285 45.1988C17.0738 45.1806 17.0465 45.1715 17.0465 45.1715C17.01 45.1715 16.9644 45.1624 16.9097 45.1441C16.855 45.1259 16.8094 45.1168 16.773 45.1168C16.7001 45.0803 16.6271 45.0439 16.5542 45.0074C16.4813 44.9709 16.4083 44.9345 16.3354 44.898C16.0072 44.7521 15.679 44.5971 15.3508 44.4331C15.0226 44.269 14.7127 44.114 14.421 43.9681C14.348 43.9317 14.266 43.8861 14.1748 43.8314C14.0836 43.7767 14.0198 43.7493 13.9834 43.7493C13.9104 43.6764 13.6461 43.4941 13.1902 43.2023C12.7344 42.9106 12.4883 42.7465 12.4518 42.7101C12.3789 42.6007 12.2239 42.4639 11.9869 42.2998C11.7499 42.1357 11.5949 42.0537 11.5219 42.0537C11.4855 42.0537 11.4581 42.0446 11.4399 42.0263C11.4217 42.0081 11.3943 41.999 11.3579 41.999C11.3214 41.9625 11.212 41.9352 11.0297 41.9169C10.8473 41.8987 10.7197 41.8896 10.6468 41.8896Z" fill="#F7A392"/>
</g>
<defs>
<clipPath id="clip0_1_115">
<rect width="55.3" height="57" fill="white" transform="matrix(1 0 0 -1 0.0899963 57.5901)"/>
</clipPath>
</defs>
</svg>
