<svg width="56" height="58" viewBox="0 0 56 58" fill="none" xmlns="http://www.w3.org/2000/svg">
<g clip-path="url(#clip0_1_151)">
<path d="M10.8619 1.35949C9.73153 1.76059 8.96579 2.41693 8.5647 3.32852C8.1636 4.2401 8.12713 5.4981 8.4553 7.10249C8.49177 7.43066 8.48265 7.63121 8.42796 7.70414C8.37326 7.77707 8.12713 7.86823 7.68957 7.97762C6.12164 8.41518 5.21917 9.48174 4.98215 11.1773C4.74514 12.8728 5.31944 14.1582 6.70505 15.0333C7.14262 15.2886 7.39786 15.4891 7.47079 15.635C7.54372 15.7808 7.58018 16.0361 7.58018 16.4007V17.2211L6.32219 17.8228C5.04596 18.4427 3.90648 19.4181 2.90373 20.749C1.90098 22.0799 1.29022 23.4746 1.07144 24.9332C0.998511 25.3707 0.943816 26.729 0.907353 29.008C0.870889 31.2869 0.870889 34.7419 0.907353 39.3727L0.962048 52.609L1.39961 53.5935C1.65486 54.1769 2.10153 54.7786 2.73965 55.3984C3.37776 56.0183 3.98852 56.4377 4.57194 56.6564C4.93657 56.8023 6.2128 56.8935 8.40061 56.9299C10.5884 57.0028 12.9677 57.0393 15.5383 57.0393C18.109 57.0393 20.4883 57.0028 22.6761 56.9299C24.8639 56.8935 26.1401 56.8023 26.5048 56.6564C27.5987 56.2189 28.4647 55.517 29.1028 54.5507C29.7409 53.5844 30.0964 52.4084 30.1693 51.0228C30.2058 50.33 30.2514 49.8925 30.3061 49.7101C30.3608 49.5278 30.4428 49.4731 30.5522 49.5461C32.1931 50.2753 33.6881 50.5214 35.0372 50.2844C36.3864 50.0474 37.6261 49.309 38.7565 48.0693L39.8504 46.9207L40.8349 47.9052C42.3664 49.3273 44.0255 49.9107 45.8122 49.6554C47.5624 49.3637 49.0575 48.6162 50.2972 47.4129C51.537 46.2096 52.3027 44.7329 52.5944 42.9826C52.9226 41.1959 52.4121 39.5003 51.0629 37.896C50.9536 37.7866 50.9353 37.6863 51.0083 37.5951C51.0812 37.504 51.3182 37.3672 51.7193 37.1849C53.5789 36.2733 54.7458 34.9606 55.2198 33.2468C55.6574 31.4966 55.5753 29.8284 54.9737 28.2422C54.372 26.6561 53.3419 25.3707 51.8834 24.3862C50.3884 23.4017 48.6564 23.2011 46.6873 23.7846C46.1404 23.9304 45.8213 23.9669 45.7302 23.894C45.639 23.821 45.557 23.4564 45.484 22.8C45.2652 21.1227 44.536 19.81 43.2962 18.862C42.0929 17.9139 40.7438 17.367 39.2488 17.2211C37.7538 17.0753 36.2952 17.3487 34.8731 18.0416C33.4511 18.7344 32.4483 19.883 31.8649 21.4874C31.7555 21.7426 31.6552 22.089 31.5641 22.5266C31.4729 22.9641 31.4091 23.347 31.3726 23.6752C31.3362 24.1492 31.2906 24.4591 31.2359 24.605C31.1812 24.7508 31.0809 24.8238 30.9351 24.8238C30.6434 24.8238 30.3881 24.7508 30.1693 24.605C29.9506 24.4591 29.8412 24.2951 29.8412 24.1127C29.8412 23.2741 29.2669 22.1437 28.1183 20.7216C26.9697 19.2995 25.8484 18.3333 24.7545 17.8228L23.4965 17.2211V16.4007C23.4965 16.0361 23.533 15.7808 23.6059 15.635C23.6788 15.4891 23.9341 15.2886 24.3716 15.0333C25.7937 14.1217 26.3498 12.7817 26.0398 11.0132C25.7299 9.24473 24.7727 8.21463 23.1683 7.92292C22.8766 7.84999 22.7034 7.77707 22.6487 7.70414C22.594 7.63121 22.5849 7.46713 22.6214 7.21188C22.9131 5.75334 22.9313 4.60474 22.6761 3.76608C22.4208 2.92742 21.8739 2.25284 21.0352 1.74236L20.1054 1.1954L15.8392 1.14071C14.2348 1.10424 13.0679 1.10424 12.3387 1.14071C11.6094 1.17717 11.1171 1.2501 10.8619 1.35949ZM19.9413 4.25834C20.1966 4.55005 20.3242 4.80529 20.3242 5.02407C20.3242 5.24286 20.2148 5.8992 19.996 6.9931L19.7772 7.81353H15.511C14.3442 7.81353 13.3414 7.81353 12.5028 7.81353C11.6641 7.81353 11.2448 7.7953 11.2448 7.75884C11.2448 7.75884 11.2174 7.61298 11.1627 7.32127C11.108 7.02957 11.0442 6.68316 10.9713 6.28206C10.716 5.0423 10.8254 4.2948 11.2995 4.03956C11.7735 3.78431 13.2685 3.67492 15.7845 3.71138H19.5038L19.9413 4.25834ZM22.8402 10.4936C23.059 10.603 23.2413 10.8491 23.3871 11.232C23.533 11.6149 23.5512 11.9339 23.4418 12.1892C23.2595 12.6267 22.9313 12.8911 22.4573 12.9822C21.9833 13.0734 20.543 13.119 18.1364 13.119H13.6514L13.2685 13.6112C12.6121 14.4134 12.5666 14.9604 13.1318 15.2521C13.6969 15.5438 15.0734 15.6897 17.2612 15.6897H20.9258V17.3305C20.9258 18.2421 21.0079 18.862 21.172 19.1902C21.336 19.5183 21.6733 19.6824 22.1838 19.6824C22.986 19.6824 23.9432 20.1929 25.0553 21.2139C26.1675 22.2349 26.8876 23.2923 27.2158 24.3862C27.2523 24.5685 27.234 24.7053 27.1611 24.7964C27.0882 24.8876 26.8694 25.0061 26.5048 25.1519C25.265 25.6989 24.2531 26.6287 23.4692 27.9414C22.6852 29.2541 22.2932 30.6762 22.2932 32.2076C22.2932 32.864 22.3388 33.3927 22.43 33.7938C22.5211 34.1949 22.7125 34.7419 23.0043 35.4347C23.1501 35.7264 22.904 35.7993 22.2659 35.6534C21.6278 35.5076 20.7617 35.1794 19.6678 34.6689C18.1728 33.9761 17.0698 33.5477 16.3588 33.3836C15.6477 33.2195 14.5812 33.1739 13.1591 33.2468C11.1536 33.3562 9.53098 33.6206 8.29122 34.0399C7.05146 34.4593 6.41335 34.9971 6.37688 35.6534C6.30396 36.3827 6.49539 36.802 6.95118 36.9114C7.40698 37.0208 8.34591 36.8385 9.76799 36.3645C11.0807 35.9634 12.4298 35.7719 13.8154 35.7902C15.2011 35.8084 16.4226 36.0545 17.48 36.5286C19.3761 37.4037 20.543 37.9051 20.9805 38.0327C21.4181 38.1603 22.2932 38.2241 23.6059 38.2241C24.554 38.2606 25.2468 38.3062 25.6843 38.3609C26.1219 38.4156 26.5048 38.5158 26.8329 38.6617L27.6534 39.0446L27.3252 39.7556C26.7782 40.813 26.4956 41.8522 26.4774 42.8732C26.4592 43.8942 26.6871 44.9334 27.1611 45.9909C27.6716 47.1577 27.8448 48.5889 27.6807 50.2844C27.5166 51.98 27.0882 53.1195 26.3954 53.7029C25.9578 54.0675 25.2741 54.2863 24.3443 54.3592C23.4145 54.4322 20.4883 54.4686 15.5657 54.4686C10.1326 54.4686 6.94207 54.3957 5.99402 54.2498C5.04596 54.104 4.31669 53.5753 3.8062 52.6637C3.69681 52.4814 3.62389 51.0593 3.58742 48.3974C3.5145 45.7721 3.4598 42.855 3.42334 39.6462C3.38687 36.4374 3.38687 33.4109 3.42334 30.5668C3.4598 27.7591 3.5145 26.0818 3.58742 25.5348C3.84267 24.1492 4.53547 22.8274 5.66584 21.5694C6.79621 20.3114 7.87189 19.6824 8.89287 19.6824C9.43982 19.6824 9.78622 19.491 9.93208 19.1081C10.0779 18.7252 10.1509 17.841 10.1509 16.4554C10.1509 15.0698 10.0688 14.1673 9.90473 13.748C9.74064 13.3286 9.40336 13.119 8.89287 13.119C8.23652 13.119 7.80808 12.7999 7.60753 12.1618C7.40698 11.5237 7.58018 11.0041 8.12713 10.603C8.20006 10.5665 8.98403 10.5118 10.479 10.4389C11.9376 10.4024 13.5602 10.3842 15.3469 10.3842C17.1336 10.3842 18.7927 10.3842 20.3242 10.3842C21.8557 10.4207 22.6943 10.4571 22.8402 10.4936ZM40.0692 19.9559C41.1266 20.2841 41.8924 20.8584 42.3664 21.6788C42.8404 22.4992 43.041 23.584 42.968 24.9332C42.8951 26.3188 43.0501 27.1392 43.433 27.3945C43.8158 27.6497 44.6089 27.4856 45.8122 26.9022C47.7083 25.9541 49.3583 25.8994 50.7621 26.7381C52.166 27.5768 52.8679 29.0353 52.8679 31.1137C52.8679 32.2806 52.3848 33.3107 51.4185 34.204C50.4522 35.0974 49.3492 35.5441 48.1094 35.5441C47.4166 35.5441 47.0611 35.8449 47.0428 36.4465C47.0246 37.0482 47.3437 37.6954 48 38.3882C49.2762 39.7374 49.9508 41.0318 50.0237 42.2716C50.0967 43.5113 49.5679 44.6417 48.4376 45.6627C47.1249 46.8295 45.8213 47.2671 44.5269 46.9754C43.2324 46.6837 42.1111 45.6991 41.1631 44.0218C40.6526 43.1832 40.1421 42.7821 39.6316 42.8185C39.1211 42.855 38.6289 43.3655 38.1549 44.35C37.2068 46.2096 36.0217 47.3218 34.5997 47.6864C33.1776 48.051 31.8102 47.5588 30.4975 46.2096C29.5495 45.2616 29.0846 44.2224 29.1028 43.092C29.121 41.9616 29.6406 40.7766 30.6616 39.5368C31.3909 38.6617 31.6643 38.0145 31.482 37.5951C31.2997 37.1758 30.5887 36.8385 29.3489 36.5833C27.4893 36.2551 26.1948 35.5167 25.4655 34.3681C24.7363 33.2195 24.6633 31.843 25.2468 30.2386C25.7208 28.853 26.5139 27.9505 27.626 27.5312C28.7381 27.1119 30.0599 27.2121 31.5914 27.832C32.7583 28.2696 33.5058 28.3607 33.8339 28.1055C34.1621 27.8502 34.2533 27.1027 34.1074 25.863C33.8157 23.6022 34.2441 21.9067 35.3927 20.7763C36.5413 19.646 38.1002 19.3725 40.0692 19.9559ZM37.1156 29.801C34.6726 31.0773 33.7792 33.0372 34.4356 35.6808C35.0919 38.3244 36.8239 39.6462 39.6316 39.6462C41.9653 39.6462 43.5697 38.5705 44.4448 36.4192C45.3199 34.2678 44.9371 32.3717 43.2962 30.7309C42.4576 29.8922 41.4822 29.3817 40.37 29.1994C39.2579 29.0171 38.1731 29.2176 37.1156 29.801ZM40.7255 32.0436C41.9653 32.627 42.4393 33.6024 42.1476 34.9698C41.8559 36.3371 41.0355 37.0391 39.6863 37.0755C39.1758 37.0755 38.7109 36.957 38.2916 36.72C37.8723 36.483 37.535 36.1639 37.2797 35.7628C36.6234 34.6325 36.7419 33.5841 37.6353 32.6179C38.5286 31.6516 39.5587 31.4601 40.7255 32.0436Z" fill="#F7A392"/>
</g>
<defs>
<clipPath id="clip0_1_151">
<rect width="54.75" height="57" fill="white" transform="matrix(1 0 0 -1 0.880005 57.5901)"/>
</clipPath>
</defs>
</svg>
