<svg width="100" height="101" viewBox="0 0 100 101" fill="none" xmlns="http://www.w3.org/2000/svg">
<g opacity="0.2" clip-path="url(#clip0_1_113)">
<path d="M46.1806 0.785629C46.1806 0.850731 46.0178 0.899559 45.6923 0.932114C45.3668 0.964661 44.911 0.980942 44.3251 0.980942C44.0647 0.980942 43.788 1.01349 43.495 1.0786C43.2021 1.1437 42.9579 1.17625 42.7626 1.17625C42.5673 1.24136 42.3557 1.29018 42.1279 1.32273C41.9 1.35529 41.721 1.37156 41.5907 1.37156C41.4605 1.37156 41.2978 1.38784 41.1025 1.42039C40.9072 1.45294 40.7444 1.50177 40.6142 1.56687C40.484 1.56687 40.3375 1.58315 40.1747 1.6157C40.012 1.64825 39.8655 1.66453 39.7353 1.66453C39.6051 1.66453 39.4749 1.68081 39.3447 1.71336C39.2145 1.74591 39.0842 1.79474 38.954 1.85984C38.8889 1.92494 38.7913 1.97377 38.6611 2.00632C38.5309 2.03888 38.4007 2.05515 38.2705 2.05515C38.2053 2.05515 38.1077 2.05515 37.9775 2.05515C37.8473 2.05515 37.7496 2.08771 37.6845 2.15281C37.6194 2.15281 37.5055 2.18536 37.3427 2.25047C37.18 2.31557 37.066 2.34812 37.0009 2.34812C36.8707 2.34812 36.7242 2.38067 36.5615 2.44578C36.3987 2.51088 36.2522 2.54343 36.122 2.54343C36.0569 2.60854 35.9593 2.65736 35.8291 2.68992C35.6988 2.72247 35.5686 2.77129 35.4384 2.8364C35.3733 2.8364 35.2594 2.85268 35.0966 2.88523C34.9339 2.91778 34.7874 2.96661 34.6572 3.03171C34.527 3.03171 34.413 3.04799 34.3154 3.08054C34.2177 3.11309 34.1689 3.16192 34.1689 3.22702C34.1038 3.22702 34.0387 3.2433 33.9736 3.27585C33.9085 3.3084 33.8434 3.32468 33.7783 3.32468C33.7132 3.32468 33.6318 3.34096 33.5341 3.3735C33.4365 3.40606 33.3551 3.45489 33.29 3.51999C33.29 3.51999 33.2412 3.53626 33.1435 3.56882C33.0459 3.60137 32.9645 3.61765 32.8994 3.61765C32.8343 3.61765 32.7529 3.63392 32.6552 3.66647C32.5576 3.69903 32.4762 3.74786 32.4111 3.81296C32.346 3.87806 32.2483 3.92689 32.1181 3.95944C31.9879 3.99199 31.8577 4.04082 31.7275 4.10593C31.4671 4.23613 30.9137 4.51283 30.0674 4.936C29.221 5.35918 28.6676 5.63586 28.4072 5.76608C28.0166 5.96139 27.4958 6.2869 26.8447 6.74263C26.1937 7.19836 25.7705 7.52388 25.5752 7.71919C25.445 7.78429 25.3311 7.8494 25.2334 7.9145C25.1357 7.97961 25.0869 8.01215 25.0869 8.01215C25.0218 8.01215 24.5661 8.43533 23.7197 9.28168C22.8734 10.128 22.3851 10.6489 22.2549 10.8442C22.1898 10.9744 22.1084 11.1046 22.0108 11.2348C21.9131 11.365 21.8317 11.4627 21.7666 11.5278C21.7015 11.5929 21.6201 11.7068 21.5225 11.8696C21.4248 12.0323 21.3434 12.1788 21.2783 12.309C21.2783 12.3741 21.2621 12.4229 21.2295 12.4555C21.197 12.488 21.1481 12.5043 21.083 12.5043C21.083 12.5043 21.0668 12.5369 21.0342 12.602C21.0017 12.6671 20.9528 12.7322 20.8877 12.7973C20.8877 12.9275 20.8552 13.0414 20.7901 13.1391C20.725 13.2367 20.6924 13.2856 20.6924 13.2856C20.6924 13.3507 20.6599 13.4483 20.5948 13.5785C20.5296 13.7087 20.4645 13.8064 20.3994 13.8715C20.3343 14.0017 20.2692 14.1482 20.2041 14.311C20.139 14.4737 20.0739 14.5876 20.0088 14.6527C20.0088 14.7179 19.9925 14.7992 19.96 14.8969C19.9274 14.9945 19.9112 15.0759 19.9112 15.141C19.9112 15.2061 19.8949 15.2875 19.8623 15.3852C19.8298 15.4828 19.8135 15.5642 19.8135 15.6293C19.7484 15.6944 19.6996 15.8083 19.667 15.9711C19.6345 16.1339 19.5856 16.2803 19.5205 16.4106C19.5205 16.6059 19.5043 16.8012 19.4717 16.9965C19.4392 17.1918 19.3903 17.3546 19.3252 17.4848C19.2601 17.8754 19.2276 18.3799 19.2276 18.9984C19.2276 19.6169 19.2927 20.1215 19.4229 20.5121C19.488 20.6423 19.5368 20.8051 19.5694 21.0004C19.6019 21.1957 19.6182 21.3584 19.6182 21.4887C19.6182 21.5538 19.6345 21.6514 19.667 21.7816C19.6996 21.9118 19.7159 22.0095 19.7159 22.0746C19.781 22.1397 19.8298 22.2374 19.8623 22.3676C19.8949 22.4978 19.9112 22.5954 19.9112 22.6605C19.9112 22.7256 19.9274 22.807 19.96 22.9047C19.9925 23.0023 20.0414 23.0511 20.1065 23.0511C20.1065 23.1162 20.1227 23.1814 20.1553 23.2465C20.1879 23.3116 20.2041 23.3767 20.2041 23.4418C20.2041 23.5069 20.3181 23.751 20.5459 24.1742C20.7738 24.5974 20.9528 24.8741 21.083 25.0043C21.1481 25.0694 21.1807 25.1345 21.1807 25.1996C21.1807 25.2647 21.1807 25.3298 21.1807 25.3949C21.1807 25.3949 21.197 25.4274 21.2295 25.4925C21.2621 25.5576 21.3109 25.6227 21.376 25.6879C21.5062 25.753 21.555 25.8018 21.5225 25.8343C21.4899 25.8669 21.4411 25.9483 21.376 26.0785C21.2458 26.1436 21.1481 26.2087 21.083 26.2738C21.0179 26.3389 20.9854 26.3714 20.9854 26.3714C20.9203 26.3714 20.8389 26.404 20.7412 26.4691C20.6436 26.5342 20.5622 26.5993 20.4971 26.6644C20.3669 26.7946 20.253 26.8923 20.1553 26.9574C20.0576 27.0225 20.0088 27.055 20.0088 27.055C19.8786 27.055 19.4229 27.3643 18.6416 27.9828C17.8604 28.6012 17.1768 29.236 16.5909 29.8871C15.8747 30.5381 15.3213 31.1077 14.9307 31.596C14.5401 32.0843 14.1495 32.654 13.7588 33.305C13.4984 33.6305 13.3194 33.8747 13.2217 34.0374C13.1241 34.2002 12.9776 34.542 12.7823 35.0628C12.6521 35.2581 12.5219 35.4697 12.3917 35.6976C12.2615 35.9254 12.1964 36.0719 12.1964 36.137C12.1313 36.2021 12.0824 36.2835 12.0499 36.3812C12.0173 36.4788 12.001 36.5602 12.001 36.6253C12.001 36.6904 11.9848 36.7718 11.9522 36.8694C11.9197 36.9671 11.9034 37.0485 11.9034 37.1136C11.643 37.6344 11.4639 38.2692 11.3663 39.0179C11.2686 39.7666 11.2198 40.6292 11.2198 41.6057C11.2198 42.4521 11.2523 43.1682 11.3175 43.7542C11.3826 44.3401 11.4477 44.7633 11.5128 45.0237C11.5779 45.0888 11.6267 45.1865 11.6592 45.3167C11.6918 45.4469 11.7081 45.5445 11.7081 45.6096C11.7081 45.7398 11.7244 45.8538 11.7569 45.9514C11.7895 46.0491 11.8057 46.0979 11.8057 46.0979C11.8708 46.163 11.9197 46.2444 11.9522 46.3421C11.9848 46.4397 12.001 46.5211 12.001 46.5862C12.001 46.6513 12.0173 46.7327 12.0499 46.8303C12.0824 46.928 12.1313 47.0094 12.1964 47.0745C12.1964 47.1396 12.2615 47.2861 12.3917 47.5139C12.5219 47.7418 12.6195 47.9534 12.6846 48.1487C12.945 48.6695 13.1241 49.0113 13.2217 49.1741C13.3194 49.3368 13.4659 49.5484 13.6612 49.8088C13.7914 49.939 13.8728 50.053 13.9053 50.1506C13.9379 50.2483 13.9542 50.2971 13.9542 50.2971C13.9542 50.3622 13.9867 50.4436 14.0518 50.5413C14.1169 50.6389 14.2146 50.7203 14.3448 50.7854C14.475 51.0458 14.5564 51.2574 14.5889 51.4202C14.6215 51.5829 14.5401 51.6643 14.3448 51.6643C14.3448 51.6643 14.2471 51.7131 14.0518 51.8108C13.8565 51.9084 13.6612 52.0224 13.4659 52.1526C13.2706 52.2828 13.1078 52.3967 12.9776 52.4944C12.8474 52.592 12.7497 52.6409 12.6846 52.6409C12.6195 52.6409 12.0824 53.0152 11.0733 53.7639C10.0642 54.5126 9.49454 54.9846 9.36434 55.1799C9.29923 55.1799 9.21785 55.2287 9.1202 55.3264C9.02254 55.424 8.87606 55.538 8.68075 55.6682C7.9646 56.189 6.95549 57.1981 5.65342 58.6955C4.35134 60.1929 3.50499 61.2997 3.11437 62.0158C3.11437 62.0809 3.08182 62.1786 3.01671 62.3088C2.95161 62.439 2.8865 62.5366 2.8214 62.6017C2.7563 62.6668 2.65864 62.8133 2.52843 63.0412C2.39822 63.2691 2.30057 63.5132 2.23546 63.7736C2.10526 63.9689 1.99133 64.1805 1.89367 64.4084C1.79601 64.6362 1.71463 64.7827 1.64953 64.8478C1.58443 64.9129 1.5356 64.9943 1.50305 65.092C1.47049 65.1896 1.45422 65.271 1.45422 65.3361C1.45422 65.4012 1.43794 65.4663 1.40539 65.5314C1.37284 65.5965 1.35656 65.6942 1.35656 65.8244C1.22636 66.0197 1.11242 66.2476 1.01477 66.508C0.917112 66.7684 0.868284 67.0288 0.868284 67.2892C0.80318 67.4194 0.754352 67.5496 0.7218 67.6798C0.689248 67.8101 0.672972 67.8752 0.672972 67.8752C0.477661 68.2658 0.380005 69.6492 0.380005 72.0255C0.380005 74.4018 0.477661 75.7202 0.672972 75.9806C0.738076 75.9806 0.786904 76.0294 0.819456 76.1271C0.852008 76.2247 0.868284 76.3387 0.868284 76.4689C0.868284 76.5991 0.88456 76.713 0.917112 76.8107C0.949664 76.9083 0.96594 76.9897 0.96594 77.0548C1.03104 77.1199 1.07987 77.2013 1.11242 77.2989C1.14498 77.3966 1.16125 77.478 1.16125 77.5431C1.16125 77.6082 1.17753 77.6896 1.21008 77.7872C1.24263 77.8849 1.29146 77.9663 1.35656 78.0314C1.35656 78.0965 1.37284 78.1778 1.40539 78.2755C1.43794 78.3732 1.45422 78.4545 1.45422 78.5196C1.45422 78.5196 1.47049 78.5685 1.50305 78.6661C1.5356 78.7638 1.58443 78.8777 1.64953 79.0079C1.71463 79.073 1.79601 79.2195 1.89367 79.4474C1.99133 79.6752 2.10526 79.8868 2.23546 80.0821C2.30057 80.2774 2.39822 80.489 2.52843 80.7169C2.65864 80.9448 2.7563 81.1238 2.8214 81.254C2.8865 81.3191 2.95161 81.433 3.01671 81.5958C3.08182 81.7586 3.14692 81.905 3.21202 82.0352C3.60265 82.6863 4.449 83.7442 5.75107 85.2091C7.05315 86.6739 8.02971 87.6667 8.68075 88.1876C8.87606 88.3178 9.02254 88.4317 9.1202 88.5294C9.21785 88.627 9.29923 88.6758 9.36434 88.6758C9.49454 88.806 10.0642 89.2455 11.0733 89.9942C12.0824 90.7429 12.6195 91.1172 12.6846 91.1172C12.7497 91.1172 12.8474 91.1661 12.9776 91.2637C13.1078 91.3614 13.2706 91.4753 13.4659 91.6055C13.6612 91.7357 13.8728 91.8659 14.1006 91.9961C14.3285 92.1263 14.5075 92.224 14.6377 92.2891C14.7029 92.3542 14.8168 92.4356 14.9795 92.5332C15.1423 92.6309 15.2888 92.7123 15.419 92.7774C15.5492 92.8425 15.7608 92.9564 16.0538 93.1192C16.3467 93.2819 16.656 93.4284 16.9815 93.5586C17.307 93.7539 17.5837 93.9167 17.8116 94.0469C18.0394 94.1771 18.1859 94.2422 18.251 94.2422C18.3161 94.2422 18.3812 94.2585 18.4463 94.291C18.5114 94.3236 18.5765 94.3724 18.6416 94.4375C18.6416 94.4375 18.6905 94.4538 18.7881 94.4864C18.8858 94.5189 18.9672 94.5677 19.0323 94.6328C19.0974 94.6979 19.1787 94.7305 19.2764 94.7305C19.3741 94.7305 19.4554 94.7305 19.5205 94.7305C19.5205 94.7305 19.5531 94.7468 19.6182 94.7793C19.6833 94.8119 19.7484 94.8607 19.8135 94.9258C19.8135 94.9909 19.8461 95.0397 19.9112 95.0723C19.9763 95.1048 20.0414 95.1211 20.1065 95.1211C20.1716 95.1211 20.253 95.1374 20.3506 95.1699C20.4483 95.2025 20.5622 95.2513 20.6924 95.3164C20.8226 95.3815 20.9528 95.4304 21.083 95.4629C21.2132 95.4955 21.3109 95.5443 21.376 95.6094C21.4411 95.6745 21.5225 95.7233 21.6201 95.7559C21.7178 95.7884 21.7992 95.8047 21.8643 95.8047C21.9294 95.8047 21.9945 95.821 22.0596 95.8535C22.1247 95.8861 22.1898 95.9024 22.2549 95.9024C22.2549 95.9675 22.3037 96.0163 22.4014 96.0488C22.499 96.0814 22.5804 96.0977 22.6455 96.0977C22.7106 96.0977 22.792 96.114 22.8897 96.1465C22.9873 96.1791 23.0687 96.2279 23.1338 96.293C23.1989 96.293 23.264 96.3093 23.3291 96.3418C23.3942 96.3744 23.4593 96.3906 23.5244 96.3906C23.5895 96.3906 23.6709 96.4069 23.7686 96.4395C23.8662 96.472 23.9476 96.5209 24.0127 96.586C24.208 96.6511 24.4359 96.7324 24.6963 96.8301C24.9567 96.9278 25.2171 97.0091 25.4775 97.0742C25.6077 97.0742 25.738 97.1068 25.8682 97.1719C25.9984 97.237 26.1286 97.2695 26.2588 97.2695C26.3239 97.3347 26.4378 97.3835 26.6006 97.416C26.7633 97.4486 26.8773 97.4974 26.9424 97.5625C27.0726 97.5625 27.2028 97.5788 27.333 97.6113C27.4632 97.6439 27.5934 97.6927 27.7236 97.7578C27.7887 97.7578 27.8864 97.7741 28.0166 97.8067C28.1468 97.8392 28.2445 97.888 28.3096 97.9531C28.3747 97.9531 28.4723 97.9694 28.6025 98.002C28.7327 98.0345 28.8304 98.0508 28.8955 98.0508C29.0257 98.0508 29.1396 98.0671 29.2373 98.0996C29.3349 98.1322 29.4163 98.181 29.4814 98.2461C29.5465 98.3112 29.6442 98.36 29.7744 98.3926C29.9046 98.4251 30.0023 98.4414 30.0674 98.4414C30.1976 98.4414 30.3441 98.4577 30.5068 98.4902C30.6696 98.5228 30.8161 98.5391 30.9463 98.5391C31.0765 98.6042 31.2067 98.653 31.3369 98.6856C31.4671 98.7181 31.5648 98.7344 31.6299 98.7344C31.695 98.7344 31.8089 98.7507 31.9717 98.7832C32.1344 98.8158 32.2483 98.8646 32.3134 98.9297C32.4437 98.9297 32.5901 98.946 32.7529 98.9785C32.9157 99.0111 33.0296 99.0274 33.0947 99.0274C33.2249 99.0274 33.3714 99.0436 33.5341 99.0762C33.6969 99.1087 33.8434 99.1576 33.9736 99.2227C34.1038 99.2878 34.2503 99.3366 34.413 99.3691C34.5758 99.4017 34.7223 99.418 34.8525 99.418C34.9827 99.418 35.1455 99.4342 35.3408 99.4668C35.5361 99.4994 35.6988 99.5156 35.8291 99.5156C35.9593 99.5807 36.122 99.6296 36.3173 99.6621C36.5126 99.6947 36.6754 99.7109 36.8056 99.7109C37.0009 99.7109 37.2125 99.7272 37.4404 99.7598C37.6682 99.7923 37.8798 99.8411 38.0751 99.9063C38.2705 99.9063 38.4983 99.9225 38.7587 99.9551C39.0191 99.9876 39.247 100.004 39.4423 100.004C39.6376 100.004 39.8329 100.02 40.0283 100.053C40.2236 100.085 40.3863 100.134 40.5165 100.199C40.9072 100.264 41.9814 100.329 43.7392 100.395C45.5621 100.46 47.4989 100.492 49.5497 100.492C51.6005 100.492 53.5048 100.46 55.2626 100.395C57.0204 100.329 58.0946 100.264 58.4852 100.199C58.6154 100.134 58.7782 100.085 58.9735 100.053C59.1688 100.02 59.3641 100.004 59.5594 100.004C59.7547 100.004 59.9989 99.9876 60.2918 99.9551C60.5848 99.9225 60.7964 99.9063 60.9266 99.9063C61.1219 99.8411 61.3498 99.7923 61.6102 99.7598C61.8706 99.7272 62.0659 99.7109 62.1961 99.7109C62.3263 99.7109 62.5054 99.6947 62.7332 99.6621C62.9611 99.6296 63.1076 99.5807 63.1727 99.5156C63.3029 99.5156 63.4656 99.4994 63.661 99.4668C63.8563 99.4342 64.019 99.418 64.1492 99.418C64.2794 99.418 64.4422 99.4017 64.6375 99.3691C64.8328 99.3366 64.9956 99.2878 65.1258 99.2227C65.256 99.1576 65.4025 99.1087 65.5652 99.0762C65.728 99.0436 65.8419 99.0274 65.907 99.0274C66.0372 99.0274 66.1675 99.0111 66.2977 98.9785C66.4279 98.946 66.5581 98.9297 66.6883 98.9297C66.8185 98.8646 66.9487 98.8158 67.0789 98.7832C67.2091 98.7507 67.3393 98.7344 67.4695 98.7344C67.5346 98.7344 67.6486 98.7181 67.8113 98.6856C67.9741 98.653 68.088 98.6042 68.1531 98.5391C68.2833 98.5391 68.4298 98.5228 68.5926 98.4902C68.7553 98.4577 68.8693 98.4414 68.9344 98.4414C69.0646 98.4414 69.1785 98.4251 69.2762 98.3926C69.3738 98.36 69.4552 98.3112 69.5203 98.2461C69.5854 98.181 69.6668 98.1322 69.7644 98.0996C69.8621 98.0671 69.976 98.0508 70.1062 98.0508C70.2364 98.0508 70.3504 98.0345 70.448 98.002C70.5457 97.9694 70.6271 97.9531 70.6922 97.9531C70.7573 97.888 70.8549 97.8392 70.9851 97.8067C71.1153 97.7741 71.2456 97.7578 71.3758 97.7578C71.4409 97.6927 71.5548 97.6439 71.7176 97.6113C71.8803 97.5788 71.9942 97.5625 72.0594 97.5625C72.1896 97.4974 72.3198 97.4486 72.45 97.416C72.5802 97.3835 72.7104 97.3347 72.8406 97.2695C72.9057 97.2695 73.0034 97.237 73.1336 97.1719C73.2638 97.1068 73.394 97.0742 73.5242 97.0742C73.7846 97.0091 74.045 96.9278 74.3054 96.8301C74.5658 96.7324 74.7937 96.6511 74.989 96.586C75.0541 96.5209 75.1355 96.472 75.2332 96.4395C75.3308 96.4069 75.4122 96.3906 75.4773 96.3906C75.5424 96.3906 75.6075 96.3744 75.6726 96.3418C75.7377 96.3093 75.8028 96.293 75.8679 96.293C75.933 96.2279 76.0144 96.1791 76.1121 96.1465C76.2097 96.114 76.2911 96.0977 76.3562 96.0977C76.4864 96.0977 76.5841 96.0814 76.6492 96.0488C76.7143 96.0163 76.7794 95.9675 76.8445 95.9024C76.8445 95.9024 76.877 95.8861 76.9421 95.8535C77.0072 95.821 77.0723 95.8047 77.1375 95.8047C77.2026 95.8047 77.2839 95.7884 77.3816 95.7559C77.4792 95.7233 77.5606 95.6745 77.6257 95.6094C77.7559 95.5443 77.8861 95.4955 78.0164 95.4629C78.1466 95.4304 78.2442 95.3815 78.3093 95.3164C78.4395 95.2513 78.5535 95.2025 78.6511 95.1699C78.7488 95.1374 78.8302 95.1211 78.8953 95.1211C78.9604 95.1211 79.0255 95.1048 79.0906 95.0723C79.1557 95.0397 79.1882 94.9909 79.1882 94.9258C79.2533 94.8607 79.3184 94.8119 79.3835 94.7793C79.4486 94.7468 79.4812 94.7305 79.4812 94.7305C79.6114 94.7305 79.7579 94.6979 79.9206 94.6328C80.0834 94.5677 80.295 94.4701 80.5554 94.3399C80.6205 94.2748 80.6856 94.2259 80.7507 94.1934C80.8158 94.1608 80.8484 94.1446 80.8484 94.1446C80.9786 94.0795 81.418 93.8679 82.1667 93.5098C82.9154 93.1517 83.3874 92.9076 83.5827 92.7774C83.7129 92.7123 83.8594 92.6309 84.0222 92.5332C84.1849 92.4356 84.3314 92.3542 84.4616 92.2891C84.5918 92.224 84.7546 92.1263 84.9499 91.9961C85.1452 91.8659 85.3405 91.7357 85.5359 91.6055C85.7312 91.4753 85.9102 91.3614 86.073 91.2637C86.2357 91.1661 86.3171 91.1172 86.3171 91.1172C86.3171 91.1172 86.3659 91.0847 86.4636 91.0196C86.5612 90.9545 86.6752 90.8894 86.8054 90.8243C86.9356 90.7592 87.0495 90.6941 87.1472 90.629C87.2448 90.5638 87.2937 90.5313 87.2937 90.5313C87.3588 90.5313 87.7494 90.2546 88.4655 89.7012C89.1817 89.1478 89.6048 88.806 89.7351 88.6758C89.7351 88.6758 89.8002 88.627 89.9304 88.5294C90.0606 88.4317 90.1908 88.3178 90.321 88.1876C91.0371 87.6667 92.03 86.6739 93.2995 85.2091C94.569 83.7442 95.3991 82.6537 95.7897 81.9376C95.8548 81.8725 95.9362 81.7586 96.0339 81.5958C96.1315 81.433 96.1803 81.3191 96.1803 81.254C96.2454 81.1238 96.3431 80.9448 96.4733 80.7169C96.6035 80.489 96.7337 80.2774 96.8639 80.0821C96.929 79.8868 97.0267 79.6752 97.1569 79.4474C97.2871 79.2195 97.3522 79.073 97.3522 79.0079C97.4173 78.8777 97.4661 78.7638 97.4987 78.6661C97.5312 78.5685 97.5475 78.5196 97.5475 78.5196C97.5475 78.4545 97.5638 78.3732 97.5963 78.2755C97.6289 78.1778 97.6777 78.0965 97.7428 78.0314C97.7428 77.9663 97.7591 77.8849 97.7917 77.7872C97.8242 77.6896 97.8405 77.6082 97.8405 77.5431C97.8405 77.478 97.8568 77.3966 97.8893 77.2989C97.9219 77.2013 97.9707 77.1199 98.0358 77.0548C98.1009 76.9897 98.1497 76.9083 98.1823 76.8107C98.2148 76.713 98.2311 76.5991 98.2311 76.4689C98.2311 76.4038 98.2474 76.3061 98.2799 76.1759C98.3125 76.0457 98.3288 75.948 98.3288 75.8829C98.3939 75.7527 98.4427 75.6062 98.4752 75.4435C98.5078 75.2807 98.5241 75.1017 98.5241 74.9064C98.5241 74.5809 98.5566 74.3204 98.6217 74.1251C98.6868 73.9298 98.7845 73.8647 98.9147 73.9298C98.9147 73.9298 98.931 73.7508 98.9635 73.3927C98.9961 73.0346 99.0124 72.5301 99.0124 71.879C99.0124 71.0978 98.9961 70.577 98.9635 70.3165C98.931 70.0561 98.8821 69.9259 98.817 69.9259C98.6868 69.9259 98.6055 69.8445 98.5729 69.6818C98.5403 69.519 98.5241 69.2749 98.5241 68.9494C98.5241 68.8192 98.5078 68.6564 98.4752 68.4611C98.4427 68.2658 98.4264 68.1356 98.4264 68.0705C98.3613 68.0054 98.3125 67.8914 98.2799 67.7287C98.2474 67.5659 98.2311 67.4194 98.2311 67.2892C98.166 67.0288 98.0846 66.7684 97.987 66.508C97.8893 66.2476 97.7754 66.0197 97.6452 65.8244C97.6452 65.6942 97.6289 65.5965 97.5963 65.5314C97.5638 65.4663 97.5475 65.4012 97.5475 65.3361C97.5475 65.271 97.5312 65.1896 97.4987 65.092C97.4661 64.9943 97.4173 64.9129 97.3522 64.8478C97.3522 64.7827 97.2871 64.6362 97.1569 64.4084C97.0267 64.1805 96.929 63.9689 96.8639 63.7736C96.7337 63.5132 96.6035 63.2691 96.4733 63.0412C96.3431 62.8133 96.2454 62.6668 96.1803 62.6017C96.1152 62.5366 96.0664 62.439 96.0339 62.3088C96.0013 62.1786 95.9525 62.0809 95.8874 62.0158C95.8223 61.8856 95.627 61.5764 95.3014 61.0881C94.9759 60.5998 94.7806 60.3231 94.7155 60.258C94.6504 60.258 94.5527 60.1603 94.4225 59.965C94.2923 59.7697 94.1296 59.5744 93.9342 59.3791C93.6087 58.8583 93.0065 58.1747 92.1276 57.3283C91.2487 56.482 90.6465 55.9286 90.321 55.6682C90.1908 55.538 90.0606 55.424 89.9304 55.3264C89.8002 55.2287 89.7351 55.1799 89.7351 55.1799C89.6048 54.9846 89.0189 54.5126 87.9772 53.7639C86.9356 53.0152 86.3822 52.6409 86.3171 52.6409C86.3171 52.6409 86.2357 52.6083 86.073 52.5432C85.9102 52.4781 85.7312 52.3804 85.5359 52.2502C85.3405 52.0549 85.1615 51.9084 84.9987 51.8108C84.836 51.7131 84.7221 51.6643 84.657 51.6643C84.5267 51.5992 84.4616 51.5015 84.4616 51.3713C84.4616 51.2411 84.5267 51.0458 84.657 50.7854C84.7872 50.7203 84.8848 50.6389 84.9499 50.5413C85.015 50.4436 85.0476 50.3622 85.0476 50.2971C85.0476 50.2971 85.0801 50.2483 85.1452 50.1506C85.2103 50.053 85.2754 49.939 85.3405 49.8088C85.5359 49.5484 85.6823 49.3368 85.78 49.1741C85.8776 49.0113 86.0567 48.6695 86.3171 48.1487C86.4473 47.9534 86.5612 47.7418 86.6589 47.5139C86.7565 47.2861 86.8379 47.1396 86.903 47.0745C86.903 47.0094 86.9193 46.928 86.9519 46.8303C86.9844 46.7327 87.0007 46.6513 87.0007 46.5862C87.0007 46.5211 87.017 46.4397 87.0495 46.3421C87.0821 46.2444 87.1309 46.163 87.196 46.0979C87.196 46.0979 87.2286 46.0491 87.2937 45.9514C87.3588 45.8538 87.3913 45.7398 87.3913 45.6096C87.3913 45.5445 87.3913 45.4469 87.3913 45.3167C87.3913 45.1865 87.4239 45.0888 87.489 45.0237C87.6192 44.7633 87.7006 44.3401 87.7331 43.7542C87.7657 43.1682 87.7819 42.4521 87.7819 41.6057C87.7819 40.6292 87.7331 39.7666 87.6355 39.0179C87.5378 38.2692 87.3913 37.6344 87.196 37.1136C87.1309 37.0485 87.0821 36.9671 87.0495 36.8694C87.017 36.7718 87.0007 36.6904 87.0007 36.6253C87.0007 36.5602 86.9844 36.4788 86.9519 36.3812C86.9193 36.2835 86.8705 36.2021 86.8054 36.137C86.8054 36.0719 86.7403 35.9254 86.6101 35.6976C86.4799 35.4697 86.3822 35.2581 86.3171 35.0628C85.8614 34.0863 85.3731 33.2562 84.8523 32.5726C84.3314 31.889 83.6478 31.0915 82.8015 30.18C82.2156 29.5941 81.4994 28.943 80.6531 28.2269C79.8067 27.5108 79.2859 27.1201 79.0906 27.055C79.0906 27.055 79.0255 27.0062 78.8953 26.9086C78.7651 26.8109 78.6674 26.7295 78.6023 26.6644C78.4721 26.5993 78.3582 26.5342 78.2605 26.4691C78.1628 26.404 78.0815 26.3714 78.0164 26.3714C78.0164 26.3714 77.9838 26.3389 77.9187 26.2738C77.8536 26.2087 77.7885 26.1436 77.7234 26.0785C77.5932 25.9483 77.5281 25.8669 77.5281 25.8343C77.5281 25.8018 77.5606 25.753 77.6257 25.6879C77.6908 25.6227 77.7397 25.5576 77.7722 25.4925C77.8048 25.4274 77.821 25.3949 77.821 25.3949C77.821 25.3298 77.8373 25.2647 77.8699 25.1996C77.9024 25.1345 77.9187 25.0694 77.9187 25.0043C78.0489 24.8741 78.2279 24.5974 78.4558 24.1742C78.6837 23.751 78.7976 23.5069 78.7976 23.4418C78.7976 23.3767 78.8139 23.3116 78.8464 23.2465C78.879 23.1814 78.9278 23.1162 78.9929 23.0511C78.9929 23.0511 79.0092 23.0023 79.0417 22.9047C79.0743 22.807 79.0906 22.7256 79.0906 22.6605C79.0906 22.5954 79.1068 22.4978 79.1394 22.3676C79.172 22.2374 79.2208 22.1397 79.2859 22.0746C79.351 22.0095 79.3998 21.9118 79.4324 21.7816C79.4649 21.6514 79.4812 21.5538 79.4812 21.4887C79.4812 21.3584 79.4975 21.1957 79.53 21.0004C79.5626 20.8051 79.5788 20.6423 79.5788 20.5121C79.7091 20.1215 79.7742 19.6169 79.7742 18.9984C79.7742 18.3799 79.7416 17.8754 79.6765 17.4848C79.6114 17.3546 79.5626 17.1755 79.53 16.9477C79.4975 16.7198 79.4812 16.5082 79.4812 16.3129C79.4161 16.1827 79.3673 16.0362 79.3347 15.8734C79.3022 15.7107 79.2859 15.5968 79.2859 15.5317C79.2208 15.5317 79.172 15.4991 79.1394 15.434C79.1068 15.3689 79.0906 15.3038 79.0906 15.2387C79.0906 15.1085 79.0743 14.9945 79.0417 14.8969C79.0092 14.7992 78.9929 14.7179 78.9929 14.6527C78.9278 14.5876 78.8627 14.4737 78.7976 14.311C78.7325 14.1482 78.6674 14.0017 78.6023 13.8715C78.5372 13.8064 78.4884 13.7087 78.4558 13.5785C78.4233 13.4483 78.3744 13.3507 78.3093 13.2856C78.3093 13.2856 78.293 13.2367 78.2605 13.1391C78.2279 13.0414 78.1791 12.9275 78.114 12.7973C78.114 12.7322 78.0815 12.6671 78.0164 12.602C77.9513 12.5369 77.9187 12.5043 77.9187 12.5043C77.9187 12.5043 77.9024 12.488 77.8699 12.4555C77.8373 12.4229 77.7885 12.3741 77.7234 12.309C77.7234 12.1788 77.6583 12.0323 77.5281 11.8696C77.3979 11.7068 77.2351 11.5278 77.0398 11.3325C76.9747 11.2022 76.9096 11.0883 76.8445 10.9907C76.7794 10.893 76.7468 10.8442 76.7468 10.8442C76.7468 10.7791 76.2911 10.2908 75.3797 9.37933C74.4682 8.46788 73.9799 8.01215 73.9148 8.01215C73.9148 8.01215 73.866 7.97961 73.7683 7.9145C73.6707 7.8494 73.5567 7.78429 73.4265 7.71919C73.2312 7.52388 72.808 7.19836 72.157 6.74263C71.506 6.2869 70.9851 5.96139 70.5945 5.76608C70.3341 5.63586 69.7807 5.35918 68.9344 4.936C68.088 4.51283 67.5346 4.23613 67.2742 4.10593C67.144 4.04082 67.0138 3.99199 66.8836 3.95944C66.7534 3.92689 66.6557 3.87806 66.5906 3.81296C66.5255 3.74786 66.4441 3.69903 66.3465 3.66647C66.2488 3.63392 66.1675 3.61765 66.1023 3.61765C66.0372 3.61765 65.9721 3.60137 65.907 3.56882C65.8419 3.53626 65.7768 3.51999 65.7117 3.51999C65.6466 3.45489 65.5652 3.40606 65.4676 3.3735C65.3699 3.34096 65.2886 3.32468 65.2234 3.32468C65.1583 3.32468 65.0932 3.3084 65.0281 3.27585C64.963 3.2433 64.9305 3.22702 64.9305 3.22702C64.8654 3.16192 64.784 3.11309 64.6863 3.08054C64.5887 3.04799 64.4748 3.03171 64.3445 3.03171C64.2143 2.96661 64.0679 2.91778 63.9051 2.88523C63.7423 2.85268 63.6284 2.80385 63.5633 2.73875C63.4331 2.73875 63.3029 2.70619 63.1727 2.64109C63.0425 2.57598 62.9448 2.54343 62.8797 2.54343C62.7495 2.47832 62.6193 2.4295 62.4891 2.39695C62.3589 2.3644 62.2287 2.34812 62.0985 2.34812C61.9683 2.34812 61.838 2.31557 61.7078 2.25047C61.5776 2.18536 61.48 2.15281 61.4149 2.15281C61.3498 2.08771 61.2521 2.05515 61.1219 2.05515C60.9917 2.05515 60.8615 2.05515 60.7313 2.05515C60.6011 2.05515 60.4709 2.03888 60.3407 2.00632C60.2104 1.97377 60.1128 1.92494 60.0477 1.85984C59.9826 1.79474 59.8687 1.74591 59.7059 1.71336C59.5431 1.68081 59.4292 1.66453 59.3641 1.66453C59.2339 1.66453 59.0711 1.64825 58.8758 1.6157C58.6805 1.58315 58.5177 1.56687 58.3875 1.56687C58.2573 1.50177 58.0946 1.45294 57.8993 1.42039C57.704 1.38784 57.5412 1.37156 57.411 1.37156C57.2808 1.37156 57.1017 1.35529 56.8739 1.32273C56.646 1.29018 56.4344 1.24136 56.2391 1.17625C56.0438 1.17625 55.7834 1.1437 55.4579 1.0786C55.1324 1.01349 54.8394 0.980942 54.579 0.980942C53.993 0.980942 53.5699 0.964661 53.3094 0.932114C53.049 0.899559 52.9188 0.850731 52.9188 0.785629C52.9188 0.720528 52.7072 0.6717 52.2841 0.639145C51.8609 0.60659 50.9657 0.590317 49.5985 0.590317C48.2313 0.590317 47.3199 0.60659 46.8642 0.639145C46.4084 0.6717 46.1806 0.720528 46.1806 0.785629ZM51.5516 6.74263C51.9423 6.74263 52.3817 6.77518 52.87 6.84029C53.3583 6.90539 53.7652 6.93794 54.0907 6.93794C54.4813 6.93794 54.8394 6.9705 55.1649 7.0356C55.4904 7.1007 55.7183 7.13326 55.8485 7.13326C55.9787 7.19836 56.1252 7.23091 56.2879 7.23091C56.4507 7.23091 56.5972 7.23091 56.7274 7.23091C56.8576 7.23091 57.0041 7.26346 57.1668 7.32857C57.3296 7.39367 57.4761 7.42622 57.6063 7.42622C57.6714 7.49133 57.7853 7.54015 57.9481 7.57271C58.1109 7.60526 58.2573 7.62154 58.3875 7.62154C58.5177 7.62154 58.6642 7.63781 58.827 7.67036C58.9898 7.70291 59.1362 7.75174 59.2664 7.81684C59.3316 7.81684 59.4455 7.83312 59.6082 7.86567C59.771 7.89822 59.8849 7.9145 59.95 7.9145C60.0151 7.9145 60.1128 7.93078 60.243 7.96333C60.3732 7.99588 60.4709 8.04471 60.536 8.10981C60.6011 8.17492 60.6987 8.22375 60.8289 8.25629C60.9591 8.28885 61.0568 8.30512 61.1219 8.30512C61.187 8.30512 61.2847 8.3214 61.4149 8.35395C61.5451 8.38651 61.6427 8.40278 61.7078 8.40278C61.7729 8.46788 61.8543 8.51671 61.952 8.54926C62.0496 8.58182 62.131 8.59809 62.1961 8.59809C62.3263 8.59809 62.424 8.61436 62.4891 8.64692C62.5542 8.67947 62.6193 8.7283 62.6844 8.7934C62.7495 8.7934 62.8309 8.80968 62.9285 8.84223C63.0262 8.87478 63.1076 8.89106 63.1727 8.89106C63.1727 8.89106 63.2378 8.90733 63.368 8.93989C63.4982 8.97243 63.6284 9.02126 63.7586 9.08637C63.8888 9.15147 64.019 9.21658 64.1492 9.28168C64.2794 9.34679 64.4097 9.41189 64.5399 9.47699C64.605 9.47699 64.7026 9.50954 64.8328 9.57465C64.963 9.63976 65.0932 9.70486 65.2234 9.76996C65.2886 9.76996 65.3862 9.80251 65.5164 9.86761C65.6466 9.93272 65.7117 9.96527 65.7117 9.96527C65.7768 9.96527 65.8419 9.98154 65.907 10.0141C65.9721 10.0467 66.0372 10.0955 66.1023 10.1606C66.1023 10.1606 66.1349 10.1769 66.2 10.2094C66.2651 10.242 66.3302 10.2582 66.3953 10.2582C66.4604 10.3233 66.5255 10.3722 66.5906 10.4047C66.6557 10.4373 66.6883 10.4536 66.6883 10.4536C66.7534 10.4536 66.8185 10.4698 66.8836 10.5024C66.9487 10.5349 67.0138 10.5838 67.0789 10.6489C67.0789 10.6489 67.1277 10.6814 67.2254 10.7465C67.323 10.8116 67.437 10.8767 67.5672 10.9418C67.6323 10.9418 67.7299 10.9744 67.8602 11.0395C67.9904 11.1046 68.0555 11.1697 68.0555 11.2348C68.4461 11.4301 68.9181 11.7393 69.4715 12.1625C70.0249 12.5857 70.5294 12.9926 70.9851 13.3832C71.3758 13.7738 71.7338 14.1645 72.0594 14.5551C72.3849 14.9457 72.5476 15.1736 72.5476 15.2387C72.5476 15.2387 72.5802 15.2875 72.6453 15.3852C72.7104 15.4828 72.7755 15.5968 72.8406 15.727C72.9708 15.8572 73.0685 15.9874 73.1336 16.1176C73.1987 16.2478 73.2312 16.3129 73.2312 16.3129C73.2312 16.378 73.2475 16.4431 73.2801 16.5082C73.3126 16.5733 73.3289 16.671 73.3289 16.8012C73.6544 17.3871 73.8172 18.0707 73.8172 18.852C73.8172 19.6332 73.6544 20.3168 73.3289 20.9027C73.3289 20.9678 73.3126 21.0492 73.2801 21.1469C73.2475 21.2445 73.2312 21.3259 73.2312 21.391C73.2312 21.5212 73.0034 21.8793 72.5476 22.4652C72.0919 23.0511 71.7013 23.5394 71.3758 23.93C70.7898 24.516 70.1551 25.0694 69.4715 25.5902C68.7879 26.111 68.1206 26.5342 67.4695 26.8597C67.3393 26.9248 67.2091 26.9899 67.0789 27.055C66.9487 27.1201 66.8836 27.1852 66.8836 27.2503C66.8185 27.2503 66.7534 27.2666 66.6883 27.2992C66.6232 27.3317 66.5581 27.348 66.493 27.348C66.493 27.4131 66.4441 27.4619 66.3465 27.4945C66.2488 27.527 66.2 27.5433 66.2 27.5433C66.1349 27.6084 66.0698 27.6572 66.0047 27.6898C65.9396 27.7224 65.8745 27.7386 65.8094 27.7386C65.8094 27.7386 65.7768 27.7549 65.7117 27.7875C65.6466 27.82 65.5815 27.8363 65.5164 27.8363C65.256 28.0316 65.0281 28.1618 64.8328 28.2269C64.6375 28.292 64.5073 28.3246 64.4422 28.3246C64.3771 28.3246 64.312 28.3408 64.2469 28.3734C64.1818 28.4059 64.1167 28.4548 64.0516 28.5199C63.9865 28.5199 63.9051 28.5361 63.8074 28.5687C63.7098 28.6012 63.661 28.6175 63.661 28.6175C63.5959 28.6175 63.5145 28.6338 63.4168 28.6664C63.3192 28.6989 63.2378 28.7477 63.1727 28.8128C62.9774 28.943 62.7332 29.0407 62.4403 29.1058C62.1473 29.1709 61.9032 29.236 61.7078 29.3011C61.5776 29.3011 61.4474 29.3337 61.3172 29.3988C61.187 29.4639 61.0894 29.4964 61.0243 29.4964C60.9591 29.5615 60.8778 29.6104 60.7801 29.6429C60.6825 29.6755 60.6011 29.6917 60.536 29.6917C60.4058 29.6917 60.2918 29.708 60.1942 29.7406C60.0965 29.7731 60.0151 29.7894 59.95 29.7894C59.8849 29.8545 59.7873 29.9033 59.6571 29.9359C59.5269 29.9684 59.4292 29.9847 59.3641 29.9847C59.2339 29.9847 59.0874 30.001 58.9246 30.0335C58.7619 30.0661 58.6154 30.1149 58.4852 30.18C58.355 30.18 58.2085 30.1963 58.0457 30.2289C57.883 30.2614 57.7691 30.2777 57.704 30.2777C57.5737 30.2777 57.4273 30.294 57.2645 30.3265C57.1017 30.3591 56.9553 30.4079 56.8251 30.473C56.6948 30.5381 56.4995 30.5869 56.2391 30.6195C55.9787 30.652 55.7834 30.6683 55.6532 30.6683C55.4579 30.6683 55.23 30.6846 54.9696 30.7171C54.7092 30.7497 54.5139 30.766 54.3837 30.766C53.9279 30.8962 52.3166 30.9613 49.5497 30.9613C46.7828 30.9613 45.1715 30.8962 44.7157 30.766C44.5204 30.766 44.3088 30.7497 44.081 30.7171C43.8531 30.6846 43.6415 30.6683 43.4462 30.6683C43.2509 30.6683 43.0393 30.652 42.8114 30.6195C42.5836 30.5869 42.372 30.5381 42.1767 30.473C42.0465 30.4079 41.9 30.3591 41.7372 30.3265C41.5745 30.294 41.428 30.2777 41.2978 30.2777C41.2327 30.2777 41.1187 30.2614 40.956 30.2289C40.7932 30.1963 40.6467 30.18 40.5165 30.18C40.3863 30.1149 40.2398 30.0661 40.0771 30.0335C39.9143 30.001 39.8004 29.9847 39.7353 29.9847C39.6051 29.9847 39.4911 29.9684 39.3935 29.9359C39.2958 29.9033 39.1819 29.8545 39.0517 29.7894C38.9866 29.7894 38.9052 29.7731 38.8076 29.7406C38.7099 29.708 38.6285 29.6917 38.5634 29.6917C38.4332 29.6917 38.3193 29.6755 38.2216 29.6429C38.124 29.6104 38.0426 29.5615 37.9775 29.4964C37.9124 29.4964 37.8147 29.4639 37.6845 29.3988C37.5543 29.3337 37.4567 29.3011 37.3915 29.3011C37.1311 29.236 36.8707 29.1709 36.6103 29.1058C36.3499 29.0407 36.122 28.943 35.9267 28.8128C35.8616 28.7477 35.7802 28.6989 35.6826 28.6664C35.5849 28.6338 35.5035 28.6175 35.4384 28.6175C35.3733 28.6175 35.292 28.6012 35.1943 28.5687C35.0966 28.5361 35.0153 28.5199 34.9502 28.5199C34.9502 28.4548 34.9013 28.4059 34.8037 28.3734C34.706 28.3408 34.6246 28.3246 34.5595 28.3246C34.4944 28.3246 34.4293 28.3083 34.3642 28.2757C34.2991 28.2432 34.2015 28.1944 34.0713 28.1292C34.0061 28.1292 33.9248 28.0967 33.8271 28.0316C33.7295 27.9665 33.6481 27.9339 33.583 27.9339C33.583 27.9339 33.5504 27.9177 33.4853 27.8851C33.4202 27.8526 33.3551 27.8363 33.29 27.8363C33.2249 27.7712 33.1598 27.7224 33.0947 27.6898C33.0296 27.6572 32.997 27.641 32.997 27.641C32.9319 27.641 32.8668 27.6247 32.8017 27.5921C32.7366 27.5596 32.6715 27.5108 32.6064 27.4457C32.5413 27.4457 32.4762 27.4131 32.4111 27.348C32.346 27.2829 32.2809 27.2503 32.2158 27.2503C32.1507 27.1852 32.053 27.1201 31.9228 27.055C31.7926 26.9899 31.695 26.9248 31.6299 26.8597C30.5882 26.3389 29.5954 25.6716 28.6514 24.8578C27.7073 24.044 26.9749 23.2139 26.4541 22.3676C26.1286 21.9769 25.9007 21.6351 25.7705 21.3422C25.6403 21.0492 25.5426 20.7074 25.4775 20.3168C25.4775 20.1866 25.445 20.0564 25.3799 19.9262C25.3148 19.796 25.2822 19.6983 25.2822 19.6332C25.152 19.4379 25.1357 19.0147 25.2334 18.3637C25.3311 17.7126 25.4775 17.1918 25.6729 16.8012C25.738 16.671 25.7868 16.5733 25.8193 16.5082C25.8519 16.4431 25.8682 16.378 25.8682 16.3129C25.8682 16.3129 25.9007 16.2478 25.9658 16.1176C26.0309 15.9874 26.096 15.8572 26.1611 15.727C26.2262 15.5968 26.2913 15.4828 26.3564 15.3852C26.4215 15.2875 26.4541 15.2387 26.4541 15.2387C26.4541 15.1085 26.7796 14.7016 27.4307 14.018C28.0817 13.3344 28.6351 12.8298 29.0908 12.5043C29.6767 12.0486 30.0511 11.7556 30.2138 11.6254C30.3766 11.4952 30.6207 11.365 30.9463 11.2348C31.0114 11.1697 31.0928 11.1046 31.1904 11.0395C31.2881 10.9744 31.3694 10.9418 31.4345 10.9418C31.6299 10.8116 31.7601 10.7302 31.8252 10.6977C31.8903 10.6651 32.0205 10.6163 32.2158 10.5512C32.2809 10.4861 32.3297 10.4373 32.3623 10.4047C32.3948 10.3722 32.4437 10.3559 32.5088 10.3559C32.5739 10.3559 32.639 10.3396 32.7041 10.3071C32.7692 10.2745 32.8017 10.2257 32.8017 10.1606C32.8668 10.1606 32.9319 10.1443 32.997 10.1118C33.0621 10.0792 33.1272 10.0629 33.1923 10.0629C33.2575 9.99783 33.4202 9.91644 33.6806 9.81879C33.941 9.72113 34.234 9.57465 34.5595 9.37933C34.6246 9.37933 34.7386 9.34679 34.9013 9.28168C35.0641 9.21658 35.2106 9.15147 35.3408 9.08637C35.4059 9.02126 35.5035 8.97243 35.6337 8.93989C35.764 8.90733 35.8616 8.89106 35.9267 8.89106C35.9918 8.89106 36.0569 8.87478 36.122 8.84223C36.1871 8.80968 36.2522 8.7934 36.3173 8.7934C36.3824 8.7283 36.4638 8.67947 36.5615 8.64692C36.6591 8.61436 36.7405 8.59809 36.8056 8.59809C36.8707 8.59809 36.9521 8.58182 37.0498 8.54926C37.1474 8.51671 37.2613 8.46788 37.3915 8.40278C37.4567 8.40278 37.538 8.38651 37.6357 8.35395C37.7333 8.3214 37.8147 8.30512 37.8798 8.30512C37.9449 8.30512 38.0426 8.28885 38.1728 8.25629C38.303 8.22375 38.4007 8.17492 38.4658 8.10981C38.5309 8.04471 38.6285 7.99588 38.7587 7.96333C38.8889 7.93078 38.9866 7.9145 39.0517 7.9145C39.1819 7.9145 39.3121 7.89822 39.4423 7.86567C39.5725 7.83312 39.7027 7.81684 39.8329 7.81684C39.898 7.75174 40.012 7.70291 40.1747 7.67036C40.3375 7.63781 40.484 7.62154 40.6142 7.62154C40.7444 7.62154 40.8909 7.60526 41.0536 7.57271C41.2164 7.54015 41.3303 7.49133 41.3954 7.42622C41.5256 7.36111 41.6721 7.31229 41.8349 7.27974C41.9976 7.24718 42.1441 7.23091 42.2743 7.23091C42.4045 7.23091 42.5673 7.23091 42.7626 7.23091C42.9579 7.23091 43.1207 7.19836 43.2509 7.13326C43.316 7.13326 43.5276 7.1007 43.8857 7.0356C44.2437 6.9705 44.6181 6.93794 45.0087 6.93794C45.3993 6.93794 45.8225 6.90539 46.2782 6.84029C46.734 6.77518 47.092 6.74263 47.3524 6.74263C48.0686 6.67753 48.7684 6.64497 49.452 6.64497C50.1356 6.64497 50.8355 6.67753 51.5516 6.74263ZM26.5518 30.766C26.8773 31.0264 27.1377 31.2054 27.333 31.3031C27.5283 31.4007 27.6911 31.5146 27.8213 31.6449C27.8864 31.6449 27.984 31.6774 28.1142 31.7425C28.2445 31.8076 28.3421 31.8727 28.4072 31.9378C28.4723 32.0029 28.6025 32.0843 28.7978 32.182C28.9932 32.2796 29.1559 32.361 29.2861 32.4261C29.4163 32.4912 29.5628 32.5726 29.7256 32.6702C29.8883 32.7679 29.9697 32.8167 29.9697 32.8167C30.0348 32.8167 30.165 32.8656 30.3603 32.9632C30.5556 33.0609 30.751 33.1748 30.9463 33.305C31.1416 33.3701 31.3532 33.4515 31.581 33.5491C31.8089 33.6468 31.9554 33.7282 32.0205 33.7933C32.0856 33.7933 32.167 33.8096 32.2646 33.8421C32.3623 33.8747 32.4437 33.8909 32.5088 33.8909C32.5739 33.8909 32.639 33.9072 32.7041 33.9398C32.7692 33.9723 32.8343 34.0211 32.8994 34.0863C32.9645 34.1514 33.0296 34.2002 33.0947 34.2327C33.1598 34.2653 33.2249 34.2816 33.29 34.2816C33.3551 34.2816 33.4365 34.2978 33.5341 34.3304C33.6318 34.3629 33.7132 34.3792 33.7783 34.3792C34.0387 34.5094 34.2991 34.6234 34.5595 34.721C34.8199 34.8187 35.0478 34.8675 35.2431 34.8675C35.3082 34.8675 35.3896 34.9 35.4873 34.9652C35.5849 35.0303 35.6663 35.0628 35.7314 35.0628C35.7965 35.1279 35.8779 35.1767 35.9755 35.2093C36.0732 35.2418 36.1871 35.2581 36.3173 35.2581C36.3824 35.2581 36.4801 35.2744 36.6103 35.3069C36.7405 35.3395 36.8382 35.3558 36.9033 35.3558C36.9684 35.4209 37.0498 35.4697 37.1474 35.5023C37.2451 35.5348 37.359 35.5511 37.4892 35.5511C37.5543 35.5511 37.652 35.5674 37.7822 35.5999C37.9124 35.6325 38.0426 35.6813 38.1728 35.7464C38.303 35.8115 38.4495 35.8441 38.6122 35.8441C38.775 35.8441 38.8889 35.8766 38.954 35.9417C39.0842 35.9417 39.2145 35.958 39.3447 35.9905C39.4749 36.0231 39.6051 36.0394 39.7353 36.0394C39.8004 36.1045 39.9143 36.1533 40.0771 36.1859C40.2398 36.2184 40.3863 36.2347 40.5165 36.2347C40.6467 36.2347 40.8258 36.251 41.0536 36.2835C41.2815 36.3161 41.4605 36.3649 41.5907 36.43C41.721 36.43 41.9 36.4463 42.1279 36.4788C42.3557 36.5114 42.5348 36.5276 42.665 36.5276C42.7952 36.5276 43.0068 36.5439 43.2997 36.5765C43.5927 36.609 43.8368 36.6579 44.0321 36.723C44.4228 36.7881 44.9761 36.8369 45.6923 36.8694C46.4084 36.902 47.678 36.9183 49.5009 36.9183C51.3238 36.9183 52.6096 36.902 53.3583 36.8694C54.107 36.8369 54.6441 36.7881 54.9696 36.723C55.23 36.6579 55.4904 36.609 55.7508 36.5765C56.0113 36.5439 56.2066 36.5276 56.3368 36.5276C56.5321 36.5276 56.7274 36.5114 56.9227 36.4788C57.118 36.4463 57.2808 36.43 57.411 36.43C57.6063 36.3649 57.8016 36.3161 57.9969 36.2835C58.1922 36.251 58.355 36.2347 58.4852 36.2347C58.6154 36.2347 58.7619 36.2184 58.9246 36.1859C59.0874 36.1533 59.2339 36.1045 59.3641 36.0394C59.4292 36.0394 59.5269 36.0231 59.6571 35.9905C59.7873 35.958 59.9175 35.9417 60.0477 35.9417C60.1779 35.8766 60.3081 35.8441 60.4383 35.8441C60.5685 35.8441 60.6987 35.8115 60.8289 35.7464C60.9591 35.6813 61.0894 35.6325 61.2196 35.5999C61.3498 35.5674 61.48 35.5511 61.6102 35.5511C61.6753 35.5511 61.7567 35.5348 61.8543 35.5023C61.952 35.4697 62.0334 35.4209 62.0985 35.3558C62.1636 35.3558 62.2612 35.3395 62.3914 35.3069C62.5216 35.2744 62.6193 35.2581 62.6844 35.2581C62.8146 35.2581 62.9285 35.2418 63.0262 35.2093C63.1238 35.1767 63.2052 35.1279 63.2703 35.0628C63.3354 35.0628 63.4168 35.0303 63.5145 34.9652C63.6121 34.9 63.7261 34.8675 63.8563 34.8675C64.0516 34.8675 64.2794 34.8187 64.5399 34.721C64.8003 34.6234 65.0281 34.5094 65.2234 34.3792C65.2886 34.3792 65.3699 34.3629 65.4676 34.3304C65.5652 34.2978 65.6466 34.2816 65.7117 34.2816C65.7768 34.2816 65.8419 34.2653 65.907 34.2327C65.9721 34.2002 66.0372 34.1514 66.1023 34.0863C66.1675 34.0211 66.2488 33.9723 66.3465 33.9398C66.4441 33.9072 66.493 33.8909 66.493 33.8909C66.5581 33.8909 66.6395 33.8747 66.7371 33.8421C66.8348 33.8096 66.9161 33.7933 66.9813 33.7933C67.1115 33.7282 67.2742 33.6468 67.4695 33.5491C67.6648 33.4515 67.8602 33.3701 68.0555 33.305C68.3159 33.1748 68.5275 33.0609 68.6902 32.9632C68.853 32.8656 68.9669 32.8167 69.032 32.8167C69.0971 32.8167 69.1948 32.7679 69.325 32.6702C69.4552 32.5726 69.5854 32.4912 69.7156 32.4261C69.9109 32.361 70.09 32.2796 70.2527 32.182C70.4155 32.0843 70.5294 32.0029 70.5945 31.9378C70.7247 31.8727 70.8387 31.8076 70.9363 31.7425C71.034 31.6774 71.1153 31.6449 71.1805 31.6449C71.3758 31.5146 71.5548 31.4007 71.7176 31.3031C71.8803 31.2054 72.1245 31.0264 72.45 30.766L73.0359 30.2777L73.5242 30.5706C73.6544 30.6357 73.7846 30.7009 73.9148 30.766C74.045 30.8311 74.1427 30.8962 74.2078 30.9613C74.2078 30.9613 74.2729 30.9938 74.4031 31.0589C74.5333 31.124 74.631 31.2217 74.6961 31.3519C74.8263 31.417 74.9402 31.4821 75.0379 31.5472C75.1355 31.6123 75.1843 31.6449 75.1843 31.6449C75.2494 31.6449 75.3797 31.71 75.575 31.8402C75.7703 31.9704 75.9656 32.1331 76.1609 32.3284C76.877 32.8493 77.7234 33.6143 78.6999 34.6234C79.6765 35.6325 80.2624 36.3649 80.4577 36.8206C80.4577 36.8206 80.4903 36.8694 80.5554 36.9671C80.6205 37.0648 80.6856 37.1787 80.7507 37.3089C80.8158 37.374 80.8809 37.4554 80.946 37.553C81.0111 37.6507 81.0437 37.7321 81.0437 37.7972C81.0437 37.7972 81.0762 37.846 81.1413 37.9437C81.2064 38.0413 81.239 38.1227 81.239 38.1878C81.3041 38.318 81.3529 38.4319 81.3855 38.5296C81.418 38.6272 81.4343 38.7086 81.4343 38.7737C81.4343 38.8388 81.4506 38.9039 81.4831 38.969C81.5157 39.0341 81.532 39.0992 81.532 39.1644C81.5971 39.2295 81.6947 39.555 81.8249 40.1409C81.9551 40.7268 82.0202 41.1826 82.0202 41.5081C82.0202 41.7685 81.9551 42.2242 81.8249 42.8753C81.6947 43.5263 81.5971 43.982 81.532 44.2425C81.4669 44.4378 81.3041 44.7958 81.0437 45.3167C80.7833 45.8375 80.6205 46.1956 80.5554 46.3909C80.0997 47.0419 79.4649 47.8069 78.6511 48.6858C77.8373 49.5647 77.0723 50.2646 76.3562 50.7854C75.9005 51.1109 75.3471 51.4853 74.6961 51.9084C74.045 52.3316 73.6544 52.5757 73.5242 52.6409C73.4591 52.706 73.3614 52.7711 73.2312 52.8362C73.101 52.9013 73.0034 52.9664 72.9383 53.0315C72.808 53.0966 72.6941 53.1617 72.5965 53.2268C72.4988 53.2919 72.3523 53.357 72.157 53.4221C72.157 53.4221 72.1245 53.4384 72.0594 53.4709C71.9942 53.5035 71.9291 53.5198 71.864 53.5198C71.864 53.5849 71.8152 53.6337 71.7176 53.6662C71.6199 53.6988 71.5711 53.7151 71.5711 53.7151C71.506 53.7151 71.4409 53.7313 71.3758 53.7639C71.3107 53.7964 71.2456 53.8127 71.1805 53.8127C70.9851 53.9429 70.7898 54.0569 70.5945 54.1545C70.3992 54.2522 70.269 54.301 70.2039 54.301C70.1388 54.301 70.09 54.3173 70.0574 54.3498C70.0249 54.3824 69.976 54.4312 69.9109 54.4963C69.8458 54.5614 69.7807 54.6102 69.7156 54.6428C69.6505 54.6753 69.5854 54.6916 69.5203 54.6916C69.4552 54.6916 69.3738 54.7079 69.2762 54.7405C69.1785 54.773 69.0971 54.7893 69.032 54.7893C69.032 54.8544 68.9832 54.9032 68.8855 54.9358C68.7879 54.9683 68.7065 54.9846 68.6414 54.9846C68.6414 54.9846 68.5926 55.0009 68.4949 55.0334C68.3973 55.066 68.2833 55.0822 68.1531 55.0822C68.0229 55.2125 67.8602 55.3101 67.6648 55.3752C67.4695 55.4403 67.1115 55.5705 66.5906 55.7658C66.5255 55.7658 66.4116 55.7984 66.2488 55.8635C66.0861 55.9286 65.9396 55.9611 65.8094 55.9611C65.7443 55.9611 65.6466 55.9937 65.5164 56.0588C65.3862 56.1239 65.2886 56.1565 65.2234 56.1565C65.1583 56.2216 65.077 56.2541 64.9793 56.2541C64.8817 56.2541 64.8003 56.2541 64.7352 56.2541C64.6701 56.2541 64.5724 56.2704 64.4422 56.3029C64.312 56.3355 64.2143 56.3843 64.1492 56.4494C64.0841 56.5145 63.9865 56.5634 63.8563 56.5959C63.7261 56.6285 63.5959 56.6447 63.4656 56.6447C63.4005 56.6447 63.3029 56.661 63.1727 56.6936C63.0425 56.7261 62.9448 56.7424 62.8797 56.7424C62.8146 56.8075 62.7169 56.8563 62.5867 56.8889C62.4565 56.9214 62.3263 56.9377 62.1961 56.9377C62.0659 56.9377 61.9194 56.954 61.7567 56.9865C61.5939 57.0191 61.48 57.0679 61.4149 57.133C61.2847 57.133 61.1382 57.1493 60.9754 57.1818C60.8127 57.2144 60.6662 57.2307 60.536 57.2307C60.4709 57.2307 60.3569 57.2469 60.1942 57.2795C60.0314 57.3121 59.8849 57.3609 59.7547 57.426C59.6245 57.4911 59.478 57.5399 59.3153 57.5725C59.1525 57.605 59.006 57.6213 58.8758 57.6213C58.7456 57.6213 58.5829 57.6376 58.3875 57.6701C58.1922 57.7027 58.062 57.719 57.9969 57.719C57.8667 57.7841 57.6388 57.8329 57.3133 57.8654C56.9878 57.898 56.6623 57.9143 56.3368 57.9143C56.0113 57.9794 55.6695 58.0282 55.3114 58.0607C54.9533 58.0933 54.6766 58.1096 54.4813 58.1096C54.286 58.1747 53.7001 58.2072 52.7235 58.2072C51.7469 58.2072 50.6727 58.2072 49.5009 58.2072C48.329 58.2072 47.2548 58.2072 46.2782 58.2072C45.3017 58.2072 44.7157 58.1747 44.5204 58.1096C44.3251 58.1096 44.0484 58.0933 43.6903 58.0607C43.3323 58.0282 42.9905 57.9794 42.665 57.9143C42.3394 57.9143 42.0139 57.898 41.6884 57.8654C41.3629 57.8329 41.1676 57.7841 41.1025 57.719C40.9723 57.719 40.8258 57.7027 40.663 57.6701C40.5003 57.6376 40.3538 57.6213 40.2236 57.6213C40.0283 57.6213 39.8492 57.605 39.6865 57.5725C39.5237 57.5399 39.3772 57.4911 39.247 57.426C39.1819 57.3609 39.068 57.3121 38.9052 57.2795C38.7425 57.2469 38.596 57.2307 38.4658 57.2307C38.3356 57.2307 38.1891 57.2144 38.0263 57.1818C37.8636 57.1493 37.7171 57.133 37.5869 57.133C37.4567 57.0679 37.3264 57.0191 37.1962 56.9865C37.066 56.954 36.9358 56.9377 36.8056 56.9377C36.6754 56.9377 36.5452 56.9214 36.415 56.8889C36.2848 56.8563 36.1871 56.8075 36.122 56.7424C36.0569 56.7424 35.9593 56.7261 35.8291 56.6936C35.6988 56.661 35.6012 56.6447 35.5361 56.6447C35.4059 56.6447 35.2757 56.6285 35.1455 56.5959C35.0153 56.5634 34.9176 56.5145 34.8525 56.4494C34.7874 56.3843 34.6897 56.3355 34.5595 56.3029C34.4293 56.2704 34.3317 56.2541 34.2666 56.2541C34.2015 56.2541 34.1201 56.2541 34.0224 56.2541C33.9248 56.2541 33.8434 56.2216 33.7783 56.1565C33.7132 56.1565 33.6155 56.1239 33.4853 56.0588C33.3551 55.9937 33.2575 55.9611 33.1923 55.9611C33.0621 55.9611 32.9319 55.9286 32.8017 55.8635C32.6715 55.7984 32.5413 55.7658 32.4111 55.7658C31.8903 55.5705 31.5322 55.4403 31.3369 55.3752C31.1416 55.3101 30.9788 55.2125 30.8486 55.0822C30.7835 55.0822 30.7021 55.066 30.6045 55.0334C30.5068 55.0009 30.4254 54.9846 30.3603 54.9846C30.2952 54.9846 30.2301 54.9683 30.165 54.9358C30.0999 54.9032 30.0348 54.8544 29.9697 54.7893C29.9046 54.7893 29.8232 54.773 29.7256 54.7405C29.6279 54.7079 29.5465 54.6916 29.4814 54.6916C29.4163 54.6916 29.3512 54.6753 29.2861 54.6428C29.221 54.6102 29.1559 54.5614 29.0908 54.4963C29.0908 54.4312 29.0583 54.3824 28.9932 54.3498C28.928 54.3173 28.8629 54.301 28.7978 54.301C28.7978 54.301 28.749 54.2847 28.6514 54.2522C28.5537 54.2196 28.4723 54.2033 28.4072 54.2033C28.3421 54.1382 28.2607 54.0894 28.1631 54.0569C28.0654 54.0243 27.984 53.9755 27.9189 53.9104C27.8538 53.9104 27.7887 53.8941 27.7236 53.8615C27.6585 53.829 27.5934 53.7802 27.5283 53.7151C27.333 53.5849 27.1865 53.5035 27.0889 53.4709C26.9912 53.4384 26.9098 53.4221 26.8447 53.4221C26.6494 53.357 26.5192 53.2919 26.4541 53.2268C26.389 53.1617 26.2588 53.0966 26.0635 53.0315C25.9984 52.9664 25.917 52.9013 25.8193 52.8362C25.7217 52.7711 25.6077 52.706 25.4775 52.6409C25.3473 52.5757 24.9567 52.3316 24.3057 51.9084C23.6546 51.4853 23.1338 51.1109 22.7432 50.7854C21.9619 50.2646 21.1644 49.5647 20.3506 48.6858C19.5368 47.8069 18.9346 47.0419 18.544 46.3909C18.4138 46.1956 18.2347 45.8375 18.0069 45.3167C17.779 44.7958 17.6 44.4378 17.4698 44.2425C17.4047 43.982 17.307 43.5263 17.1768 42.8753C17.0466 42.2242 17.014 41.7685 17.0791 41.5081C17.0791 41.1826 17.128 40.7268 17.2256 40.1409C17.3233 39.555 17.4047 39.2295 17.4698 39.1644C17.5349 39.0992 17.5674 39.0341 17.5674 38.969C17.5674 38.9039 17.5674 38.8388 17.5674 38.7737C17.5674 38.7086 17.5837 38.6272 17.6163 38.5296C17.6488 38.4319 17.6976 38.318 17.7627 38.1878C17.8278 38.1227 17.8767 38.0413 17.9092 37.9437C17.9418 37.846 17.958 37.7972 17.958 37.7972C18.0232 37.7321 18.072 37.6507 18.1045 37.553C18.1371 37.4554 18.1859 37.374 18.251 37.3089C18.3161 37.1787 18.3812 37.0648 18.4463 36.9671C18.5114 36.8694 18.544 36.8206 18.544 36.8206C18.7393 36.3649 19.3252 35.6325 20.3018 34.6234C21.2783 33.6143 22.1247 32.8493 22.8408 32.3284C23.1013 32.1331 23.3291 31.9704 23.5244 31.8402C23.7197 31.71 23.8174 31.6449 23.8174 31.6449C23.8174 31.6449 23.8662 31.6123 23.9639 31.5472C24.0615 31.4821 24.1755 31.417 24.3057 31.3519C24.3708 31.2217 24.4684 31.124 24.5986 31.0589C24.7288 30.9938 24.794 30.9613 24.794 30.9613C24.8591 30.8962 24.9567 30.8311 25.0869 30.766C25.2171 30.7009 25.3473 30.6357 25.4775 30.5706C25.6077 30.5055 25.7054 30.4404 25.7705 30.3753C25.8356 30.3102 25.9007 30.2777 25.9658 30.2777C25.9658 30.2777 26.0309 30.3265 26.1611 30.4242C26.2913 30.5218 26.4215 30.6357 26.5518 30.766ZM20.0088 56.2541C20.3343 56.4494 20.7087 56.6936 21.1319 56.9865C21.555 57.2795 21.8968 57.4911 22.1572 57.6213C22.2223 57.6213 22.3037 57.6538 22.4014 57.719C22.499 57.7841 22.613 57.8492 22.7432 57.9143C22.8083 57.9794 22.9222 58.0607 23.085 58.1584C23.2477 58.2561 23.4268 58.3374 23.6221 58.4025C23.7523 58.4676 23.8825 58.549 24.0127 58.6467C24.1429 58.7443 24.2406 58.7932 24.3057 58.7932C24.3708 58.8583 24.4359 58.9071 24.501 58.9397C24.5661 58.9722 24.5986 58.9885 24.5986 58.9885C24.6637 58.9885 24.7288 59.0048 24.794 59.0373C24.8591 59.0699 24.9242 59.0861 24.9893 59.0861C24.9893 59.1512 25.0544 59.2001 25.1846 59.2326C25.3148 59.2652 25.4124 59.314 25.4775 59.3791C25.6077 59.4442 25.7705 59.5256 25.9658 59.6232C26.1611 59.7209 26.3564 59.8023 26.5518 59.8674C26.8122 59.9976 27.0238 60.0952 27.1865 60.1603C27.3493 60.2255 27.4632 60.258 27.5283 60.258C27.5283 60.258 27.5609 60.2743 27.626 60.3068C27.6911 60.3394 27.7562 60.3557 27.8213 60.3557C27.8213 60.4208 27.8701 60.4696 27.9678 60.5021C28.0654 60.5347 28.1468 60.5835 28.2119 60.6486C28.4072 60.6486 28.6351 60.6975 28.8955 60.7951C29.1559 60.8928 29.3838 60.9741 29.5791 61.0392C29.6442 61.1044 29.7256 61.1532 29.8232 61.1857C29.9209 61.2183 30.0023 61.2346 30.0674 61.2346C30.1325 61.2346 30.1976 61.2508 30.2627 61.2834C30.3278 61.3159 30.3929 61.3648 30.458 61.4299C30.5231 61.4299 30.6207 61.4461 30.751 61.4787C30.8812 61.5113 30.9788 61.5275 31.0439 61.5275C31.109 61.5275 31.2067 61.5438 31.3369 61.5764C31.4671 61.6089 31.5648 61.6577 31.6299 61.7228C31.695 61.7879 31.7763 61.8368 31.874 61.8693C31.9717 61.9019 32.053 61.9182 32.1181 61.9182C32.2483 61.9182 32.3623 61.9344 32.4599 61.967C32.5576 61.9995 32.639 62.0158 32.7041 62.0158C32.8343 62.0809 32.9482 62.1297 33.0459 62.1623C33.1435 62.1948 33.2575 62.2111 33.3877 62.2111C33.4528 62.2111 33.5504 62.2274 33.6806 62.2599C33.8108 62.2925 33.9085 62.3413 33.9736 62.4064C34.0387 62.4064 34.1364 62.4227 34.2666 62.4553C34.3968 62.4878 34.4944 62.5041 34.5595 62.5041C34.6897 62.5041 34.8199 62.5204 34.9502 62.5529C35.0804 62.5855 35.178 62.6343 35.2431 62.6994C35.3082 62.7645 35.4059 62.8133 35.5361 62.8459C35.6663 62.8784 35.7965 62.8947 35.9267 62.8947C36.0569 62.8947 36.1871 62.8947 36.3173 62.8947C36.4475 62.8947 36.5452 62.9273 36.6103 62.9924C36.7405 62.9924 36.9033 63.0249 37.0986 63.09C37.2939 63.1551 37.4567 63.1877 37.5869 63.1877C37.7822 63.2528 37.9938 63.3016 38.2216 63.3342C38.4495 63.3667 38.6285 63.383 38.7587 63.383C38.8238 63.4481 38.9703 63.4806 39.1982 63.4806C39.426 63.4806 39.6051 63.4806 39.7353 63.4806C39.8655 63.4806 40.012 63.4969 40.1747 63.5295C40.3375 63.562 40.4514 63.6109 40.5165 63.676C40.5816 63.676 40.777 63.7085 41.1025 63.7736C41.428 63.8387 41.7861 63.8713 42.1767 63.8713C42.5673 63.8713 42.9417 63.9038 43.2997 63.9689C43.6578 64.034 43.9019 64.0666 44.0321 64.0666C44.2926 64.1317 46.1155 64.1642 49.5009 64.1642C52.8863 64.1642 54.7092 64.1317 54.9696 64.0666C55.0998 64.0666 55.3439 64.034 55.702 63.9689C56.0601 63.9038 56.4344 63.8713 56.8251 63.8713C57.2157 63.8713 57.5737 63.8387 57.8993 63.7736C58.2248 63.7085 58.4201 63.676 58.4852 63.676C58.5503 63.6109 58.6642 63.562 58.827 63.5295C58.9898 63.4969 59.1362 63.4806 59.2664 63.4806C59.4618 63.4806 59.6571 63.4806 59.8524 63.4806C60.0477 63.4806 60.2104 63.4481 60.3407 63.383C60.4709 63.383 60.6336 63.3667 60.8289 63.3342C61.0243 63.3016 61.2196 63.2528 61.4149 63.1877C61.6102 63.1877 61.8055 63.1551 62.0008 63.09C62.1961 63.0249 62.3263 62.9924 62.3914 62.9924C62.4565 62.9273 62.5542 62.8947 62.6844 62.8947C62.8146 62.8947 62.9448 62.8947 63.075 62.8947C63.2052 62.8947 63.3354 62.8784 63.4656 62.8459C63.5959 62.8133 63.6935 62.7645 63.7586 62.6994C63.8237 62.6343 63.9214 62.5855 64.0516 62.5529C64.1818 62.5204 64.312 62.5041 64.4422 62.5041C64.5073 62.5041 64.605 62.4878 64.7352 62.4553C64.8654 62.4227 64.9956 62.4064 65.1258 62.4064C65.1909 62.3413 65.2723 62.2925 65.3699 62.2599C65.4676 62.2274 65.5815 62.2111 65.7117 62.2111C65.7768 62.2111 65.8745 62.1948 66.0047 62.1623C66.1349 62.1297 66.2326 62.0809 66.2977 62.0158C66.3628 62.0158 66.4604 61.9995 66.5906 61.967C66.7208 61.9344 66.8185 61.9182 66.8836 61.9182C67.0138 61.9182 67.1277 61.9019 67.2254 61.8693C67.323 61.8368 67.4044 61.7879 67.4695 61.7228C67.5346 61.6577 67.616 61.6089 67.7137 61.5764C67.8113 61.5438 67.8927 61.5275 67.9578 61.5275C68.088 61.5275 68.202 61.5113 68.2996 61.4787C68.3973 61.4461 68.4786 61.4299 68.5437 61.4299C68.6088 61.3648 68.674 61.3159 68.7391 61.2834C68.8042 61.2508 68.8693 61.2346 68.9344 61.2346C68.9995 61.2346 69.0808 61.2183 69.1785 61.1857C69.2762 61.1532 69.3575 61.1044 69.4226 61.0392C69.618 60.9741 69.8458 60.8928 70.1062 60.7951C70.3667 60.6975 70.5945 60.6486 70.7898 60.6486C70.8549 60.5835 70.9363 60.5347 71.034 60.5021C71.1316 60.4696 71.213 60.4208 71.2781 60.3557C71.2781 60.3557 71.3107 60.3394 71.3758 60.3068C71.4409 60.2743 71.506 60.258 71.5711 60.258C71.5711 60.258 71.6687 60.2255 71.864 60.1603C72.0594 60.0952 72.2547 59.9976 72.45 59.8674C72.8406 59.7372 73.1498 59.607 73.3777 59.4768C73.6056 59.3465 73.8172 59.2489 74.0125 59.1838C74.0125 59.1838 74.045 59.1675 74.1101 59.135C74.1752 59.1024 74.2403 59.0536 74.3054 58.9885C74.5007 58.9234 74.6635 58.8583 74.7937 58.7932C74.9239 58.7281 75.1518 58.5979 75.4773 58.4025C75.6075 58.3374 75.754 58.2561 75.9168 58.1584C76.0795 58.0607 76.226 57.9794 76.3562 57.9143C76.4213 57.8492 76.5027 57.7841 76.6003 57.719C76.698 57.6538 76.7794 57.6213 76.8445 57.6213C76.9096 57.5562 76.991 57.5074 77.0886 57.4748C77.1863 57.4423 77.2677 57.3934 77.3328 57.3283C77.5932 57.133 77.935 56.9052 78.3582 56.6447C78.7813 56.3843 79.058 56.189 79.1882 56.0588C79.3184 55.9937 79.4324 55.9449 79.53 55.9123C79.6277 55.8798 79.7416 55.8635 79.8718 55.8635C80.002 55.9286 80.116 55.9774 80.2136 56.01C80.3113 56.0425 80.3926 56.0914 80.4577 56.1565C80.4577 56.1565 80.4903 56.1727 80.5554 56.2053C80.6205 56.2378 80.6856 56.2541 80.7507 56.2541C80.7507 56.2541 80.8158 56.2867 80.946 56.3518C81.0762 56.4169 81.1739 56.482 81.239 56.5471C81.3692 56.6122 81.4994 56.6936 81.6296 56.7912C81.7598 56.8889 81.8575 56.9377 81.9226 56.9377C82.0528 57.0028 82.2156 57.1005 82.4109 57.2307C82.6062 57.3609 82.9317 57.5887 83.3874 57.9143C83.5827 58.0445 83.778 58.1747 83.9734 58.3049C84.1687 58.4351 84.2989 58.5327 84.364 58.5979C84.4291 58.5979 84.5105 58.6304 84.6081 58.6955C84.7058 58.7606 84.8197 58.8583 84.9499 58.9885C85.015 59.0536 85.1452 59.1512 85.3405 59.2814C85.5359 59.4117 85.7312 59.5744 85.9265 59.7697C86.4473 60.1603 87.0983 60.7626 87.8796 61.5764C88.6608 62.3902 89.3119 63.1226 89.8327 63.7736C90.028 64.034 90.2071 64.2782 90.3698 64.506C90.5326 64.7339 90.614 64.8804 90.614 64.9455C90.614 64.9455 90.6302 64.978 90.6628 65.0431C90.6953 65.1082 90.7442 65.1408 90.8093 65.1408C90.8744 65.271 91.086 65.6616 91.444 66.3127C91.8021 66.9637 91.9811 67.3218 91.9811 67.3869C91.9811 67.452 91.9974 67.5334 92.03 67.631C92.0625 67.7287 92.0788 67.8101 92.0788 67.8752C92.2741 68.2658 92.4531 68.8843 92.6159 69.7306C92.7787 70.577 92.86 71.2931 92.86 71.879C92.86 72.5301 92.7787 73.2625 92.6159 74.0763C92.4531 74.8901 92.2741 75.5249 92.0788 75.9806C92.0788 76.0457 92.0625 76.1271 92.03 76.2247C91.9974 76.3224 91.9811 76.3712 91.9811 76.3712C91.9811 76.4363 91.9323 76.5665 91.8346 76.7618C91.737 76.9571 91.6231 77.185 91.4929 77.4454C91.4929 77.5105 91.4603 77.5756 91.3952 77.6407C91.3301 77.7058 91.2975 77.7709 91.2975 77.836C91.2975 77.9011 91.2487 77.9988 91.1511 78.129C91.0534 78.2592 90.972 78.3894 90.9069 78.5196C90.8418 78.5847 90.7767 78.6661 90.7116 78.7638C90.6465 78.8614 90.614 78.9103 90.614 78.9103C90.614 78.9754 90.5489 79.1056 90.4186 79.3009C90.2884 79.4962 90.0931 79.7566 89.8327 80.0821C89.377 80.6681 88.7259 81.4005 87.8796 82.2794C87.0332 83.1583 86.2845 83.8256 85.6335 84.2813C84.9174 84.8673 84.2012 85.4044 83.4851 85.8926C82.7689 86.3809 82.2481 86.7227 81.9226 86.918C81.8575 86.918 81.7598 86.9506 81.6296 87.0157C81.4994 87.0808 81.4018 87.1459 81.3367 87.211C81.2064 87.2761 80.9298 87.4226 80.5066 87.6505C80.0834 87.8783 79.644 88.1225 79.1882 88.3829C78.3419 88.7735 77.7397 89.0502 77.3816 89.2129C77.0235 89.3757 76.6492 89.5547 76.2586 89.7501C76.1935 89.7501 76.0795 89.7826 75.9168 89.8477C75.754 89.9128 75.6401 89.9779 75.575 90.043C75.5099 90.043 75.4285 90.0593 75.3308 90.0918C75.2332 90.1244 75.1518 90.1407 75.0867 90.1407C75.0216 90.1407 74.9565 90.1569 74.8914 90.1895C74.8263 90.2221 74.7612 90.2709 74.6961 90.336C74.631 90.4011 74.5496 90.4499 74.4519 90.4825C74.3543 90.515 74.2729 90.5313 74.2078 90.5313C74.1427 90.5313 74.0776 90.5476 74.0125 90.5801C73.9474 90.6127 73.8823 90.629 73.8172 90.629C73.7521 90.6941 73.6707 90.7429 73.573 90.7754C73.4754 90.808 73.394 90.8243 73.3289 90.8243C73.2638 90.8243 73.1987 90.8405 73.1336 90.8731C73.0685 90.9056 73.0034 90.9545 72.9383 91.0196C72.8732 91.0196 72.7918 91.0359 72.6941 91.0684C72.5965 91.101 72.5151 91.1172 72.45 91.1172C72.3849 91.1172 72.3035 91.1335 72.2058 91.1661C72.1082 91.1986 72.0268 91.2474 71.9617 91.3125C71.8966 91.3776 71.8152 91.4265 71.7176 91.459C71.6199 91.4916 71.506 91.5079 71.3758 91.5079C71.3107 91.5079 71.213 91.5241 71.0828 91.5567C70.9526 91.5892 70.8875 91.6055 70.8875 91.6055C70.8224 91.6706 70.741 91.7194 70.6433 91.752C70.5457 91.7845 70.4643 91.8008 70.3992 91.8008C70.269 91.8008 70.1551 91.8171 70.0574 91.8497C69.9598 91.8822 69.8784 91.931 69.8133 91.9961C69.7482 92.0612 69.6505 92.1101 69.5203 92.1426C69.3901 92.1752 69.2924 92.1914 69.2273 92.1914C69.0971 92.1914 68.9832 92.2077 68.8855 92.2403C68.7879 92.2728 68.7065 92.2891 68.6414 92.2891C68.5112 92.3542 68.381 92.403 68.2508 92.4356C68.1206 92.4681 68.0229 92.4844 67.9578 92.4844C67.8276 92.4844 67.6974 92.5007 67.5672 92.5332C67.437 92.5658 67.3393 92.6146 67.2742 92.6797C67.2091 92.6797 67.1115 92.696 66.9813 92.7286C66.851 92.7611 66.7208 92.7774 66.5906 92.7774C66.4604 92.7774 66.3302 92.7937 66.2 92.8262C66.0698 92.8588 65.9396 92.9076 65.8094 92.9727C65.7443 93.0378 65.6466 93.0866 65.5164 93.1192C65.3862 93.1517 65.256 93.168 65.1258 93.168C64.9956 93.168 64.8491 93.1843 64.6863 93.2168C64.5236 93.2494 64.3771 93.2657 64.2469 93.2657C64.1167 93.3308 63.9702 93.3796 63.8074 93.4121C63.6447 93.4447 63.4982 93.461 63.368 93.461C63.2378 93.461 63.0913 93.4772 62.9285 93.5098C62.7658 93.5424 62.6193 93.5912 62.4891 93.6563C62.3589 93.6563 62.1961 93.6726 62.0008 93.7051C61.8055 93.7377 61.6102 93.7539 61.4149 93.7539C61.2196 93.7539 61.0243 93.7702 60.8289 93.8028C60.6336 93.8353 60.4709 93.8841 60.3407 93.9492C60.2104 94.0144 60.0314 94.0632 59.8036 94.0957C59.5757 94.1283 59.3641 94.1446 59.1688 94.1446C58.9735 94.1446 58.7456 94.1608 58.4852 94.1934C58.2248 94.2259 58.0295 94.2422 57.8993 94.2422C57.7691 94.2422 57.4924 94.2748 57.0692 94.3399C56.646 94.405 56.2066 94.4375 55.7508 94.4375C55.2951 94.4375 54.6766 94.4701 53.8954 94.5352C53.1141 94.6003 52.398 94.6328 51.7469 94.6328C50.8355 94.6979 50.0868 94.7305 49.5009 94.7305C48.9149 94.7305 48.1662 94.6979 47.2548 94.6328C46.6037 94.6328 45.9039 94.6003 45.1552 94.5352C44.4065 94.4701 43.8043 94.4375 43.3486 94.4375C42.8928 94.4375 42.4534 94.405 42.0302 94.3399C41.607 94.2748 41.2978 94.2422 41.1025 94.2422C40.9723 94.2422 40.777 94.2259 40.5165 94.1934C40.2561 94.1608 40.0283 94.1446 39.8329 94.1446C39.6376 94.1446 39.426 94.1283 39.1982 94.0957C38.9703 94.0632 38.7913 94.0144 38.6611 93.9492C38.596 93.8841 38.4495 93.8353 38.2216 93.8028C37.9938 93.7702 37.7822 93.7539 37.5869 93.7539C37.4567 93.7539 37.2776 93.7377 37.0498 93.7051C36.8219 93.6726 36.6429 93.6563 36.5126 93.6563C36.3824 93.5912 36.236 93.5424 36.0732 93.5098C35.9104 93.4772 35.764 93.461 35.6337 93.461C35.5035 93.461 35.3571 93.4447 35.1943 93.4121C35.0315 93.3796 34.8851 93.3308 34.7548 93.2657C34.6246 93.2657 34.4781 93.2494 34.3154 93.2168C34.1526 93.1843 34.0061 93.168 33.8759 93.168C33.7457 93.168 33.6155 93.1517 33.4853 93.1192C33.3551 93.0866 33.2575 93.0378 33.1923 92.9727C33.1272 92.9076 33.0133 92.8588 32.8506 92.8262C32.6878 92.7937 32.5739 92.7774 32.5088 92.7774C32.3786 92.7774 32.2321 92.7611 32.0693 92.7286C31.9065 92.696 31.7926 92.6797 31.7275 92.6797C31.6624 92.6146 31.5648 92.5658 31.4345 92.5332C31.3043 92.5007 31.2067 92.4844 31.1416 92.4844C31.0114 92.4844 30.8812 92.4681 30.751 92.4356C30.6207 92.403 30.5231 92.3542 30.458 92.2891C30.3929 92.2891 30.2952 92.2728 30.165 92.2403C30.0348 92.2077 29.9372 92.1914 29.8721 92.1914C29.7418 92.1914 29.6279 92.1752 29.5303 92.1426C29.4326 92.1101 29.3187 92.0612 29.1885 91.9961C29.1234 91.931 29.042 91.8822 28.9443 91.8497C28.8467 91.8171 28.7653 91.8008 28.7002 91.8008C28.6351 91.8008 28.5537 91.7845 28.456 91.752C28.3584 91.7194 28.277 91.6706 28.2119 91.6055C28.1468 91.6055 28.0654 91.5892 27.9678 91.5567C27.8701 91.5241 27.7562 91.5079 27.626 91.5079C27.5609 91.5079 27.4632 91.4916 27.333 91.459C27.2028 91.4265 27.1377 91.3776 27.1377 91.3125C27.0726 91.2474 26.9912 91.1986 26.8936 91.1661C26.7959 91.1335 26.7145 91.1172 26.6494 91.1172C26.5192 91.1172 26.4053 91.101 26.3076 91.0684C26.21 91.0359 26.1611 91.0196 26.1611 91.0196C26.096 90.9545 26.0146 90.9056 25.917 90.8731C25.8193 90.8405 25.738 90.8243 25.6729 90.8243C25.6077 90.8243 25.5264 90.808 25.4287 90.7754C25.3311 90.7429 25.2497 90.6941 25.1846 90.629C25.1195 90.629 25.0544 90.6127 24.9893 90.5801C24.9242 90.5476 24.8591 90.5313 24.794 90.5313C24.7288 90.5313 24.6475 90.515 24.5498 90.4825C24.4522 90.4499 24.3708 90.4011 24.3057 90.336C24.3057 90.2709 24.2568 90.2221 24.1592 90.1895C24.0615 90.1569 23.9802 90.1407 23.9151 90.1407C23.9151 90.1407 23.8662 90.1244 23.7686 90.0918C23.6709 90.0593 23.557 90.043 23.4268 90.043C23.2966 89.9779 23.1175 89.8965 22.8897 89.7989C22.6618 89.7012 22.3526 89.5547 21.9619 89.3594C21.5713 89.1641 20.8063 88.7898 19.667 88.2364C18.5277 87.683 17.8929 87.3412 17.7627 87.211C17.6325 87.1459 17.5023 87.0808 17.3721 87.0157C17.2419 86.9506 17.1442 86.918 17.0791 86.918C16.8187 86.7227 16.3305 86.3809 15.6143 85.8926C14.8982 85.4044 14.1495 84.8673 13.3682 84.2813C12.7823 83.8256 12.0499 83.1583 11.171 82.2794C10.2921 81.4005 9.62475 80.6681 9.16903 80.0821C8.97371 79.7566 8.79468 79.4962 8.63192 79.3009C8.46916 79.1056 8.38778 78.9754 8.38778 78.9103C8.38778 78.9103 8.35523 78.8614 8.29012 78.7638C8.22502 78.6661 8.15992 78.5847 8.09481 78.5196C8.02971 78.3894 7.9646 78.2592 7.8995 78.129C7.8344 77.9988 7.76929 77.9011 7.70419 77.836C7.70419 77.7709 7.68791 77.7058 7.65536 77.6407C7.62281 77.5756 7.57398 77.5105 7.50888 77.4454C7.37867 77.185 7.28101 76.9571 7.21591 76.7618C7.15081 76.5665 7.11825 76.4363 7.11825 76.3712C7.11825 76.3061 7.10198 76.241 7.06943 76.1759C7.03687 76.1108 6.98805 76.0782 6.92294 76.0782C6.85784 76.0131 6.77646 75.7853 6.6788 75.3946C6.58115 75.004 6.49977 74.6134 6.43466 74.2228C6.43466 74.0926 6.40211 73.8973 6.33701 73.6368C6.2719 73.3764 6.23935 73.116 6.23935 72.8556C6.10914 72.2697 6.12542 71.4396 6.28818 70.3654C6.45094 69.2912 6.66253 68.4611 6.92294 67.8752C6.98805 67.8101 7.03687 67.7287 7.06943 67.631C7.10198 67.5334 7.11825 67.452 7.11825 67.3869C7.11825 67.3218 7.28101 66.9637 7.60653 66.3127C7.93205 65.6616 8.15992 65.271 8.29012 65.1408C8.29012 65.1408 8.3064 65.1082 8.33895 65.0431C8.3715 64.978 8.38778 64.9455 8.38778 64.9455C8.38778 64.8804 8.46916 64.7502 8.63192 64.5549C8.79468 64.3595 8.97371 64.0991 9.16903 63.7736C9.68986 63.1226 10.3572 62.3739 11.171 61.5275C11.9848 60.6812 12.7172 60.0301 13.3682 59.5744C13.6286 59.3791 13.8565 59.2001 14.0518 59.0373C14.2471 58.8745 14.3448 58.7932 14.3448 58.7932C14.3448 58.7281 14.3773 58.6792 14.4424 58.6467C14.5075 58.6141 14.5726 58.5979 14.6377 58.5979C14.7029 58.5327 14.8331 58.4351 15.0284 58.3049C15.2237 58.1747 15.419 58.0445 15.6143 57.9143C16.07 57.5887 16.3956 57.3609 16.5909 57.2307C16.7862 57.1005 16.9489 57.0028 17.0791 56.9377C17.1442 56.9377 17.2419 56.8889 17.3721 56.7912C17.5023 56.6936 17.6325 56.6122 17.7627 56.5471C17.8929 56.482 18.0069 56.4169 18.1045 56.3518C18.2022 56.2867 18.2836 56.2541 18.3487 56.2541C18.3487 56.2541 18.3812 56.2541 18.4463 56.2541C18.5114 56.2541 18.544 56.2216 18.544 56.1565C18.6091 56.0914 18.723 56.0263 18.8858 55.9611C19.0485 55.896 19.195 55.8635 19.3252 55.8635C19.3903 55.8635 19.488 55.896 19.6182 55.9611C19.7484 56.0263 19.8786 56.1239 20.0088 56.2541ZM19.2276 73.4415C19.1625 73.5066 19.0974 73.5392 19.0323 73.5392C18.9672 73.5392 18.9021 73.5717 18.8369 73.6368C18.8369 73.6368 18.8044 73.6531 18.7393 73.6857C18.6742 73.7182 18.6416 73.7345 18.6416 73.7345C18.4463 73.7345 18.2022 73.8484 17.9092 74.0763C17.6163 74.3042 17.4047 74.5483 17.2745 74.8087C17.0791 75.0691 16.9327 75.3621 16.835 75.6876C16.7373 76.0131 16.6885 76.2736 16.6885 76.4689C16.6885 76.534 16.7048 76.6479 16.7373 76.8107C16.7699 76.9734 16.8187 77.1525 16.8838 77.3478C17.014 77.8035 17.2745 78.2267 17.6651 78.6173C18.0557 79.0079 18.7393 79.5613 19.7159 80.2774C19.9763 80.4728 20.2204 80.6355 20.4483 80.7657C20.6761 80.8959 20.8226 80.9936 20.8877 81.0587C20.8877 81.0587 20.9854 81.1238 21.1807 81.254C21.376 81.3842 21.5713 81.5144 21.7666 81.6446C22.2223 81.905 22.5153 82.0678 22.6455 82.1329C22.7757 82.198 22.8734 82.2631 22.9385 82.3282C23.0036 82.3282 23.085 82.3608 23.1826 82.4259C23.2803 82.491 23.3942 82.5561 23.5244 82.6212C23.6546 82.6863 23.8011 82.7677 23.9639 82.8653C24.1266 82.963 24.2406 83.0444 24.3057 83.1095C24.4359 83.1746 24.5661 83.2234 24.6963 83.2559C24.8265 83.2885 24.9242 83.3373 24.9893 83.4024C24.9893 83.4024 25.0218 83.4187 25.0869 83.4513C25.152 83.4838 25.2171 83.5326 25.2822 83.5977C25.4124 83.5977 25.6077 83.6628 25.8682 83.793C26.1286 83.9233 26.4541 84.086 26.8447 84.2813C27.04 84.3464 27.2191 84.4115 27.3818 84.4766C27.5446 84.5417 27.6585 84.5743 27.7236 84.5743C27.7236 84.5743 27.7725 84.5906 27.8701 84.6231C27.9678 84.6557 28.0491 84.7045 28.1142 84.7696C28.1142 84.7696 28.1631 84.7859 28.2607 84.8184C28.3584 84.851 28.4398 84.8673 28.5049 84.8673C28.57 84.8673 28.6514 84.8835 28.749 84.9161C28.8467 84.9486 28.928 84.9975 28.9932 85.0626C28.9932 85.1277 29.042 85.1765 29.1396 85.2091C29.2373 85.2416 29.3187 85.2579 29.3838 85.2579C29.4489 85.2579 29.5303 85.2742 29.6279 85.3067C29.7256 85.3393 29.7744 85.3555 29.7744 85.3555C29.8395 85.4206 29.9209 85.4695 30.0185 85.502C30.1162 85.5346 30.2301 85.5509 30.3603 85.5509C30.4254 85.5509 30.5068 85.5671 30.6045 85.5997C30.7021 85.6322 30.7835 85.6811 30.8486 85.7462C30.9137 85.8113 30.9951 85.8601 31.0928 85.8926C31.1904 85.9252 31.2718 85.9415 31.3369 85.9415C31.4671 85.9415 31.581 85.9578 31.6787 85.9903C31.7763 86.0229 31.8577 86.0391 31.9228 86.0391C31.9879 86.1042 32.0693 86.1531 32.167 86.1856C32.2646 86.2182 32.346 86.2344 32.4111 86.2344C32.5413 86.2344 32.6715 86.2507 32.8017 86.2833C32.9319 86.3158 33.0296 86.3646 33.0947 86.4298C33.1598 86.4298 33.2575 86.446 33.3877 86.4786C33.5179 86.5111 33.6155 86.5274 33.6806 86.5274C33.8108 86.5274 33.941 86.5437 34.0713 86.5762C34.2015 86.6088 34.2991 86.6576 34.3642 86.7227C34.3642 86.7878 34.4293 86.8367 34.5595 86.8692C34.6897 86.9018 34.8199 86.918 34.9502 86.918C35.0804 86.918 35.2106 86.9343 35.3408 86.9669C35.471 86.9994 35.6012 87.0157 35.7314 87.0157C35.8616 87.0808 35.9918 87.1296 36.122 87.1622C36.2522 87.1947 36.3824 87.211 36.5126 87.211C36.5778 87.211 36.6917 87.2273 36.8544 87.2598C37.0172 87.2924 37.1637 87.3412 37.2939 87.4063C37.4241 87.4063 37.5706 87.4226 37.7333 87.4551C37.8961 87.4877 38.0426 87.504 38.1728 87.504C38.3681 87.504 38.5471 87.5202 38.7099 87.5528C38.8727 87.5853 39.0191 87.6342 39.1494 87.6993C39.2796 87.7644 39.4423 87.8132 39.6376 87.8458C39.8329 87.8783 40.0283 87.8946 40.2236 87.8946C40.3538 87.8946 40.5491 87.9109 40.8095 87.9434C41.0699 87.976 41.2652 87.9922 41.3954 87.9922C41.5907 88.0574 41.8349 88.1062 42.1279 88.1387C42.4208 88.1713 42.6975 88.1876 42.9579 88.1876C43.1532 88.1876 43.4625 88.2038 43.8857 88.2364C44.3088 88.2689 44.7157 88.3178 45.1064 88.3829C46.0178 88.448 47.1083 88.4805 48.3778 88.4805C49.6474 88.4805 50.3472 88.448 50.4774 88.3829C50.5425 88.3178 50.6076 88.2689 50.6727 88.2364C50.7378 88.2038 50.8029 88.1876 50.868 88.1876C50.9983 88.1876 51.2261 88.0085 51.5516 87.6505C51.8772 87.2924 52.105 86.9831 52.2352 86.7227C52.3003 86.5925 52.3492 86.4298 52.3817 86.2344C52.4143 86.0391 52.4305 85.8113 52.4305 85.5509C52.4305 84.9649 52.2841 84.4441 51.9911 83.9884C51.6981 83.5326 51.2587 83.142 50.6727 82.8165C50.5425 82.7514 50.3309 82.7026 50.038 82.67C49.745 82.6375 49.2405 82.6212 48.5243 82.6212C48.0035 82.6212 47.4989 82.6049 47.0106 82.5723C46.5224 82.5398 46.1806 82.5235 45.9853 82.5235C45.7248 82.4584 45.383 82.4096 44.9599 82.377C44.5367 82.3445 44.1298 82.2957 43.7392 82.2306C43.2834 82.2306 42.8765 82.2143 42.5185 82.1817C42.1604 82.1492 41.9488 82.1003 41.8837 82.0352C41.7535 82.0352 41.5907 82.019 41.3954 81.9864C41.2001 81.9539 41.0374 81.9376 40.9072 81.9376C40.777 81.9376 40.5979 81.9213 40.37 81.8888C40.1422 81.8562 39.9632 81.8074 39.8329 81.7423C39.7027 81.7423 39.54 81.726 39.3447 81.6934C39.1494 81.6609 38.9866 81.6446 38.8564 81.6446C38.7262 81.6446 38.596 81.6283 38.4658 81.5958C38.3356 81.5632 38.2379 81.547 38.1728 81.547C38.1077 81.4819 37.9938 81.433 37.831 81.4005C37.6682 81.3679 37.5218 81.3191 37.3915 81.254C37.066 81.254 36.7242 81.2052 36.3662 81.1075C36.0081 81.0099 35.6988 80.9285 35.4384 80.8634C35.3733 80.7983 35.2594 80.7494 35.0966 80.7169C34.9339 80.6843 34.7874 80.6681 34.6572 80.6681C34.527 80.603 34.3805 80.5541 34.2177 80.5216C34.055 80.489 33.941 80.4402 33.8759 80.3751C33.4853 80.31 33.1923 80.2449 32.997 80.1798C32.8017 80.1147 32.639 80.0496 32.5088 79.9845C32.2483 79.9194 31.9879 79.838 31.7275 79.7403C31.4671 79.6427 31.2392 79.5613 31.0439 79.4962C30.9788 79.4311 30.8974 79.3823 30.7998 79.3497C30.7021 79.3172 30.6533 79.3009 30.6533 79.3009C30.5882 79.3009 30.5068 79.2846 30.4092 79.2521C30.3115 79.2195 30.2301 79.2032 30.165 79.2032C30.0348 79.1381 29.9046 79.073 29.7744 79.0079C29.6442 78.9428 29.514 78.8777 29.3838 78.8126C28.7978 78.5522 28.2119 78.2755 27.626 77.9825C27.04 77.6896 26.4867 77.4129 25.9658 77.1525C25.8356 77.0874 25.6891 77.006 25.5264 76.9083C25.3636 76.8107 25.2497 76.7618 25.1846 76.7618C25.0544 76.6316 24.5824 76.3061 23.7686 75.7853C22.9548 75.2644 22.5153 74.9715 22.4502 74.9064C22.32 74.7111 22.0433 74.4669 21.6201 74.174C21.197 73.881 20.9203 73.7345 20.7901 73.7345C20.725 73.7345 20.6761 73.7182 20.6436 73.6857C20.611 73.6531 20.5622 73.6368 20.4971 73.6368C20.432 73.5717 20.2367 73.5229 19.9112 73.4904C19.5856 73.4578 19.3578 73.4415 19.2276 73.4415Z" fill="#F7A392"/>
</g>
<defs>
<clipPath id="clip0_1_113">
<rect width="98.73" height="100" fill="white" transform="matrix(1 0 0 -1 0.380005 100.59)"/>
</clipPath>
</defs>
</svg>
