<svg width="15" height="15" viewBox="0 0 15 15" fill="none" xmlns="http://www.w3.org/2000/svg">
<g clip-path="url(#clip0_1_178)">
<path d="M12.37 2.51608C12.37 2.17074 12.2767 1.90941 12.09 1.73208C11.9033 1.55474 11.6327 1.47074 11.278 1.48008C11.166 1.48941 11.0913 1.51508 11.054 1.55708C11.0167 1.59908 10.998 1.67608 10.998 1.78808C11.0167 2.14274 11.0167 2.49741 10.998 2.85208C10.9793 3.14141 10.8907 3.37008 10.732 3.53808C10.5733 3.70608 10.347 3.80174 10.053 3.82508C9.75899 3.84841 9.46265 3.84841 9.16399 3.82508C8.86532 3.80174 8.63199 3.70141 8.46399 3.52408C8.29599 3.34674 8.20732 3.10408 8.19799 2.79608V2.46008C8.18865 2.16141 8.18865 1.93741 8.19799 1.78808C8.20732 1.67608 8.19099 1.59674 8.14899 1.55008C8.10699 1.50341 8.02999 1.48008 7.91799 1.48008C6.87265 1.48941 5.82265 1.48941 4.76799 1.48008C4.65599 1.48008 4.58132 1.50574 4.54399 1.55708C4.50665 1.60841 4.49265 1.68541 4.50199 1.78808V2.85208C4.49265 3.12274 4.41332 3.34208 4.26399 3.51008C4.11465 3.67808 3.90932 3.77608 3.64799 3.80408C3.33999 3.84141 3.01332 3.84608 2.66799 3.81808C2.36932 3.80874 2.14065 3.72008 1.98199 3.55208C1.82332 3.38408 1.73465 3.14608 1.71599 2.83808C1.69732 2.48341 1.69732 2.12874 1.71599 1.77408C1.72532 1.66208 1.70665 1.58741 1.65999 1.55008C1.61332 1.51274 1.53399 1.48941 1.42199 1.48008C1.06732 1.47074 0.796653 1.55708 0.609987 1.73908C0.42332 1.92108 0.329987 2.19408 0.329987 2.55808V13.0021C0.329987 13.3754 0.41632 13.6484 0.588987 13.8211C0.761653 13.9937 1.03465 14.0801 1.40799 14.0801H11.292C11.6747 14.0801 11.95 13.9937 12.118 13.8211C12.286 13.6484 12.37 13.3754 12.37 13.0021V2.51608ZM1.70199 4.99408C1.70199 4.90074 1.72299 4.83541 1.76499 4.79808C1.80699 4.76074 1.87465 4.74208 1.96799 4.74208H4.26399C4.42265 4.74208 4.50199 4.81674 4.50199 4.96608C4.49265 5.59141 4.49265 6.22141 4.50199 6.85608C4.50199 6.94941 4.47865 7.01008 4.43199 7.03808C4.38532 7.06608 4.31532 7.08008 4.22199 7.08008H1.95399C1.86065 7.08008 1.79532 7.06141 1.75799 7.02408C1.72065 6.98674 1.70199 6.92141 1.70199 6.82808V4.99408ZM4.50199 12.4281C4.50199 12.5307 4.48099 12.6031 4.43899 12.6451C4.39699 12.6871 4.32932 12.7081 4.23599 12.7081C3.49865 12.6894 2.75665 12.6894 2.00999 12.7081C1.89799 12.7081 1.81865 12.6847 1.77199 12.6381C1.72532 12.5914 1.70199 12.5167 1.70199 12.4141C1.71132 12.1434 1.71132 11.7421 1.70199 11.2101V10.6081C1.70199 10.5147 1.72065 10.4494 1.75799 10.4121C1.79532 10.3747 1.86065 10.3561 1.95399 10.3561C2.12199 10.3654 2.37399 10.3654 2.70999 10.3561H3.46599C3.80199 10.3654 4.05399 10.3654 4.22199 10.3561C4.32465 10.3561 4.39699 10.3747 4.43899 10.4121C4.48099 10.4494 4.50199 10.5194 4.50199 10.6221C4.49265 11.2194 4.49265 11.8214 4.50199 12.4281ZM4.17999 9.89408C4.02132 9.88474 3.77865 9.88474 3.45199 9.89408H2.73799C2.42065 9.88474 2.18265 9.88474 2.02399 9.89408C1.91199 9.90341 1.82799 9.88474 1.77199 9.83808C1.71599 9.79141 1.69265 9.71208 1.70199 9.60008C1.72065 9.00274 1.72065 8.41008 1.70199 7.82208C1.70199 7.71008 1.72532 7.63541 1.77199 7.59808C1.81865 7.56074 1.89799 7.54208 2.00999 7.54208C2.73799 7.55141 3.47065 7.55141 4.20799 7.54208C4.32932 7.53274 4.40865 7.55374 4.44599 7.60508C4.48332 7.65641 4.50199 7.74274 4.50199 7.86408C4.49265 8.43341 4.49265 9.00741 4.50199 9.58608C4.51132 9.70741 4.49032 9.79141 4.43899 9.83808C4.38765 9.88474 4.30132 9.90341 4.17999 9.89408ZM5.22999 4.74208C5.97665 4.74208 6.71865 4.74208 7.45599 4.74208C7.55865 4.73274 7.63099 4.74908 7.67299 4.79108C7.71499 4.83308 7.73599 4.90541 7.73599 5.00808V5.61008C7.72665 6.14208 7.72665 6.54341 7.73599 6.81408C7.73599 6.91674 7.71499 6.98674 7.67299 7.02408C7.63099 7.06141 7.55865 7.08008 7.45599 7.08008C7.28799 7.07074 7.03599 7.07074 6.69999 7.08008H5.94399C5.61732 7.07074 5.37465 7.07074 5.21599 7.08008C5.12265 7.08008 5.05732 7.06141 5.01999 7.02408C4.98265 6.98674 4.96399 6.92141 4.96399 6.82808C4.98265 6.21208 4.98265 5.59608 4.96399 4.98008C4.96399 4.88674 4.98499 4.82374 5.02699 4.79108C5.06899 4.75841 5.13665 4.74208 5.22999 4.74208ZM4.96399 7.82208C4.96399 7.71941 4.98265 7.64708 5.01999 7.60508C5.05732 7.56308 5.12732 7.54208 5.22999 7.54208C5.97665 7.56074 6.72332 7.56074 7.46999 7.54208C7.57265 7.54208 7.64265 7.56308 7.67999 7.60508C7.71732 7.64708 7.73599 7.71941 7.73599 7.82208V9.62808C7.73599 9.73074 7.71499 9.80308 7.67299 9.84508C7.63099 9.88708 7.56332 9.90341 7.46999 9.89408C7.30199 9.88474 7.04999 9.88474 6.71399 9.89408H5.97199C5.66399 9.88474 5.43065 9.88474 5.27199 9.89408C5.15999 9.90341 5.08065 9.88941 5.03399 9.85208C4.98732 9.81474 4.96399 9.73541 4.96399 9.61408C4.98265 9.02608 4.98265 8.42874 4.96399 7.82208ZM7.73599 12.3861C7.74532 12.5074 7.72432 12.5914 7.67299 12.6381C7.62165 12.6847 7.53999 12.7081 7.42799 12.7081C6.70932 12.6987 5.98599 12.6987 5.25799 12.7081C5.14599 12.7081 5.06665 12.6871 5.01999 12.6451C4.97332 12.6031 4.95465 12.5261 4.96399 12.4141C4.98265 11.8261 4.98265 11.2381 4.96399 10.6501C4.96399 10.5381 4.98499 10.4587 5.02699 10.4121C5.06899 10.3654 5.14599 10.3467 5.25799 10.3561C5.41665 10.3654 5.65932 10.3654 5.98599 10.3561H6.71399C7.02199 10.3654 7.25532 10.3654 7.41399 10.3561C7.53532 10.3467 7.62165 10.3654 7.67299 10.4121C7.72432 10.4587 7.74532 10.5427 7.73599 10.6641C7.72665 11.2334 7.72665 11.8074 7.73599 12.3861ZM8.19799 5.00808C8.19799 4.90541 8.21899 4.83308 8.26099 4.79108C8.30299 4.74908 8.37065 4.73274 8.46399 4.74208H10.704C10.816 4.73274 10.8953 4.74908 10.942 4.79108C10.9887 4.83308 11.012 4.91008 11.012 5.02208C11.0027 5.61941 11.0027 6.22141 11.012 6.82808C11.012 6.92141 10.991 6.98674 10.949 7.02408C10.907 7.06141 10.8393 7.08008 10.746 7.08008H9.21999C8.91199 7.07074 8.67865 7.07074 8.51999 7.08008C8.39865 7.08941 8.31232 7.07074 8.26099 7.02408C8.20965 6.97741 8.18865 6.89341 8.19799 6.77208C8.21665 6.18408 8.21665 5.59608 8.19799 5.00808ZM10.998 12.4561C11.0073 12.6241 10.9233 12.7081 10.746 12.7081C9.98065 12.6894 9.21065 12.6894 8.43599 12.7081C8.27732 12.7081 8.19799 12.6287 8.19799 12.4701V10.5801C8.19799 10.4867 8.22132 10.4261 8.26799 10.3981C8.31465 10.3701 8.38465 10.3561 8.47799 10.3561H9.98999C10.326 10.3654 10.578 10.3654 10.746 10.3561C10.8393 10.3561 10.907 10.3747 10.949 10.4121C10.991 10.4494 11.0073 10.5147 10.998 10.6081V12.4561ZM10.676 9.89408C10.5173 9.88474 10.2747 9.88474 9.94799 9.89408H9.20599C8.86999 9.88474 8.61799 9.88474 8.44999 9.89408C8.35665 9.89408 8.29132 9.87541 8.25399 9.83808C8.21665 9.80074 8.19799 9.73541 8.19799 9.64208V9.02608C8.20732 8.48474 8.20732 8.07874 8.19799 7.80808C8.19799 7.70541 8.21899 7.63541 8.26099 7.59808C8.30299 7.56074 8.37532 7.54208 8.47799 7.54208H10.704C10.816 7.54208 10.8953 7.56308 10.942 7.60508C10.9887 7.64708 11.012 7.72408 11.012 7.83608C10.9933 8.42408 10.9933 9.00741 11.012 9.58608C11.012 9.71674 10.9863 9.80308 10.935 9.84508C10.8837 9.88708 10.7973 9.90341 10.676 9.89408ZM3.15799 3.34208C3.39132 3.33274 3.58965 3.24174 3.75299 3.06908C3.91632 2.89641 4.00732 2.68874 4.02599 2.44608C4.03532 2.33408 4.03532 2.16608 4.02599 1.94208V1.46608C4.03532 1.25141 4.03532 1.09274 4.02599 0.990078C4.00732 0.747411 3.91865 0.539744 3.75999 0.367078C3.60132 0.194411 3.40299 0.0987444 3.16499 0.0800781C2.92699 0.0614109 2.71699 0.126744 2.53499 0.276077C2.35299 0.425411 2.24332 0.621411 2.20599 0.864078C2.13132 1.43341 2.13132 1.99341 2.20599 2.54408C2.23399 2.78674 2.34132 2.98508 2.52799 3.13908C2.71465 3.29308 2.92465 3.36074 3.15799 3.34208ZM9.56999 3.34208C9.83132 3.35141 10.053 3.26741 10.235 3.09008C10.417 2.91274 10.5173 2.68408 10.536 2.40408C10.5453 2.30141 10.5453 2.15674 10.536 1.97008V1.55008C10.5453 1.29808 10.5407 1.11141 10.522 0.990078C10.5127 0.728745 10.417 0.511744 10.235 0.339078C10.053 0.166411 9.83599 0.0824108 9.58399 0.0870781C9.33199 0.0917444 9.11965 0.182744 8.94699 0.360078C8.77432 0.537411 8.68332 0.756744 8.67399 1.01808C8.65532 1.48474 8.65532 1.94208 8.67399 2.39008C8.68332 2.66074 8.77199 2.88474 8.93999 3.06208C9.10799 3.23941 9.31799 3.33274 9.56999 3.34208Z" fill="#879296"/>
</g>
<defs>
<clipPath id="clip0_1_178">
<rect width="14" height="14" fill="white" transform="matrix(1 0 0 -1 0.329987 14.0801)"/>
</clipPath>
</defs>
</svg>
