<svg width="102" height="122" viewBox="0 0 102 122" fill="none" xmlns="http://www.w3.org/2000/svg">
<g opacity="0.2" clip-path="url(#clip0_1_125)">
<path d="M48.2127 1.20551C48.2127 1.28363 48.1931 1.34223 48.1541 1.38129C48.115 1.42036 48.0174 1.47895 47.8611 1.55708C47.783 1.55708 47.6658 1.61568 47.5095 1.73286C47.3533 1.85006 47.197 1.98678 47.0408 2.14304C46.8064 2.45554 46.6306 2.76805 46.5134 3.08057C46.3962 3.39307 46.2595 3.86184 46.1032 4.48685C46.1032 4.56499 46.0837 4.68217 46.0446 4.83843C46.0056 4.99468 45.947 5.11188 45.8689 5.19C45.8689 5.26814 45.8493 5.34626 45.8103 5.42439C45.7712 5.50251 45.7517 5.58064 45.7517 5.65877C45.7517 5.73689 45.7321 5.83456 45.6931 5.95174C45.654 6.06894 45.6345 6.12753 45.6345 6.12753C45.5563 6.20566 45.4978 6.30332 45.4587 6.42051C45.4196 6.5377 45.4001 6.63536 45.4001 6.71349C45.4001 6.79162 45.4001 6.86974 45.4001 6.94787C45.4001 7.026 45.361 7.06506 45.2829 7.06506C45.2048 7.14319 45.1657 7.22131 45.1657 7.29945C45.1657 7.37757 45.1657 7.4557 45.1657 7.53383C45.1657 7.61195 45.1462 7.69008 45.1071 7.76821C45.0681 7.84634 45.0095 7.8854 44.9313 7.8854C44.9313 7.96352 44.9118 8.02213 44.8727 8.06119C44.8337 8.10025 44.8141 8.15884 44.8141 8.23698C44.8141 8.3151 44.7946 8.3737 44.7555 8.41276C44.7165 8.45182 44.6579 8.51042 44.5798 8.58855C44.5798 8.58855 44.5602 8.62761 44.5212 8.70574C44.4821 8.78387 44.4626 8.86199 44.4626 8.94012C44.4626 9.01825 44.443 9.07684 44.404 9.11591C44.3649 9.15497 44.3454 9.1745 44.3454 9.1745C44.3454 9.1745 44.3063 9.2331 44.2282 9.35029C44.1501 9.46748 44.0719 9.6042 43.9938 9.76046C43.9157 9.83858 43.818 9.99484 43.7008 10.2292C43.5836 10.4636 43.4469 10.6589 43.2907 10.8152C43.1344 10.9714 43.0172 11.1277 42.9391 11.2839C42.861 11.4402 42.8219 11.5183 42.8219 11.5183C42.8219 11.5183 42.7633 11.5965 42.6461 11.7527C42.5289 11.909 42.3922 12.0652 42.2359 12.2215C42.1578 12.4559 42.0601 12.6316 41.943 12.7488C41.8258 12.866 41.7672 12.9637 41.7672 13.0418C41.7672 13.0418 41.7281 13.1004 41.65 13.2176C41.5718 13.3348 41.4547 13.5106 41.2984 13.745C41.1421 13.9012 41.0054 14.0575 40.8882 14.2137C40.771 14.37 40.7124 14.4481 40.7124 14.4481C40.6343 14.6044 40.5367 14.7801 40.4195 14.9755C40.3023 15.1708 40.1265 15.4638 39.8921 15.8544C39.7359 16.0107 39.6187 16.1669 39.5405 16.3232C39.4624 16.4794 39.4233 16.5966 39.4233 16.6747C39.4233 16.6747 39.4038 16.7138 39.3647 16.7919C39.3257 16.8701 39.3062 16.9091 39.3062 16.9091C39.228 16.9872 39.1694 17.0654 39.1304 17.1435C39.0913 17.2216 39.0718 17.2607 39.0718 17.2607C39.0718 17.3388 39.0522 17.4169 39.0132 17.4951C38.9741 17.5732 38.9546 17.6123 38.9546 17.6123C38.8765 17.6904 38.8179 17.749 38.7788 17.7881C38.7397 17.8271 38.7202 17.8857 38.7202 17.9638C38.7202 18.042 38.7007 18.1006 38.6616 18.1396C38.6225 18.1787 38.603 18.2373 38.603 18.3154C38.5249 18.3154 38.4663 18.3545 38.4272 18.4326C38.3882 18.5107 38.3686 18.5889 38.3686 18.667C38.3686 18.7451 38.3686 18.8232 38.3686 18.9014C38.3686 18.9795 38.3296 19.0576 38.2514 19.1357C38.1733 19.2139 38.1342 19.292 38.1342 19.3701C38.1342 19.4483 38.1342 19.5264 38.1342 19.6045C38.1342 19.6826 38.1147 19.7608 38.0756 19.8389C38.0366 19.917 37.978 19.9952 37.8999 20.0733C37.8999 20.0733 37.8803 20.1514 37.8413 20.3077C37.8022 20.4639 37.7827 20.5811 37.7827 20.6592C37.7827 20.7374 37.7631 20.835 37.7241 20.9522C37.685 21.0694 37.6264 21.1671 37.5483 21.2452C37.5483 21.3233 37.5288 21.4405 37.4897 21.5968C37.4506 21.753 37.4311 21.8702 37.4311 21.9483C37.4311 22.1046 37.4116 22.3194 37.3725 22.5929C37.3334 22.8663 37.2748 23.1202 37.1967 23.3546C37.1186 23.9015 37.0795 24.4484 37.0795 24.9953C37.0795 25.5422 37.1186 26.0891 37.1967 26.636C37.2748 26.8704 37.3334 27.1047 37.3725 27.3391C37.4116 27.5735 37.4311 27.7688 37.4311 27.9251C37.4311 28.0813 37.4506 28.2181 37.4897 28.3353C37.5288 28.4524 37.5483 28.5892 37.5483 28.7454C37.6264 28.8235 37.685 28.9212 37.7241 29.0384C37.7631 29.1556 37.7827 29.2533 37.7827 29.3314C37.7827 29.4095 37.8022 29.5072 37.8413 29.6244C37.8803 29.7415 37.8999 29.8392 37.8999 29.9173C37.978 29.9173 38.0366 29.9564 38.0756 30.0345C38.1147 30.1127 38.1342 30.1908 38.1342 30.2689C38.1342 30.347 38.2514 30.64 38.4858 31.1478C38.7202 31.6557 38.9546 32.1049 39.189 32.4955C39.3452 32.7299 39.7944 33.2182 40.5367 33.9604C41.2789 34.7026 41.689 35.0737 41.7672 35.0737C41.8453 35.0737 41.9234 35.0933 42.0015 35.1323C42.0797 35.1714 42.1578 35.23 42.2359 35.3081C42.3141 35.3863 42.4313 35.4644 42.5875 35.5425C42.7438 35.6206 42.861 35.6597 42.9391 35.6597C43.0172 35.7378 43.0953 35.7964 43.1735 35.8355C43.2516 35.8745 43.2907 35.8941 43.2907 35.8941C43.6032 36.0503 43.8571 36.1675 44.0524 36.2457C44.2477 36.3238 44.3844 36.3628 44.4626 36.3628C44.4626 36.3628 44.5016 36.3824 44.5798 36.4214C44.6579 36.4605 44.736 36.5191 44.8141 36.5972C44.8923 36.5972 44.9899 36.6168 45.1071 36.6558C45.2243 36.6949 45.322 36.7144 45.4001 36.7144C45.4782 36.7144 45.5759 36.734 45.6931 36.773C45.8103 36.8121 45.9079 36.8707 45.986 36.9488C46.0642 36.9488 46.1814 36.9683 46.3376 37.0074C46.4939 37.0465 46.6501 37.066 46.8064 37.066C46.8845 37.066 47.0017 37.0855 47.158 37.1246C47.3142 37.1637 47.4314 37.1832 47.5095 37.1832C47.5877 37.1832 47.6853 37.2027 47.8025 37.2418C47.9197 37.2808 48.0564 37.3004 48.2127 37.3004L48.4471 37.4176V38.8239C48.4471 39.2145 48.4471 39.5465 48.4471 39.82C48.4471 40.0934 48.408 40.2302 48.3299 40.2302C48.2517 40.3083 47.7634 40.3669 46.865 40.4059C45.9665 40.445 44.3063 40.4645 41.8844 40.4645C38.3686 40.4645 36.2982 40.4841 35.6732 40.5231C35.0482 40.5622 34.2669 40.8161 33.3294 41.2849C33.0169 41.4411 32.6458 41.6755 32.2161 41.988C31.7864 42.3005 31.4543 42.574 31.22 42.8084C30.9856 43.0427 30.7317 43.3553 30.4582 43.7459C30.1848 44.1365 30.0481 44.3709 30.0481 44.449C30.0481 44.449 30.0285 44.4686 29.9895 44.5076C29.9504 44.5467 29.8918 44.6053 29.8137 44.6834C29.8137 44.6834 29.7941 44.7225 29.7551 44.8006C29.716 44.8787 29.6965 44.9569 29.6965 45.035C29.6965 45.035 29.6769 45.0741 29.6379 45.1522C29.5988 45.2303 29.5793 45.3084 29.5793 45.3866C29.5012 45.3866 29.4426 45.4256 29.4035 45.5038C29.3644 45.5819 29.3449 45.66 29.3449 45.7381C29.3449 45.8163 29.3254 45.9139 29.2863 46.0311C29.2472 46.1483 29.2277 46.246 29.2277 46.3241C29.0715 46.4803 28.9933 47.3788 28.9933 49.0195C28.9933 50.6602 28.9933 55.2697 28.9933 62.848C28.9152 70.4264 28.8761 75.0359 28.8761 76.6766C28.8761 78.3173 28.8371 79.1767 28.759 79.2548C28.6808 79.3329 27.7628 79.372 26.005 79.372C24.2471 79.372 20.8681 79.372 15.8679 79.372C10.9459 79.372 7.56689 79.3915 5.73089 79.4306C3.8949 79.4697 2.89877 79.5283 2.74252 79.6064C2.50814 79.6845 2.19563 79.8994 1.80499 80.2509C1.41435 80.6025 1.21903 80.8564 1.21903 81.0127C1.21903 81.0127 1.1995 81.0517 1.16044 81.1299C1.12138 81.208 1.10184 81.2471 1.10184 81.2471C0.945589 81.4033 0.926057 82.419 1.04325 84.294C1.16044 86.1691 1.29716 87.2238 1.45342 87.4582C1.45342 87.5363 1.47295 87.634 1.51201 87.7512C1.55108 87.8684 1.57061 88.0051 1.57061 88.1613C1.57061 88.3176 1.57061 88.4543 1.57061 88.5715C1.57061 88.6887 1.60967 88.7473 1.6878 88.7473C1.6878 88.8254 1.70733 88.9231 1.74639 89.0403C1.78546 89.1575 1.84405 89.2551 1.92218 89.3332C1.92218 89.6458 1.98078 89.9387 2.09797 90.2122C2.21516 90.4856 2.31282 90.7395 2.39095 90.9739C2.46907 91.052 2.50814 91.1497 2.50814 91.2669C2.50814 91.3841 2.50814 91.4427 2.50814 91.4427C2.50814 91.5208 2.52767 91.5989 2.56673 91.6771C2.6058 91.7552 2.66439 91.7943 2.74252 91.7943C2.74252 91.8724 2.76205 91.931 2.80112 91.97C2.84018 92.0091 2.85971 92.0286 2.85971 92.0286C2.85971 92.1068 2.99643 92.4193 3.26988 92.9662C3.54333 93.5131 3.75818 93.9037 3.91443 94.1381C3.99256 94.2162 4.05115 94.2943 4.09022 94.3725C4.12928 94.4506 4.14881 94.5287 4.14881 94.6068C4.22694 94.685 4.28554 94.7631 4.3246 94.8412C4.36366 94.9194 4.46132 95.0365 4.61758 95.1928C4.6957 95.2709 4.7543 95.3686 4.79336 95.4858C4.83243 95.603 4.89102 95.7006 4.96915 95.7788C4.96915 95.8569 5.22306 96.1889 5.73089 96.7749C6.23872 97.3608 6.64889 97.8491 6.9614 98.2398C7.58642 98.8648 8.48489 99.6265 9.6568 100.525C10.8287 101.423 11.7662 102.068 12.4694 102.459C12.5475 102.459 12.6256 102.498 12.7038 102.576C12.7819 102.654 12.86 102.732 12.9381 102.81C13.0944 102.81 13.2116 102.849 13.2897 102.927C13.3678 103.006 13.4069 103.045 13.4069 103.045C13.485 103.045 13.5436 103.064 13.5827 103.103C13.6218 103.142 13.6804 103.162 13.7585 103.162C13.7585 103.162 13.8171 103.201 13.9343 103.279C14.0515 103.357 14.1491 103.396 14.2273 103.396C14.3054 103.474 14.403 103.552 14.5202 103.631C14.6374 103.709 14.696 103.748 14.696 103.748C14.9304 103.826 15.1648 103.924 15.3992 104.041C15.6335 104.158 15.7898 104.217 15.8679 104.217C15.8679 104.295 15.907 104.334 15.9851 104.334C16.0632 104.334 16.1414 104.373 16.2195 104.451C16.3758 104.451 16.5711 104.509 16.8055 104.627C17.0398 104.744 17.2352 104.842 17.3914 104.92C17.5477 104.998 17.6649 105.056 17.743 105.095C17.8211 105.135 17.8992 105.154 17.9774 105.154C18.0555 105.154 18.1141 105.174 18.1532 105.213C18.1922 105.252 18.2508 105.271 18.3289 105.271C18.3289 105.349 18.368 105.408 18.4461 105.447C18.5243 105.486 18.6024 105.506 18.6805 105.506C18.7586 105.506 18.8368 105.506 18.9149 105.506C18.993 105.506 19.0711 105.545 19.1493 105.623C19.2274 105.701 19.3055 105.74 19.3837 105.74C19.4618 105.74 19.5399 105.74 19.618 105.74C19.6962 105.74 19.7938 105.76 19.911 105.799C20.0282 105.838 20.1259 105.896 20.204 105.974C20.204 105.974 20.2626 105.994 20.3798 106.033C20.497 106.072 20.5946 106.092 20.6728 106.092C20.7509 106.092 20.829 106.111 20.9071 106.15C20.9853 106.189 21.0634 106.248 21.1415 106.326C21.2197 106.326 21.3173 106.345 21.4345 106.385C21.5517 106.424 21.6494 106.443 21.7275 106.443C21.8056 106.443 21.9033 106.463 22.0205 106.502C22.1377 106.541 22.2353 106.599 22.3134 106.678C22.3134 106.678 22.372 106.697 22.4892 106.736C22.6064 106.775 22.7041 106.795 22.7822 106.795C22.8603 106.795 22.958 106.814 23.0752 106.853C23.1924 106.892 23.29 106.912 23.3682 106.912C23.4463 106.99 23.5439 107.049 23.6611 107.088C23.7783 107.127 23.9151 107.146 24.0713 107.146C24.1494 107.146 24.3057 107.166 24.5401 107.205C24.7745 107.244 24.9307 107.303 25.0088 107.381L25.5948 107.498L25.712 111.834C25.712 113.709 25.7315 114.94 25.7706 115.525C25.8096 116.111 25.8682 116.483 25.9464 116.639C26.0245 116.873 26.2589 117.186 26.6495 117.576C27.0401 117.967 27.3136 118.162 27.4698 118.162C27.548 118.162 27.6261 118.182 27.7042 118.221C27.7824 118.26 27.8214 118.319 27.8214 118.397C27.8995 118.397 27.9972 118.416 28.1144 118.455C28.2316 118.494 28.3293 118.514 28.4074 118.514C28.4855 118.514 28.5636 118.533 28.6418 118.572C28.7199 118.611 28.798 118.631 28.8761 118.631C28.9543 118.709 29.0519 118.768 29.1691 118.807C29.2863 118.846 29.384 118.865 29.4621 118.865C29.5402 118.865 29.6379 118.885 29.7551 118.924C29.8723 118.963 29.9699 118.983 30.0481 118.983C30.0481 119.061 30.1262 119.119 30.2824 119.158C30.4387 119.197 30.5559 119.217 30.634 119.217C30.7903 119.217 30.927 119.237 31.0442 119.276C31.1614 119.315 31.259 119.334 31.3372 119.334C31.4153 119.412 31.5325 119.471 31.6887 119.51C31.845 119.549 31.9622 119.569 32.0403 119.569C32.1966 119.569 32.3528 119.588 32.5091 119.627C32.6653 119.666 32.7825 119.686 32.8606 119.686C33.0169 119.764 33.1731 119.822 33.3294 119.862C33.4857 119.901 33.6419 119.92 33.7982 119.92C33.9544 119.92 34.1302 119.92 34.3255 119.92C34.5208 119.92 34.6966 119.959 34.8529 120.037C35.0091 120.037 35.224 120.076 35.4974 120.155C35.7709 120.233 36.0248 120.272 36.2592 120.272C36.4936 120.272 36.7279 120.291 36.9623 120.33C37.1967 120.369 37.353 120.389 37.4311 120.389C37.5092 120.467 37.6459 120.506 37.8413 120.506C38.0366 120.506 38.2905 120.506 38.603 120.506C38.8374 120.506 39.0913 120.526 39.3647 120.565C39.6382 120.604 39.853 120.623 40.0093 120.623C41.1812 120.858 44.8923 120.975 51.1425 120.975C57.3927 120.975 61.1037 120.858 62.2756 120.623C62.4319 120.623 62.6467 120.604 62.9202 120.565C63.1936 120.526 63.4866 120.506 63.7991 120.506C64.0335 120.506 64.2679 120.506 64.5023 120.506C64.7366 120.506 64.8538 120.467 64.8538 120.389C64.932 120.389 65.0882 120.369 65.3226 120.33C65.557 120.291 65.7914 120.272 66.0257 120.272C66.2601 120.272 66.514 120.233 66.7875 120.155C67.0609 120.076 67.2758 120.037 67.432 120.037C67.5883 119.959 67.7641 119.92 67.9594 119.92C68.1547 119.92 68.3305 119.92 68.4867 119.92C68.643 119.92 68.7993 119.901 68.9555 119.862C69.1118 119.822 69.268 119.764 69.4243 119.686C69.5024 119.686 69.6196 119.666 69.7758 119.627C69.9321 119.588 70.0884 119.569 70.2446 119.569C70.3227 119.569 70.4399 119.549 70.5962 119.51C70.7524 119.471 70.8696 119.412 70.9478 119.334C71.0259 119.334 71.1236 119.315 71.2407 119.276C71.3579 119.237 71.4947 119.217 71.6509 119.217C71.8072 119.217 71.9439 119.197 72.0611 119.158C72.1783 119.119 72.2759 119.061 72.3541 118.983C72.3541 118.983 72.4127 118.963 72.5298 118.924C72.647 118.885 72.7447 118.865 72.8228 118.865C72.9791 118.865 73.0963 118.846 73.1744 118.807C73.2525 118.768 73.3307 118.709 73.4088 118.631C73.4869 118.631 73.5846 118.611 73.7018 118.572C73.8189 118.533 73.9166 118.514 73.9947 118.514C74.0729 118.514 74.151 118.494 74.2291 118.455C74.3072 118.416 74.3854 118.397 74.4635 118.397C74.5416 118.319 74.6198 118.26 74.6979 118.221C74.776 118.182 74.8151 118.162 74.8151 118.162C74.9713 118.162 75.2448 117.967 75.6354 117.576C76.026 117.186 76.2604 116.873 76.3386 116.639C76.4167 116.483 76.4753 116.111 76.5143 115.525C76.5534 114.94 76.5729 113.709 76.5729 111.834L76.6901 107.498L77.2761 107.381C77.4323 107.303 77.6081 107.244 77.8034 107.205C77.9988 107.166 78.1355 107.146 78.2136 107.146C78.3699 107.146 78.5066 107.127 78.6238 107.088C78.741 107.049 78.8386 106.99 78.9168 106.912C78.9949 106.912 79.0925 106.892 79.2097 106.853C79.3269 106.814 79.4246 106.795 79.5027 106.795C79.5808 106.795 79.6785 106.775 79.7957 106.736C79.9129 106.697 80.0105 106.678 80.0887 106.678C80.0887 106.599 80.1473 106.541 80.2645 106.502C80.3817 106.463 80.4793 106.443 80.5574 106.443C80.7137 106.443 80.8309 106.424 80.909 106.385C80.9871 106.345 81.0653 106.326 81.1434 106.326C81.2215 106.248 81.2996 106.189 81.3778 106.15C81.4559 106.111 81.534 106.092 81.6122 106.092C81.6903 106.092 81.7879 106.072 81.9051 106.033C82.0223 105.994 82.12 105.974 82.1981 105.974C82.1981 105.896 82.2567 105.838 82.3739 105.799C82.4911 105.76 82.5888 105.74 82.6669 105.74C82.745 105.74 82.8231 105.74 82.9013 105.74C82.9794 105.74 83.0575 105.701 83.1356 105.623C83.2138 105.545 83.2919 105.506 83.37 105.506C83.4482 105.506 83.5263 105.506 83.6044 105.506C83.6825 105.506 83.7607 105.486 83.8388 105.447C83.9169 105.408 83.956 105.349 83.956 105.271C84.0341 105.271 84.1122 105.252 84.1904 105.213C84.2685 105.174 84.3076 105.154 84.3076 105.154C84.3857 105.154 84.4833 105.135 84.6005 105.095C84.7177 105.056 84.8154 104.998 84.8935 104.92C84.9716 104.92 85.0888 104.881 85.2451 104.802C85.4013 104.724 85.5185 104.646 85.5967 104.568C85.7529 104.568 85.8896 104.529 86.0068 104.451C86.124 104.373 86.1826 104.334 86.1826 104.334C86.2607 104.334 86.3389 104.314 86.417 104.275C86.4951 104.236 86.5342 104.177 86.5342 104.099C86.6123 104.099 86.6904 104.08 86.7686 104.041C86.8467 104.002 86.9639 103.982 87.1201 103.982C87.1983 103.904 87.2764 103.845 87.3545 103.806C87.4326 103.767 87.5108 103.748 87.5889 103.748C87.5889 103.748 87.6475 103.709 87.7647 103.631C87.8819 103.552 87.9795 103.474 88.0577 103.396C88.1358 103.396 88.2335 103.357 88.3506 103.279C88.4678 103.201 88.5264 103.162 88.5264 103.162C88.6046 103.162 88.6632 103.142 88.7022 103.103C88.7413 103.064 88.7999 103.045 88.878 103.045C88.878 103.045 88.9366 103.006 89.0538 102.927C89.171 102.849 89.2686 102.81 89.3468 102.81C89.4249 102.732 89.5226 102.654 89.6397 102.576C89.7569 102.498 89.8155 102.459 89.8155 102.459C90.5187 102.068 91.4562 101.423 92.6281 100.525C93.8 99.6265 94.6985 98.8648 95.3235 98.2398C95.636 97.8491 96.0462 97.3608 96.554 96.7749C97.0619 96.1889 97.3548 95.8569 97.433 95.7788C97.433 95.7006 97.472 95.603 97.5501 95.4858C97.6283 95.3686 97.7064 95.2709 97.7845 95.1928C97.8627 95.0365 97.9408 94.9194 98.0189 94.8412C98.097 94.7631 98.1361 94.685 98.1361 94.6068C98.1361 94.5287 98.1752 94.4506 98.2533 94.3725C98.3314 94.2943 98.3705 94.2162 98.3705 94.1381C98.5267 93.9037 98.7416 93.5131 99.015 92.9662C99.2885 92.4193 99.4252 92.1068 99.4252 92.0286C99.4252 92.0286 99.4447 92.0091 99.4838 91.97C99.5229 91.931 99.5424 91.8724 99.5424 91.7943C99.6205 91.7943 99.6791 91.7552 99.7182 91.6771C99.7572 91.5989 99.7768 91.5208 99.7768 91.4427C99.7768 91.4427 99.7963 91.3841 99.8354 91.2669C99.8744 91.1497 99.894 91.052 99.894 90.9739C100.05 90.7395 100.167 90.4856 100.246 90.2122C100.324 89.9387 100.402 89.6458 100.48 89.3332C100.48 89.2551 100.499 89.1575 100.539 89.0403C100.578 88.9231 100.597 88.8254 100.597 88.7473C100.675 88.7473 100.714 88.6887 100.714 88.5715C100.714 88.4543 100.714 88.3176 100.714 88.1613C100.714 88.0051 100.734 87.8684 100.773 87.7512C100.812 87.634 100.871 87.5363 100.949 87.4582C100.949 87.3801 100.968 87.2043 101.007 86.9308C101.046 86.6574 101.066 86.3644 101.066 86.0519C101.144 85.6613 101.203 85.3683 101.242 85.173C101.281 84.9776 101.339 84.88 101.417 84.88C101.496 84.8019 101.535 84.6456 101.535 84.4112C101.535 84.1768 101.535 83.7081 101.535 83.0049C101.535 82.2236 101.535 81.7549 101.535 81.5986C101.535 81.4424 101.457 81.3252 101.3 81.2471C101.222 81.2471 101.164 81.2275 101.124 81.1885C101.085 81.1494 101.066 81.0908 101.066 81.0127C101.066 80.8564 100.89 80.6025 100.539 80.2509C100.187 79.8994 99.8549 79.6845 99.5424 79.6064C99.3861 79.5283 98.39 79.4697 96.554 79.4306C94.718 79.3915 91.339 79.372 86.417 79.372C82.1981 79.372 79.034 79.372 76.9245 79.372C74.8151 79.372 73.7213 79.3329 73.6432 79.2548C73.4869 79.2548 73.4088 78.8642 73.4088 78.0829C73.4088 77.3016 73.4088 74.8797 73.4088 70.817C73.4088 67.0669 73.4088 64.7036 73.4088 63.727C73.4088 62.7504 73.4478 62.223 73.526 62.1449C73.6041 62.0668 73.6822 62.0082 73.7604 61.9691C73.8385 61.93 73.9166 61.9105 73.9947 61.9105C73.9947 61.9105 74.0729 61.8715 74.2291 61.7933C74.3854 61.7152 74.5026 61.6371 74.5807 61.5589C74.7369 61.4808 74.8932 61.4027 75.0495 61.3246C75.2057 61.2464 75.3229 61.2074 75.401 61.2074C75.7917 60.973 76.28 60.5433 76.8659 59.9183C77.4519 59.2932 77.862 58.7464 78.0964 58.2776C78.1746 58.1213 78.2527 57.9651 78.3308 57.8088C78.4089 57.6526 78.448 57.5354 78.448 57.4573C78.5261 57.3791 78.5847 57.301 78.6238 57.2229C78.6628 57.1447 78.6824 57.0666 78.6824 56.9885C78.6824 56.9104 78.6824 56.8127 78.6824 56.6955C78.6824 56.5783 78.7214 56.4807 78.7996 56.4025C78.9558 56.09 79.034 55.2892 79.034 54.0001C79.034 52.711 78.9558 51.9493 78.7996 51.7149C78.7214 51.6368 78.6824 51.5196 78.6824 51.3633C78.6824 51.2071 78.6824 51.0899 78.6824 51.0117C78.6824 50.8555 78.6628 50.7188 78.6238 50.6016C78.5847 50.4844 78.5261 50.3867 78.448 50.3086C78.448 50.2305 78.4285 50.1523 78.3894 50.0742C78.3503 49.9961 78.3308 49.918 78.3308 49.8398C78.3308 49.7617 78.3113 49.664 78.2722 49.5469C78.2331 49.4297 78.1746 49.332 78.0964 49.2539C78.0964 49.2539 78.0769 49.1953 78.0378 49.0781C77.9988 48.9609 77.9792 48.8632 77.9792 48.7851C77.9792 48.7851 77.9597 48.746 77.9206 48.6679C77.8816 48.5898 77.823 48.5117 77.7449 48.4335C77.7449 48.4335 77.7253 48.3945 77.6863 48.3163C77.6472 48.2382 77.6277 48.1601 77.6277 48.082C77.6277 48.082 77.6081 48.0429 77.5691 47.9648C77.53 47.8866 77.5105 47.8476 77.5105 47.8476C77.5105 47.8476 77.4909 47.8085 77.4519 47.7304C77.4128 47.6523 77.3542 47.5741 77.2761 47.496C77.0417 46.7929 76.3386 45.8358 75.1666 44.6248C73.9947 43.4138 72.9791 42.613 72.1197 42.2224C71.8853 42.0661 71.69 41.949 71.5337 41.8708C71.3775 41.7927 71.2212 41.7146 71.065 41.6365C70.9868 41.5583 70.8892 41.4997 70.772 41.4607C70.6548 41.4216 70.4399 41.363 70.1274 41.2849C69.6587 41.0505 69.3266 40.9138 69.1313 40.8747C68.936 40.8356 68.7211 40.777 68.4867 40.6989C68.3305 40.6989 68.1742 40.6794 68.018 40.6403C67.8617 40.6013 67.7445 40.5817 67.6664 40.5817C67.5883 40.5036 66.9828 40.4645 65.85 40.4645C64.7171 40.4645 63.0178 40.4645 60.7521 40.4645C58.2521 40.4645 56.5137 40.445 55.5371 40.4059C54.5605 40.3669 54.0332 40.3083 53.955 40.2302C53.955 40.2302 53.9355 40.113 53.8965 39.8786C53.8574 39.6442 53.8379 39.2926 53.8379 38.8239V37.4176L54.4238 37.3004C54.5801 37.2223 54.7559 37.1637 54.9512 37.1246C55.1465 37.0855 55.2832 37.066 55.3613 37.066C55.5176 37.066 55.6543 37.0465 55.7715 37.0074C55.8887 36.9683 55.9864 36.9488 56.0645 36.9488C56.1426 36.8707 56.2403 36.8121 56.3575 36.773C56.4747 36.734 56.5723 36.7144 56.6504 36.7144C56.6504 36.7144 56.7286 36.6949 56.8848 36.6558C57.0411 36.6168 57.1583 36.5972 57.2364 36.5972C57.3927 36.5191 57.5489 36.441 57.7052 36.3628C57.8614 36.2847 57.9786 36.2457 58.0567 36.2457C58.2911 36.0894 58.4474 35.9917 58.5255 35.9527C58.6036 35.9136 58.838 35.816 59.2286 35.6597C59.8537 35.3472 60.4592 34.898 61.0451 34.312C61.6311 33.726 62.1584 33.1596 62.6272 32.6127C62.8616 32.144 63.135 31.6557 63.4475 31.1478C63.76 30.64 63.9163 30.308 63.9163 30.1517C63.9163 30.1517 63.9358 30.1127 63.9749 30.0345C64.014 29.9564 64.0335 29.8392 64.0335 29.683C64.1897 29.4486 64.3069 29.1947 64.3851 28.9212C64.4632 28.6478 64.5023 28.3548 64.5023 28.0423C64.5804 27.886 64.639 27.7298 64.678 27.5735C64.7171 27.4173 64.7366 27.3001 64.7366 27.2219C64.8148 27.1438 64.8734 26.8508 64.9124 26.343C64.9515 25.8352 64.971 24.9172 64.971 23.589C64.971 22.1827 64.9515 21.2452 64.9124 20.7764C64.8734 20.3077 64.8148 19.9952 64.7366 19.8389C64.6585 19.6826 64.6194 19.5264 64.6194 19.3701C64.6194 19.2139 64.6194 19.0967 64.6194 19.0186C64.5413 18.8623 64.5023 18.7256 64.5023 18.6084C64.5023 18.4912 64.4632 18.3935 64.3851 18.3154C64.3851 18.2373 64.3655 18.1396 64.3265 18.0224C64.2874 17.9052 64.2679 17.8076 64.2679 17.7295C64.2679 17.5732 64.2483 17.456 64.2093 17.3779C64.1702 17.2998 64.1116 17.2216 64.0335 17.1435C64.0335 17.0654 64.014 16.9872 63.9749 16.9091C63.9358 16.831 63.9163 16.7529 63.9163 16.6747C63.9163 16.5966 63.8968 16.5185 63.8577 16.4404C63.8186 16.3622 63.76 16.2841 63.6819 16.206C63.6819 16.1278 63.6624 16.0497 63.6233 15.9716C63.5843 15.8935 63.5647 15.8153 63.5647 15.7372C63.5647 15.6591 63.5452 15.6005 63.5061 15.5614C63.4671 15.5224 63.4085 15.4638 63.3303 15.3856C63.3303 15.3856 63.3108 15.3466 63.2717 15.2684C63.2327 15.1903 63.2132 15.1122 63.2132 15.0341C63.2132 14.9559 63.1936 14.8778 63.1546 14.7997C63.1155 14.7215 63.096 14.6434 63.096 14.5653C63.0178 14.5653 62.9592 14.5262 62.9202 14.4481C62.8811 14.37 62.8616 14.2918 62.8616 14.2137C62.8616 14.2137 62.842 14.1747 62.803 14.0965C62.7639 14.0184 62.7444 13.9793 62.7444 13.9793C62.6663 13.9012 62.6077 13.8231 62.5686 13.745C62.5295 13.6668 62.51 13.6278 62.51 13.6278C62.51 13.5496 62.51 13.491 62.51 13.452C62.51 13.4129 62.4709 13.3543 62.3928 13.2762C62.3928 13.2762 62.3733 13.2567 62.3342 13.2176C62.2952 13.1785 62.2366 13.1199 62.1584 13.0418C62.1584 12.9637 62.1194 12.866 62.0412 12.7488C61.9631 12.6316 61.924 12.534 61.924 12.4559C61.8459 12.3777 61.7678 12.2801 61.6897 12.1629C61.6115 12.0457 61.5725 11.948 61.5725 11.8699C61.5725 11.8699 61.4553 11.6941 61.2209 11.3425C60.9865 10.991 60.7131 10.6199 60.4006 10.2292C59.8537 9.52608 59.1896 8.76434 58.4083 7.94399C57.627 7.12366 56.8458 6.36192 56.0645 5.65877C55.5957 5.26814 54.9316 4.74077 54.0722 4.07669C53.2128 3.41261 52.705 3.0415 52.5488 2.96337C52.4706 2.88525 52.373 2.80711 52.2558 2.72899C52.1386 2.65086 52.0409 2.57274 51.9628 2.49461C51.7284 2.33836 51.5136 2.22116 51.3182 2.14304C51.1229 2.0649 50.9862 1.98678 50.9081 1.90865C50.8299 1.83053 50.7518 1.77193 50.6737 1.73286C50.5956 1.6938 50.5565 1.67427 50.5565 1.67427C50.5565 1.59615 50.5174 1.55708 50.4393 1.55708C50.3612 1.55708 50.2831 1.55708 50.2049 1.55708C50.1268 1.55708 50.0487 1.53754 49.9705 1.49848C49.8924 1.45942 49.8534 1.40083 49.8534 1.32269C49.8534 1.24457 49.7948 1.18597 49.6776 1.14691C49.5604 1.10785 49.3455 1.08831 49.033 1.08831C48.7205 1.08831 48.5057 1.10785 48.3885 1.14691C48.2713 1.18597 48.2127 1.20551 48.2127 1.20551ZM51.1425 8.70574C51.1425 8.70574 51.2011 8.76434 51.3182 8.88152C51.4354 8.99872 51.6112 9.09637 51.8456 9.1745C52.4706 9.7214 53.4082 10.6785 54.6582 12.0457C55.9082 13.4129 56.6504 14.3309 56.8848 14.7997C56.8848 14.8778 56.9239 14.9559 57.002 15.0341C57.0801 15.1122 57.1583 15.2294 57.2364 15.3856C57.2364 15.4638 57.2755 15.5614 57.3536 15.6786C57.4317 15.7958 57.4708 15.8544 57.4708 15.8544C57.5489 15.9325 57.627 16.0497 57.7052 16.206C57.7833 16.3622 57.8614 16.4794 57.9395 16.5575C58.0177 16.7138 58.0763 16.8701 58.1153 17.0263C58.1544 17.1826 58.1739 17.2607 58.1739 17.2607C58.1739 17.3388 58.1935 17.4169 58.2325 17.4951C58.2716 17.5732 58.3302 17.6123 58.4083 17.6123C58.4083 17.6904 58.4278 17.749 58.4669 17.7881C58.506 17.8271 58.5255 17.8857 58.5255 17.9638C58.5255 18.042 58.545 18.1201 58.5841 18.1982C58.6232 18.2764 58.6427 18.3545 58.6427 18.4326C58.7208 18.5107 58.7794 18.5889 58.8185 18.667C58.8575 18.7451 58.8771 18.8232 58.8771 18.9014C58.8771 18.9795 58.8966 19.0772 58.9357 19.1943C58.9747 19.3115 58.9943 19.4092 58.9943 19.4873C59.0724 19.5655 59.131 19.6826 59.1701 19.8389C59.2091 19.9952 59.2286 20.1123 59.2286 20.1905C59.2286 20.3467 59.2482 20.503 59.2872 20.6592C59.3263 20.8155 59.3458 20.9327 59.3458 21.0108C59.424 21.1671 59.4826 21.421 59.5216 21.7726C59.5607 22.1241 59.5802 22.7296 59.5802 23.589C59.5802 24.4484 59.5607 25.0539 59.5216 25.4055C59.4826 25.757 59.424 26.011 59.3458 26.1672C59.3458 26.3235 59.3263 26.4602 59.2872 26.5774C59.2482 26.6946 59.2286 26.8313 59.2286 26.9876C59.2286 27.0657 59.2091 27.1633 59.1701 27.2805C59.131 27.3977 59.0724 27.4954 58.9943 27.5735C58.9943 27.5735 58.9747 27.6321 58.9357 27.7493C58.8966 27.8665 58.8771 27.9251 58.8771 27.9251C58.8771 28.0032 58.8575 28.0813 58.8185 28.1595C58.7794 28.2376 58.7208 28.3157 58.6427 28.3939C58.6427 28.3939 58.6232 28.4329 58.5841 28.511C58.545 28.5892 58.5255 28.6282 58.5255 28.6282C58.5255 28.8626 58.1935 29.3314 57.5294 30.0345C56.8653 30.7377 56.4161 31.0892 56.1817 31.0892C56.1035 31.0892 56.045 31.0892 56.0059 31.0892C55.9668 31.0892 55.9082 31.1283 55.8301 31.2064C55.8301 31.2846 55.791 31.3236 55.7129 31.3236C55.6348 31.3236 55.5567 31.3236 55.4785 31.3236C55.4004 31.3236 55.3223 31.3432 55.2441 31.3822C55.166 31.4213 55.0488 31.4799 54.8926 31.558C54.8144 31.558 54.7168 31.5775 54.5996 31.6166C54.4824 31.6557 54.3847 31.6752 54.3066 31.6752H53.8379V28.511C53.8379 27.1829 53.8183 26.3235 53.7793 25.9328C53.7402 25.5422 53.7207 25.3078 53.7207 25.2297C53.6425 25.1516 53.5839 25.093 53.5449 25.0539C53.5058 25.0148 53.4863 24.9953 53.4863 24.9953C53.4863 24.8391 53.3886 24.6633 53.1933 24.4679C52.998 24.2726 52.7831 24.0968 52.5488 23.9406C52.3144 23.7843 52.119 23.7062 51.9628 23.7062C51.8065 23.7062 51.5331 23.7062 51.1425 23.7062C50.7518 23.7062 50.4784 23.7257 50.3221 23.7648C50.1659 23.8039 49.9705 23.9015 49.7362 24.0578C49.5799 24.1359 49.4237 24.2531 49.2674 24.4094C49.1111 24.5656 48.9549 24.7219 48.7986 24.8781L48.5643 25.3469L48.4471 31.6752H47.9783C47.822 31.6752 47.6658 31.6557 47.5095 31.6166C47.3533 31.5775 47.2361 31.558 47.158 31.558C47.0798 31.4799 46.9822 31.4213 46.865 31.3822C46.7478 31.3432 46.6501 31.3236 46.572 31.3236C46.4939 31.3236 46.4157 31.3236 46.3376 31.3236C46.2595 31.3236 46.1814 31.2846 46.1032 31.2064C46.1032 31.1283 46.0642 31.0892 45.986 31.0892C45.9079 31.0892 45.8298 31.0892 45.7517 31.0892C45.7517 31.0892 45.7126 31.0697 45.6345 31.0306C45.5563 30.9916 45.4782 30.933 45.4001 30.8549C45.4001 30.8549 45.3806 30.8353 45.3415 30.7963C45.3024 30.7572 45.2438 30.7377 45.1657 30.7377C44.9313 30.7377 44.5212 30.3666 43.9352 29.6244C43.3492 28.8821 43.0563 28.3548 43.0563 28.0423C43.0563 27.9641 43.0563 27.8665 43.0563 27.7493C43.0563 27.6321 43.0172 27.5344 42.9391 27.4563C42.861 27.2219 42.8219 26.3821 42.8219 24.9367C42.8219 23.4914 42.861 22.6515 42.9391 22.4171C43.0172 22.339 43.0563 22.2413 43.0563 22.1241C43.0563 22.0069 43.0563 21.9093 43.0563 21.8311C43.0563 21.753 43.0758 21.6749 43.1149 21.5968C43.1539 21.5186 43.2125 21.4405 43.2907 21.3624C43.2907 21.2843 43.3102 21.2061 43.3492 21.128C43.3883 21.0499 43.4078 21.0108 43.4078 21.0108C43.4078 20.9327 43.525 20.6397 43.7594 20.1319C43.9938 19.624 44.1501 19.3311 44.2282 19.2529C44.2282 19.2529 44.2477 19.2139 44.2868 19.1357C44.3258 19.0576 44.3844 19.0186 44.4626 19.0186C44.5407 18.7842 44.6188 18.5889 44.6969 18.4326C44.7751 18.2764 44.9313 18.081 45.1657 17.8466C45.2438 17.7685 45.322 17.6709 45.4001 17.5537C45.4782 17.4365 45.5173 17.3388 45.5173 17.2607C45.5173 17.1826 45.5954 17.0458 45.7517 16.8505C45.9079 16.6552 46.1032 16.4013 46.3376 16.0888C46.4939 15.8544 46.6501 15.62 46.8064 15.3856C46.9626 15.1513 47.0408 14.995 47.0408 14.9169C47.1189 14.8387 47.197 14.7411 47.2752 14.6239C47.3533 14.5067 47.4314 14.409 47.5095 14.3309C47.5877 14.2528 47.6463 14.1747 47.6853 14.0965C47.7244 14.0184 47.7439 13.9793 47.7439 13.9793C47.7439 13.9793 47.783 13.9207 47.8611 13.8036C47.9392 13.6864 48.0174 13.5887 48.0955 13.5106C48.3299 13.2762 48.4861 13.0809 48.5643 12.9246C48.6424 12.7684 48.7205 12.6121 48.7986 12.4559C48.7986 12.3777 48.8377 12.2801 48.9158 12.1629C48.994 12.0457 49.0721 11.909 49.1502 11.7527C49.2283 11.6746 49.3065 11.5769 49.3846 11.4597C49.4627 11.3425 49.5018 11.2449 49.5018 11.1668C49.5018 11.1668 49.5213 11.1277 49.5604 11.0496C49.5994 10.9714 49.619 10.9324 49.619 10.9324C49.6971 10.8542 49.7557 10.7761 49.7948 10.698C49.8338 10.6199 49.8534 10.5808 49.8534 10.5808C49.8534 10.5027 49.8729 10.4245 49.912 10.3464C49.951 10.2683 49.9705 10.1902 49.9705 10.112C50.0487 10.112 50.1073 10.073 50.1463 9.99484C50.1854 9.91671 50.2049 9.83858 50.2049 9.76046C50.2049 9.76046 50.2049 9.7214 50.2049 9.64326C50.2049 9.56514 50.244 9.48701 50.3221 9.40888C50.4002 9.33076 50.4393 9.25263 50.4393 9.1745C50.4393 9.09637 50.4393 9.01825 50.4393 8.94012C50.4393 8.86199 50.4588 8.8034 50.4979 8.76434C50.537 8.72527 50.5565 8.70574 50.5565 8.70574C50.6346 8.62761 50.7518 8.58855 50.9081 8.58855C51.0643 8.58855 51.1425 8.62761 51.1425 8.70574ZM66.7289 45.9725C66.807 45.9725 66.9242 45.9921 67.0805 46.0311C67.2367 46.0702 67.3539 46.0897 67.432 46.0897C67.5102 46.0897 67.6078 46.1092 67.725 46.1483C67.8422 46.1874 67.9399 46.246 68.018 46.3241C68.0961 46.3241 68.2133 46.3632 68.3696 46.4413C68.5258 46.5194 68.6821 46.5975 68.8383 46.6757C69.3852 46.91 69.7563 47.1054 69.9516 47.2616C70.147 47.4179 70.5181 47.7695 71.065 48.3163C71.4556 48.7851 71.7486 49.1367 71.9439 49.3711C72.1392 49.6054 72.315 49.918 72.4712 50.3086C72.6275 50.543 72.7642 50.7774 72.8814 51.0117C72.9986 51.2461 73.0963 51.4024 73.1744 51.4805C73.1744 51.5586 73.1939 51.6563 73.233 51.7735C73.2721 51.8907 73.2916 51.9883 73.2916 52.0665C73.2916 52.1446 73.3111 52.2813 73.3502 52.4766C73.3892 52.672 73.4088 52.8477 73.4088 53.004C73.565 53.3946 73.6236 53.8243 73.5846 54.2931C73.5455 54.7619 73.4869 55.1525 73.4088 55.465C73.2525 55.6994 73.0181 55.9728 72.7056 56.2853C72.3931 56.5979 72.1587 56.7541 72.0025 56.7541C71.9244 56.8322 71.7876 56.8908 71.5923 56.9299C71.397 56.969 71.2603 56.9885 71.1821 56.9885C70.9478 57.0666 70.7524 57.1057 70.5962 57.1057C70.4399 57.1057 70.2056 57.0666 69.893 56.9885C69.4243 56.8322 69.0727 56.676 68.8383 56.5197C68.6039 56.3635 68.3696 56.051 68.1352 55.5822C67.9008 55.0353 67.725 54.6642 67.6078 54.4689C67.4906 54.2736 67.3148 54.0587 67.0805 53.8243C66.8461 53.5118 66.514 53.1993 66.0843 52.8868C65.6546 52.5743 65.2835 52.3399 64.971 52.1837C64.971 52.1837 64.9124 52.1641 64.7952 52.1251C64.678 52.086 64.5804 52.0274 64.5023 51.9493C64.0335 51.793 63.5843 51.6758 63.1546 51.5977C62.7249 51.5196 62.0803 51.4805 61.2209 51.4805C60.5178 51.4805 60.0099 51.5 59.6974 51.5391C59.3849 51.5782 59.1505 51.5977 58.9943 51.5977C58.9161 51.6758 58.8185 51.7344 58.7013 51.7735C58.5841 51.8125 58.4864 51.8321 58.4083 51.8321C58.1739 51.8321 57.7638 52.0079 57.1778 52.3594C56.5918 52.711 56.1426 53.0821 55.8301 53.4728C55.5957 53.629 55.3809 53.8634 55.1856 54.1759C54.9902 54.4884 54.8144 54.7619 54.6582 54.9962C54.6582 55.1525 54.6191 55.2892 54.541 55.4064C54.4629 55.5236 54.3847 55.6603 54.3066 55.8166C54.2285 55.8947 54.1699 56.1877 54.1308 56.6955C54.0918 57.2033 54.0722 58.1213 54.0722 59.4495C54.0722 60.387 54.0527 61.2269 54.0136 61.9691C53.9746 62.7113 53.916 63.1606 53.8379 63.3168C53.7597 63.9418 53.5644 64.3911 53.2519 64.6645C52.9394 64.938 52.5097 65.1528 51.9628 65.3091C51.5722 65.4653 51.2987 65.5434 51.1425 65.5434C50.9862 65.5434 50.7128 65.4653 50.3221 65.3091C50.0877 65.3091 49.8729 65.2505 49.6776 65.1333C49.4823 65.0161 49.3455 64.9184 49.2674 64.8403C49.1111 64.684 48.9549 64.4497 48.7986 64.1371C48.6424 63.8246 48.5252 63.5121 48.4471 63.1996C48.3689 63.1215 48.3299 62.4379 48.3299 61.1488C48.3299 59.8597 48.2908 58.3557 48.2127 56.6369C48.2127 53.9806 48.1931 52.2618 48.1541 51.4805C48.115 50.6992 48.0564 50.2695 47.9783 50.1914C47.9783 50.1133 47.9392 50.0351 47.8611 49.957C47.783 49.8789 47.7439 49.8008 47.7439 49.7226C47.7439 49.7226 47.6658 49.6445 47.5095 49.4883C47.3533 49.332 47.197 49.2148 47.0408 49.1367L46.572 48.7851H39.0718L38.4858 49.1367C38.3296 49.2148 38.1928 49.332 38.0756 49.4883C37.9585 49.6445 37.8608 49.7226 37.7827 49.7226C37.7827 49.8008 37.7436 49.8789 37.6655 49.957C37.5873 50.0351 37.5483 50.1133 37.5483 50.1914C37.4702 50.2695 37.4116 50.5234 37.3725 50.9531C37.3334 51.3828 37.3139 51.754 37.3139 52.0665C37.392 52.379 37.4702 52.5938 37.5483 52.711C37.6264 52.8282 37.7436 53.004 37.8999 53.2384C38.2905 53.629 38.6616 53.8829 39.0132 54.0001C39.3647 54.1173 40.0484 54.1759 41.064 54.1759H42.8219V58.7464C42.8219 60.6995 42.8219 61.9886 42.8219 62.6137C42.8219 63.2387 42.861 63.6684 42.9391 63.9028C43.0172 63.9809 43.0563 64.0981 43.0563 64.2543C43.0563 64.4106 43.0563 64.5278 43.0563 64.6059C43.0563 64.7622 43.0758 64.8989 43.1149 65.0161C43.1539 65.1333 43.2125 65.2309 43.2907 65.3091C43.2907 65.3872 43.3102 65.4653 43.3492 65.5434C43.3883 65.6216 43.4078 65.6606 43.4078 65.6606C43.4078 65.7388 43.4274 65.8364 43.4664 65.9536C43.5055 66.0708 43.5641 66.1685 43.6422 66.2466C43.6422 66.3247 43.6618 66.4028 43.7008 66.481C43.7399 66.5591 43.7985 66.6372 43.8766 66.7154C43.9547 66.9497 44.1891 67.3208 44.5798 67.8287C44.9704 68.3365 45.322 68.7467 45.6345 69.0592C45.947 69.2936 46.1814 69.4693 46.3376 69.5865C46.4939 69.7037 46.7673 69.8405 47.158 69.9967C47.3142 70.0748 47.49 70.153 47.6853 70.2311C47.8806 70.3092 48.0174 70.3873 48.0955 70.4655C48.1736 70.4655 48.2713 70.485 48.3885 70.5241C48.5057 70.5631 48.5643 70.5827 48.5643 70.5827C48.6424 70.5827 48.7596 70.6022 48.9158 70.6413C49.0721 70.6803 49.2283 70.6999 49.3846 70.6999C49.7752 70.8561 50.3612 70.9342 51.1425 70.9342C51.9237 70.9342 52.5097 70.8561 52.9003 70.6999C53.0566 70.6999 53.2128 70.6803 53.3691 70.6413C53.5253 70.6022 53.6425 70.5827 53.7207 70.5827C53.7988 70.5827 53.8769 70.5631 53.955 70.5241C54.0332 70.485 54.1504 70.4655 54.3066 70.4655C54.3847 70.3873 54.5019 70.3092 54.6582 70.2311C54.8144 70.153 54.9707 70.0748 55.127 69.9967C55.5176 69.8405 55.791 69.7037 55.9473 69.5865C56.1035 69.4693 56.3379 69.2936 56.6504 69.0592C56.8848 68.8248 57.1778 68.4928 57.5294 68.0631C57.8809 67.6334 58.0958 67.3013 58.1739 67.0669C58.2521 67.0669 58.3106 67.0279 58.3497 66.9497C58.3888 66.8716 58.4083 66.8325 58.4083 66.8325C58.5646 66.52 58.6818 66.2857 58.7599 66.1294C58.838 65.9731 58.8771 65.8169 58.8771 65.6606C58.8771 65.6606 58.8966 65.6216 58.9357 65.5434C58.9747 65.4653 58.9943 65.3872 58.9943 65.3091C59.0724 65.2309 59.131 65.1333 59.1701 65.0161C59.2091 64.8989 59.2286 64.7622 59.2286 64.6059C59.2286 64.5278 59.2286 64.4106 59.2286 64.2543C59.2286 64.0981 59.2677 64.02 59.3458 64.02C59.424 63.8637 59.463 63.5317 59.463 63.0238C59.463 62.516 59.5021 61.6761 59.5802 60.5042V57.3401L60.049 57.1057C60.2834 56.9494 60.6349 56.8713 61.1037 56.8713C61.5725 56.8713 61.9631 56.9104 62.2756 56.9885C62.51 57.0666 62.7249 57.2033 62.9202 57.3987C63.1155 57.594 63.2132 57.7698 63.2132 57.926C63.2132 58.0041 63.2522 58.1018 63.3303 58.219C63.4085 58.3362 63.4866 58.4729 63.5647 58.6292C63.6428 58.7073 63.721 58.8245 63.7991 58.9807C63.8772 59.137 63.9163 59.2151 63.9163 59.2151C63.9163 59.2151 63.9944 59.3128 64.1507 59.5081C64.3069 59.7034 64.5413 59.9573 64.8538 60.2698C65.1663 60.5824 65.4593 60.8363 65.7328 61.0316C66.0062 61.2269 66.2601 61.4027 66.4945 61.5589C66.7289 61.6371 66.9437 61.7347 67.1391 61.8519C67.3344 61.9691 67.4711 62.0277 67.5492 62.0277L67.9008 62.1449V79.372H34.5013L34.3841 63.5512C34.3841 56.5197 34.4037 52.1055 34.4427 50.3086C34.4818 48.5117 34.5404 47.6132 34.6185 47.6132C34.6185 47.5351 34.638 47.4765 34.6771 47.4374C34.7162 47.3983 34.7357 47.3398 34.7357 47.2616C34.7357 47.1835 34.892 46.9882 35.2045 46.6757C35.517 46.3632 35.8295 46.1288 36.142 45.9725C36.3764 45.8944 37.1576 45.8553 38.4858 45.8553C39.814 45.8553 44.111 45.8163 51.3768 45.7381C57.8614 45.7381 61.9826 45.7577 63.7405 45.7967C65.4984 45.8358 66.4945 45.8944 66.7289 45.9725ZM95.6751 85.3487C95.6751 85.505 95.6751 85.6613 95.6751 85.8175C95.6751 85.9738 95.636 86.091 95.5579 86.1691C95.5579 86.3253 95.5384 86.4816 95.4993 86.6378C95.4602 86.7941 95.4407 86.9113 95.4407 86.9894C95.4407 87.1457 95.4212 87.2824 95.3821 87.3996C95.343 87.5168 95.2845 87.6144 95.2063 87.6926C95.2063 87.6926 95.1868 87.7512 95.1477 87.8684C95.1087 87.9855 95.0891 88.0832 95.0891 88.1613C95.0891 88.2395 95.0696 88.3371 95.0305 88.4543C94.9915 88.5715 94.9329 88.6692 94.8548 88.7473C94.8548 88.8254 94.8352 88.9035 94.7962 88.9817C94.7571 89.0598 94.7376 89.1379 94.7376 89.2161C94.7376 89.2942 94.718 89.3723 94.679 89.4504C94.6399 89.5286 94.6204 89.5676 94.6204 89.5676C94.5422 89.6458 94.4837 89.7043 94.4446 89.7434C94.4055 89.7825 94.386 89.8411 94.386 89.9192C94.386 89.9192 94.3469 89.9973 94.2688 90.1536C94.1907 90.3098 94.1125 90.4661 94.0344 90.6223C93.2531 92.1068 92.1984 93.4935 90.8703 94.7826C89.5421 96.0717 88.1358 97.146 86.6514 98.0054C86.3389 98.1616 85.7724 98.4351 84.9521 98.8257C84.1318 99.2164 83.6044 99.4898 83.37 99.6461C83.2919 99.6461 83.1747 99.6851 83.0184 99.7633C82.8622 99.8414 82.7059 99.8804 82.5497 99.8804C82.4716 99.9586 82.3544 100.037 82.1981 100.115C82.0419 100.193 81.9247 100.232 81.8465 100.232C81.7684 100.31 81.6708 100.369 81.5536 100.408C81.4364 100.447 81.3778 100.466 81.3778 100.466C81.2996 100.466 81.2215 100.466 81.1434 100.466C81.0653 100.466 80.9871 100.505 80.909 100.584C80.8309 100.662 80.7528 100.701 80.6746 100.701C80.5965 100.701 80.5184 100.701 80.4402 100.701C80.3621 100.701 80.2645 100.72 80.1473 100.759C80.0301 100.798 79.9715 100.857 79.9715 100.935C79.8934 100.935 79.7957 100.955 79.6785 100.994C79.5613 101.033 79.4637 101.052 79.3855 101.052C79.3074 101.052 79.2293 101.072 79.1511 101.111C79.073 101.15 78.9949 101.209 78.9168 101.287C78.8386 101.287 78.7214 101.306 78.5652 101.345C78.4089 101.384 78.2917 101.404 78.2136 101.404C78.1355 101.404 78.0378 101.423 77.9206 101.463C77.8034 101.502 77.7058 101.56 77.6277 101.638C77.6277 101.638 77.5691 101.658 77.4519 101.697C77.3347 101.736 77.198 101.756 77.0417 101.756C76.9636 101.756 76.8659 101.775 76.7487 101.814C76.6315 101.853 76.5339 101.873 76.4557 101.873C76.3776 101.951 76.2604 102.009 76.1042 102.048C75.9479 102.088 75.8307 102.107 75.7526 102.107C75.5963 102.107 75.4596 102.127 75.3424 102.166C75.2252 102.205 75.1276 102.224 75.0495 102.224C74.9713 102.302 74.8541 102.361 74.6979 102.4C74.5416 102.439 74.3854 102.459 74.2291 102.459C74.151 102.459 74.0338 102.478 73.8775 102.517C73.7213 102.556 73.565 102.576 73.4088 102.576C73.3307 102.654 73.2135 102.713 73.0572 102.752C72.9009 102.791 72.7447 102.81 72.5884 102.81C72.5103 102.81 72.3736 102.81 72.1783 102.81C71.9829 102.81 71.8462 102.849 71.7681 102.927C71.6118 103.006 71.4556 103.045 71.2993 103.045C71.1431 103.045 70.9868 103.045 70.8306 103.045C70.6743 103.045 70.4985 103.064 70.3032 103.103C70.1079 103.142 69.9321 103.201 69.7758 103.279C69.6196 103.279 69.4047 103.299 69.1313 103.338C68.8579 103.377 68.5649 103.435 68.2524 103.513C68.018 103.513 67.7836 103.533 67.5492 103.572C67.3148 103.611 67.1976 103.631 67.1976 103.631C67.1195 103.709 66.9633 103.748 66.7289 103.748C66.4945 103.748 66.2211 103.748 65.9085 103.748C65.6742 103.748 65.3812 103.767 65.0296 103.806C64.678 103.845 64.4241 103.904 64.2679 103.982C64.1116 103.982 63.8382 104.002 63.4475 104.041C63.0569 104.08 62.6663 104.099 62.2756 104.099C61.9631 104.099 61.5725 104.119 61.1037 104.158C60.6349 104.197 60.2052 104.256 59.8146 104.334C59.424 104.334 58.6232 104.353 57.4122 104.392C56.2012 104.431 54.1113 104.451 51.1425 104.451C48.1736 104.451 46.1032 104.431 44.9313 104.392C43.7594 104.353 42.9391 104.334 42.4703 104.334C42.1578 104.256 41.7672 104.197 41.2984 104.158C40.8296 104.119 40.3999 104.099 40.0093 104.099C39.6968 104.099 39.3452 104.08 38.9546 104.041C38.5639 104.002 38.2514 103.982 38.0171 103.982C37.7827 103.904 37.5092 103.845 37.1967 103.806C36.8842 103.767 36.5717 103.748 36.2592 103.748C36.0248 103.748 35.7904 103.748 35.556 103.748C35.3217 103.748 35.2045 103.709 35.2045 103.631C35.1263 103.631 34.9701 103.611 34.7357 103.572C34.5013 103.533 34.2669 103.513 34.0326 103.513C33.7982 103.435 33.5247 103.377 33.2122 103.338C32.8997 103.299 32.6653 103.279 32.5091 103.279C32.4309 103.201 32.2747 103.142 32.0403 103.103C31.8059 103.064 31.6106 103.045 31.4543 103.045C31.2981 103.045 31.1418 103.045 30.9856 103.045C30.8293 103.045 30.6731 103.006 30.5168 102.927C30.4387 102.849 30.3215 102.81 30.1652 102.81C30.009 102.81 29.8527 102.81 29.6965 102.81C29.5402 102.81 29.384 102.791 29.2277 102.752C29.0715 102.713 28.9543 102.654 28.8761 102.576C28.7199 102.576 28.5636 102.556 28.4074 102.517C28.2511 102.478 28.1339 102.459 28.0558 102.459C27.8995 102.459 27.7628 102.439 27.6456 102.4C27.5284 102.361 27.3917 102.302 27.2355 102.224C27.1573 102.224 27.0597 102.205 26.9425 102.166C26.8253 102.127 26.6886 102.107 26.5323 102.107C26.4542 102.107 26.3565 102.088 26.2393 102.048C26.1222 102.009 26.0245 101.951 25.9464 101.873C25.8682 101.873 25.751 101.853 25.5948 101.814C25.4385 101.775 25.3213 101.756 25.2432 101.756C25.1651 101.756 25.0479 101.736 24.8916 101.697C24.7354 101.658 24.6573 101.638 24.6573 101.638C24.5791 101.56 24.4815 101.502 24.3643 101.463C24.2471 101.423 24.1494 101.404 24.0713 101.404C23.9932 101.404 23.8955 101.384 23.7783 101.345C23.6611 101.306 23.5635 101.287 23.4853 101.287C23.4072 101.209 23.3096 101.15 23.1924 101.111C23.0752 101.072 22.9775 101.052 22.8994 101.052C22.8213 101.052 22.7431 101.052 22.665 101.052C22.5869 101.052 22.5088 101.013 22.4306 100.935C22.4306 100.935 22.372 100.916 22.2548 100.877C22.1377 100.838 22.04 100.779 21.9619 100.701C21.7275 100.701 21.4736 100.642 21.2001 100.525C20.9267 100.408 20.6728 100.31 20.4384 100.232C20.3603 100.154 20.2431 100.095 20.0868 100.056C19.9306 100.017 19.8134 99.9586 19.7352 99.8804C19.0321 99.6461 18.1336 99.2554 17.0398 98.7085C15.9461 98.1616 15.1257 97.6929 14.5788 97.3022C13.6413 96.6772 12.6452 95.8764 11.5905 94.8998C10.5357 93.9232 9.73492 93.0443 9.18803 92.263C8.7974 91.638 8.48489 91.1106 8.2505 90.6809C8.01612 90.2512 7.89893 89.9973 7.89893 89.9192C7.89893 89.8411 7.8794 89.7825 7.84033 89.7434C7.80127 89.7043 7.78174 89.6458 7.78174 89.5676C7.70361 89.5676 7.64502 89.5286 7.60595 89.4504C7.56689 89.3723 7.54736 89.2942 7.54736 89.2161C7.54736 89.1379 7.52782 89.0598 7.48876 88.9817C7.4497 88.9035 7.43016 88.8254 7.43016 88.7473C7.35204 88.6692 7.29344 88.5715 7.25438 88.4543C7.21531 88.3371 7.19578 88.2395 7.19578 88.1613C7.19578 88.0832 7.19578 87.9855 7.19578 87.8684C7.19578 87.7512 7.15672 87.6926 7.07859 87.6926C7.00046 87.6144 6.9614 87.5168 6.9614 87.3996C6.9614 87.2824 6.9614 87.1457 6.9614 86.9894C6.9614 86.9113 6.94187 86.7941 6.9028 86.6378C6.86374 86.4816 6.80515 86.3253 6.72702 86.1691C6.64889 86.0128 6.59029 85.798 6.55123 85.5245C6.51217 85.2511 6.5317 85.0753 6.60983 84.9972C6.60983 84.9972 7.8208 84.9581 10.2428 84.88C12.5866 84.88 15.7703 84.88 19.7938 84.88C23.8174 84.88 28.5246 84.88 33.9154 84.88C39.3062 84.88 45.0485 84.88 51.1425 84.88L95.6751 84.9972V85.3487ZM33.7982 109.021C33.9544 109.021 34.1693 109.041 34.4427 109.08C34.7162 109.119 34.931 109.139 35.0873 109.139C35.3217 109.139 35.556 109.158 35.7904 109.197C36.0248 109.236 36.2201 109.256 36.3764 109.256C36.5326 109.256 36.8256 109.275 37.2553 109.314C37.685 109.353 38.1733 109.412 38.7202 109.49C39.189 109.49 39.6577 109.51 40.1265 109.549C40.5953 109.588 40.9078 109.646 41.064 109.725C41.2984 109.803 42.4313 109.842 44.4626 109.842C46.4939 109.842 48.7205 109.842 51.1425 109.842C53.5644 109.842 55.791 109.842 57.8224 109.842C59.8537 109.842 60.9865 109.803 61.2209 109.725C61.3772 109.646 61.6897 109.588 62.1584 109.549C62.6272 109.51 63.135 109.49 63.6819 109.49C64.1507 109.412 64.5999 109.353 65.0296 109.314C65.4593 109.275 65.7523 109.256 65.9085 109.256C66.0648 109.256 66.2796 109.236 66.5531 109.197C66.8265 109.158 67.0805 109.139 67.3148 109.139C67.4711 109.139 67.6469 109.119 67.8422 109.08C68.0375 109.041 68.2133 109.021 68.3696 109.021C68.5258 108.943 68.975 108.865 69.7173 108.787C70.4595 108.709 70.8696 108.709 70.9478 108.787C71.0259 108.787 71.0845 108.943 71.1236 109.256C71.1626 109.568 71.1821 110.193 71.1821 111.131C71.1821 112.381 71.1431 113.143 71.065 113.416C70.9868 113.689 70.7915 113.826 70.479 113.826C70.4009 113.826 70.2837 113.846 70.1274 113.885C69.9712 113.924 69.854 113.943 69.7758 113.943C69.6977 114.022 69.561 114.08 69.3657 114.119C69.1704 114.158 69.0336 114.178 68.9555 114.178C68.7993 114.178 68.6625 114.197 68.5453 114.236C68.4282 114.275 68.3305 114.295 68.2524 114.295C68.1742 114.373 68.0571 114.432 67.9008 114.471C67.7445 114.51 67.5883 114.529 67.432 114.529C67.2758 114.529 67.0805 114.549 66.8461 114.588C66.6117 114.627 66.4554 114.647 66.3773 114.647C66.2211 114.725 66.0257 114.783 65.7914 114.822C65.557 114.861 65.3226 114.881 65.0882 114.881C64.932 114.881 64.7171 114.881 64.4437 114.881C64.1702 114.881 63.9554 114.92 63.7991 114.998C63.6428 115.076 63.428 115.115 63.1546 115.115C62.8811 115.115 62.5881 115.115 62.2756 115.115C61.9631 115.115 61.6701 115.135 61.3967 115.174C61.1232 115.213 60.9474 115.272 60.8693 115.35C60.5568 115.35 59.2286 115.408 56.8848 115.525C54.541 115.643 52.6269 115.701 51.1425 115.701C49.658 115.701 47.7439 115.643 45.4001 115.525C43.0563 115.408 41.7672 115.35 41.5328 115.35C41.3765 115.272 41.1617 115.213 40.8882 115.174C40.6148 115.135 40.3218 115.115 40.0093 115.115C39.6968 115.115 39.4038 115.115 39.1304 115.115C38.8569 115.115 38.6421 115.076 38.4858 114.998C38.3296 114.92 38.1147 114.881 37.8413 114.881C37.5678 114.881 37.353 114.881 37.1967 114.881C36.9623 114.881 36.7279 114.861 36.4936 114.822C36.2592 114.783 36.0639 114.725 35.9076 114.647C35.8295 114.647 35.6732 114.627 35.4388 114.588C35.2045 114.549 35.0091 114.529 34.8529 114.529C34.6966 114.529 34.5404 114.51 34.3841 114.471C34.2279 114.432 34.1107 114.373 34.0326 114.295C33.9544 114.295 33.8568 114.275 33.7396 114.236C33.6224 114.197 33.4857 114.178 33.3294 114.178C33.2513 114.178 33.1341 114.158 32.9778 114.119C32.8216 114.08 32.6653 114.022 32.5091 113.943C32.4309 113.943 32.3137 113.924 32.1575 113.885C32.0012 113.846 31.884 113.826 31.8059 113.826C31.7278 113.826 31.6497 113.807 31.5715 113.768C31.4934 113.729 31.4153 113.67 31.3372 113.592C31.259 113.514 31.2004 113.357 31.1614 113.123C31.1223 112.889 31.1028 112.225 31.1028 111.131C31.1028 110.271 31.1223 109.666 31.1614 109.314C31.2004 108.963 31.259 108.787 31.3372 108.787C31.4153 108.709 31.7473 108.709 32.3333 108.787C32.9192 108.865 33.4075 108.943 33.7982 109.021Z" fill="#F7A392"/>
</g>
<defs>
<clipPath id="clip0_1_125">
<rect width="100.55" height="121" fill="white" transform="matrix(1 0 0 -1 0.970001 121.59)"/>
</clipPath>
</defs>
</svg>
