<svg width="38" height="38" viewBox="0 0 38 38" fill="none" xmlns="http://www.w3.org/2000/svg">
<rect x="0.330017" y="0.47998" width="37" height="37" rx="18.5" fill="#F7A392"/>
<g clip-path="url(#clip0_1_197)">
<path d="M14.8441 25.968C14.4601 25.464 14.1301 25.008 13.8541 24.6C12.6421 22.896 11.6581 21.258 10.9021 19.686C10.6621 19.182 10.4761 18.75 10.3441 18.39C10.1641 17.91 10.0321 17.46 9.94815 17.04C9.60015 15.276 10.0141 13.734 11.1901 12.414C12.3061 11.142 13.7401 10.542 15.4921 10.614C16.2721 10.638 17.0101 10.839 17.7061 11.217C18.4021 11.595 18.9901 12.102 19.4701 12.738C19.9501 13.374 20.2681 14.076 20.4241 14.844C20.6161 15.792 20.5621 16.734 20.2621 17.67C19.7461 19.29 18.8881 21.018 17.6881 22.854C17.3401 23.394 16.7941 24.186 16.0501 25.23L15.2941 26.292C15.2701 26.316 15.2521 26.337 15.2401 26.355C15.2281 26.373 15.1831 26.346 15.1051 26.274C15.0271 26.202 14.9401 26.1 14.8441 25.968ZM17.8141 16.032C17.8261 15.588 17.7271 15.165 17.5171 14.763C17.3071 14.361 17.0131 14.031 16.6351 13.773C16.2571 13.515 15.8461 13.374 15.4021 13.35C14.8981 13.326 14.4331 13.419 14.0071 13.629C13.5811 13.839 13.2421 14.142 12.9901 14.538C12.7381 14.934 12.6001 15.39 12.5761 15.906C12.5521 16.35 12.6511 16.773 12.8731 17.175C13.0951 17.577 13.3981 17.907 13.7821 18.165C14.1661 18.423 14.5801 18.558 15.0241 18.57C15.5161 18.594 15.9721 18.501 16.3921 18.291C16.8121 18.081 17.1481 17.778 17.4001 17.382C17.6521 16.986 17.7901 16.536 17.8141 16.032Z" fill="white"/>
</g>
<defs>
<clipPath id="clip0_1_197">
<rect width="18" height="18" fill="white" transform="matrix(1 0 0 -1 9.83002 27.48)"/>
</clipPath>
</defs>
</svg>
