<svg width="49" height="50" viewBox="0 0 49 50" fill="none" xmlns="http://www.w3.org/2000/svg">
<rect y="0.669922" width="49" height="49" rx="24.5" fill="#F7A392"/>
<g clip-path="url(#clip0_1_404)">
<path d="M20.0123 22.3177C19.639 22.531 19.431 22.899 19.3883 23.4217C19.3456 23.9017 19.4363 24.4403 19.6603 25.0377C19.8843 25.635 20.183 26.179 20.5563 26.6697C20.9616 27.1817 21.3776 27.539 21.8043 27.7417C22.2843 27.9657 22.727 27.9603 23.1323 27.7257L25.0843 31.1017C24.7323 31.3043 24.4443 31.4483 24.2203 31.5337C23.9216 31.6403 23.6336 31.683 23.3563 31.6617C23.047 31.651 22.7323 31.5497 22.4123 31.3577C21.4843 30.8243 20.5403 29.9283 19.5803 28.6697C18.663 27.4643 17.9163 26.1683 17.3403 24.7817C16.743 23.331 16.4603 22.0777 16.4923 21.0217C16.503 20.659 16.5776 20.3497 16.7163 20.0937C16.8443 19.859 17.031 19.6457 17.2763 19.4537C17.447 19.3043 17.7083 19.1337 18.0603 18.9417L18.3003 19.3577C19.2283 20.9683 19.799 21.955 20.0123 22.3177ZM20.8123 22.2377C20.7056 22.291 20.5936 22.3043 20.4763 22.2777C20.359 22.251 20.2736 22.1843 20.2203 22.0777L18.3803 18.8777C18.3163 18.771 18.3003 18.6617 18.3323 18.5497C18.3643 18.4377 18.4336 18.3497 18.5403 18.2857L19.5003 17.7257C19.607 17.6723 19.719 17.659 19.8363 17.6857C19.9536 17.7123 20.0443 17.779 20.1083 17.8857L21.9483 21.0697C22.0016 21.1763 22.015 21.2883 21.9883 21.4057C21.9616 21.523 21.895 21.6137 21.7883 21.6777L20.8123 22.2377ZM25.8523 30.9417C25.7456 31.0057 25.6336 31.0217 25.5163 30.9897C25.399 30.9577 25.3083 30.8883 25.2443 30.7817L23.4043 27.5977C23.351 27.491 23.3376 27.379 23.3643 27.2617C23.391 27.1443 23.4576 27.0537 23.5643 26.9897L24.5403 26.4457C24.647 26.3817 24.7563 26.3657 24.8683 26.3977C24.9803 26.4297 25.0683 26.499 25.1323 26.6057L26.9723 29.7897C27.0363 29.8963 27.0523 30.0083 27.0203 30.1257C26.9883 30.243 26.919 30.3283 26.8123 30.3817L25.8523 30.9417Z" fill="white"/>
</g>
<defs>
<clipPath id="clip0_1_404">
<rect width="16.02" height="16" fill="white" transform="matrix(1 0 0 -1 16.48 32.6699)"/>
</clipPath>
</defs>
</svg>
