<svg width="25" height="26" viewBox="0 0 25 26" fill="none" xmlns="http://www.w3.org/2000/svg">
<rect y="0.5" width="25" height="25" rx="12.5" fill="#F7A392"/>
<g clip-path="url(#clip0_1_49)">
<path d="M16.112 13.648H10.526C10.4793 13.648 10.435 13.634 10.393 13.606C10.351 13.578 10.3207 13.5454 10.302 13.508L7.74 7.64205C7.73067 7.60471 7.705 7.57205 7.663 7.54405C7.621 7.51605 7.57667 7.50205 7.53 7.50205H5.654C5.61667 7.50205 5.58167 7.51605 5.549 7.54405C5.51633 7.57205 5.5 7.60938 5.5 7.65605V8.11805C5.5 8.15538 5.51633 8.19038 5.549 8.22305C5.58167 8.25571 5.61667 8.27205 5.654 8.27205H7.026C7.07267 8.27205 7.117 8.28605 7.159 8.31405C7.201 8.34205 7.22667 8.37471 7.236 8.41205L9.812 14.278C9.82133 14.3154 9.847 14.348 9.889 14.376C9.931 14.404 9.97533 14.418 10.022 14.418H16.112C16.1587 14.418 16.196 14.4017 16.224 14.369C16.252 14.3364 16.266 14.3014 16.266 14.264V13.802C16.266 13.7554 16.252 13.718 16.224 13.69C16.196 13.662 16.1587 13.648 16.112 13.648ZM11.268 15.188C10.9507 15.188 10.68 15.3 10.456 15.524C10.232 15.748 10.12 16.0187 10.12 16.336C10.12 16.6534 10.232 16.9264 10.456 17.155C10.68 17.3837 10.9507 17.498 11.268 17.498C11.5853 17.498 11.8583 17.3837 12.087 17.155C12.3157 16.9264 12.43 16.6534 12.43 16.336C12.43 16.0187 12.318 15.748 12.094 15.524C11.87 15.3 11.5947 15.188 11.268 15.188ZM15.118 15.188C14.8007 15.188 14.5277 15.3 14.299 15.524C14.0703 15.748 13.956 16.0187 13.956 16.336C13.956 16.6534 14.0703 16.9264 14.299 17.155C14.5277 17.3837 14.8007 17.498 15.118 17.498C15.4353 17.498 15.706 17.386 15.93 17.162C16.154 16.938 16.266 16.665 16.266 16.343C16.266 16.021 16.154 15.748 15.93 15.524C15.706 15.3 15.4353 15.188 15.118 15.188ZM17.652 9.04205H9.504C9.45733 9.04205 9.427 9.05605 9.413 9.08405C9.399 9.11205 9.39667 9.14471 9.406 9.18205L9.602 9.67205C9.62067 9.70938 9.651 9.74205 9.693 9.77005C9.735 9.79805 9.77467 9.81205 9.812 9.81205H17.344C17.3813 9.81205 17.421 9.79805 17.463 9.77005C17.505 9.74205 17.5353 9.70938 17.554 9.67205L17.75 9.18205C17.7593 9.14471 17.757 9.11205 17.743 9.08405C17.729 9.05605 17.6987 9.04205 17.652 9.04205ZM16.42 12.108H10.736C10.6987 12.108 10.6683 12.122 10.645 12.15C10.6217 12.178 10.6193 12.2107 10.638 12.248L10.834 12.738C10.8433 12.7754 10.869 12.808 10.911 12.836C10.953 12.864 10.9973 12.878 11.044 12.878H16.112C16.1587 12.878 16.203 12.864 16.245 12.836C16.287 12.808 16.3127 12.7754 16.322 12.738L16.518 12.248C16.5367 12.2107 16.5343 12.178 16.511 12.15C16.4877 12.122 16.4573 12.108 16.42 12.108ZM17.036 10.568H10.12C10.0827 10.568 10.0523 10.582 10.029 10.61C10.0057 10.638 10.0033 10.6707 10.022 10.708L10.218 11.198C10.2273 11.2354 10.253 11.268 10.295 11.296C10.337 11.324 10.3813 11.338 10.428 11.338H16.728C16.7747 11.338 16.819 11.324 16.861 11.296C16.903 11.268 16.9287 11.2354 16.938 11.198L17.134 10.708C17.1527 10.6707 17.1503 10.638 17.127 10.61C17.1037 10.582 17.0733 10.568 17.036 10.568Z" fill="white"/>
</g>
<defs>
<clipPath id="clip0_1_49">
<rect width="14" height="14" fill="white" transform="matrix(1 0 0 -1 5.5 19.5)"/>
</clipPath>
</defs>
</svg>
