<svg width="26" height="26" viewBox="0 0 26 26" fill="none" xmlns="http://www.w3.org/2000/svg">
<rect x="0.5" y="0.580078" width="25" height="25" rx="12.5" fill="white"/>
<g clip-path="url(#clip0_1_182)">
<path d="M15.45 7.72224C15.45 7.54491 15.4477 7.37458 15.443 7.21124C15.4383 7.04791 15.3893 6.90091 15.296 6.77024C15.2027 6.63958 15.0767 6.54858 14.918 6.49724C14.7593 6.44591 14.6007 6.44357 14.442 6.49024C14.2833 6.53691 14.1527 6.62558 14.05 6.75624C13.938 6.90557 13.882 7.07358 13.882 7.26024V7.72224C13.882 7.75957 13.8703 7.78991 13.847 7.81324C13.8237 7.83658 13.7933 7.84824 13.756 7.84824H12.93C12.8927 7.84824 12.86 7.83658 12.832 7.81324C12.804 7.78991 12.79 7.75957 12.79 7.72224V7.56824C12.7993 7.42824 12.7993 7.32557 12.79 7.26024C12.79 7.08291 12.748 6.92657 12.664 6.79124C12.58 6.65591 12.4563 6.56024 12.293 6.50424C12.1297 6.44824 11.9663 6.44357 11.803 6.49024C11.6397 6.53691 11.5043 6.62324 11.397 6.74924C11.2897 6.87524 11.236 7.02691 11.236 7.20424V7.72224C11.236 7.75957 11.222 7.78991 11.194 7.81324C11.166 7.83658 11.1333 7.84824 11.096 7.84824H10.256C10.2187 7.84824 10.186 7.83658 10.158 7.81324C10.13 7.78991 10.116 7.75957 10.116 7.72224V7.70824C10.1347 7.42824 10.137 7.22058 10.123 7.08524C10.109 6.94991 10.0553 6.82858 9.962 6.72124C9.86867 6.61391 9.752 6.53691 9.612 6.49024C9.332 6.40624 9.07533 6.45757 8.842 6.64424C8.66467 6.78424 8.576 6.99891 8.576 7.28824V7.72224C8.576 7.75957 8.56433 7.79224 8.541 7.82024C8.51767 7.84824 8.48267 7.86224 8.436 7.86224H6.14C6.10267 7.86224 6.07 7.87391 6.042 7.89724C6.014 7.92058 6 7.95091 6 7.98824V18.5722C6 18.6096 6.014 18.6399 6.042 18.6632C6.07 18.6866 6.10267 18.6982 6.14 18.6982H18.068C18.1053 18.6982 18.138 18.6866 18.166 18.6632C18.194 18.6399 18.208 18.6096 18.208 18.5722V7.98824C18.208 7.95091 18.194 7.92058 18.166 7.89724C18.138 7.87391 18.1053 7.86224 18.068 7.86224H15.576C15.5387 7.86224 15.5083 7.84824 15.485 7.82024C15.4617 7.79224 15.45 7.75957 15.45 7.72224ZM9.668 18.1802H6.672C6.63467 18.1802 6.602 18.1686 6.574 18.1452C6.546 18.1219 6.532 18.0916 6.532 18.0542V15.9542C6.532 15.9169 6.546 15.8866 6.574 15.8632C6.602 15.8399 6.63467 15.8282 6.672 15.8282H9.668C9.70533 15.8282 9.73567 15.8399 9.759 15.8632C9.78233 15.8866 9.794 15.9169 9.794 15.9542V18.0542C9.794 18.0916 9.78233 18.1219 9.759 18.1452C9.73567 18.1686 9.70533 18.1802 9.668 18.1802ZM9.668 15.2822H6.672C6.63467 15.2822 6.602 15.2706 6.574 15.2472C6.546 15.2239 6.532 15.1936 6.532 15.1562V12.9442C6.532 12.9069 6.546 12.8766 6.574 12.8532C6.602 12.8299 6.63467 12.8182 6.672 12.8182H9.668C9.70533 12.8182 9.73567 12.8299 9.759 12.8532C9.78233 12.8766 9.794 12.9069 9.794 12.9442V15.1562C9.794 15.1936 9.78233 15.2239 9.759 15.2472C9.73567 15.2706 9.70533 15.2822 9.668 15.2822ZM9.668 12.2722H6.672C6.63467 12.2722 6.602 12.2606 6.574 12.2372C6.546 12.2139 6.532 12.1836 6.532 12.1462V10.0182C6.532 9.98091 6.546 9.95057 6.574 9.92724C6.602 9.90391 6.63467 9.89224 6.672 9.89224H9.668C9.70533 9.89224 9.73567 9.90391 9.759 9.92724C9.78233 9.95057 9.794 9.98091 9.794 10.0182V12.1462C9.794 12.1836 9.78233 12.2139 9.759 12.2372C9.73567 12.2606 9.70533 12.2722 9.668 12.2722ZM13.658 18.1802H10.48C10.4427 18.1802 10.4123 18.1686 10.389 18.1452C10.3657 18.1219 10.354 18.0916 10.354 18.0542V15.9682C10.354 15.9309 10.3657 15.8982 10.389 15.8702C10.4123 15.8422 10.4427 15.8282 10.48 15.8282H13.658C13.6953 15.8282 13.7257 15.8422 13.749 15.8702C13.7723 15.8982 13.784 15.9309 13.784 15.9682V18.0542C13.784 18.0916 13.7723 18.1219 13.749 18.1452C13.7257 18.1686 13.6953 18.1802 13.658 18.1802ZM13.798 15.2122C13.7887 15.2309 13.7723 15.2496 13.749 15.2682C13.7257 15.2869 13.6953 15.2962 13.658 15.2962H10.48C10.4427 15.2962 10.4123 15.2822 10.389 15.2542C10.3657 15.2262 10.354 15.1936 10.354 15.1562V12.9442C10.354 12.8696 10.3773 12.8229 10.424 12.8042H13.63C13.6953 12.8042 13.7397 12.8136 13.763 12.8322C13.7863 12.8509 13.798 12.8929 13.798 12.9582V15.2122ZM13.798 12.2022C13.798 12.2489 13.7513 12.2722 13.658 12.2722H10.48C10.4427 12.2722 10.4123 12.2606 10.389 12.2372C10.3657 12.2139 10.354 12.1836 10.354 12.1462V10.0182C10.354 9.98091 10.361 9.94824 10.375 9.92024C10.389 9.89224 10.4053 9.87824 10.424 9.87824H13.63C13.6953 9.87824 13.7397 9.88991 13.763 9.91324C13.7863 9.93657 13.798 9.98091 13.798 10.0462V12.2022ZM14.47 12.8182H17.536C17.5733 12.8182 17.6037 12.8299 17.627 12.8532C17.6503 12.8766 17.662 12.9069 17.662 12.9442V15.1562C17.662 15.1936 17.6503 15.2262 17.627 15.2542C17.6037 15.2822 17.5733 15.2962 17.536 15.2962H14.47C14.4327 15.2962 14.4 15.2822 14.372 15.2542C14.344 15.2262 14.33 15.1936 14.33 15.1562V12.9442C14.33 12.9069 14.344 12.8766 14.372 12.8532C14.4 12.8299 14.4327 12.8182 14.47 12.8182ZM17.536 18.1802H14.47C14.4327 18.1802 14.4 18.1686 14.372 18.1452C14.344 18.1219 14.33 18.0916 14.33 18.0542V15.9682C14.33 15.9216 14.344 15.8866 14.372 15.8632C14.4 15.8399 14.4327 15.8282 14.47 15.8282H17.536C17.5733 15.8282 17.6037 15.8422 17.627 15.8702C17.6503 15.8982 17.662 15.9309 17.662 15.9682V18.0542C17.6713 18.0916 17.662 18.1219 17.634 18.1452C17.606 18.1686 17.5733 18.1802 17.536 18.1802ZM17.536 12.2722H14.47C14.4327 12.2722 14.4 12.2606 14.372 12.2372C14.344 12.2139 14.33 12.1836 14.33 12.1462V10.0182C14.33 9.98091 14.344 9.95057 14.372 9.92724C14.4 9.90391 14.4327 9.89224 14.47 9.89224H17.536C17.5733 9.89224 17.6037 9.90391 17.627 9.92724C17.6503 9.95057 17.662 9.98091 17.662 10.0182V12.1462C17.6713 12.1836 17.662 12.2139 17.634 12.2372C17.606 12.2606 17.5733 12.2722 17.536 12.2722Z" fill="#F7A392"/>
</g>
<defs>
<clipPath id="clip0_1_182">
<rect width="14" height="14" fill="white" transform="matrix(1 0 0 -1 6 19.5801)"/>
</clipPath>
</defs>
</svg>
