<svg width="26" height="26" viewBox="0 0 26 26" fill="none" xmlns="http://www.w3.org/2000/svg">
<rect x="0.5" y="0.800049" width="25" height="25" rx="12.5" fill="#F7A392"/>
<g clip-path="url(#clip0_1_58)">
<path d="M16.612 13.9481H11.026C10.9793 13.9481 10.935 13.9341 10.893 13.9061C10.851 13.8781 10.8207 13.8454 10.802 13.8081L8.24 7.9421C8.23067 7.90476 8.205 7.8721 8.163 7.8441C8.121 7.8161 8.07667 7.8021 8.03 7.8021H6.154C6.11667 7.8021 6.08167 7.8161 6.049 7.8441C6.01633 7.8721 6 7.90943 6 7.9561V8.4181C6 8.45543 6.01633 8.49043 6.049 8.5231C6.08167 8.55576 6.11667 8.5721 6.154 8.5721H7.526C7.57267 8.5721 7.617 8.5861 7.659 8.6141C7.701 8.6421 7.72667 8.67476 7.736 8.7121L10.312 14.5781C10.3213 14.6154 10.347 14.6481 10.389 14.6761C10.431 14.7041 10.4753 14.7181 10.522 14.7181H16.612C16.6587 14.7181 16.696 14.7018 16.724 14.6691C16.752 14.6364 16.766 14.6014 16.766 14.5641V14.1021C16.766 14.0554 16.752 14.0181 16.724 13.9901C16.696 13.9621 16.6587 13.9481 16.612 13.9481ZM11.768 15.4881C11.4507 15.4881 11.18 15.6001 10.956 15.8241C10.732 16.0481 10.62 16.3188 10.62 16.6361C10.62 16.9534 10.732 17.2264 10.956 17.4551C11.18 17.6838 11.4507 17.7981 11.768 17.7981C12.0853 17.7981 12.3583 17.6838 12.587 17.4551C12.8157 17.2264 12.93 16.9534 12.93 16.6361C12.93 16.3188 12.818 16.0481 12.594 15.8241C12.37 15.6001 12.0947 15.4881 11.768 15.4881ZM15.618 15.4881C15.3007 15.4881 15.0277 15.6001 14.799 15.8241C14.5703 16.0481 14.456 16.3188 14.456 16.6361C14.456 16.9534 14.5703 17.2264 14.799 17.4551C15.0277 17.6838 15.3007 17.7981 15.618 17.7981C15.9353 17.7981 16.206 17.6861 16.43 17.4621C16.654 17.2381 16.766 16.9651 16.766 16.6431C16.766 16.3211 16.654 16.0481 16.43 15.8241C16.206 15.6001 15.9353 15.4881 15.618 15.4881ZM18.152 9.3421H10.004C9.95733 9.3421 9.927 9.3561 9.913 9.3841C9.899 9.4121 9.89667 9.44476 9.906 9.4821L10.102 9.9721C10.1207 10.0094 10.151 10.0421 10.193 10.0701C10.235 10.0981 10.2747 10.1121 10.312 10.1121H17.844C17.8813 10.1121 17.921 10.0981 17.963 10.0701C18.005 10.0421 18.0353 10.0094 18.054 9.9721L18.25 9.4821C18.2593 9.44476 18.257 9.4121 18.243 9.3841C18.229 9.3561 18.1987 9.3421 18.152 9.3421ZM16.92 12.4081H11.236C11.1987 12.4081 11.1683 12.4221 11.145 12.4501C11.1217 12.4781 11.1193 12.5108 11.138 12.5481L11.334 13.0381C11.3433 13.0754 11.369 13.1081 11.411 13.1361C11.453 13.1641 11.4973 13.1781 11.544 13.1781H16.612C16.6587 13.1781 16.703 13.1641 16.745 13.1361C16.787 13.1081 16.8127 13.0754 16.822 13.0381L17.018 12.5481C17.0367 12.5108 17.0343 12.4781 17.011 12.4501C16.9877 12.4221 16.9573 12.4081 16.92 12.4081ZM17.536 10.8681H10.62C10.5827 10.8681 10.5523 10.8821 10.529 10.9101C10.5057 10.9381 10.5033 10.9708 10.522 11.0081L10.718 11.4981C10.7273 11.5354 10.753 11.5681 10.795 11.5961C10.837 11.6241 10.8813 11.6381 10.928 11.6381H17.228C17.2747 11.6381 17.319 11.6241 17.361 11.5961C17.403 11.5681 17.4287 11.5354 17.438 11.4981L17.634 11.0081C17.6527 10.9708 17.6503 10.9381 17.627 10.9101C17.6037 10.8821 17.5733 10.8681 17.536 10.8681Z" fill="white"/>
</g>
<defs>
<clipPath id="clip0_1_58">
<rect width="14" height="14" fill="white" transform="matrix(1 0 0 -1 6 19.8)"/>
</clipPath>
</defs>
</svg>
