<svg width="36" height="35" viewBox="0 0 36 35" fill="none" xmlns="http://www.w3.org/2000/svg">
<rect x="0.5" width="35" height="35" rx="17.5" fill="#F7A392"/>
<g clip-path="url(#clip0_1_28)">
<path d="M22.118 18.312H15.734C15.6807 18.312 15.63 18.296 15.582 18.264C15.534 18.232 15.4994 18.1947 15.478 18.152L12.55 11.448C12.5394 11.4054 12.51 11.368 12.462 11.336C12.414 11.304 12.3634 11.288 12.31 11.288H10.166C10.1234 11.288 10.0834 11.304 10.046 11.336C10.0087 11.368 9.99002 11.4107 9.99002 11.464V11.992C9.99002 12.0347 10.0087 12.0747 10.046 12.112C10.0834 12.1494 10.1234 12.168 10.166 12.168H11.734C11.7874 12.168 11.838 12.184 11.886 12.216C11.934 12.248 11.9634 12.2854 11.974 12.328L14.918 19.032C14.9287 19.0747 14.958 19.112 15.006 19.144C15.054 19.176 15.1047 19.192 15.158 19.192H22.118C22.1714 19.192 22.214 19.1734 22.246 19.136C22.278 19.0987 22.294 19.0587 22.294 19.016V18.488C22.294 18.4347 22.278 18.392 22.246 18.36C22.214 18.328 22.1714 18.312 22.118 18.312ZM16.582 20.072C16.2194 20.072 15.91 20.2 15.654 20.456C15.398 20.712 15.27 21.0214 15.27 21.384C15.27 21.7467 15.398 22.0587 15.654 22.32C15.91 22.5814 16.2194 22.712 16.582 22.712C16.9447 22.712 17.2567 22.5814 17.518 22.32C17.7794 22.0587 17.91 21.7467 17.91 21.384C17.91 21.0214 17.782 20.712 17.526 20.456C17.27 20.2 16.9554 20.072 16.582 20.072ZM20.982 20.072C20.6194 20.072 20.3074 20.2 20.046 20.456C19.7847 20.712 19.654 21.0214 19.654 21.384C19.654 21.7467 19.7847 22.0587 20.046 22.32C20.3074 22.5814 20.6194 22.712 20.982 22.712C21.3447 22.712 21.654 22.584 21.91 22.328C22.166 22.072 22.294 21.76 22.294 21.392C22.294 21.024 22.166 20.712 21.91 20.456C21.654 20.2 21.3447 20.072 20.982 20.072ZM23.878 13.048H14.566C14.5127 13.048 14.478 13.064 14.462 13.096C14.446 13.128 14.4434 13.1654 14.454 13.208L14.678 13.768C14.6994 13.8107 14.734 13.848 14.782 13.88C14.83 13.912 14.8754 13.928 14.918 13.928H23.526C23.5687 13.928 23.614 13.912 23.662 13.88C23.71 13.848 23.7447 13.8107 23.766 13.768L23.99 13.208C24.0007 13.1654 23.998 13.128 23.982 13.096C23.966 13.064 23.9314 13.048 23.878 13.048ZM22.47 16.552H15.974C15.9314 16.552 15.8967 16.568 15.87 16.6C15.8434 16.632 15.8407 16.6694 15.862 16.712L16.086 17.272C16.0967 17.3147 16.126 17.352 16.174 17.384C16.222 17.416 16.2727 17.432 16.326 17.432H22.118C22.1714 17.432 22.222 17.416 22.27 17.384C22.318 17.352 22.3474 17.3147 22.358 17.272L22.582 16.712C22.6034 16.6694 22.6007 16.632 22.574 16.6C22.5474 16.568 22.5127 16.552 22.47 16.552ZM23.174 14.792H15.27C15.2274 14.792 15.1927 14.808 15.166 14.84C15.1394 14.872 15.1367 14.9094 15.158 14.952L15.382 15.512C15.3927 15.5547 15.422 15.592 15.47 15.624C15.518 15.656 15.5687 15.672 15.622 15.672H22.822C22.8754 15.672 22.926 15.656 22.974 15.624C23.022 15.592 23.0514 15.5547 23.062 15.512L23.286 14.952C23.3074 14.9094 23.3047 14.872 23.278 14.84C23.2514 14.808 23.2167 14.792 23.174 14.792Z" fill="white"/>
</g>
<defs>
<clipPath id="clip0_1_28">
<rect width="16.02" height="16" fill="white" transform="matrix(1 0 0 -1 9.98001 25)"/>
</clipPath>
</defs>
</svg>
