<svg width="36" height="36" viewBox="0 0 36 36" fill="none" xmlns="http://www.w3.org/2000/svg">
<rect x="0.5" y="0.169922" width="35" height="35" rx="17.5" fill="white"/>
<g clip-path="url(#clip0_1_378)">
<path d="M10.406 17.7619H16.998V19.5219C16.998 19.6393 17.0273 19.7086 17.086 19.7299C17.1447 19.7513 17.2113 19.7193 17.286 19.6339L19.462 17.4579C19.5473 17.3726 19.59 17.2739 19.59 17.1619C19.59 17.0499 19.5473 16.9566 19.462 16.8819L17.286 14.6899C17.2113 14.6153 17.1447 14.5886 17.086 14.6099C17.0273 14.6313 16.998 14.7006 16.998 14.8179V16.5779H10.406C10.2887 16.5779 10.19 16.6179 10.11 16.6979C10.03 16.7779 9.98999 16.8713 9.98999 16.9779V17.3459C9.98999 17.4633 10.03 17.5619 10.11 17.6419C10.19 17.7219 10.2887 17.7619 10.406 17.7619Z" fill="#F7A392"/>
</g>
<defs>
<clipPath id="clip0_1_378">
<rect width="16.02" height="16" fill="white" transform="matrix(1 0 0 -1 9.97998 25.1699)"/>
</clipPath>
</defs>
</svg>
