<svg width="49" height="50" viewBox="0 0 49 50" fill="none" xmlns="http://www.w3.org/2000/svg">
<rect y="0.669922" width="49" height="49" rx="24.5" fill="#F7A392"/>
<g clip-path="url(#clip0_1_398)">
<path d="M20.947 31.326C20.6057 30.878 20.3123 30.4727 20.067 30.11C18.9897 28.5953 18.115 27.1393 17.443 25.742C17.2297 25.294 17.0643 24.91 16.947 24.59C16.787 24.1633 16.6697 23.7633 16.595 23.39C16.2857 21.822 16.6537 20.4513 17.699 19.278C18.691 18.1473 19.9657 17.614 21.523 17.678C22.2163 17.6993 22.8723 17.878 23.491 18.214C24.1097 18.55 24.6323 19.0007 25.059 19.566C25.4857 20.1313 25.7683 20.7553 25.907 21.438C26.0777 22.2807 26.0297 23.118 25.763 23.95C25.3043 25.39 24.5417 26.926 23.475 28.558C23.1657 29.038 22.6803 29.742 22.019 30.67L21.347 31.614C21.3257 31.6353 21.3097 31.654 21.299 31.67C21.2883 31.686 21.2483 31.662 21.179 31.598C21.1097 31.534 21.0323 31.4433 20.947 31.326ZM23.587 22.494C23.5977 22.0993 23.5097 21.7233 23.323 21.366C23.1363 21.0087 22.875 20.7153 22.539 20.486C22.203 20.2567 21.8377 20.1313 21.443 20.11C20.995 20.0887 20.5817 20.1713 20.203 20.358C19.8243 20.5447 19.523 20.814 19.299 21.166C19.075 21.518 18.9523 21.9233 18.931 22.382C18.9097 22.7767 18.9977 23.1527 19.195 23.51C19.3923 23.8673 19.6617 24.1607 20.003 24.39C20.3443 24.6193 20.7123 24.7393 21.107 24.75C21.5443 24.7713 21.9497 24.6887 22.323 24.502C22.6963 24.3153 22.995 24.046 23.219 23.694C23.443 23.342 23.5657 22.942 23.587 22.494Z" fill="white"/>
</g>
<defs>
<clipPath id="clip0_1_398">
<rect width="16.02" height="16" fill="white" transform="matrix(1 0 0 -1 16.48 32.6699)"/>
</clipPath>
</defs>
</svg>
