<svg width="49" height="50" viewBox="0 0 49 50" fill="none" xmlns="http://www.w3.org/2000/svg">
<rect y="0.669922" width="49" height="49" rx="24.5" fill="#F7A392"/>
<g clip-path="url(#clip0_1_410)">
<path d="M23.482 17.6615C22.234 17.6615 21.0714 17.9761 19.994 18.6055C18.9487 19.2135 18.1114 20.0348 17.482 21.0695C16.842 22.1255 16.5114 23.2721 16.49 24.5095C16.4687 25.7895 16.7674 26.9841 17.386 28.0935C17.9834 29.1708 18.8047 30.0295 19.85 30.6695C20.9274 31.3201 22.1007 31.6561 23.37 31.6775C24.6714 31.6881 25.8767 31.3735 26.986 30.7335C28.0314 30.1255 28.8687 29.2935 29.498 28.2375C30.1274 27.1815 30.4527 26.0401 30.474 24.8135C30.4954 23.5228 30.1914 22.3228 29.562 21.2135C28.9434 20.1361 28.1007 19.2775 27.034 18.6375C25.946 17.9868 24.762 17.6615 23.482 17.6615ZM23.53 30.2695C22.506 30.2695 21.5514 30.0188 20.666 29.5175C19.8234 29.0268 19.1514 28.3548 18.65 27.5015C18.138 26.6375 17.882 25.6961 17.882 24.6775C17.882 23.6588 18.138 22.7121 18.65 21.8375C19.1407 20.9948 19.8074 20.3281 20.65 19.8375C21.5247 19.3255 22.4687 19.0695 23.482 19.0695C24.4954 19.0695 25.434 19.3255 26.298 19.8375C27.1407 20.3281 27.8127 20.9948 28.314 21.8375C28.826 22.7121 29.082 23.6561 29.082 24.6695C29.082 25.6508 28.8394 26.5681 28.354 27.4215C27.8687 28.2748 27.21 28.9575 26.378 29.4695C25.5034 29.9921 24.554 30.2588 23.53 30.2695ZM23.962 20.4775H23.018C22.986 20.4775 22.9594 20.4881 22.938 20.5095C22.9167 20.5308 22.906 20.5575 22.906 20.5895V23.9495C22.906 23.9815 22.8927 24.0081 22.866 24.0295C22.8394 24.0508 22.81 24.0615 22.778 24.0615H20.634C20.602 24.0615 20.5754 24.0721 20.554 24.0935C20.5327 24.1148 20.522 24.1415 20.522 24.1735V25.1335C20.522 25.1655 20.5327 25.1921 20.554 25.2135C20.5754 25.2348 20.602 25.2455 20.634 25.2455H23.962C23.994 25.2455 24.0207 25.2348 24.042 25.2135C24.0634 25.1921 24.074 25.1655 24.074 25.1335V20.5895C24.074 20.5575 24.0634 20.5308 24.042 20.5095C24.0207 20.4881 23.994 20.4775 23.962 20.4775Z" fill="white"/>
</g>
<defs>
<clipPath id="clip0_1_410">
<rect width="16.02" height="16" fill="white" transform="matrix(1 0 0 -1 16.48 32.6699)"/>
</clipPath>
</defs>
</svg>
