<svg width="36" height="36" viewBox="0 0 36 36" fill="none" xmlns="http://www.w3.org/2000/svg">
<rect x="0.5" y="0.800049" width="35" height="35" rx="17.5" fill="#F7A392"/>
<g clip-path="url(#clip0_1_89)">
<path d="M10.406 18.3921H16.998V20.1521C16.998 20.2694 17.0273 20.3387 17.086 20.3601C17.1447 20.3814 17.2113 20.3494 17.286 20.2641L19.462 18.0881C19.5473 18.0027 19.59 17.9041 19.59 17.7921C19.59 17.6801 19.5473 17.5867 19.462 17.5121L17.286 15.3201C17.2113 15.2454 17.1447 15.2187 17.086 15.2401C17.0273 15.2614 16.998 15.3307 16.998 15.4481V17.2081H10.406C10.2887 17.2081 10.19 17.2481 10.11 17.3281C10.03 17.4081 9.98999 17.5014 9.98999 17.6081V17.9761C9.98999 18.0934 10.03 18.1921 10.11 18.2721C10.19 18.3521 10.2887 18.3921 10.406 18.3921Z" fill="white"/>
</g>
<defs>
<clipPath id="clip0_1_89">
<rect width="16.02" height="16" fill="white" transform="matrix(1 0 0 -1 9.98 25.8)"/>
</clipPath>
</defs>
</svg>
