<svg width="38" height="38" viewBox="0 0 38 38" fill="none" xmlns="http://www.w3.org/2000/svg">
<rect x="0.330017" y="0.47998" width="37" height="37" rx="18.5" fill="#F7A392"/>
<g clip-path="url(#clip0_1_189)">
<path d="M17.696 10.596C16.292 10.596 14.984 10.95 13.772 11.658C12.596 12.342 11.654 13.266 10.946 14.43C10.226 15.618 9.85402 16.908 9.83002 18.3C9.80602 19.74 10.142 21.084 10.838 22.332C11.51 23.544 12.434 24.51 13.61 25.23C14.822 25.962 16.142 26.34 17.57 26.364C19.034 26.376 20.39 26.022 21.638 25.302C22.814 24.618 23.756 23.682 24.464 22.494C25.172 21.306 25.538 20.022 25.562 18.642C25.586 17.19 25.244 15.84 24.536 14.592C23.84 13.38 22.892 12.414 21.692 11.694C20.468 10.962 19.136 10.596 17.696 10.596ZM17.75 24.78C16.598 24.78 15.524 24.498 14.528 23.934C13.58 23.382 12.824 22.626 12.26 21.666C11.684 20.694 11.396 19.635 11.396 18.489C11.396 17.343 11.684 16.278 12.26 15.294C12.812 14.346 13.562 13.596 14.51 13.044C15.494 12.468 16.556 12.18 17.696 12.18C18.836 12.18 19.892 12.468 20.864 13.044C21.812 13.596 22.568 14.346 23.132 15.294C23.708 16.278 23.996 17.34 23.996 18.48C23.996 19.584 23.723 20.616 23.177 21.576C22.631 22.536 21.89 23.304 20.954 23.88C19.97 24.468 18.902 24.768 17.75 24.78ZM18.236 13.764H17.174C17.138 13.764 17.108 13.776 17.084 13.8C17.06 13.824 17.048 13.854 17.048 13.89V17.67C17.048 17.706 17.033 17.736 17.003 17.76C16.973 17.784 16.94 17.796 16.904 17.796H14.492C14.456 17.796 14.426 17.808 14.402 17.832C14.378 17.856 14.366 17.886 14.366 17.922V19.002C14.366 19.038 14.378 19.068 14.402 19.092C14.426 19.116 14.456 19.128 14.492 19.128H18.236C18.272 19.128 18.302 19.116 18.326 19.092C18.35 19.068 18.362 19.038 18.362 19.002V13.89C18.362 13.854 18.35 13.824 18.326 13.8C18.302 13.776 18.272 13.764 18.236 13.764Z" fill="white"/>
</g>
<defs>
<clipPath id="clip0_1_189">
<rect width="18" height="18" fill="white" transform="matrix(1 0 0 -1 9.83002 27.48)"/>
</clipPath>
</defs>
</svg>
